<?xml version="1.0" encoding="UTF-8"?>
<svg version="1.1" xmlns="http://www.w3.org/2000/svg" width="512" height="512">
<path d="M0 0 C0.96897217 0.51167725 0.96897217 0.51167725 1.95751953 1.03369141 C29.18154873 15.41961085 54.58580919 36.21549453 73 61 C73.45681152 61.61278809 73.91362305 62.22557617 74.38427734 62.85693359 C81.75851228 72.81946029 88.21508932 83.04501328 94 94 C94.50974365 94.93996826 94.50974365 94.93996826 95.02978516 95.89892578 C105.2379864 114.75797954 111.59174739 135.07063199 116 156 C116.17934082 156.83241211 116.35868164 157.66482422 116.54345703 158.52246094 C125.50015978 202.37205831 118.15944191 250.5602883 100 291 C99.45351807 292.21864746 99.45351807 292.21864746 98.89599609 293.46191406 C89.41298871 314.22410759 76.51920036 332.8196712 61.140625 349.63671875 C59.27147093 351.70029213 57.47676638 353.80514613 55.6875 355.9375 C41.55476719 372.03400661 23.4673098 384.42969994 5 395 C4.34789551 395.37495605 3.69579102 395.74991211 3.02392578 396.13623047 C-4.08194477 400.18077261 -11.36846344 403.75919799 -18.875 407 C-19.55248291 407.30325195 -20.22996582 407.60650391 -20.92797852 407.91894531 C-26.73479764 410.3297774 -32.35809926 410.97193583 -38.48828125 409.3359375 C-44.03849801 406.41226871 -46.97334905 403.07995286 -49 397 C-49.57439454 391.14117566 -48.41252162 386.74232947 -45 382 C-40.73703532 377.8595343 -35.73179765 376.0508669 -30.3125 373.875 C16.49542104 354.388301 52.67543452 317.43141177 72.16162109 270.59619141 C76.34883462 260.00726972 79.35050276 249.06174337 82 238 C82.1949707 237.19643066 82.38994141 236.39286133 82.59082031 235.56494141 C93.29582027 188.76382783 81.40109177 136.50562497 56.49560547 96.32080078 C50.46086495 86.95641237 43.53540905 78.23436684 35.9375 70.09375 C34.24246296 68.26201643 32.68280791 66.38475988 31.125 64.4375 C27.0189366 59.62271881 21.95524797 55.89386583 17 52 C16.03191406 51.20464844 15.06382812 50.40929687 14.06640625 49.58984375 C-25.42256306 17.84775504 -78.2519612 3.81432171 -128.28515625 9.24609375 C-144.00543432 11.17285081 -159.33473698 15.03633249 -174 21 C-175.10335693 21.44666016 -175.10335693 21.44666016 -176.22900391 21.90234375 C-225.20977278 42.03342931 -262.72040958 81.66052072 -283.125 130.1875 C-301.28897572 177.25545888 -300.1198133 229.96450444 -280.00292969 276.29638672 C-278.15915059 280.31942814 -276.14901641 284.23537822 -274.02539062 288.1171875 C-272.97565183 290.04470789 -271.96370607 291.98920708 -270.953125 293.9375 C-262.84392073 309.26946213 -252.00410897 322.55456349 -240 335 C-239.1646875 335.89847656 -238.329375 336.79695313 -237.46875 337.72265625 C-223.32325311 352.52856038 -206.21432846 363.25427504 -188.25 372.8125 C-186.93660645 373.51560303 -186.93660645 373.51560303 -185.59667969 374.23291016 C-177.40430614 378.5150759 -169.96372165 381.5755535 -160.625 381.4375 C-159.88967041 381.42920166 -159.15434082 381.42090332 -158.39672852 381.41235352 C-149.13712201 381.12733331 -141.5421195 378.54060768 -134.78125 372.04296875 C-123.57216921 359.18693969 -123.58692003 345.53447112 -123.8125 329.375 C-123.82757144 327.49350027 -123.8412555 325.6119889 -123.85351562 323.73046875 C-123.88633247 319.1533547 -123.93797933 314.57680769 -124 310 C-124.84997559 309.75403076 -125.69995117 309.50806152 -126.57568359 309.25463867 C-148.1682509 302.84047497 -166.11884324 290.40526539 -177.24926758 270.390625 C-185.58272221 254.75191045 -187.31705858 240.22793444 -187.30078125 222.85546875 C-187.30467593 221.1143636 -187.30901217 219.37325939 -187.31376648 217.63215637 C-187.32118482 214.00384419 -187.32096735 210.37562944 -187.31567383 206.74731445 C-187.30985354 202.10599498 -187.32689279 197.46507125 -187.3500185 192.82381725 C-187.36476145 189.23696071 -187.36562732 185.65019973 -187.36250877 182.06331825 C-187.36302067 180.35175092 -187.36823358 178.64017805 -187.37832069 176.92864037 C-187.3906931 174.53834619 -187.38389156 172.14882718 -187.37231445 169.75854492 C-187.37995819 169.05868973 -187.38760193 168.35883453 -187.39547729 167.63777161 C-187.34633971 163.03478302 -186.40839786 159.91317786 -184 156 C-179.86453116 152.26799154 -177.50474743 150.87066237 -171.9921875 150.90234375 C-171.00605469 150.90556641 -170.01992187 150.90878906 -169.00390625 150.91210938 C-167.97136719 150.92048828 -166.93882812 150.92886719 -165.875 150.9375 C-164.31458984 150.94426758 -164.31458984 150.94426758 -162.72265625 150.95117188 C-160.14838038 150.96298048 -157.57421854 150.97944925 -155 151 C-155.00999275 150.02400345 -155.00999275 150.02400345 -155.02018738 149.02828979 C-155.08663164 142.24742582 -155.13183853 135.46665457 -155.16479492 128.68554688 C-155.17986786 126.15588626 -155.20032961 123.62625171 -155.22631836 121.09667969 C-155.26276616 117.45761677 -155.2797417 113.81889984 -155.29296875 110.1796875 C-155.30845261 109.05134491 -155.32393646 107.92300232 -155.33988953 106.76046753 C-155.34109575 101.11432336 -155.3172084 96.81525479 -152 92 C-146.37148968 86.92061264 -142.6632252 86.65726537 -135.2109375 86.71484375 C-129.91020809 87.18558979 -127.72904072 89.092093 -124.1875 93 C-122.0241282 96.64357355 -121.87633202 100.04879152 -121.88647461 104.22753906 C-121.88655014 105.26831604 -121.88662567 106.30909302 -121.88670349 107.38140869 C-121.89186478 108.49820007 -121.89702606 109.61499146 -121.90234375 110.765625 C-121.90446617 112.48842682 -121.90446617 112.48842682 -121.90663147 114.24603271 C-121.91222857 117.91404831 -121.92478056 121.58200285 -121.9375 125.25 C-121.94251537 127.73697829 -121.94707822 130.22395753 -121.95117188 132.7109375 C-121.9613461 138.80733411 -121.98092225 144.90359871 -122 151 C-111.77 151 -101.54 151 -91 151 C-91.03480469 147.24367187 -91.06960938 143.48734375 -91.10546875 139.6171875 C-91.12887468 135.97331502 -91.14708543 132.32945096 -91.16479492 128.68554688 C-91.17986786 126.15588626 -91.20032961 123.62625171 -91.22631836 121.09667969 C-91.26276616 117.45761677 -91.2797417 113.81889984 -91.29296875 110.1796875 C-91.30845261 109.05134491 -91.32393646 107.92300232 -91.33988953 106.76046753 C-91.34109575 101.11432336 -91.3172084 96.81525479 -88 92 C-82.37148968 86.92061264 -78.6632252 86.65726537 -71.2109375 86.71484375 C-65.91020809 87.18558979 -63.72904072 89.092093 -60.1875 93 C-58.0241282 96.64357355 -57.87633202 100.04879152 -57.88647461 104.22753906 C-57.88655014 105.26831604 -57.88662567 106.30909302 -57.88670349 107.38140869 C-57.89186478 108.49820007 -57.89702606 109.61499146 -57.90234375 110.765625 C-57.90446617 112.48842682 -57.90446617 112.48842682 -57.90663147 114.24603271 C-57.91222857 117.91404831 -57.92478056 121.58200285 -57.9375 125.25 C-57.94251537 127.73697829 -57.94707822 130.22395753 -57.95117188 132.7109375 C-57.96219705 138.8073125 -57.97893231 144.90365189 -58 151 C-57.36497559 150.97905273 -56.72995117 150.95810547 -56.07568359 150.93652344 C-53.17561924 150.85295419 -50.27580884 150.80121226 -47.375 150.75 C-46.37597656 150.71648437 -45.37695312 150.68296875 -44.34765625 150.6484375 C-38.1974513 150.56697783 -34.67900954 150.89160138 -30 155 C-25.77089311 159.66660071 -25.87118571 164.05832787 -25.83886719 170.19262695 C-25.83390228 170.91038803 -25.82893738 171.62814911 -25.82382202 172.36766052 C-25.80922851 174.74121063 -25.80239878 177.11469364 -25.796875 179.48828125 C-25.79404762 180.30436544 -25.79122025 181.12044964 -25.78830719 181.96126366 C-25.77331633 186.29034116 -25.7640896 190.61938543 -25.75976562 194.94848633 C-25.75431878 199.38171746 -25.73037163 203.81463554 -25.70179367 208.24776936 C-25.68298194 211.68744223 -25.67795169 215.127043 -25.67642975 218.56676292 C-25.67343807 220.19833248 -25.66553043 221.82990186 -25.65224457 223.46142006 C-25.46533724 248.20493085 -32.15082683 270.35035254 -49.43359375 288.625 C-60.92975822 299.26376407 -74.00756032 305.68641841 -89 310 C-89.01458252 311.19898926 -89.02916504 312.39797852 -89.04418945 313.63330078 C-89.10283981 318.14757845 -89.18005874 322.66139146 -89.26245117 327.17529297 C-89.29539045 329.11662162 -89.32351515 331.05803893 -89.34643555 332.99951172 C-89.62906123 356.31913722 -93.40660817 377.03970451 -110.0625 394.625 C-125.26370327 409.1815558 -142.57188706 415.68722733 -163.51953125 415.33203125 C-171.22717069 415.00938588 -177.89698053 412.8763085 -185 410 C-185.78810059 409.69416992 -186.57620117 409.38833984 -187.38818359 409.07324219 C-207.14231076 401.36375654 -225.34892929 391.12951175 -242 378 C-242.9590625 377.25234375 -243.918125 376.5046875 -244.90625 375.734375 C-290.71187366 339.14252621 -321.6379618 285.41715613 -328.359375 226.86962891 C-334.35388558 167.37946365 -319.29824112 108.2179861 -282 61 C-281.29359375 60.10023437 -280.5871875 59.20046875 -279.859375 58.2734375 C-271.70494082 48.09506103 -263.0508382 38.33617615 -253 30 C-252.09378906 29.19433594 -251.18757813 28.38867188 -250.25390625 27.55859375 C-236.89275654 15.75046913 -221.78123977 6.23893578 -206 -2 C-205.35305176 -2.3398291 -204.70610352 -2.6796582 -204.03955078 -3.02978516 C-141.63442483 -35.32107899 -61.50863154 -33.35605655 0 0 Z " fill="#000000" transform="translate(361,57)"/>
</svg>
