<?xml version="1.0" standalone="no"?>
<!DOCTYPE svg PUBLIC "-//W3C//DTD SVG 20010904//EN"
 "http://www.w3.org/TR/2001/REC-SVG-20010904/DTD/svg10.dtd">
<svg version="1.0" xmlns="http://www.w3.org/2000/svg"
 width="512.000000pt" height="512.000000pt" viewBox="0 0 512.000000 512.000000"
 preserveAspectRatio="xMidYMid meet">

<g transform="translate(0.000000,512.000000) scale(0.100000,-0.100000)"
fill="#000000" stroke="none">
<path d="M2798 5051 c-136 -36 -250 -69 -253 -72 -5 -6 32 -158 41 -168 3 -3
505 129 513 135 3 3 -6 44 -30 137 -5 20 -13 37 -17 36 -4 -1 -118 -31 -254
-68z"/>
<path d="M770 4980 l0 -90 268 2 267 3 3 88 3 87 -271 0 -270 0 0 -90z"/>
<path d="M2890 4704 c-376 -102 -686 -187 -688 -189 -5 -4 77 -317 87 -334 4
-7 248 54 696 174 379 102 690 186 691 188 4 4 -90 347 -95 346 -3 0 -314 -84
-691 -185z"/>
<path d="M327 4713 c-4 -3 -7 -84 -7 -180 l0 -173 720 0 720 0 -2 178 -3 177
-711 3 c-391 1 -714 -1 -717 -5z"/>
<path d="M3015 4178 c-368 -99 -672 -182 -674 -184 -5 -4 919 -3457 928 -3465
3 -4 303 73 666 171 363 97 672 180 688 184 15 3 27 13 27 20 0 8 -207 786
-460 1731 -253 944 -460 1718 -460 1721 0 12 -103 -13 -715 -178z m143 -188
c22 -21 34 -53 73 -207 13 -51 29 -93 35 -93 7 0 74 16 149 35 136 35 138 35
169 17 59 -35 60 -107 0 -147 -16 -11 -83 -33 -148 -50 -65 -16 -120 -35 -123
-41 -2 -6 12 -72 31 -147 38 -147 38 -171 -6 -201 -12 -9 -37 -16 -56 -16 -55
0 -74 30 -111 175 -19 72 -37 134 -41 138 -4 5 -68 -8 -142 -27 -74 -20 -141
-36 -150 -36 -9 0 -30 12 -47 26 -25 20 -31 34 -31 64 0 58 34 80 184 120 70
18 129 37 132 41 2 5 -12 69 -32 143 -22 83 -34 146 -30 161 15 61 99 87 144
45z m1120 -2782 c30 -29 30 -91 0 -121 -18 -17 -108 -45 -391 -121 -411 -109
-412 -109 -445 -39 -19 40 -9 77 28 104 34 25 728 210 760 203 14 -3 35 -15
48 -26z"/>
<path d="M320 2380 l0 -1800 720 0 720 0 -2 1797 -3 1798 -717 3 -718 2 0
-1800z m771 1597 c33 -25 39 -55 39 -195 l0 -140 148 -4 c156 -3 181 -10 201
-55 17 -37 13 -59 -15 -92 l-26 -31 -154 0 -154 0 0 -149 c0 -146 -1 -150 -26
-180 -20 -24 -34 -31 -62 -31 -79 1 -92 32 -92 214 l0 146 -153 0 c-140 0
-155 2 -175 20 -31 29 -38 66 -19 105 22 45 60 55 220 55 l127 0 0 140 c0 142
10 190 42 203 24 10 83 6 99 -6z m338 -2958 c63 -22 77 -107 24 -149 -25 -19
-40 -20 -415 -20 l-390 0 -29 29 c-32 32 -36 55 -17 97 23 51 43 53 434 54
239 0 372 -4 393 -11z"/>
<path d="M4006 534 c-373 -100 -681 -185 -684 -188 -6 -6 76 -327 87 -338 4
-5 1324 342 1377 363 14 5 -76 350 -91 348 -5 -1 -315 -84 -689 -185z"/>
<path d="M320 220 l0 -180 720 0 720 0 0 180 0 180 -720 0 -720 0 0 -180z"/>
</g>
</svg>
