<svg width="26" height="26" viewBox="0 0 26 26" fill="none" xmlns="http://www.w3.org/2000/svg">
<path d="M20.9741 0.0291108C20.887 0.0639322 19.9642 1.12599 19.9642 1.18982C19.9642 1.25947 24.4446 5.73982 24.5142 5.73982C24.5723 5.73982 25.0714 5.32197 25.4602 4.95054C25.6575 4.76482 25.7098 4.67197 25.7098 4.51527C25.7098 4.33536 25.5415 4.15545 23.545 2.15902C21.6415 0.25545 21.3629 -0.00571062 21.212 9.29548e-05C21.1133 9.29548e-05 21.0089 0.0175037 20.9741 0.0291108Z" fill="#EB3135"/>
<path d="M16.5459 5.15932C15.0312 6.94682 13.7544 8.46736 13.7138 8.537C13.6732 8.61245 13.6442 8.78655 13.6383 8.93164C13.6383 9.17539 13.6848 9.28566 13.9401 9.63968C14.004 9.73253 13.9459 9.80798 13.4817 10.2781C13.1915 10.5741 12.9361 10.8758 12.9129 10.9455C12.8955 11.0151 12.9129 11.1428 12.9651 11.2357C13.0928 11.4852 14.4044 12.7504 14.5785 12.791C14.7933 12.8491 14.9383 12.7562 15.5071 12.1932L16.012 11.6941L16.1455 11.816C16.4589 12.1004 16.8883 12.1526 17.2308 11.9437C17.341 11.8799 18.4785 10.9339 19.7553 9.8428C21.0379 8.75173 22.4366 7.562 22.866 7.19637C23.2955 6.83075 23.6901 6.49414 23.7366 6.45352C23.812 6.38968 23.5102 6.06468 21.5892 4.1437C20.3589 2.91334 19.3433 1.90932 19.3258 1.91512C19.3084 1.91512 18.0549 3.37762 16.5459 5.15932ZM19.5 5.80932C20.2022 6.16334 20.179 7.21378 19.4535 7.93343C19.1169 8.27584 18.641 8.48477 18.2232 8.48477C17.6022 8.48477 17.283 8.17137 17.2482 7.53298C17.2192 7.05128 17.3468 6.73789 17.7415 6.31423C18.287 5.72807 18.9544 5.53655 19.5 5.80932Z" fill="#EB3135"/>
<path d="M11.4737 13.1626C10.9397 13.772 10.4929 14.335 10.4696 14.4104C10.429 14.5845 10.5625 14.8515 10.7946 15.0488C11.021 15.2345 11.2299 15.2926 11.3924 15.2113C11.5201 15.1533 13.5978 13.36 13.6268 13.2903C13.6326 13.2729 13.3656 12.9827 13.0348 12.6519L12.437 12.0542L11.4737 13.1626Z" fill="#EB3135"/>
<path d="M0.145089 16.8536L0 16.9929V21.3514V25.7098L0.145089 25.8491C0.278571 25.9884 0.307589 25.9942 1.16071 25.9942C2.01384 25.9942 2.04286 25.9884 2.17634 25.8491L2.32143 25.7098V21.3514V16.9929L2.17634 16.8536C2.04286 16.7143 2.01384 16.7085 1.16071 16.7085C0.307589 16.7085 0.278571 16.7143 0.145089 16.8536Z" fill="#EB3135"/>
<path d="M10.0924 17.103C9.07674 18.5771 8.90264 19.4419 9.4946 20.0396C9.96469 20.5097 10.6553 20.5445 11.166 20.1209C11.8741 19.5347 11.7116 18.5771 10.6379 17.0682C10.4986 16.8709 10.3767 16.7084 10.3709 16.7084C10.3651 16.7084 10.2375 16.8825 10.0924 17.103Z" fill="#EB3135"/>
<path d="M23.8237 16.8536L23.6786 16.9929V21.3514V25.7098L23.8237 25.8491C23.9572 25.9884 23.9862 25.9942 24.8393 25.9942C25.6924 25.9942 25.7214 25.9884 25.8549 25.8491L26 25.7098V21.3514V16.9929L25.8549 16.8536C25.7214 16.7143 25.6924 16.7085 24.8393 16.7085C23.9862 16.7085 23.9572 16.7143 23.8237 16.8536Z" fill="#EB3135"/>
<path d="M3.25 21.3515V25.0658H3.80134C4.31205 25.0658 4.37009 25.0541 4.49777 24.9207L4.64286 24.7814V21.3515V17.9216L4.49777 17.7823C4.37009 17.6488 4.31205 17.6372 3.80134 17.6372H3.25V21.3515Z" fill="#EB3135"/>
<path d="M21.5023 17.7823L21.3572 17.9216V21.3515V24.7814L21.5023 24.9207C21.6299 25.0541 21.688 25.0658 22.1987 25.0658H22.75V21.3515V17.6372H22.1987C21.688 17.6372 21.6299 17.6488 21.5023 17.7823Z" fill="#EB3135"/>
<path d="M5.57141 21.3513V24.137H13H20.4286V21.3513V18.5656H16.4647H12.5009L12.5067 19.1286C12.5067 19.5522 12.4777 19.767 12.4022 19.9585C11.9147 21.1482 10.5567 21.6763 9.42498 21.1192C8.61248 20.7187 8.08436 19.7379 8.24105 18.9138C8.27007 18.7687 8.29329 18.6353 8.29909 18.6062C8.29909 18.583 7.68391 18.5656 6.93525 18.5656H5.57141V21.3513Z" fill="#EB3135"/>
</svg>
