<svg version="1.1" id="svg2" xmlns="http://www.w3.org/2000/svg" x="0" y="0" viewBox="0 0 1500 351.1" style="enable-background:new 0 0 1500 351.1" xml:space="preserve"><style>.st1{fill:#fff}</style><path id="rect1731-0-4" style="fill-rule:evenodd;clip-rule:evenodd;fill:#c80913" d="M0 0h1500v351.1H0z"/><g id="g212-4-4-0" transform="translate(4097.038 1674.638) scale(14.1102)"><path id="path214-9-9-8" class="st1" d="M-281.9-112.7h3.3l-1.9 10h4.9l-.5 2.8h-8.2l2.4-12.8z"/></g><g transform="translate(1999.859 389.821) scale(14.1102)" id="g216-9-6-1"><g id="g218-5-3-9"><g id="g224-8-7-5" transform="translate(169.487 67.13)"><path id="path226-9-8-0" class="st1" d="M-291.4-75.7c-3.4 0-5.4-2.3-5.4-5.4 0-2.3.9-4.6 2.4-6 1.3-1.2 3-1.9 4.9-1.9 3.4 0 5.4 2.2 5.4 5.4 0 2.4-.8 4.6-2.3 6-1.2 1.2-2.9 1.9-5 1.9zm.5-2.7c.7 0 1.3-.3 1.8-.8.9-.9 1.5-2.9 1.5-4.3 0-1.5-.6-2.8-2.3-2.8-.8 0-1.4.3-1.9.8-.9.9-1.5 2.8-1.5 4.3 0 1.7.8 2.8 2.4 2.8z"/></g><g id="g228-8-8-2" transform="translate(186.102 90.601)"><path id="path230-4-7-4" class="st1" d="M-298.9-112c.9-.2 2.3-.3 3.8-.3 1.2 0 2.6.1 3.6.7.9.5 1.6 1.3 1.6 2.7 0 1.9-1.2 3-2.9 3.6v.1c.7.4 1 1.1 1.2 2.3.2 1.3.3 3.2.5 3.7h-3.4c-.1-.4-.2-1.4-.4-3-.1-1.5-.6-1.8-1.6-1.8h-.6l-.9 4.8h-3.3l2.4-12.8zm2.2 5.4h1c1.3 0 2.3-.7 2.3-1.9 0-.9-.8-1.3-1.8-1.3-.5 0-.8 0-1 .1l-.5 3.1z"/></g></g></g><g id="g232-3-2-4" transform="translate(5063.746 1476.997) scale(14.1102)"><path id="path234-9-1-1" class="st1" d="M-313-91h-4.6l-.5 2.4h5.2l-.5 2.8h-8.4l2.5-12.9h8.2l-.5 2.8h-4.9l-.4 2.1h4.6l-.7 2.8z"/></g><g transform="translate(1999.859 389.82) scale(14.1102)" id="g236-4-2-7"><g id="g238-4-4-2"><g id="g244-8-7-7" transform="translate(217.668 67.514)"><path id="path246-8-5-2" class="st1" d="m-313.2-76.3 2.5-12.9h3.9l1.2 3.9c.5 1.7.9 3.2 1.2 4.7h.1c.1-1.4.3-2.9.6-4.9l.7-3.8h3.1l-2.5 12.9h-3.5l-1.3-4.2c-.5-1.8-.9-3.1-1.3-4.8h-.1c-.2 1.3-.5 3.3-.9 5.5l-.7 3.5h-3z"/></g></g></g><g id="g248-3-1-3" transform="translate(5367.028 1390.247) scale(14.1102)"><path id="path250-5-7-8" class="st1" d="m-322.7-81.5 7-8.2v-.1h-4.9l.5-2.8h9.3l-.4 2-6.8 8v.1h5.4l-.5 2.8h-10l.4-1.8z"/></g><g id="g252-1-8-0" transform="translate(5858.835 1476.997) scale(14.1102)"><path id="path254-1-2-1" class="st1" d="M-338.5-91h-4.6l-.5 2.4h5.2l-.5 2.8h-8.4l2.5-12.9h8.1l-.4 2.8h-4.9l-.4 2.1h4.6l-.7 2.8z"/></g><g id="g256-2-7-2" transform="translate(5985.845 1601.18) scale(14.1102)"><path id="path258-0-2-7" class="st1" d="M-342.6-104.6h-3.3l.6-2.8h8.6l-.6 2.8h-2l-1.9 10h-3.3l1.9-10z"/></g><g id="g260-4-0-4" transform="translate(6186.931 1601.18) scale(14.1102)"><path id="path262-8-4-0" class="st1" d="M-349.1-104.6h-1.9l.6-2.8h8.5l-.6 2.8h-3.3l-1.9 10h-3.3l1.9-10z"/></g><g id="g264-1-5-4" transform="translate(6468.894 1674.638) scale(14.1102)"><path id="path266-9-6-5" class="st1" d="m-358.1-112.7-2.5 12.9h-3.3l2.5-12.9h3.3z"/></g></svg>