<?xml version="1.0" encoding="UTF-8"?>
<svg version="1.1" xmlns="http://www.w3.org/2000/svg" width="154" height="29">
<path d="M0 0 C50.82 0 101.64 0 154 0 C154 9.57 154 19.14 154 29 C103.18 29 52.36 29 0 29 C0 19.43 0 9.86 0 0 Z " fill="#012B47" transform="translate(0,0)"/>
<path d="M0 0 C50.82 0 101.64 0 154 0 C154 2.64 154 5.28 154 8 C103.18 8 52.36 8 0 8 C0 5.36 0 2.72 0 0 Z " fill="#E8AE10" transform="translate(0,21)"/>
<path d="M0 0 C1.99954746 -0.04254356 4.00041636 -0.04080783 6 0 C6.33 0.33 6.66 0.66 7 1 C7.66 1 8.32 1 9 1 C9 0.67 9 0.34 9 0 C12.3 0 15.6 0 19 0 C19 1.65 19 3.3 19 5 C19.66 5 20.32 5 21 5 C21 3.35 21 1.7 21 0 C22.65 0 24.3 0 26 0 C25.67 1.98 25.34 3.96 25 6 C25.99 5.34 26.98 4.68 28 4 C28 2.68 28 1.36 28 0 C29.98 0 31.96 0 34 0 C34.495 1.485 34.495 1.485 35 3 C35 2.01 35 1.02 35 0 C36.98 0 38.96 0 41 0 C41.495 1.485 41.495 1.485 42 3 C42.33 2.01 42.66 1.02 43 0 C43.99 0 44.98 0 46 0 C46 1.98 46 3.96 46 6 C46.66 6 47.32 6 48 6 C48 4.02 48 2.04 48 0 C48.99 0 49.98 0 51 0 C51 1.98 51 3.96 51 6 C51.33 5.67 51.66 5.34 52 5 C52 3.35 52 1.7 52 0 C59.26 0 66.52 0 74 0 C74 2.31 74 4.62 74 7 C48.59 7 23.18 7 -3 7 C-1.68 6.01 -0.36 5.02 1 4 C0.67 2.68 0.34 1.36 0 0 Z " fill="#ECB10D" transform="translate(80,22)"/>
<path d="M0 0 C25.41 0 50.82 0 77 0 C77 0.33 77 0.66 77 1 C69.74 1 62.48 1 55 1 C55 2.65 55 4.3 55 6 C55.66 6.33 56.32 6.66 57 7 C56.01 7 55.02 7 54 7 C54 5.02 54 3.04 54 1 C53.01 1 52.02 1 51 1 C51 2.98 51 4.96 51 7 C50.34 7 49.68 7 49 7 C49 5.02 49 3.04 49 1 C48.01 1 47.02 1 46 1 C46 2.65 46 4.3 46 6 C45.01 5.34 44.02 4.68 43 4 C43 3.34 43 2.68 43 2 C40.525 1.505 40.525 1.505 38 1 C38.66 2.98 39.32 4.96 40 7 C38.68 6.34 37.36 5.68 36 5 C36.33 3.68 36.66 2.36 37 1 C35.35 1.33 33.7 1.66 32 2 C32 3.65 32 5.3 32 7 C30.68 7 29.36 7 28 7 C28 5.35 28 3.7 28 2 C27.01 2 26.02 2 25 2 C24.67 3.65 24.34 5.3 24 7 C23.01 6.67 22.02 6.34 21 6 C21 4.68 21 3.36 21 2 C18.36 2 15.72 2 13 2 C12.67 3.32 12.34 4.64 12 6 C11.34 5.01 10.68 4.02 10 3 C9.01 4.485 9.01 4.485 8 6 C8 4.68 8 3.36 8 2 C6.68 2 5.36 2 4 2 C4 3.32 4 4.64 4 6 C2.68 6.33 1.36 6.66 0 7 C0 4.69 0 2.38 0 0 Z " fill="#A88A24" transform="translate(77,21)"/>
<path d="M0 0 C2.4375 1.625 2.4375 1.625 4 4 C4.60226822 7.61360931 4.49849691 9.26222457 2.4375 12.3125 C-0.84603384 14.58571574 -3.00797809 15.07003547 -7 15 C-10 13 -10 13 -12 10 C-12.06584389 6.18105459 -11.85572029 4.02028188 -9.375 1.0625 C-6.02317947 -0.43699866 -3.63019782 -0.45377473 0 0 Z " fill="#DFE3E6" transform="translate(29,3)"/>
<path d="M0 0 C6.0546875 -0.1953125 6.0546875 -0.1953125 8 0 C8.66 0.66 9.32 1.32 10 2 C9.625 4 9.625 4 9 6 C8.900575 8.03107031 8.900575 8.03107031 9.625 10 C9.74875 10.66 9.8725 11.32 10 12 C8 14 8 14 6.0546875 14.1953125 C4.03645833 14.13020833 2.01822917 14.06510417 0 14 C0 9.38 0 4.76 0 0 Z " fill="#9CA5B0" transform="translate(77,3)"/>
<path d="M0 0 C7 0 7 0 9 1 C9.125 3.375 9.125 3.375 9 6 C8.34 6.66 7.68 7.32 7 8 C7.99 9.98 8.98 11.96 10 14 C8.68 14 7.36 14 6 14 C5.34 12.68 4.68 11.36 4 10 C3.67 11.32 3.34 12.64 3 14 C2.01 14 1.02 14 0 14 C0 9.38 0 4.76 0 0 Z " fill="#F7F8F8" transform="translate(50,3)"/>
<path d="M0 0 C2.5 0.1875 2.5 0.1875 5 1 C7 4 7 4 6.75 7.0625 C6 10 6 10 4 12 C1.375 12.125 1.375 12.125 -1 12 C-2.11445498 9.77109005 -2.16480286 8.46944894 -2.1875 6 C-2.20167969 5.29875 -2.21585938 4.5975 -2.23046875 3.875 C-2 2 -2 2 0 0 Z " fill="#0B2C46" transform="translate(23,4)"/>
<path d="M0 0 C1.4540625 0.0309375 1.4540625 0.0309375 2.9375 0.0625 C2.6075 1.0525 2.2775 2.0425 1.9375 3.0625 C0.6175 2.4025 -0.7025 1.7425 -2.0625 1.0625 C-2.0625 2.3825 -2.0625 3.7025 -2.0625 5.0625 C-1.258125 5.289375 -0.45375 5.51625 0.375 5.75 C1.220625 6.183125 2.06625 6.61625 2.9375 7.0625 C3.75 9.6875 3.75 9.6875 3.9375 12.0625 C2.25 13.625 2.25 13.625 -0.0625 15.0625 C-2.8125 14.75 -2.8125 14.75 -5.0625 14.0625 C-4.7325 13.0725 -4.4025 12.0825 -4.0625 11.0625 C-1.5875 12.0525 -1.5875 12.0525 0.9375 13.0625 C-0.29184015 9.37447956 -2.00109378 8.33893027 -5.0625 6.0625 C-3.98897059 0.08140756 -3.98897059 0.08140756 0 0 Z " fill="#DFE2E6" transform="translate(130.0625,2.9375)"/>
<path d="M0 0 C0.99 0 1.98 0 3 0 C3 3.96 3 7.92 3 12 C3.99 11.67 4.98 11.34 6 11 C6 9.35 6 7.7 6 6 C7.32 6.66 8.64 7.32 10 8 C9.125 11.875 9.125 11.875 8 13 C5.32941149 13.14115161 2.67567762 13.04247107 0 13 C0 8.71 0 4.42 0 0 Z " fill="#F8F8F9" transform="translate(77,4)"/>
<path d="M0 0 C1.32 0 2.64 0 4 0 C4 4.62 4 9.24 4 14 C2.68 14 1.36 14 0 14 C0 9.38 0 4.76 0 0 Z " fill="#C7CDD3" transform="translate(104,3)"/>
<path d="M0 0 C-0.639375 0.309375 -1.27875 0.61875 -1.9375 0.9375 C-3.93610821 1.8345163 -3.93610821 1.8345163 -5 3 C-5.07205511 4.68608966 -5.08386068 6.37500659 -5.0625 8.0625 C-5.04896484 9.44115234 -5.04896484 9.44115234 -5.03515625 10.84765625 C-5.02355469 11.55792969 -5.01195312 12.26820312 -5 13 C-4.34 13.33 -3.68 13.66 -3 14 C-5.375 13.6875 -5.375 13.6875 -8 13 C-10 10 -10 10 -9.875 6.5 C-9 3 -9 3 -7.25 1.0625 C-4.64597372 -0.16717908 -2.84687774 -0.23723981 0 0 Z " fill="#EAECEE" transform="translate(27,3)"/>
<path d="M0 0 C6.75 -0.125 6.75 -0.125 9 1 C9 2.65 9 4.3 9 6 C6.92446352 6.5534764 5.15634036 7 3 7 C3 5.02 3 3.04 3 1 C2.01 0.67 1.02 0.34 0 0 Z " fill="#939DA8" transform="translate(50,3)"/>
<path d="M0 0 C0.99 0.33 1.98 0.66 3 1 C2.67 2.65 2.34 4.3 2 6 C1.01 5.67 0.02 5.34 -1 5 C-0.67 3.35 -0.34 1.7 0 0 Z " fill="#86782A" transform="translate(99,22)"/>
<path d="M0 0 C1.32 0.33 2.64 0.66 4 1 C3.67 2.32 3.34 3.64 3 5 C2.01 5 1.02 5 0 5 C0 3.35 0 1.7 0 0 Z " fill="#1F364E" transform="translate(80,11)"/>
<path d="M0 0 C0 0.99 0 1.98 0 3 C-2.4375 2.625 -2.4375 2.625 -5 2 C-5.33 1.34 -5.66 0.68 -6 0 C-3.50907189 -1.24546405 -2.58919267 -0.7767578 0 0 Z " fill="#051F38" transform="translate(131,13)"/>
</svg>
