<?xml version="1.0" encoding="UTF-8"?>
<svg version="1.1" xmlns="http://www.w3.org/2000/svg" width="154" height="30">
<path d="M0 0 C4.29 0.33 8.58 0.66 13 1 C13 1.66 13 2.32 13 3 C13.9075 2.67 14.815 2.34 15.75 2 C21.06183796 0.44478146 26.52020695 0.83803567 32 1 C32 1.66 32 2.32 32 3 C32.66 3.33 33.32 3.66 34 4 C30.07047181 6.05832429 26.23462038 7.68256255 22 9 C21.01 9.33 20.02 9.66 19 10 C18.83322718 13.41656024 18.83322718 13.41656024 19 17 C21.58188584 19.58188584 23.58721638 19.29781549 27.08984375 19.66015625 C29 20 29 20 31 21.375 C32 23 32 23 32 26 C25.29481414 26.19818283 19.34823202 26.30844801 13 24 C13 24.66 13 25.32 13 26 C11.10424749 26.02721176 9.20838021 26.04649136 7.3125 26.0625 C5.72888672 26.07990234 5.72888672 26.07990234 4.11328125 26.09765625 C1.25069411 26.00786368 -1.24840637 25.78829439 -4 25 C-4.33 24.34 -4.66 23.68 -5 23 C-5.50917969 22.59910156 -6.01835938 22.19820312 -6.54296875 21.78515625 C-8.73550077 19.09886367 -8.36197457 16.84363406 -8.3125 13.4375 C-8.30863281 12.28121094 -8.30476563 11.12492188 -8.30078125 9.93359375 C-7.92037991 6.22344565 -6.56575289 5.56575289 -4 3 C-3.01 2.67 -2.02 2.34 -1 2 C-0.67 1.34 -0.34 0.68 0 0 Z M9 6 C6.97954558 6.60183749 4.97888961 7.27306096 3 8 C2.67 8.66 2.34 9.32 2 10 C3.32 10.66 4.64 11.32 6 12 C6 12.99 6 13.98 6 15 C3.69 15.33 1.38 15.66 -1 16 C-0.1044206 18.12143733 -0.1044206 18.12143733 2 20 C4.98467994 20.78170189 7.91599125 21.17556027 11 21 C11.66 20.34 12.32 19.68 13 19 C12.67 18.01 12.34 17.02 12 16 C12.04125 14.845 12.0825 13.69 12.125 12.5 C12.34275295 9.05342861 12.34275295 9.05342861 10.5 7.0625 C10.005 6.711875 9.51 6.36125 9 6 Z " fill="#D73730" transform="translate(97,2)"/>
<path d="M0 0 C1.08410156 0.07863281 2.16820313 0.15726562 3.28515625 0.23828125 C4.59806641 0.46064453 4.59806641 0.46064453 5.9375 0.6875 C6.2675 1.3475 6.5975 2.0075 6.9375 2.6875 C7.9275 2.0275 8.9175 1.3675 9.9375 0.6875 C12.12890625 0.203125 12.12890625 0.203125 14.5 -0.0625 C15.28503906 -0.16046875 16.07007812 -0.2584375 16.87890625 -0.359375 C19.92045544 -0.29011771 20.85029327 1.60029327 22.9375 3.6875 C24.72311974 6.62715486 25.15790798 8.60178832 24.9140625 12.015625 C24.8625 12.81484375 24.8109375 13.6140625 24.7578125 14.4375 C24.69335938 15.2625 24.62890625 16.0875 24.5625 16.9375 C24.47742188 18.19820312 24.47742188 18.19820312 24.390625 19.484375 C24.24959668 21.55279042 24.09488212 23.6202646 23.9375 25.6875 C21.07025314 25.11405063 20.0760485 24.8260485 17.9375 22.6875 C17.58973309 19.34189427 17.4941652 16.01734957 17.37890625 12.65625 C17.23324219 11.6765625 17.08757812 10.696875 16.9375 9.6875 C15.9475 9.0275 14.9575 8.3675 13.9375 7.6875 C10.81964887 8.33394661 10.81964887 8.33394661 9.9375 10.6875 C9.70577173 13.23365009 9.51855471 15.76146225 9.375 18.3125 C9.33181641 19.01890625 9.28863281 19.7253125 9.24414062 20.453125 C9.13805249 22.19768537 9.03727111 23.94256697 8.9375 25.6875 C7.6175 26.0175 6.2975 26.3475 4.9375 26.6875 C2.90788244 22.62826487 2.66302419 18.98494809 2.375 14.5 C2.24931641 12.59154297 2.24931641 12.59154297 2.12109375 10.64453125 C2.06050781 9.66871094 1.99992187 8.69289063 1.9375 7.6875 C-0.0425 7.6875 -2.0225 7.6875 -4.0625 7.6875 C-4.0625 13.9575 -4.0625 20.2275 -4.0625 26.6875 C-6.0425 26.6875 -8.0225 26.6875 -10.0625 26.6875 C-12.22354832 23.18540588 -12.30218027 20.38256086 -12.25 16.3125 C-12.24033203 14.66121094 -12.24033203 14.66121094 -12.23046875 12.9765625 C-12.06862356 9.80740794 -11.6507772 6.80301603 -11.0625 3.6875 C-10.0725 3.3575 -9.0825 3.0275 -8.0625 2.6875 C-8.0625 2.0275 -8.0625 1.3675 -8.0625 0.6875 C-5.25168527 -0.71790737 -3.11478282 -0.24873713 0 0 Z " fill="#D9352D" transform="translate(63.0625,2.3125)"/>
<path d="M0 0 C1.010625 0.144375 2.02125 0.28875 3.0625 0.4375 C3.701875 0.623125 4.34125 0.80875 5 1 C5.33 1.66 5.66 2.32 6 3 C6.51175781 3.39832031 7.02351563 3.79664063 7.55078125 4.20703125 C9.75196009 6.93032259 9.28941273 9.25643821 9.1875 12.6875 C9.16042969 13.86699219 9.13335937 15.04648437 9.10546875 16.26171875 C9.07066406 17.16535156 9.03585938 18.06898437 9 19 C8.34 19.33 7.68 19.66 7 20 C6.731875 20.66 6.46375 21.32 6.1875 22 C5 24 5 24 2.8203125 24.62109375 C-0.26053011 25.03500197 -3.20486625 25.09664982 -6.3125 25.0625 C-7.91544922 25.04896484 -7.91544922 25.04896484 -9.55078125 25.03515625 C-10.35902344 25.02355469 -11.16726562 25.01195313 -12 25 C-13.0318108 22.94927604 -14.04544334 20.90059269 -15 18.8125 C-15.87144569 16.82798477 -15.87144569 16.82798477 -18 16 C-16.7245509 3.67065868 -16.7245509 3.67065868 -13 0.0625 C-8.52665201 -1.52181074 -4.612475 -0.74981121 0 0 Z M-9.875 7.0625 C-11.64273274 10.1069286 -11.36823916 12.5631012 -11 16 C-10.08333333 18.08333333 -10.08333333 18.08333333 -8 19 C-4.5906288 19.36528977 -2.11976176 19.6140629 0.9375 17.9375 C2.63335287 14.84506242 2.43060657 12.44485259 2 9 C-0.23320602 6.33733129 -1.6200117 6.04652918 -5.0625 5.625 C-7.92688955 5.80215484 -7.92688955 5.80215484 -9.875 7.0625 Z " fill="#D7372F" transform="translate(41,3)"/>
<path d="M0 0 C1.0725 -0.01417969 2.145 -0.02835937 3.25 -0.04296875 C6 0.1875 6 0.1875 8 2.1875 C9.0209375 3.115625 9.0209375 3.115625 10.0625 4.0625 C12.93792502 7.21619196 12.91725466 9.3103994 13.3125 13.5 C12.91836936 18.15074157 11.51688425 20.29776979 9 24.1875 C8.67 24.8475 8.34 25.5075 8 26.1875 C0.39728249 26.63692172 -4.71962456 26.69298673 -11 22.1875 C-11.66 21.8575 -12.32 21.5275 -13 21.1875 C-13.4140625 18.68359375 -13.4140625 18.68359375 -13.625 15.625 C-13.69976562 14.61308594 -13.77453125 13.60117188 -13.8515625 12.55859375 C-13.90054688 11.77613281 -13.94953125 10.99367188 -14 10.1875 C-13.34 10.1875 -12.68 10.1875 -12 10.1875 C-12.33 8.8675 -12.66 7.5475 -13 6.1875 C-12.360625 5.919375 -11.72125 5.65125 -11.0625 5.375 C-8.66868314 4.30082248 -8.66868314 4.30082248 -8 1.1875 C-5.27457733 -0.17521133 -3.03912726 0.01826399 0 0 Z M-5.9375 8.75 C-7.45826219 12.23880737 -6.94135898 14.55654394 -6 18.1875 C-2.53001271 20.50082486 -1.07490752 20.52707563 3 20.1875 C6.31460705 18.47857501 6.31460705 18.47857501 6.6875 15.0625 C6.8421875 13.639375 6.8421875 13.639375 7 12.1875 C6.34 12.1875 5.68 12.1875 5 12.1875 C5.33 11.1975 5.66 10.2075 6 9.1875 C2.05557362 6.76016069 -2.10438998 5.65878225 -5.9375 8.75 Z " fill="#DB362F" transform="translate(140,1.8125)"/>
<path d="M0 0 C1.65 0 3.3 0 5 0 C6.80230168 3.82989106 7.19622241 6.78121808 7 11 C8.65 11 10.3 11 12 11 C12.66 9.68 13.32 8.36 14 7 C14.66 7 15.32 7 16 7 C16.33 4.69 16.66 2.38 17 0 C19.02045442 0.60183749 21.02111039 1.27306096 23 2 C24.39422419 4.78844838 23.69586669 7.03432055 23.25390625 10.02734375 C22.77077464 13.7809047 23.17711591 17.43397246 23.5 21.1875 C23.5928125 22.27417969 23.685625 23.36085938 23.78125 24.48046875 C23.8534375 25.31191406 23.925625 26.14335937 24 27 C22.35 27 20.7 27 19 27 C18.71125 26.195625 18.4225 25.39125 18.125 24.5625 C17.26737432 21.8673532 17.26737432 21.8673532 15 21 C15 20.34 15 19.68 15 19 C12.36 18.34 9.72 17.68 7 17 C7 19.64 7 22.28 7 25 C4.80565079 26.09717461 2.49152444 27 0 27 C0 18.09 0 9.18 0 0 Z " fill="#D03C31" transform="translate(0,2)"/>
<path d="M0 0 C1.625 1.75 1.625 1.75 1.625 4.75 C-0.29041138 4.85841951 -2.20759773 4.93578079 -4.125 5 C-5.72601563 5.06960937 -5.72601563 5.06960937 -7.359375 5.140625 C-11.01302112 4.66735478 -12.09728105 3.55844958 -14.375 0.75 C-13.385 1.08 -12.395 1.41 -11.375 1.75 C-9.64704648 1.81802967 -7.91664635 1.83495645 -6.1875 1.8125 C-5.28644531 1.80347656 -4.38539062 1.79445313 -3.45703125 1.78515625 C-2.42642578 1.76775391 -2.42642578 1.76775391 -1.375 1.75 C-3.685 1.42 -5.995 1.09 -8.375 0.75 C-8.375 0.42 -8.375 0.09 -8.375 -0.25 C-3.0190678 -1.58898305 -3.0190678 -1.58898305 0 0 Z " fill="#E6302B" transform="translate(127.375,23.25)"/>
<path d="M0 0 C3.36720387 1.39332574 4.9859524 2.9789286 7 6 C6.67 6.66 6.34 7.32 6 8 C5.34 7.67 4.68 7.34 4 7 C4 6.01 4 5.02 4 4 C2.02 4 0.04 4 -2 4 C-1 1 -1 1 0 0 Z " fill="#B9544E" transform="translate(98,10)"/>
<path d="M0 0 C0.66 0.66 1.32 1.32 2 2 C1.34 2 0.68 2 0 2 C0 1.34 0 0.68 0 0 Z " fill="#383838" transform="translate(26,24)"/>
<path d="M0 0 C0.66 0 1.32 0 2 0 C1.67 0.66 1.34 1.32 1 2 C0.67 1.34 0.34 0.68 0 0 Z " fill="#1C1C1C" transform="translate(63,10)"/>
<path d="M0 0 C0.99 0.495 0.99 0.495 2 1 C1.01 1.495 1.01 1.495 0 2 C0 1.34 0 0.68 0 0 Z " fill="#1C381C" transform="translate(59,10)"/>
<path d="M0 0 C2 1 2 1 2 1 Z " fill="#000000" transform="translate(144,28)"/>
<path d="M0 0 C2 1 2 1 2 1 Z " fill="#000000" transform="translate(134,28)"/>
<path d="M0 0 C2 1 2 1 2 1 Z " fill="#004000" transform="translate(132,27)"/>
<path d="" fill="#404040" transform="translate(0,0)"/>
<path d="" fill="#2A2A2A" transform="translate(0,0)"/>
<path d="" fill="#204020" transform="translate(0,0)"/>
<path d="M0 0 C2 1 2 1 2 1 Z " fill="#2A2A2A" transform="translate(142,10)"/>
<path d="M0 0 C2 1 2 1 2 1 Z " fill="#204020" transform="translate(136,10)"/>
<path d="" fill="#608060" transform="translate(0,0)"/>
<path d="" fill="#000000" transform="translate(0,0)"/>
<path d="" fill="#496D49" transform="translate(0,0)"/>
<path d="" fill="#000000" transform="translate(0,0)"/>
<path d="" fill="#496D49" transform="translate(0,0)"/>
<path d="" fill="#555555" transform="translate(0,0)"/>
<path d="" fill="#558055" transform="translate(0,0)"/>
<path d="" fill="#000000" transform="translate(0,0)"/>
<path d="" fill="#000000" transform="translate(0,0)"/>
<path d="" fill="#555555" transform="translate(0,0)"/>
<path d="" fill="#555555" transform="translate(0,0)"/>
<path d="" fill="#404040" transform="translate(0,0)"/>
<path d="" fill="#555555" transform="translate(0,0)"/>
<path d="" fill="#555555" transform="translate(0,0)"/>
<path d="" fill="#55AA55" transform="translate(0,0)"/>
<path d="" fill="#408040" transform="translate(0,0)"/>
<path d="" fill="#408040" transform="translate(0,0)"/>
<path d="" fill="#555555" transform="translate(0,0)"/>
<path d="" fill="#408040" transform="translate(0,0)"/>
<path d="" fill="#666666" transform="translate(0,0)"/>
<path d="" fill="#666666" transform="translate(0,0)"/>
<path d="" fill="#55AA55" transform="translate(0,0)"/>
<path d="" fill="#000000" transform="translate(0,0)"/>
<path d="" fill="#666666" transform="translate(0,0)"/>
<path d="" fill="#608060" transform="translate(0,0)"/>
<path d="" fill="#FFFFFF" transform="translate(0,0)"/>
<path d="" fill="#555555" transform="translate(0,0)"/>
<path d="" fill="#404040" transform="translate(0,0)"/>
<path d="" fill="#408040" transform="translate(0,0)"/>
<path d="" fill="#404040" transform="translate(0,0)"/>
<path d="" fill="#555555" transform="translate(0,0)"/>
<path d="" fill="#555555" transform="translate(0,0)"/>
<path d="" fill="#408040" transform="translate(0,0)"/>
<path d="" fill="#408040" transform="translate(0,0)"/>
<path d="" fill="#000000" transform="translate(0,0)"/>
<path d="" fill="#55AA55" transform="translate(0,0)"/>
<path d="" fill="#000000" transform="translate(0,0)"/>
<path d="" fill="#808080" transform="translate(0,0)"/>
<path d="" fill="#00FF00" transform="translate(0,0)"/>
<path d="" fill="#555555" transform="translate(0,0)"/>
<path d="" fill="#404040" transform="translate(0,0)"/>
<path d="" fill="#555555" transform="translate(0,0)"/>
<path d="" fill="#55AA55" transform="translate(0,0)"/>
<path d="" fill="#336633" transform="translate(0,0)"/>
<path d="" fill="#404040" transform="translate(0,0)"/>
<path d="" fill="#808080" transform="translate(0,0)"/>
<path d="" fill="#000000" transform="translate(0,0)"/>
<path d="" fill="#555555" transform="translate(0,0)"/>
<path d="" fill="#336633" transform="translate(0,0)"/>
<path d="" fill="#555555" transform="translate(0,0)"/>
<path d="" fill="#408040" transform="translate(0,0)"/>
<path d="" fill="#404040" transform="translate(0,0)"/>
<path d="" fill="#808080" transform="translate(0,0)"/>
<path d="" fill="#808080" transform="translate(0,0)"/>
<path d="" fill="#336666" transform="translate(0,0)"/>
<path d="" fill="#555555" transform="translate(0,0)"/>
<path d="" fill="#408040" transform="translate(0,0)"/>
<path d="" fill="#808080" transform="translate(0,0)"/>
<path d="" fill="#005500" transform="translate(0,0)"/>
<path d="" fill="#404040" transform="translate(0,0)"/>
<path d="" fill="#555555" transform="translate(0,0)"/>
<path d="" fill="#404040" transform="translate(0,0)"/>
<path d="" fill="#4C664C" transform="translate(0,0)"/>
<path d="" fill="#336666" transform="translate(0,0)"/>
<path d="" fill="#404040" transform="translate(0,0)"/>
<path d="" fill="#666666" transform="translate(0,0)"/>
<path d="" fill="#408040" transform="translate(0,0)"/>
<path d="" fill="#404040" transform="translate(0,0)"/>
<path d="" fill="#336633" transform="translate(0,0)"/>
<path d="" fill="#808000" transform="translate(0,0)"/>
<path d="" fill="#336633" transform="translate(0,0)"/>
<path d="" fill="#336633" transform="translate(0,0)"/>
<path d="" fill="#404040" transform="translate(0,0)"/>
<path d="" fill="#496D49" transform="translate(0,0)"/>
<path d="" fill="#336633" transform="translate(0,0)"/>
<path d="" fill="#000000" transform="translate(0,0)"/>
<path d="" fill="#404040" transform="translate(0,0)"/>
<path d="" fill="#404040" transform="translate(0,0)"/>
<path d="" fill="#555555" transform="translate(0,0)"/>
<path d="" fill="#408040" transform="translate(0,0)"/>
<path d="" fill="#404040" transform="translate(0,0)"/>
<path d="" fill="#336633" transform="translate(0,0)"/>
<path d="" fill="#408040" transform="translate(0,0)"/>
<path d="" fill="#496D49" transform="translate(0,0)"/>
<path d="" fill="#000000" transform="translate(0,0)"/>
<path d="" fill="#496D49" transform="translate(0,0)"/>
<path d="" fill="#000000" transform="translate(0,0)"/>
<path d="" fill="#000000" transform="translate(0,0)"/>
<path d="" fill="#000000" transform="translate(0,0)"/>
<path d="" fill="#404040" transform="translate(0,0)"/>
</svg>
