<?xml version="1.0" encoding="UTF-8"?>
<svg version="1.1" xmlns="http://www.w3.org/2000/svg" width="76" height="84">
<path d="M0 0 C0 0.66 0 1.32 0 2 C0.598125 1.773125 1.19625 1.54625 1.8125 1.3125 C2.534375 1.209375 3.25625 1.10625 4 1 C5.5625 2.375 5.5625 2.375 7 4 C7.99 4.33 8.98 4.66 10 5 C13.26331405 7.1755427 15.17052494 9.51286824 17.59765625 12.5390625 C18.06042969 13.02117188 18.52320312 13.50328125 19 14 C19.66 14 20.32 14 21 14 C21.495 15.485 21.495 15.485 22 17 C22.495 17.598125 22.99 18.19625 23.5 18.8125 C27.5572118 24.72926721 26.22101973 33.80830852 26.25 40.6875 C26.270625 41.92306641 26.29125 43.15863281 26.3125 44.43164062 C26.32023437 46.2037793 26.32023437 46.2037793 26.328125 48.01171875 C26.3374707 49.08897217 26.34681641 50.16622559 26.35644531 51.27612305 C25.94864526 54.39244164 25.3206676 55.0236113 23 57 C22.67 57.99 22.34 58.98 22 60 C19.84448953 63.23326571 17.56059984 65.10338807 14.55859375 67.5 C12.73426023 69.02344759 12.73426023 69.02344759 12 72 C8.7321729 74.36009735 5.95531785 75.39148956 2 76 C1.37697998 76.16927002 0.75395996 76.33854004 0.11206055 76.51293945 C-3.61288905 77.37194702 -7.38072021 77.18455129 -11.1875 77.1875 C-12.00025391 77.19974609 -12.81300781 77.21199219 -13.65039062 77.22460938 C-19.23386409 77.23793509 -24.68357603 76.83017414 -30 75 C-30.66 74.34 -31.32 73.68 -32 73 C-33.485 72.01 -33.485 72.01 -35 71 C-35.66 70.34 -36.32 69.68 -37 69 C-37.66 68.731875 -38.32 68.46375 -39 68.1875 C-41.67871871 66.59701076 -42.083405 64.90255082 -43 62 C-43.66 62 -44.32 62 -45 62 C-45.495 60.515 -45.495 60.515 -46 59 C-46.309375 58.4225 -46.61875 57.845 -46.9375 57.25 C-50.21809646 50.30285456 -50.3071474 43.82203063 -50.25 36.25 C-50.25773437 35.20972656 -50.26546875 34.16945312 -50.2734375 33.09765625 C-50.27085938 32.10121094 -50.26828125 31.10476562 -50.265625 30.078125 C-50.26336914 29.17481445 -50.26111328 28.27150391 -50.25878906 27.34082031 C-50 25 -50 25 -48 22 C-47.67 21.01 -47.34 20.02 -47 19 C-46.34 18.34 -45.68 17.68 -45 17 C-44.67 16.34 -44.34 15.68 -44 15 C-43.34 14.34 -42.68 13.68 -42 13 C-42 12.34 -42 11.68 -42 11 C-41.34 11 -40.68 11 -40 11 C-40 10.34 -40 9.68 -40 9 C-38.35 8.34 -36.7 7.68 -35 7 C-35 6.34 -35 5.68 -35 5 C-34.01 5 -33.02 5 -32 5 C-31.34 4.01 -30.68 3.02 -30 2 C-28 1.25 -28 1.25 -26 1 C-25.34 1.33 -24.68 1.66 -24 2 C-23.67 1.34 -23.34 0.68 -23 0 C-15.26790443 -1.44157714 -7.79136225 -0.72039623 0 0 Z " fill="#B23038" transform="translate(50,7)"/>
<path d="M0 0 C0 0.66 0 1.32 0 2 C0.598125 1.773125 1.19625 1.54625 1.8125 1.3125 C2.534375 1.209375 3.25625 1.10625 4 1 C5.5625 2.375 5.5625 2.375 7 4 C7.99 4.33 8.98 4.66 10 5 C13.26331405 7.1755427 15.17052494 9.51286824 17.59765625 12.5390625 C18.06042969 13.02117188 18.52320312 13.50328125 19 14 C19.66 14 20.32 14 21 14 C21.495 15.485 21.495 15.485 22 17 C22.495 17.598125 22.99 18.19625 23.5 18.8125 C27.5572118 24.72926721 26.22101973 33.80830852 26.25 40.6875 C26.270625 41.92306641 26.29125 43.15863281 26.3125 44.43164062 C26.32023437 46.2037793 26.32023437 46.2037793 26.328125 48.01171875 C26.3374707 49.08897217 26.34681641 50.16622559 26.35644531 51.27612305 C25.94864526 54.39244164 25.3206676 55.0236113 23 57 C22.67 57.99 22.34 58.98 22 60 C19.84448953 63.23326571 17.56059984 65.10338807 14.55859375 67.5 C12.73426023 69.02344759 12.73426023 69.02344759 12 72 C10.35 71.67 8.7 71.34 7 71 C7 70.34 7 69.68 7 69 C8.57421875 67.51953125 8.57421875 67.51953125 10.6875 65.8125 C17.52404597 59.94225028 21.47600059 54.01094887 23 45 C23.22400499 40.32024358 23.18209254 35.68045262 23 31 C21.68 31.33 20.36 31.66 19 32 C19.33 32.33 19.66 32.66 20 33 C20.08669432 34.4887186 20.10703494 35.981445 20.09765625 37.47265625 C20.09282227 38.82133789 20.09282227 38.82133789 20.08789062 40.19726562 C20.07532227 41.61555664 20.07532227 41.61555664 20.0625 43.0625 C20.05798828 44.01189453 20.05347656 44.96128906 20.04882812 45.93945312 C20.0370011 48.29303065 20.02052025 50.64648477 20 53 C19.01 53 18.02 53 17 53 C17 47.06 17 41.12 17 35 C16.34 35 15.68 35 15 35 C15 40.94 15 46.88 15 53 C14.01 53 13.02 53 12 53 C12 47.06 12 41.12 12 35 C11.34 35 10.68 35 10 35 C10 40.94 10 46.88 10 53 C9.01 53 8.02 53 7 53 C6.93941406 51.95199219 6.87882812 50.90398438 6.81640625 49.82421875 C6.73198262 48.44529952 6.64733553 47.06639395 6.5625 45.6875 C6.52318359 44.99720703 6.48386719 44.30691406 6.44335938 43.59570312 C6.25072585 40.52838465 5.97677283 37.93031848 5 35 C5 37.64 5 40.28 5 43 C3.35 43 1.7 43 0 43 C0.34227572 45.97065509 0.34227572 45.97065509 1 49 C1.99 49.495 1.99 49.495 3 50 C3 48.68 3 47.36 3 46 C3.66 46 4.32 46 5 46 C5.125 48.375 5.125 48.375 5 51 C4.34 51.66 3.68 52.32 3 53 C0.9375 52.8125 0.9375 52.8125 -1 52 C-2.32519451 48.02441646 -2.37566333 44.17490775 -2.62109375 40.0078125 C-2.99704973 37.02341969 -3.75798008 34.72540404 -5 32 C-4.67 32.99 -4.34 33.98 -4 35 C-3.87218214 37.67394964 -3.95608129 40.32095857 -4 43 C-5.65 43 -7.3 43 -9 43 C-9 45.31 -9 47.62 -9 50 C-8.34 49.67 -7.68 49.34 -7 49 C-6.67 48.01 -6.34 47.02 -6 46 C-5.34 46 -4.68 46 -4 46 C-4.33 47.98 -4.66 49.96 -5 52 C-7.475 52.495 -7.475 52.495 -10 53 C-12.05527415 48.88945169 -11.66606946 43.48421005 -12 39 C-12.33 43.62 -12.66 48.24 -13 53 C-13.99 53 -14.98 53 -16 53 C-16 46.73 -16 40.46 -16 34 C-16.66 34 -17.32 34 -18 34 C-18 40.27 -18 46.54 -18 53 C-18.99 53 -19.98 53 -21 53 C-21 37.16 -21 21.32 -21 5 C-22.98 5.99 -22.98 5.99 -25 7 C-26.0725 7.226875 -27.145 7.45375 -28.25 7.6875 C-34.4266381 9.84932334 -38.52465036 13.18044291 -41.58203125 19.0234375 C-44.3763396 25.67501877 -46.19417528 31.33316903 -46.1875 38.5625 C-46.18814453 39.27470703 -46.18878906 39.98691406 -46.18945312 40.72070312 C-46.13372259 46.31908911 -45.45891402 51.58117649 -44 57 C-43.01 57.33 -42.02 57.66 -41 58 C-40.566875 58.7425 -40.13375 59.485 -39.6875 60.25 C-35.52987965 67.02538131 -28.34173228 70.55275591 -21 73 C-18.09269402 73.12365396 -15.21980542 73.18514971 -12.3125 73.1875 C-11.53455078 73.19974609 -10.75660156 73.21199219 -9.95507812 73.22460938 C-4.64186829 73.23790348 -0.10565319 72.47626315 5 71 C5 71.66 5 72.32 5 73 C4.030625 73.474375 3.06125 73.94875 2.0625 74.4375 C-0.80477437 75.70193947 -0.80477437 75.70193947 -2 77 C-5.01081155 77.1284374 -7.98859628 77.18523579 -11 77.1875 C-11.82628906 77.19974609 -12.65257812 77.21199219 -13.50390625 77.22460938 C-19.13665281 77.23783178 -24.63708513 76.85289287 -30 75 C-30.66 74.34 -31.32 73.68 -32 73 C-33.485 72.01 -33.485 72.01 -35 71 C-35.66 70.34 -36.32 69.68 -37 69 C-37.66 68.731875 -38.32 68.46375 -39 68.1875 C-41.67871871 66.59701076 -42.083405 64.90255082 -43 62 C-43.66 62 -44.32 62 -45 62 C-45.495 60.515 -45.495 60.515 -46 59 C-46.309375 58.4225 -46.61875 57.845 -46.9375 57.25 C-50.21809646 50.30285456 -50.3071474 43.82203063 -50.25 36.25 C-50.25773437 35.20972656 -50.26546875 34.16945312 -50.2734375 33.09765625 C-50.27085938 32.10121094 -50.26828125 31.10476562 -50.265625 30.078125 C-50.26336914 29.17481445 -50.26111328 28.27150391 -50.25878906 27.34082031 C-50 25 -50 25 -48 22 C-47.67 21.01 -47.34 20.02 -47 19 C-46.34 18.34 -45.68 17.68 -45 17 C-44.67 16.34 -44.34 15.68 -44 15 C-43.34 14.34 -42.68 13.68 -42 13 C-42 12.34 -42 11.68 -42 11 C-41.34 11 -40.68 11 -40 11 C-40 10.34 -40 9.68 -40 9 C-38.35 8.34 -36.7 7.68 -35 7 C-35 6.34 -35 5.68 -35 5 C-34.01 5 -33.02 5 -32 5 C-31.34 4.01 -30.68 3.02 -30 2 C-28 1.25 -28 1.25 -26 1 C-25.34 1.33 -24.68 1.66 -24 2 C-23.67 1.34 -23.34 0.68 -23 0 C-15.26790443 -1.44157714 -7.79136225 -0.72039623 0 0 Z " fill="#D6373F" transform="translate(50,7)"/>
<path d="M0 0 C0 0.66 0 1.32 0 2 C0.598125 1.773125 1.19625 1.54625 1.8125 1.3125 C2.534375 1.209375 3.25625 1.10625 4 1 C5.5625 2.375 5.5625 2.375 7 4 C7.99 4.33 8.98 4.66 10 5 C13.26331405 7.1755427 15.17052494 9.51286824 17.59765625 12.5390625 C18.06042969 13.02117188 18.52320312 13.50328125 19 14 C19.66 14 20.32 14 21 14 C21.495 15.485 21.495 15.485 22 17 C22.495 17.598125 22.99 18.19625 23.5 18.8125 C27.5572118 24.72926721 26.22101973 33.80830852 26.25 40.6875 C26.270625 41.92306641 26.29125 43.15863281 26.3125 44.43164062 C26.32023437 46.2037793 26.32023437 46.2037793 26.328125 48.01171875 C26.3374707 49.08897217 26.34681641 50.16622559 26.35644531 51.27612305 C25.94864526 54.39244164 25.3206676 55.0236113 23 57 C22.67 57.99 22.34 58.98 22 60 C19.84448953 63.23326571 17.56059984 65.10338807 14.55859375 67.5 C12.73426023 69.02344759 12.73426023 69.02344759 12 72 C10.35 71.67 8.7 71.34 7 71 C7 70.34 7 69.68 7 69 C8.57421875 67.51953125 8.57421875 67.51953125 10.6875 65.8125 C18.58241195 59.03347667 22.33547167 52.05858752 23.3203125 41.59765625 C23.69022652 30.24129581 20.802644 21.35997572 13 13 C3.90111444 4.67508603 -5.29828329 3.15929492 -17.28125 3.5234375 C-23.76725056 3.98709329 -28.73337072 6.24532171 -34 10 C-34.69480469 10.48339844 -35.38960937 10.96679688 -36.10546875 11.46484375 C-42.37063932 16.7147628 -45.3098145 25.08675085 -46.23828125 33.04150391 C-46.77328166 41.1486709 -46.11616126 49.13997245 -44 57 C-43.01 57.33 -42.02 57.66 -41 58 C-40.566875 58.7425 -40.13375 59.485 -39.6875 60.25 C-35.52987965 67.02538131 -28.34173228 70.55275591 -21 73 C-18.09269402 73.12365396 -15.21980542 73.18514971 -12.3125 73.1875 C-11.53455078 73.19974609 -10.75660156 73.21199219 -9.95507812 73.22460938 C-4.64186829 73.23790348 -0.10565319 72.47626315 5 71 C5 71.66 5 72.32 5 73 C4.030625 73.474375 3.06125 73.94875 2.0625 74.4375 C-0.80477437 75.70193947 -0.80477437 75.70193947 -2 77 C-5.01081155 77.1284374 -7.98859628 77.18523579 -11 77.1875 C-11.82628906 77.19974609 -12.65257812 77.21199219 -13.50390625 77.22460938 C-19.13665281 77.23783178 -24.63708513 76.85289287 -30 75 C-30.66 74.34 -31.32 73.68 -32 73 C-33.485 72.01 -33.485 72.01 -35 71 C-35.66 70.34 -36.32 69.68 -37 69 C-37.66 68.731875 -38.32 68.46375 -39 68.1875 C-41.67871871 66.59701076 -42.083405 64.90255082 -43 62 C-43.66 62 -44.32 62 -45 62 C-45.495 60.515 -45.495 60.515 -46 59 C-46.309375 58.4225 -46.61875 57.845 -46.9375 57.25 C-50.21809646 50.30285456 -50.3071474 43.82203063 -50.25 36.25 C-50.25773437 35.20972656 -50.26546875 34.16945312 -50.2734375 33.09765625 C-50.27085938 32.10121094 -50.26828125 31.10476562 -50.265625 30.078125 C-50.26336914 29.17481445 -50.26111328 28.27150391 -50.25878906 27.34082031 C-50 25 -50 25 -48 22 C-47.67 21.01 -47.34 20.02 -47 19 C-46.34 18.34 -45.68 17.68 -45 17 C-44.67 16.34 -44.34 15.68 -44 15 C-43.34 14.34 -42.68 13.68 -42 13 C-42 12.34 -42 11.68 -42 11 C-41.34 11 -40.68 11 -40 11 C-40 10.34 -40 9.68 -40 9 C-38.35 8.34 -36.7 7.68 -35 7 C-35 6.34 -35 5.68 -35 5 C-34.01 5 -33.02 5 -32 5 C-31.34 4.01 -30.68 3.02 -30 2 C-28 1.25 -28 1.25 -26 1 C-25.34 1.33 -24.68 1.66 -24 2 C-23.67 1.34 -23.34 0.68 -23 0 C-15.26790443 -1.44157714 -7.79136225 -0.72039623 0 0 Z " fill="#BEC1C3" transform="translate(50,7)"/>
<path d="M0 0 C10.37234043 1.15248227 10.37234043 1.15248227 14 5 C16.54223241 9.26987627 16.54662224 13.14767647 16 18 C14.72218179 21.51400008 13.98809831 23.37890963 10.8125 25.375 C10.214375 25.58125 9.61625 25.7875 9 26 C12.34003001 31.24861859 16.18370122 35.83108001 20.28515625 40.49609375 C24 44.79169474 24 44.79169474 24 47 C19.67267468 46.5413434 17.89191707 44.03842232 15.125 40.875 C14.25359375 39.88628906 13.3821875 38.89757813 12.484375 37.87890625 C11.66453125 36.92886719 10.8446875 35.97882812 10 35 C9.34515625 34.24589844 8.6903125 33.49179687 8.015625 32.71484375 C6.6673918 31.15153526 5.3318986 29.57724834 4 28 C3.67 33.61 3.34 39.22 3 45 C2.01 45 1.02 45 0 45 C0 30.15 0 15.3 0 0 Z " fill="#F6F7F8" transform="translate(12,23)"/>
<path d="M0 0 C0.33 0 0.66 0 1 0 C1.04934399 5.94481181 1.08569282 11.88950509 1.10986328 17.83447266 C1.11993671 19.85793127 1.13359595 21.88137528 1.15087891 23.90478516 C1.17506847 26.80895589 1.18646949 29.71293461 1.1953125 32.6171875 C1.20563507 33.52556366 1.21595764 34.43393982 1.22659302 35.36984253 C1.22674408 36.21056305 1.22689514 37.05128357 1.22705078 37.91748047 C1.231492 38.65916473 1.23593323 39.400849 1.24050903 40.16500854 C1 42 1 42 -1 44 C-1.495 42.515 -1.495 42.515 -2 41 C-2.474375 40.608125 -2.94875 40.21625 -3.4375 39.8125 C-8.55632216 33.87466629 -7.7434639 23.44768183 -7.26025391 16.00097656 C-6.51222144 10.24968756 -4.12522365 4.12522365 0 0 Z " fill="#DE373F" transform="translate(10,24)"/>
<path d="M0 0 C0 15.84 0 31.68 0 48 C-6.1 41.9 -6.1 41.9 -8 39 C-8 38.34 -8 37.68 -8 37 C-6.33333333 35.33333333 -4.66666667 33.66666667 -3 32 C-1.22443314 26.67329942 -1.27528701 21.86354769 -3.3125 16.625 C-7.25833854 12.77092514 -11.69046192 12.04359886 -17 11 C-13.47740298 5.18426139 -10.58926666 2.18075283 -3.953125 0.375 C-2 0 -2 0 0 0 Z " fill="#DE383F" transform="translate(29,12)"/>
<path d="M0 0 C0.33 0 0.66 0 1 0 C1 5.61 1 11.22 1 17 C1.66 17 2.32 17 3 17 C3.66 20.3 4.32 23.6 5 27 C5.99 27.33 6.98 27.66 8 28 C8.433125 28.7425 8.86625 29.485 9.3125 30.25 C13.47012035 37.02538131 20.65826772 40.55275591 28 43 C30.90730598 43.12365396 33.78019458 43.18514971 36.6875 43.1875 C37.85442383 43.20586914 37.85442383 43.20586914 39.04492188 43.22460938 C44.35813171 43.23790348 48.89434681 42.47626315 54 41 C54 41.66 54 42.32 54 43 C53.030625 43.474375 52.06125 43.94875 51.0625 44.4375 C48.19522563 45.70193947 48.19522563 45.70193947 47 47 C43.98918845 47.1284374 41.01140372 47.18523579 38 47.1875 C37.17371094 47.19974609 36.34742188 47.21199219 35.49609375 47.22460938 C29.86334719 47.23783178 24.36291487 46.85289287 19 45 C18.34 44.34 17.68 43.68 17 43 C16.01 42.34 15.02 41.68 14 41 C13.34 40.34 12.68 39.68 12 39 C11.34 38.731875 10.68 38.46375 10 38.1875 C7.32128129 36.59701076 6.916595 34.90255082 6 32 C5.34 32 4.68 32 4 32 C3.67 31.01 3.34 30.02 3 29 C2.690625 28.4225 2.38125 27.845 2.0625 27.25 C-0.58281909 21.64814782 -1.25538374 16.3965639 -1.1875 10.25 C-1.18105469 8.95578125 -1.17460937 7.6615625 -1.16796875 6.328125 C-1 3 -1 3 0 0 Z " fill="#C9CCCD" transform="translate(1,37)"/>
<path d="M0 0 C0.33 8.91 0.66 17.82 1 27 C2.32 27.33 3.64 27.66 5 28 C5 34.93 5 41.86 5 49 C4.01 49 3.02 49 2 49 C2 42.73 2 36.46 2 30 C1.34 30 0.68 30 0 30 C0 36.27 0 42.54 0 49 C-0.99 49 -1.98 49 -3 49 C-3 33.16 -3 17.32 -3 1 C-1 0 -1 0 0 0 Z " fill="#EEE0E2" transform="translate(32,11)"/>
<path d="M0 0 C3.63 0 7.26 0 11 0 C13 2 13 2 13.22705078 4.06298828 C13.21134033 5.30411377 13.21134033 5.30411377 13.1953125 6.5703125 C13.18564453 7.91416016 13.18564453 7.91416016 13.17578125 9.28515625 C13.15902344 10.22230469 13.14226562 11.15945312 13.125 12.125 C13.11597656 13.06988281 13.10695313 14.01476563 13.09765625 14.98828125 C13.07404522 17.32577292 13.04111516 19.66276123 13 22 C12.01 22 11.02 22 10 22 C10 16.06 10 10.12 10 4 C9.34 4 8.68 4 8 4 C8 9.94 8 15.88 8 22 C7.01 22 6.02 22 5 22 C5 16.06 5 10.12 5 4 C4.34 4 3.68 4 3 4 C3 9.94 3 15.88 3 22 C2.01 22 1.02 22 0 22 C0 14.74 0 7.48 0 0 Z " fill="#D8DDDE" transform="translate(57,38)"/>
<path d="M0 0 C7 1 7 1 8.9375 2.5 C10.5643713 6.32793247 10.54839135 9.90534459 10 14 C8.37599816 17.63467079 7.33886956 18.77408696 4 21 C2.68 21 1.36 21 0 21 C0 14.07 0 7.14 0 0 Z " fill="#DC4047" transform="translate(15,27)"/>
<path d="M0 0 C0.51046875 0.15339844 1.0209375 0.30679687 1.546875 0.46484375 C4.7749338 1.16905403 7.95418001 1.34888204 11.25 1.5625 C12.51328125 1.64628906 13.7765625 1.73007813 15.078125 1.81640625 C16.04234375 1.87699219 17.0065625 1.93757812 18 2 C18 2.33 18 2.66 18 3 C16.47632812 3.00386719 16.47632812 3.00386719 14.921875 3.0078125 C3.68355678 3.24077361 -5.11839339 5.54350213 -13.9375 13 C-22.25125419 22.2894515 -22.83133392 35.19337462 -23 47 C-23.33 47 -23.66 47 -24 47 C-24.06058594 46.03578125 -24.12117188 45.0715625 -24.18359375 44.078125 C-24.26738281 42.81484375 -24.35117187 41.5515625 -24.4375 40.25 C-24.51871094 38.99703125 -24.59992187 37.7440625 -24.68359375 36.453125 C-24.92684554 33.79837702 -25.34436633 31.55352061 -26 29 C-25.4845785 24.05195356 -24.54251468 20.54251468 -21 17 C-20.67 16.34 -20.34 15.68 -20 15 C-19.34 14.34 -18.68 13.68 -18 13 C-18 12.34 -18 11.68 -18 11 C-17.34 11 -16.68 11 -16 11 C-16 10.34 -16 9.68 -16 9 C-14.35 8.34 -12.7 7.68 -11 7 C-11 6.34 -11 5.68 -11 5 C-10.01 5 -9.02 5 -8 5 C-7.34 4.01 -6.68 3.02 -6 2 C-4 1.25 -4 1.25 -2 1 C-1.34 1.33 -0.68 1.66 0 2 C0 1.34 0 0.68 0 0 Z " fill="#ACB0B1" transform="translate(26,7)"/>
<path d="M0 0 C2.79636762 2.79636762 2.29976679 4.59514984 2.3125 8.5 C2.1302162 18.98667992 -0.1357499 26.04724422 -7 34 C-7.33 33.34 -7.66 32.68 -8 32 C-8.66 31.67 -9.32 31.34 -10 31 C-9.01 30.67 -8.02 30.34 -7 30 C-6.66781808 26.99740483 -6.66781808 26.99740483 -8.5 25.3125 C-9.2425 24.6628125 -9.2425 24.6628125 -10 24 C-9.01 24 -8.02 24 -7 24 C-7 18.06 -7 12.12 -7 6 C-6.34 6 -5.68 6 -5 6 C-5 11.94 -5 17.88 -5 24 C-4.01 24 -3.02 24 -2 24 C-2.13854088 20.70798357 -2.28707024 17.41649291 -2.4375 14.125 C-2.47681641 13.18785156 -2.51613281 12.25070313 -2.55664062 11.28515625 C-2.61948242 9.94130859 -2.61948242 9.94130859 -2.68359375 8.5703125 C-2.72025146 7.74289551 -2.75690918 6.91547852 -2.79467773 6.06298828 C-2.88238327 3.93820571 -2.88238327 3.93820571 -4 2 C-2.68 2 -1.36 2 0 2 C0 1.34 0 0.68 0 0 Z " fill="#98272D" transform="translate(72,36)"/>
<path d="M0 0 C0.33 0 0.66 0 1 0 C1.34422689 5.73711481 1.36694489 10.06983069 -2 15 C-4.1875 16.375 -4.1875 16.375 -6 17 C-2.65996999 22.24861859 1.18370122 26.83108001 5.28515625 31.49609375 C9 35.79169474 9 35.79169474 9 38 C4.6966861 37.53504425 2.94113762 35.09008984 0.1875 31.9375 C-0.68261719 30.95007813 -1.55273438 29.96265625 -2.44921875 28.9453125 C-3.29097656 27.97335938 -4.13273437 27.00140625 -5 26 C-5.72832031 25.17242187 -6.45664062 24.34484375 -7.20703125 23.4921875 C-8.81229654 21.66787379 -10.40991925 19.83754364 -12 18 C-11 16 -11 16 -8.1875 14.75 C-4.34669653 12.64132359 -3.00935845 10.86987553 -1 7 C-0.20317197 3.26774656 -0.20317197 3.26774656 0 0 Z " fill="#EFF0F1" transform="translate(27,32)"/>
<path d="M0 0 C1.86785156 0.15275391 1.86785156 0.15275391 3.7734375 0.30859375 C5.18496094 0.43427734 5.18496094 0.43427734 6.625 0.5625 C6.625 1.2225 6.625 1.8825 6.625 2.5625 C7.5221875 2.2221875 7.5221875 2.2221875 8.4375 1.875 C9.5203125 1.7203125 9.5203125 1.7203125 10.625 1.5625 C12.1875 2.9375 12.1875 2.9375 13.625 4.5625 C14.615 4.8925 15.605 5.2225 16.625 5.5625 C19.75848366 7.65148911 21.54382331 9.44073497 23.625 12.5625 C23.234375 14.7265625 23.234375 14.7265625 22.625 16.5625 C22.09132812 16.03140625 21.55765625 15.5003125 21.0078125 14.953125 C15.60165829 9.82756702 10.70620061 6.82490525 3.625 4.5625 C2.635 4.2325 1.645 3.9025 0.625 3.5625 C-1.76754576 3.33689324 -4.16428123 3.15401405 -6.5625 3 C-7.83480469 2.91621094 -9.10710938 2.83242187 -10.41796875 2.74609375 C-11.39378906 2.68550781 -12.36960937 2.62492188 -13.375 2.5625 C-13.375 1.9025 -13.375 1.2425 -13.375 0.5625 C-8.75534912 -0.39696595 -4.69370875 -0.39852244 0 0 Z " fill="#CDCFD0" transform="translate(43.375,6.4375)"/>
<path d="M0 0 C2 1.5 2 1.5 4 4 C4.35800135 6.75871627 4.18660165 9.20097524 4 12 C2.35 12 0.7 12 -1 12 C-1 14.31 -1 16.62 -1 19 C-0.34 18.67 0.32 18.34 1 18 C1.33 17.01 1.66 16.02 2 15 C2.66 15 3.32 15 4 15 C3.67 16.98 3.34 18.96 3 21 C1.35 21.33 -0.3 21.66 -2 22 C-3.63510979 18.72978041 -3.22628299 15.15266249 -3.25 11.5625 C-3.270625 10.78583984 -3.29125 10.00917969 -3.3125 9.20898438 C-3.35249405 3.40484746 -3.35249405 3.40484746 -1.47949219 1.25366211 C-0.99125977 0.83995361 -0.50302734 0.42624512 0 0 Z " fill="#FCFDFD" transform="translate(42,38)"/>
<path d="M0 0 C0.33 0 0.66 0 1 0 C1 9.24 1 18.48 1 28 C-5.1 21.9 -5.1 21.9 -7 19 C-7 18.34 -7 17.68 -7 17 C-6.21625 16.38125 -5.4325 15.7625 -4.625 15.125 C-0.47481509 11.25698064 -0.57144816 5.34773131 0 0 Z " fill="#812C30" transform="translate(28,32)"/>
<path d="M0 0 C0 0.66 0 1.32 0 2 C-0.969375 2.474375 -1.93875 2.94875 -2.9375 3.4375 C-5.80477437 4.70193947 -5.80477437 4.70193947 -7 6 C-10.07451355 6.27858031 -13.1643663 6.23182248 -16.25 6.25 C-17.10980469 6.270625 -17.96960938 6.29125 -18.85546875 6.3125 C-23.71375944 6.34244324 -27.07078208 6.21481466 -31 3 C-31 2.67 -31 2.34 -31 2 C-30.33468262 2.01047363 -29.66936523 2.02094727 -28.98388672 2.03173828 C-25.9476301 2.07350465 -22.91143414 2.09939152 -19.875 2.125 C-18.82828125 2.14175781 -17.7815625 2.15851563 -16.703125 2.17578125 C-10.87621622 2.21266042 -5.47923776 0 0 0 Z " fill="#D3D0D2" transform="translate(55,78)"/>
<path d="M0 0 C3.27166166 1.38416455 5.60339758 3.38421791 8.2734375 5.69140625 C11.27213397 7.96417394 14.59704894 9.41586761 18 11 C17.34 12.32 16.68 13.64 16 15 C13.97954558 14.39816251 11.97888961 13.72693904 10 13 C9.67 12.34 9.34 11.68 9 11 C8.34 10.67 7.68 10.34 7 10 C6.34 9.34 5.68 8.68 5 8 C4.319375 7.71125 3.63875 7.4225 2.9375 7.125 C1 6 1 6 0.25 4 C0 2 0 2 0 0 Z " fill="#A6AAAA" transform="translate(8,68)"/>
<path d="M0 0 C0.33 0 0.66 0 1 0 C1 1.98 1 3.96 1 6 C1.99 6 2.98 6 4 6 C4 4.02 4 2.04 4 0 C4.66 0 5.32 0 6 0 C6 2.64 6 5.28 6 8 C4.35 8 2.7 8 1 8 C1.34227572 10.97065509 1.34227572 10.97065509 2 14 C2.66 14.33 3.32 14.66 4 15 C4 13.68 4 12.36 4 11 C4.66 11 5.32 11 6 11 C6.125 13.375 6.125 13.375 6 16 C5.34 16.66 4.68 17.32 4 18 C1.9375 17.8125 1.9375 17.8125 0 17 C-1.02835363 13.91493912 -1.13368434 11.7305728 -1.125 8.5 C-1.12757812 7.5409375 -1.13015625 6.581875 -1.1328125 5.59375 C-1 3 -1 3 0 0 Z " fill="#F8FCFC" transform="translate(49,42)"/>
<path d="M0 0 C3 1 3 1 4.1875 2.9375 C6.11721228 10.21103092 5.45596618 16.37606483 2 23 C0.68 22.67 -0.64 22.34 -2 22 C-1.01 21.67 -0.02 21.34 1 21 C2.22520264 17.99152582 2.22520264 17.99152582 3 15 C2.34 15 1.68 15 1 15 C0.67 16.32 0.34 17.64 0 19 C-0.66 19 -1.32 19 -2 19 C-2 16.69 -2 14.38 -2 12 C-0.35 12 1.3 12 3 12 C2.69106068 10.3743193 2.3777305 8.74947252 2.0625 7.125 C1.88847656 6.22007813 1.71445312 5.31515625 1.53515625 4.3828125 C1.10036299 2.00043683 1.10036299 2.00043683 0 0 Z " fill="#794347" transform="translate(43,38)"/>
<path d="M0 0 C1.65 0 3.3 0 5 0 C4.67 0.66 4.34 1.32 4 2 C3.84995027 3.3734635 3.75161994 4.7528526 3.68359375 6.1328125 C3.64169922 6.93847656 3.59980469 7.74414062 3.55664062 8.57421875 C3.49766602 9.83685547 3.49766602 9.83685547 3.4375 11.125 C3.39431641 11.97449219 3.35113281 12.82398438 3.30664062 13.69921875 C3.20045764 15.79928223 3.09971503 17.89961948 3 20 C2.01 20.33 1.02 20.66 0 21 C0 14.07 0 7.14 0 0 Z " fill="#91353A" transform="translate(15,27)"/>
<path d="M0 0 C1.9375 0.3125 1.9375 0.3125 4 1 C4.33 1.99 4.66 2.98 5 4 C5.495 4.598125 5.99 5.19625 6.5 5.8125 C8.80061576 9.16756465 9.2967088 12.38929507 8.5625 16.375 C8.376875 16.91125 8.19125 17.4475 8 18 C7.34 18 6.68 18 6 18 C5.73445313 17.31292969 5.46890625 16.62585938 5.1953125 15.91796875 C4.84210938 15.01691406 4.48890625 14.11585937 4.125 13.1875 C3.77695313 12.29417969 3.42890625 11.40085937 3.0703125 10.48046875 C2.01167845 7.82288409 2.01167845 7.82288409 0 5 C-0.125 2.3125 -0.125 2.3125 0 0 Z " fill="#9DA1A3" transform="translate(67,20)"/>
<path d="M0 0 C0.33 0.66 0.66 1.32 1 2 C0.42975673 3.39859666 -0.20874258 4.76951077 -0.875 6.125 C-3.88170569 13.17520646 -3.81258289 20.44709042 -4 28 C-4.33 28 -4.66 28 -5 28 C-5.06058594 27.03578125 -5.12117187 26.0715625 -5.18359375 25.078125 C-5.26738281 23.81484375 -5.35117188 22.5515625 -5.4375 21.25 C-5.51871094 19.99703125 -5.59992187 18.7440625 -5.68359375 17.453125 C-5.92687442 14.79806184 -6.34571723 12.55399853 -7 10 C-6.60889723 6.16719281 -6.16327755 4.24491633 -4 1 C-3.01 1 -2.02 1 -1 1 C-0.67 0.67 -0.34 0.34 0 0 Z " fill="#8A8D8F" transform="translate(7,26)"/>
<path d="M0 0 C2 1 2 1 2.625 2.5625 C3.43025202 7.79663811 3.28238384 12.87046466 2 18 C1.67 18 1.34 18 1 18 C1 16.35 1 14.7 1 13 C0.34 13 -0.32 13 -1 13 C-1 14.32 -1 15.64 -1 17 C-1.99 16.67 -2.98 16.34 -4 16 C-4 14.02 -4 12.04 -4 10 C-2.35 10 -0.7 10 1 10 C0.67 6.7 0.34 3.4 0 0 Z " fill="#7B4548" transform="translate(54,40)"/>
<path d="M0 0 C0 4.29 0 8.58 0 13 C-5.57142857 7.85714286 -5.57142857 7.85714286 -6 4 C-1.125 0 -1.125 0 0 0 Z " fill="#CD343B" transform="translate(29,47)"/>
<path d="M0 0 C2.0625 1.75 2.0625 1.75 4 4 C3.78842197 6.39788436 3.07207819 7.85584361 2 10 C1.01 10 0.02 10 -1 10 C-2.57035335 7.50590939 -3.0274945 6.29556584 -2.75 3.3125 C-2.5025 2.549375 -2.255 1.78625 -2 1 C-1.34 0.67 -0.68 0.34 0 0 Z " fill="#EBEAEB" transform="translate(42,38)"/>
<path d="M0 0 C0.99 0.33 1.98 0.66 3 1 C2.67 3.97 2.34 6.94 2 10 C1.01 10 0.02 10 -1 10 C-3 7 -3 7 -2.75 4.4375 C-2 2 -2 2 0 0 Z " fill="#C09DA0" transform="translate(51,38)"/>
<path d="M0 0 C2.87978754 1.43989377 4.21482174 3.35301155 6 6 C5.61328125 8.16796875 5.61328125 8.16796875 5 10 C3.66079162 8.88200014 2.32877444 7.75538103 1 6.625 C-0.11375 5.68527344 -0.11375 5.68527344 -1.25 4.7265625 C-1.8275 4.15679687 -2.405 3.58703125 -3 3 C-3 2.34 -3 1.68 -3 1 C-2.01 0.67 -1.02 0.34 0 0 Z " fill="#D0D6D7" transform="translate(61,13)"/>
<path d="M0 0 C0.33 0 0.66 0 1 0 C1 2.31 1 4.62 1 7 C1.66 6.67 2.32 6.34 3 6 C3.33 5.01 3.66 4.02 4 3 C4.66 3 5.32 3 6 3 C5.67 4.98 5.34 6.96 5 9 C3.35 9.33 1.7 9.66 0 10 C-0.95024979 6.30458414 -0.95024979 3.69541586 0 0 Z " fill="#EEEFF0" transform="translate(40,50)"/>
<path d="M0 0 C2.475 0.99 2.475 0.99 5 2 C2.59497187 4.91134984 0.71095287 5.53613089 -3 6 C-3.99 6 -4.98 6 -6 6 C-4.6875 4.5 -4.6875 4.5 -3 3 C-2.01 3 -1.02 3 0 3 C0 2.01 0 1.02 0 0 Z " fill="#727477" transform="translate(55,77)"/>
<path d="M0 0 C0.66 0.33 1.32 0.66 2 1 C2 1.66 2 2.32 2 3 C2.99 3.33 3.98 3.66 5 4 C4.67 5.32 4.34 6.64 4 8 C3.01 8 2.02 8 1 8 C0.67 7.01 0.34 6.02 0 5 C-0.33 4.34 -0.66 3.68 -1 3 C-0.67 2.01 -0.34 1.02 0 0 Z " fill="#B6B8B9" transform="translate(4,61)"/>
<path d="M0 0 C2.64 0.33 5.28 0.66 8 1 C2 5 2 5 -2 5 C-1.34 3.35 -0.68 1.7 0 0 Z " fill="#C4C5C6" transform="translate(20,9)"/>
<path d="M0 0 C0.66 0 1.32 0 2 0 C2.125 2.375 2.125 2.375 2 5 C1.34 5.66 0.68 6.32 0 7 C-2.125 6.625 -2.125 6.625 -4 6 C-3.67 5.01 -3.34 4.02 -3 3 C-2.01 3.33 -1.02 3.66 0 4 C0 2.68 0 1.36 0 0 Z " fill="#EDF3F3" transform="translate(53,53)"/>
<path d="M0 0 C1.65 1.65 3.3 3.3 5 5 C3.68 4.67 2.36 4.34 1 4 C1 6.97 1 9.94 1 13 C0.67 13 0.34 13 0 13 C0 8.71 0 4.42 0 0 Z " fill="#D33238" transform="translate(16,51)"/>
<path d="M0 0 C2.6875 0.3125 2.6875 0.3125 5 1 C4.34 2.32 3.68 3.64 3 5 C1.02 4.34 -0.96 3.68 -3 3 C-1.8125 1.4375 -1.8125 1.4375 0 0 Z " fill="#8C8F90" transform="translate(21,78)"/>
<path d="M0 0 C0.99 0.33 1.98 0.66 3 1 C2.67 2.32 2.34 3.64 2 5 C0.68 4.67 -0.64 4.34 -2 4 C-1.34 2.68 -0.68 1.36 0 0 Z " fill="#B7797D" transform="translate(63,62)"/>
<path d="M0 0 C1.32 0.33 2.64 0.66 4 1 C4 2.98 4 4.96 4 7 C3.01 7.495 3.01 7.495 2 8 C-0.1519437 4.77208445 -0.20086443 3.71599191 0 0 Z " fill="#B6BBBC" transform="translate(67,20)"/>
<path d="M0 0 C2 2 2 2 2.125 4.625 C2.08375 5.40875 2.0425 6.1925 2 7 C1.01 7 0.02 7 -1 7 C-1.04254356 5.00045254 -1.04080783 2.99958364 -1 1 C-0.67 0.67 -0.34 0.34 0 0 Z " fill="#925256" transform="translate(42,41)"/>
<path d="M0 0 C2.475 0.99 2.475 0.99 5 2 C5 2.66 5 3.32 5 4 C3.02 4 1.04 4 -1 4 C-0.67 2.68 -0.34 1.36 0 0 Z " fill="#C9CFD0" transform="translate(16,75)"/>
<path d="M0 0 C0 0.99 0 1.98 0 3 C-0.66 2.67 -1.32 2.34 -2 2 C-1.34 1.34 -0.68 0.68 0 0 Z " fill="#000000" transform="translate(67,72)"/>
<path d="" fill="#000000" transform="translate(0,0)"/>
<path d="" fill="#000000" transform="translate(0,0)"/>
<path d="" fill="#000000" transform="translate(0,0)"/>
<path d="" fill="#000000" transform="translate(0,0)"/>
<path d="" fill="#000000" transform="translate(0,0)"/>
<path d="" fill="#000000" transform="translate(0,0)"/>
<path d="" fill="#000000" transform="translate(0,0)"/>
<path d="" fill="#000000" transform="translate(0,0)"/>
<path d="" fill="#000000" transform="translate(0,0)"/>
<path d="" fill="#000000" transform="translate(0,0)"/>
<path d="" fill="#000000" transform="translate(0,0)"/>
<path d="" fill="#000000" transform="translate(0,0)"/>
<path d="" fill="#000000" transform="translate(0,0)"/>
<path d="" fill="#000000" transform="translate(0,0)"/>
<path d="" fill="#000000" transform="translate(0,0)"/>
<path d="" fill="#000000" transform="translate(0,0)"/>
<path d="" fill="#000000" transform="translate(0,0)"/>
<path d="" fill="#000000" transform="translate(0,0)"/>
<path d="" fill="#000000" transform="translate(0,0)"/>
<path d="" fill="#000000" transform="translate(0,0)"/>
<path d="" fill="#000000" transform="translate(0,0)"/>
<path d="" fill="#000000" transform="translate(0,0)"/>
<path d="" fill="#000000" transform="translate(0,0)"/>
<path d="" fill="#000000" transform="translate(0,0)"/>
<path d="" fill="#000000" transform="translate(0,0)"/>
<path d="" fill="#000000" transform="translate(0,0)"/>
<path d="" fill="#000000" transform="translate(0,0)"/>
<path d="" fill="#000000" transform="translate(0,0)"/>
<path d="" fill="#000000" transform="translate(0,0)"/>
<path d="" fill="#000000" transform="translate(0,0)"/>
<path d="" fill="#000000" transform="translate(0,0)"/>
<path d="" fill="#000000" transform="translate(0,0)"/>
<path d="" fill="#000000" transform="translate(0,0)"/>
</svg>
