<?xml version="1.0" encoding="UTF-8"?>
<svg version="1.1" xmlns="http://www.w3.org/2000/svg" width="154" height="34">
<path d="M0 0 C0.74056641 0.00451172 1.48113281 0.00902344 2.24414062 0.01367188 C4.05862899 0.02537825 5.87307534 0.04331102 7.6875 0.0625 C8.0175 0.7225 8.3475 1.3825 8.6875 2.0625 C9.3475 2.371875 10.0075 2.68125 10.6875 3 C14.11713387 4.821993 14.49644893 9.48934678 15.6875 13.0625 C15.756491 15.12395107 15.77217727 17.18751401 15.75 19.25 C15.74097656 20.33667969 15.73195312 21.42335938 15.72265625 22.54296875 C15.71105469 23.37441406 15.69945312 24.20585937 15.6875 25.0625 C15.0275 25.0625 14.3675 25.0625 13.6875 25.0625 C12.11791807 26.73971041 10.7394475 28.53044114 9.3203125 30.3359375 C6.68636958 33.12111159 4.67310882 33.98251249 0.84765625 34.29296875 C-0.17457031 34.27878906 -1.19679688 34.26460937 -2.25 34.25 C-3.77947266 34.24033203 -3.77947266 34.24033203 -5.33984375 34.23046875 C-8.12148059 34.07329348 -10.62951728 33.81335256 -13.3125 33.0625 C-14.4375 31.0625 -14.4375 31.0625 -15.3125 29.0625 C-16.3025 28.7325 -17.2925 28.4025 -18.3125 28.0625 C-19.17536752 24.33710372 -19.44724793 20.88368675 -19.4375 17.0625 C-19.44007812 16.051875 -19.44265625 15.04125 -19.4453125 14 C-19.31957044 11.21888147 -19.06593009 8.7424222 -18.3125 6.0625 C-16.3125 4.9375 -16.3125 4.9375 -14.3125 4.0625 C-13.9825 3.0725 -13.6525 2.0825 -13.3125 1.0625 C-8.8746439 -0.04915232 -4.54293614 -0.05277763 0 0 Z M-6.3125 3.0625 C-6.3125 5.7025 -6.3125 8.3425 -6.3125 11.0625 C-3.3425 11.0625 -0.3725 11.0625 2.6875 11.0625 C2.3575 8.4225 2.0275 5.7825 1.6875 3.0625 C-0.9525 3.0625 -3.5925 3.0625 -6.3125 3.0625 Z M5.6875 6.0625 C6.6775 7.0525 7.6675 8.0425 8.6875 9.0625 C8.3575 8.0725 8.0275 7.0825 7.6875 6.0625 C7.0275 6.0625 6.3675 6.0625 5.6875 6.0625 Z M-13.3125 8.0625 C-13.3125 11.0625 -13.3125 11.0625 -13.3125 11.0625 Z M8.6875 9.0625 C9.3475 10.3825 10.0075 11.7025 10.6875 13.0625 C10.3575 11.7425 10.0275 10.4225 9.6875 9.0625 C9.3575 9.0625 9.0275 9.0625 8.6875 9.0625 Z M-15.3125 11.0625 C-16.7908226 14.01914519 -16.37282783 16.80479737 -16.3125 20.0625 C-15.9825 20.0625 -15.6525 20.0625 -15.3125 20.0625 C-14.9825 17.0925 -14.6525 14.1225 -14.3125 11.0625 C-14.6425 11.0625 -14.9725 11.0625 -15.3125 11.0625 Z M5.6875 13.0625 C5.6875 15.7025 5.6875 18.3425 5.6875 21.0625 C6.0175 21.0625 6.3475 21.0625 6.6875 21.0625 C6.6875 18.4225 6.6875 15.7825 6.6875 13.0625 C6.3575 13.0625 6.0275 13.0625 5.6875 13.0625 Z M10.6875 13.0625 C10.6875 15.7025 10.6875 18.3425 10.6875 21.0625 C11.0175 21.0625 11.3475 21.0625 11.6875 21.0625 C11.6875 18.4225 11.6875 15.7825 11.6875 13.0625 C11.3575 13.0625 11.0275 13.0625 10.6875 13.0625 Z M-11.3125 14.0625 C-11.3125 16.0425 -11.3125 18.0225 -11.3125 20.0625 C-10.9825 20.0625 -10.6525 20.0625 -10.3125 20.0625 C-10.3125 18.0825 -10.3125 16.1025 -10.3125 14.0625 C-10.6425 14.0625 -10.9725 14.0625 -11.3125 14.0625 Z M-6.3125 15.0625 C-6.3125 16.3825 -6.3125 17.7025 -6.3125 19.0625 C-3.3425 19.0625 -0.3725 19.0625 2.6875 19.0625 C2.6875 17.7425 2.6875 16.4225 2.6875 15.0625 C-0.2825 15.0625 -3.2525 15.0625 -6.3125 15.0625 Z M-15.3125 20.0625 C-14.3125 23.0625 -14.3125 23.0625 -14.3125 23.0625 Z M9.6875 21.0625 C9.3575 22.3825 9.0275 23.7025 8.6875 25.0625 C9.3475 24.7325 10.0075 24.4025 10.6875 24.0625 C10.3575 23.0725 10.0275 22.0825 9.6875 21.0625 Z M-14.3125 23.0625 C-13.9825 24.0525 -13.6525 25.0425 -13.3125 26.0625 C-13.3125 25.0725 -13.3125 24.0825 -13.3125 23.0625 C-13.6425 23.0625 -13.9725 23.0625 -14.3125 23.0625 Z M-6.3125 23.0625 C-5.9825 25.7025 -5.6525 28.3425 -5.3125 31.0625 C-3.0025 31.0625 -0.6925 31.0625 1.6875 31.0625 C2.66870464 28.00986336 2.66870464 26.11513664 1.6875 23.0625 C-0.9525 23.0625 -3.5925 23.0625 -6.3125 23.0625 Z M7.6875 25.0625 C6.6975 26.5475 6.6975 26.5475 5.6875 28.0625 C6.6775 27.7325 7.6675 27.4025 8.6875 27.0625 C8.3575 26.4025 8.0275 25.7425 7.6875 25.0625 Z M-11.3125 27.0625 C-10.9825 27.7225 -10.6525 28.3825 -10.3125 29.0625 C-9.6525 28.7325 -8.9925 28.4025 -8.3125 28.0625 C-9.3025 27.7325 -10.2925 27.4025 -11.3125 27.0625 Z M-7.3125 28.0625 C-7.6425 28.7225 -7.9725 29.3825 -8.3125 30.0625 C-7.6525 30.0625 -6.9925 30.0625 -6.3125 30.0625 C-6.6425 29.4025 -6.9725 28.7425 -7.3125 28.0625 Z " fill="#838384" transform="translate(19.3125,-0.0625)"/>
<path d="M0 0 C5.61 0 11.22 0 17 0 C18.63287503 3.26575007 19.09005533 5.01211704 19 8.6875 C18.95082444 12.92274481 19.27515266 16.83212777 20 21 C19.01 21.33 18.02 21.66 17 22 C17 22.66 17 23.32 17 24 C11.06 24.33 5.12 24.66 -1 25 C-0.67 16.75 -0.34 8.5 0 0 Z M6 6 C6 6.99 6 7.98 6 9 C7.65 9 9.3 9 11 9 C11 8.01 11 7.02 11 6 C9.35 6 7.7 6 6 6 Z M6 15 C6 15.99 6 16.98 6 18 C7.98 18 9.96 18 12 18 C12 17.01 12 16.02 12 15 C10.02 15 8.04 15 6 15 Z " fill="#D3000D" transform="translate(51,5)"/>
<path d="M0 0 C2.31 0 4.62 0 7 0 C7 2.64 7 5.28 7 8 C8.65 8 10.3 8 12 8 C11.979375 6.865625 11.95875 5.73125 11.9375 4.5625 C12 1 12 1 13 0 C14.98 0 16.96 0 19 0 C19 7.92 19 15.84 19 24 C16.69 24.33 14.38 24.66 12 25 C12 22.03 12 19.06 12 16 C10.35 15.67 8.7 15.34 7 15 C7.33 18.3 7.66 21.6 8 25 C5.03 25 2.06 25 -1 25 C-0.67 16.75 -0.34 8.5 0 0 Z " fill="#CA000C" transform="translate(135,5)"/>
<path d="M0 0 C7.0100541 -0.44904261 11.52959762 -0.62880202 17 4 C17.66 4.33 18.32 4.66 19 5 C18.67 5.99 18.34 6.98 18 8 C18.061875 9.2375 18.12375 10.475 18.1875 11.75 C18.26655493 16.51086336 16.65102832 19.10142894 14 23 C13.34 23.66 12.68 24.32 12 25 C11.67 24.67 11.34 24.34 11 24 C8.69206406 24.22130893 6.41957057 24.58475386 4.12890625 24.94140625 C3.42636719 24.96074219 2.72382812 24.98007812 2 25 C-2 21 -2 21 -3 18 C-3.391875 17.319375 -3.78375 16.63875 -4.1875 15.9375 C-5.43433614 11.42970781 -4.1256096 7.45914571 -3 3 C-2.01 2.67 -1.02 2.34 0 2 C0 1.34 0 0.68 0 0 Z M5 6 C2.68717413 9.46923881 2.57521414 10.92205575 3 15 C4.10649669 17.02478463 4.10649669 17.02478463 6 18 C8.13745922 17.74853421 9.45925779 17.54074221 11 16 C11.22918242 11.98342857 11.22918242 11.98342857 11 8 C10.34 7.34 9.68 6.68 9 6 C7.68 6 6.36 6 5 6 Z " fill="#D2000C" transform="translate(75,5)"/>
<path d="M0 0 C1.03145371 1.30915279 2.03542166 2.64082143 3 4 C1.35 5.98 -0.3 7.96 -2 10 C-1.360625 10.309375 -0.72125 10.61875 -0.0625 10.9375 C2 12 2 12 3 13 C3.31099715 17.56129148 2.77507162 19.56232095 1 24 C-3.95 24 -8.9 24 -14 24 C-14.66 22.35 -15.32 20.7 -16 19 C-14.68 17.35 -13.36 15.7 -12 14 C-12.515625 13.29875 -13.03125 12.5975 -13.5625 11.875 C-15.34196438 8.31607124 -15.2227635 6.74980806 -14 3 C-11.63849137 0.26064999 -9.33019477 -0.24206756 -5.875 -0.75 C-2 -1 -2 -1 0 0 Z M-8 6 C-7 8 -7 8 -7 8 Z M-5 7 C-5.33 7.66 -5.66 8.32 -6 9 C-5.01 8.67 -4.02 8.34 -3 8 C-3.66 7.67 -4.32 7.34 -5 7 Z M-10 14 C-10.33 14.99 -10.66 15.98 -11 17 C-8.69 17.33 -6.38 17.66 -4 18 C-4 17.01 -4 16.02 -4 15 C-6.97 14.505 -6.97 14.505 -10 14 Z " fill="#D3000D" transform="translate(109,5)"/>
<path d="M0 0 C9.99562363 -0.63019694 9.99562363 -0.63019694 14.1875 2 C15.0846875 2.99 15.0846875 2.99 16 4 C15.67 5.65 15.34 7.3 15 9 C14.44570312 8.84402344 13.89140625 8.68804687 13.3203125 8.52734375 C12.59585938 8.33269531 11.87140625 8.13804688 11.125 7.9375 C10.40570313 7.74027344 9.68640625 7.54304687 8.9453125 7.33984375 C6.92726407 6.78867393 6.92726407 6.78867393 5 8 C4.16442277 10.93008319 4.16442277 10.93008319 4 14 C5.9254644 16.2236068 5.9254644 16.2236068 9 17 C9.99 16.34 10.98 15.68 12 15 C13.32 15.99 14.64 16.98 16 18 C14.63016497 21.16115776 14.0109362 21.9927092 11 24 C8.73828125 24.4140625 8.73828125 24.4140625 6.3125 24.625 C5.50425781 24.69976563 4.69601563 24.77453125 3.86328125 24.8515625 C2.94095703 24.92503906 2.94095703 24.92503906 2 25 C2 24.34 2 23.68 2 23 C1.195625 22.79375 0.39125 22.5875 -0.4375 22.375 C-3 21 -3 21 -3.8125 18.3125 C-3.874375 17.219375 -3.93625 16.12625 -4 15 C-4.103125 13.865625 -4.20625 12.73125 -4.3125 11.5625 C-3.91490257 7.02988934 -2.43387305 4.80292665 0 1 C0 0.67 0 0.34 0 0 Z " fill="#D3000D" transform="translate(117,5)"/>
<path d="M0 0 C0.66 0.33 1.32 0.66 2 1 C2 2.65 2 4.3 2 6 C4.97 6 7.94 6 11 6 C11 6.33 11 6.66 11 7 C7.37 7 3.74 7 0 7 C0 7.66 0 8.32 0 9 C3.63 9 7.26 9 11 9 C11 9.33 11 9.66 11 10 C8.03 10 5.06 10 2 10 C2 11.65 2 13.3 2 15 C5.3 15.33 8.6 15.66 12 16 C11.67 17.98 11.34 19.96 11 22 C10.67 20.68 10.34 19.36 10 18 C7.36 18 4.72 18 2 18 C2 19.65 2 21.3 2 23 C-1 23 -1 23 -3.625 21.0625 C-6.69832814 17.09952424 -7.45107658 13.9788641 -7 9 C-5.55527607 4.9563018 -3.6122022 2.4081348 0 0 Z M-3 9 C-3 10.98 -3 12.96 -3 15 C-2.67 15 -2.34 15 -2 15 C-2 13.02 -2 11.04 -2 9 C-2.33 9 -2.66 9 -3 9 Z " fill="#6B6B6D" transform="translate(11,5)"/>
<path d="M0 0 C0.74056641 0.00451172 1.48113281 0.00902344 2.24414062 0.01367188 C4.05862899 0.02537825 5.87307534 0.04331102 7.6875 0.0625 C8.0175 0.7225 8.3475 1.3825 8.6875 2.0625 C9.3475 2.371875 10.0075 2.68125 10.6875 3 C14.11713387 4.821993 14.49644893 9.48934678 15.6875 13.0625 C15.756491 15.12395107 15.77217727 17.18751401 15.75 19.25 C15.74097656 20.33667969 15.73195313 21.42335938 15.72265625 22.54296875 C15.71105469 23.37441406 15.69945313 24.20585937 15.6875 25.0625 C14.6975 25.0625 13.7075 25.0625 12.6875 25.0625 C10.85800939 22.31826409 10.57173817 20.21346362 10.625 17 C10.90341537 13.15817195 10.90341537 13.15817195 9.6875 10.0625 C8.6975 10.0625 7.7075 10.0625 6.6875 10.0625 C5.6975 9.4025 4.7075 8.7425 3.6875 8.0625 C3.0275 8.7225 2.3675 9.3825 1.6875 10.0625 C1.6875 7.7525 1.6875 5.4425 1.6875 3.0625 C-0.6556213 3.31811323 -2.99093403 3.65520772 -5.3125 4.0625 C-5.6425 4.7225 -5.9725 5.3825 -6.3125 6.0625 C-9.19687779 4.76950306 -11.18469421 3.40308637 -13.3125 1.0625 C-8.8746439 -0.04915232 -4.54293614 -0.05277763 0 0 Z M5.6875 6.0625 C6.6775 7.0525 7.6675 8.0425 8.6875 9.0625 C8.3575 8.0725 8.0275 7.0825 7.6875 6.0625 C7.0275 6.0625 6.3675 6.0625 5.6875 6.0625 Z " fill="#727374" transform="translate(19.3125,-0.0625)"/>
<path d="M0 0 C3 1.5 3 1.5 6 4 C6.55411674 6.84663895 6.29302268 9.06977319 6 12 C5.01 12.495 5.01 12.495 4 13 C3.34 10.03 2.68 7.06 2 4 C2.02320313 4.89203125 2.04640625 5.7840625 2.0703125 6.703125 C2.09738281 8.45882813 2.09738281 8.45882813 2.125 10.25 C2.14820313 11.41015625 2.17140625 12.5703125 2.1953125 13.765625 C2.0103949 16.82786046 1.60823023 18.44202751 0 21 C-0.33 21 -0.66 21 -1 21 C-1 19.02 -1 17.04 -1 15 C-4.3 14.67 -7.6 14.34 -11 14 C-10.67 13.34 -10.34 12.68 -10 12 C-7.35139573 11.40644386 -4.70802678 11.25790731 -2 11 C-1.67 9.68 -1.34 8.36 -1 7 C-4.63 7 -8.26 7 -12 7 C-12 8.65 -12 10.3 -12 12 C-12.33 12 -12.66 12 -13 12 C-13 9.03 -13 6.06 -13 3 C-12.67 3.66 -12.34 4.32 -12 5 C-8.37 5 -4.74 5 -1 5 C-0.67 3.35 -0.34 1.7 0 0 Z " fill="#EFF2F3" transform="translate(23,7)"/>
<path d="M0 0 C3.11990898 2.78533429 3.53816182 4.84345641 4 9 C4.33 7.02 4.66 5.04 5 3 C5.33 3 5.66 3 6 3 C6.42803396 9.20649237 5.90249282 11.9149336 2 17 C1.67 17.99 1.34 18.98 1 20 C-1.0625 20.6875 -1.0625 20.6875 -3 21 C-3 20.01 -3 19.02 -3 18 C-2.34 17.67 -1.68 17.34 -1 17 C0.32421988 13.5020607 0.09945529 9.94552923 0.0625 6.25 C0.05347656 5.07953125 0.04445313 3.9090625 0.03515625 2.703125 C0.02355469 1.81109375 0.01195312 0.9190625 0 0 Z M1 3 C1 5.64 1 8.28 1 11 C1.33 11 1.66 11 2 11 C2 8.36 2 5.72 2 3 C1.67 3 1.34 3 1 3 Z " fill="#535253" transform="translate(24,10)"/>
<path d="M0 0 C3.63 0 7.26 0 11 0 C11 0.33 11 0.66 11 1 C8.03 1 5.06 1 2 1 C2 2.65 2 4.3 2 6 C5.3 6.33 8.6 6.66 12 7 C11.67 8.98 11.34 10.96 11 13 C10.67 11.68 10.34 10.36 10 9 C7.36 9 4.72 9 2 9 C2 10.65 2 12.3 2 14 C1.01 14 0.02 14 -1 14 C-0.67 9.38 -0.34 4.76 0 0 Z " fill="#3A3C3D" transform="translate(11,14)"/>
<path d="M0 0 C0.99 0 1.98 0 3 0 C3.1690907 2.06230268 3.33517133 4.1248523 3.5 6.1875 C3.5928125 7.33605469 3.685625 8.48460937 3.78125 9.66796875 C3.9645962 12.46072426 4.04213637 15.20319812 4 18 C3.01 18 2.02 18 1 18 C-0.9673374 14.71073629 -1.24447228 12.24428419 -1.1875 8.4375 C-1.18105469 7.48746094 -1.17460937 6.53742187 -1.16796875 5.55859375 C-1 3 -1 3 0 0 Z " fill="#5C5C5E" transform="translate(31,7)"/>
<path d="M0 0 C2.0625 0.4375 2.0625 0.4375 4 1 C0.2390625 5.7984375 0.2390625 5.7984375 -1.59375 7.34375 C-3.50194022 9.59117403 -3.49850837 11.27702892 -3.6875 14.1875 C-3.75324219 15.08855469 -3.81898437 15.98960938 -3.88671875 16.91796875 C-3.92410156 17.60503906 -3.96148437 18.29210937 -4 19 C-4.66 18.67 -5.32 18.34 -6 18 C-6.20593692 6.21583179 -6.20593692 6.21583179 -5 3 C-3 1.75 -3 1.75 -1 1 C-0.67 0.67 -0.34 0.34 0 0 Z " fill="#939395" transform="translate(6,3)"/>
<path d="M0 0 C0.66 0.33 1.32 0.66 2 1 C2 2.65 2 4.3 2 6 C4.97 6 7.94 6 11 6 C11 6.33 11 6.66 11 7 C7.37 7 3.74 7 0 7 C0 6.34 0 5.68 0 5 C-0.45375 5.45375 -0.9075 5.9075 -1.375 6.375 C-3.1875 8.1875 -3.1875 8.1875 -5 10 C-4.50769231 3.47692308 -4.50769231 3.47692308 -1.9375 1.0625 C-0.9784375 0.5365625 -0.9784375 0.5365625 0 0 Z " fill="#898A8A" transform="translate(11,5)"/>
<path d="M0 0 C0.33 0 0.66 0 1 0 C1.39180108 1.57925975 1.76280736 3.16368794 2.125 4.75 C2.33382813 5.63171875 2.54265625 6.5134375 2.7578125 7.421875 C3.03088304 10.32875493 2.53508028 11.56661348 1 14 C0.67 14 0.34 14 0 14 C0 12.02 0 10.04 0 8 C-3.3 7.67 -6.6 7.34 -10 7 C-9.67 6.34 -9.34 5.68 -9 5 C-6.35139573 4.40644386 -3.70802678 4.25790731 -1 4 C-0.67 2.68 -0.34 1.36 0 0 Z " fill="#A4A9AB" transform="translate(22,14)"/>
<path d="M0 0 C0.33 0 0.66 0 1 0 C1.3125 2.1875 1.3125 2.1875 1 5 C-1.1875 7.8125 -1.1875 7.8125 -4 10 C-6.8125 10.3125 -6.8125 10.3125 -9 10 C-8.67 9.34 -8.34 8.68 -8 8 C-7.34 8 -6.68 8 -6 8 C-6 7.34 -6 6.68 -6 6 C-4.37550757 4.29220027 -2.70779973 2.62449243 -1 1 C-0.67 0.67 -0.34 0.34 0 0 Z " fill="#AAABAB" transform="translate(31,22)"/>
<path d="M0 0 C0.33 0 0.66 0 1 0 C1.84681133 5.08086796 2.09038099 9.84828377 2 15 C0.125 14.8125 0.125 14.8125 -2 14 C-3.25 11.4375 -3.25 11.4375 -4 9 C-3.01 9.33 -2.02 9.66 -1 10 C-0.67 6.7 -0.34 3.4 0 0 Z " fill="#8D9092" transform="translate(9,12)"/>
<path d="M0 0 C0.33 0.66 0.66 1.32 1 2 C0.67 2.66 0.34 3.32 0 4 C-0.15725856 8.16735187 0.01682892 11.94441928 1 16 C-0.32 16.99 -1.64 17.98 -3 19 C-3.33 16.69 -3.66 14.38 -4 12 C-3.67 12 -3.34 12 -3 12 C-2.95101563 11.38511719 -2.90203125 10.77023438 -2.8515625 10.13671875 C-2.77679688 9.32847656 -2.70203125 8.52023438 -2.625 7.6875 C-2.55539063 6.88699219 -2.48578125 6.08648437 -2.4140625 5.26171875 C-2 3 -2 3 0 0 Z " fill="#464748" transform="translate(4,9)"/>
<path d="M0 0 C3 1.5 3 1.5 6 4 C6.55411674 6.84663895 6.29302268 9.06977319 6 12 C5.01 12.495 5.01 12.495 4 13 C3.87882812 12.36191406 3.75765625 11.72382813 3.6328125 11.06640625 C3.46523438 10.24011719 3.29765625 9.41382813 3.125 8.5625 C2.96257813 7.73878906 2.80015625 6.91507813 2.6328125 6.06640625 C2.42398437 5.38449219 2.21515625 4.70257812 2 4 C1.34 3.67 0.68 3.34 0 3 C-0.33 3.66 -0.66 4.32 -1 5 C-0.67 3.35 -0.34 1.7 0 0 Z " fill="#C1C7C9" transform="translate(23,7)"/>
<path d="M0 0 C2.125 0.375 2.125 0.375 4 1 C0.375 5.875 0.375 5.875 -3 7 C-2.25 2.25 -2.25 2.25 0 0 Z " fill="#999B9B" transform="translate(6,3)"/>
<path d="M0 0 C0.1875 2.375 0.1875 2.375 0 5 C-0.99 5.66 -1.98 6.32 -3 7 C-3.6875 5.1875 -3.6875 5.1875 -4 3 C-1.64285714 0 -1.64285714 0 0 0 Z " fill="#989697" transform="translate(32,22)"/>
<path d="M0 0 C0 0.99 0 1.98 0 3 C-0.99 3 -1.98 3 -3 3 C-2.01 2.01 -1.02 1.02 0 0 Z " fill="#000000" transform="translate(31,28)"/>
<path d="M0 0 C0 0.99 0 1.98 0 3 C-0.66 2.67 -1.32 2.34 -2 2 C-1.34 1.34 -0.68 0.68 0 0 Z " fill="#000000" transform="translate(133,25)"/>
<path d="M0 0 C0.33 0.66 0.66 1.32 1 2 C0.34 1.67 -0.32 1.34 -1 1 C-0.67 0.67 -0.34 0.34 0 0 Z " fill="#000000" transform="translate(69,26)"/>
<path d="M0 0 C0.99 0.495 0.99 0.495 2 1 C1.01 1.495 1.01 1.495 0 2 C0 1.34 0 0.68 0 0 Z " fill="#000000" transform="translate(93,21)"/>
<path d="M0 0 C0.66 0 1.32 0 2 0 C1.67 0.66 1.34 1.32 1 2 C0.67 1.34 0.34 0.68 0 0 Z " fill="#000000" transform="translate(110,15)"/>
<path d="M0 0 C2 1 2 1 2 1 Z " fill="#000000" transform="translate(25,33)"/>
<path d="M0 0 C2 1 2 1 2 1 Z " fill="#000000" transform="translate(128,29)"/>
<path d="M0 0 C2 1 2 1 2 1 Z " fill="#000000" transform="translate(117,28)"/>
<path d="" fill="#000000" transform="translate(0,0)"/>
<path d="" fill="#000000" transform="translate(0,0)"/>
<path d="M0 0 C2 1 2 1 2 1 Z " fill="#000000" transform="translate(91,25)"/>
<path d="M0 0 C2 1 2 1 2 1 Z " fill="#000000" transform="translate(130,20)"/>
<path d="M0 0 C2 1 2 1 2 1 Z " fill="#000000" transform="translate(80,12)"/>
<path d="M0 0 C2 1 2 1 2 1 Z " fill="#000000" transform="translate(109,5)"/>
<path d="M0 0 C2 1 2 1 2 1 Z " fill="#000000" transform="translate(128,4)"/>
<path d="M0 0 C2 1 2 1 2 1 Z " fill="#000000" transform="translate(97,4)"/>
<path d="" fill="#000000" transform="translate(0,0)"/>
<path d="" fill="#000000" transform="translate(0,0)"/>
<path d="" fill="#000000" transform="translate(0,0)"/>
<path d="" fill="#000000" transform="translate(0,0)"/>
<path d="" fill="#000000" transform="translate(0,0)"/>
<path d="" fill="#000000" transform="translate(0,0)"/>
<path d="" fill="#000000" transform="translate(0,0)"/>
<path d="" fill="#000000" transform="translate(0,0)"/>
<path d="" fill="#000000" transform="translate(0,0)"/>
<path d="" fill="#000000" transform="translate(0,0)"/>
<path d="" fill="#000000" transform="translate(0,0)"/>
<path d="" fill="#000000" transform="translate(0,0)"/>
<path d="" fill="#000000" transform="translate(0,0)"/>
<path d="" fill="#000000" transform="translate(0,0)"/>
<path d="" fill="#000000" transform="translate(0,0)"/>
<path d="" fill="#000000" transform="translate(0,0)"/>
<path d="" fill="#000000" transform="translate(0,0)"/>
<path d="" fill="#000000" transform="translate(0,0)"/>
<path d="" fill="#000000" transform="translate(0,0)"/>
<path d="" fill="#000000" transform="translate(0,0)"/>
<path d="" fill="#000000" transform="translate(0,0)"/>
<path d="" fill="#000000" transform="translate(0,0)"/>
<path d="" fill="#000000" transform="translate(0,0)"/>
<path d="" fill="#000000" transform="translate(0,0)"/>
<path d="" fill="#000000" transform="translate(0,0)"/>
<path d="" fill="#000000" transform="translate(0,0)"/>
<path d="" fill="#000000" transform="translate(0,0)"/>
<path d="" fill="#000000" transform="translate(0,0)"/>
<path d="" fill="#000000" transform="translate(0,0)"/>
<path d="" fill="#000000" transform="translate(0,0)"/>
<path d="" fill="#000000" transform="translate(0,0)"/>
<path d="" fill="#000000" transform="translate(0,0)"/>
<path d="" fill="#000000" transform="translate(0,0)"/>
<path d="" fill="#000000" transform="translate(0,0)"/>
<path d="" fill="#000000" transform="translate(0,0)"/>
<path d="" fill="#000000" transform="translate(0,0)"/>
<path d="" fill="#000000" transform="translate(0,0)"/>
<path d="" fill="#000000" transform="translate(0,0)"/>
<path d="" fill="#000000" transform="translate(0,0)"/>
<path d="" fill="#000000" transform="translate(0,0)"/>
<path d="" fill="#000000" transform="translate(0,0)"/>
<path d="" fill="#000000" transform="translate(0,0)"/>
<path d="" fill="#000000" transform="translate(0,0)"/>
<path d="" fill="#000000" transform="translate(0,0)"/>
<path d="" fill="#000000" transform="translate(0,0)"/>
<path d="" fill="#000000" transform="translate(0,0)"/>
<path d="" fill="#000000" transform="translate(0,0)"/>
<path d="" fill="#000000" transform="translate(0,0)"/>
<path d="" fill="#000000" transform="translate(0,0)"/>
<path d="" fill="#000000" transform="translate(0,0)"/>
<path d="" fill="#000000" transform="translate(0,0)"/>
<path d="" fill="#000000" transform="translate(0,0)"/>
<path d="" fill="#000000" transform="translate(0,0)"/>
<path d="" fill="#000000" transform="translate(0,0)"/>
<path d="" fill="#000000" transform="translate(0,0)"/>
<path d="" fill="#000000" transform="translate(0,0)"/>
<path d="" fill="#000000" transform="translate(0,0)"/>
<path d="" fill="#000000" transform="translate(0,0)"/>
<path d="" fill="#000000" transform="translate(0,0)"/>
<path d="" fill="#000000" transform="translate(0,0)"/>
<path d="" fill="#000000" transform="translate(0,0)"/>
<path d="" fill="#000000" transform="translate(0,0)"/>
<path d="" fill="#000000" transform="translate(0,0)"/>
<path d="" fill="#000000" transform="translate(0,0)"/>
<path d="" fill="#000000" transform="translate(0,0)"/>
<path d="" fill="#000000" transform="translate(0,0)"/>
<path d="" fill="#000000" transform="translate(0,0)"/>
<path d="" fill="#000000" transform="translate(0,0)"/>
<path d="" fill="#000000" transform="translate(0,0)"/>
<path d="" fill="#000000" transform="translate(0,0)"/>
<path d="" fill="#000000" transform="translate(0,0)"/>
<path d="" fill="#000000" transform="translate(0,0)"/>
<path d="" fill="#000000" transform="translate(0,0)"/>
<path d="" fill="#000000" transform="translate(0,0)"/>
<path d="" fill="#000000" transform="translate(0,0)"/>
<path d="" fill="#000000" transform="translate(0,0)"/>
<path d="" fill="#000000" transform="translate(0,0)"/>
<path d="" fill="#000000" transform="translate(0,0)"/>
<path d="" fill="#000000" transform="translate(0,0)"/>
<path d="" fill="#000000" transform="translate(0,0)"/>
<path d="" fill="#000000" transform="translate(0,0)"/>
<path d="" fill="#000000" transform="translate(0,0)"/>
<path d="" fill="#000000" transform="translate(0,0)"/>
<path d="" fill="#000000" transform="translate(0,0)"/>
<path d="" fill="#000000" transform="translate(0,0)"/>
<path d="" fill="#000000" transform="translate(0,0)"/>
</svg>
