<?xml version="1.0" encoding="UTF-8"?>
<svg version="1.1" xmlns="http://www.w3.org/2000/svg" width="154" height="39">
<path d="M0 0 C1.02802734 -0.01224609 2.05605469 -0.02449219 3.11523438 -0.03710938 C4.58766602 -0.04000977 4.58766602 -0.04000977 6.08984375 -0.04296875 C6.99468506 -0.04707764 7.89952637 -0.05118652 8.83178711 -0.05541992 C11.0625 0.1875 11.0625 0.1875 13.0625 2.1875 C14.37997324 2.88498583 15.71164193 3.55709957 17.0625 4.1875 C17.14382187 6.75064499 17.20314175 9.31118418 17.25 11.875 C17.27513672 12.59623047 17.30027344 13.31746094 17.32617188 14.06054688 C17.39032646 18.74383132 16.66329538 21.34284596 14.0625 25.1875 C14.75390351 27.49037793 14.75390351 27.49037793 16.0625 29.1875 C16.7225 29.1875 17.3825 29.1875 18.0625 29.1875 C18.72916667 31.85416667 19.39583333 34.52083333 20.0625 37.1875 C12.05920123 37.97213713 12.05920123 37.97213713 8.125 34.875 C6.70657617 33.02675077 5.35483853 31.1260078 4.0625 29.1875 C3.4025 28.8575 2.7425 28.5275 2.0625 28.1875 C2.0625 26.5375 2.0625 24.8875 2.0625 23.1875 C0.4125 23.1875 -1.2375 23.1875 -2.9375 23.1875 C-2.92589844 24.11433594 -2.91429687 25.04117187 -2.90234375 25.99609375 C-2.89332031 27.19363281 -2.88429688 28.39117188 -2.875 29.625 C-2.86339844 30.81996094 -2.85179687 32.01492187 -2.83984375 33.24609375 C-2.9375 36.1875 -2.9375 36.1875 -3.9375 37.1875 C-6.60808851 37.32865161 -9.26182238 37.22997107 -11.9375 37.1875 C-11.9621501 32.07886104 -11.98033607 26.97025641 -11.99243164 21.86157227 C-11.99747204 20.12230832 -12.0043043 18.38304864 -12.01293945 16.64379883 C-12.02501792 14.14924063 -12.03073108 11.65473827 -12.03515625 9.16015625 C-12.04031754 8.37786148 -12.04547882 7.59556671 -12.05079651 6.78956604 C-12.05099226 4.92182886 -11.99949694 3.05420796 -11.9375 1.1875 C-9.51933834 -1.23066166 -3.24972181 0.00202981 0 0 Z M-2.9375 7.1875 C-2.9375 10.4875 -2.9375 13.7875 -2.9375 17.1875 C2.8599423 17.43178343 2.8599423 17.43178343 8.0625 15.1875 C8.22931109 12.27097826 8.22931109 12.27097826 8.0625 9.1875 C6.27592243 6.97379949 6.27592243 6.97379949 3.8984375 6.9921875 C0.48046875 7.08984375 0.48046875 7.08984375 -2.9375 7.1875 Z " fill="#C4000C" transform="translate(11.9375,0.8125)"/>
<path d="M0 0 C2.12929538 0.47167936 4.23869908 0.97739263 6.34375 1.546875 C6.4675 2.165625 6.59125 2.784375 6.71875 3.421875 C7.21572356 5.73808332 7.21572356 5.73808332 9.34375 7.546875 C9.47900391 9.70166016 9.47900391 9.70166016 9.3203125 12.3359375 C9.26875 13.27695312 9.2171875 14.21796875 9.1640625 15.1875 C9.09960938 16.17234375 9.03515625 17.1571875 8.96875 18.171875 C8.91203125 19.16445313 8.8553125 20.15703125 8.796875 21.1796875 C8.65515759 23.63612267 8.50372723 26.09157235 8.34375 28.546875 C-11.55916262 30.24590413 -11.55916262 30.24590413 -19.65625 27.546875 C-22.34855769 17.93149038 -22.34855769 17.93149038 -20.46875 14.171875 C-18.47191655 12.38161052 -17.26784519 11.96810003 -14.65625 11.546875 C-13.99625 11.216875 -13.33625 10.886875 -12.65625 10.546875 C-10.61569995 10.47621883 -8.57290743 10.46265524 -6.53125 10.484375 C-5.43554688 10.49339844 -4.33984375 10.50242187 -3.2109375 10.51171875 C-2.36789063 10.52332031 -1.52484375 10.53492188 -0.65625 10.546875 C-0.65625 9.556875 -0.65625 8.566875 -0.65625 7.546875 C-2.96625 7.216875 -5.27625 6.886875 -7.65625 6.546875 C-7.98625 7.206875 -8.31625 7.866875 -8.65625 8.546875 C-11.09012753 9.76381376 -13.07463846 9.86647396 -15.78125 10.109375 C-17.14636719 10.23505859 -17.14636719 10.23505859 -18.5390625 10.36328125 C-19.23773438 10.42386719 -19.93640625 10.48445313 -20.65625 10.546875 C-16.79411228 -0.14827562 -10.67123758 -1.82038759 0 0 Z M-12.65625 19.546875 C-12.32625 20.536875 -11.99625 21.526875 -11.65625 22.546875 C-8.88524606 23.93237697 -6.7227794 23.7346217 -3.65625 23.546875 C-0.43220022 21.87732681 -0.43220022 21.87732681 0.03125 18.921875 C0.134375 18.138125 0.2375 17.354375 0.34375 16.546875 C-6.80390614 15.92640838 -6.80390614 15.92640838 -12.65625 19.546875 Z " fill="#BF000B" transform="translate(132.65625,9.453125)"/>
<path d="M0 0 C9 1 9 1 11 2 C11.70125 1.67 12.4025 1.34 13.125 1 C16.99863622 -0.34735173 20.0746409 -0.11813259 24 1 C26.76101146 2.82109266 28.52100548 4.04201097 30 7 C30.08426094 8.6674606 30.10725143 10.33825187 30.09765625 12.0078125 C30.09443359 12.99394531 30.09121094 13.98007812 30.08789062 14.99609375 C30.07951172 16.02863281 30.07113281 17.06117187 30.0625 18.125 C30.05798828 19.16527344 30.05347656 20.20554687 30.04882812 21.27734375 C30.03701952 23.85161962 30.02055075 26.42578146 30 29 C27.03 29.33 24.06 29.66 21 30 C19.11369413 26.22738826 20.01369628 21.30130084 20.12695312 17.12109375 C20.15670439 15.08050725 20.08495976 13.03903415 20 11 C18.04783565 9.04783565 16.46800047 8.15173355 14 7 C13.67 7.66 13.34 8.32 13 9 C12.01 9.495 12.01 9.495 11 10 C11 16.6 11 23.2 11 30 C7.37 30 3.74 30 0 30 C0 20.1 0 10.2 0 0 Z " fill="#C9000C" transform="translate(79,9)"/>
<path d="M0 0 C10 0 10 0 13 1 C14.8871875 0.690625 14.8871875 0.690625 16.8125 0.375 C21.0358276 -0.22278718 23.40586344 0.57604744 27 3 C29.83644797 6.07446277 30.36530058 8.0560999 30.29296875 12.203125 C30.28330078 13.1828125 30.27363281 14.1625 30.26367188 15.171875 C30.23853516 16.18765625 30.21339844 17.2034375 30.1875 18.25 C30.16719727 19.796875 30.16719727 19.796875 30.14648438 21.375 C30.11117607 23.91719792 30.06186036 26.45833223 30 29 C27.03 29.33 24.06 29.66 21 30 C20.95101562 28.65164062 20.90203125 27.30328125 20.8515625 25.9140625 C20.77653943 24.15102041 20.70099141 22.38800061 20.625 20.625 C20.5940625 19.73554688 20.563125 18.84609375 20.53125 17.9296875 C20.49257812 17.07890625 20.45390625 16.228125 20.4140625 15.3515625 C20.36693115 14.17327881 20.36693115 14.17327881 20.31884766 12.97119141 C20.1600535 10.76997061 20.1600535 10.76997061 18 9 C16.68252676 8.30251417 15.35085807 7.63040043 14 7 C13.67 7.66 13.34 8.32 13 9 C12.01 9.495 12.01 9.495 11 10 C11 16.6 11 23.2 11 30 C7.7 29.67 4.4 29.34 1 29 C0.67 19.43 0.34 9.86 0 0 Z " fill="#C3000C" transform="translate(46,9)"/>
<path d="M0 0 C2.5625 0.1875 2.5625 0.1875 4.5625 2.1875 C4.73775055 4.98434797 4.79393189 7.6807808 4.7578125 10.4765625 C4.7549826 11.29498627 4.75215271 12.11341003 4.74923706 12.95663452 C4.73802532 15.57540393 4.71291929 18.19383364 4.6875 20.8125 C4.67747147 22.58593257 4.6683454 24.35937049 4.66015625 26.1328125 C4.63808278 30.48450626 4.60354644 34.8359455 4.5625 39.1875 C1.5925 38.8575 -1.3775 38.5275 -4.4375 38.1875 C-4.7675 28.6175 -5.0975 19.0475 -5.4375 9.1875 C-4.1175 9.1875 -2.7975 9.1875 -1.4375 9.1875 C-2.7575 8.8575 -4.0775 8.5275 -5.4375 8.1875 C-3.27321429 0.25178571 -3.27321429 0.25178571 0 0 Z " fill="#CF000D" transform="translate(149.4375,-0.1875)"/>
<path d="M0 0 C0.66 0.66 1.32 1.32 2 2 C3.98821313 2.39764263 5.98944339 2.73775349 8 3 C8.33 2.34 8.66 1.68 9 1 C10.42336877 3.84673755 10.00758837 6.14615347 9.87890625 9.3203125 C9.83056641 10.57714844 9.78222656 11.83398438 9.73242188 13.12890625 C9.67634766 14.44761719 9.62027344 15.76632813 9.5625 17.125 C9.50927587 18.46482438 9.45653549 19.80466808 9.40429688 21.14453125 C9.27429992 24.42990887 9.13932314 27.71500678 9 31 C5.37 31.33 1.74 31.66 -2 32 C-1.34 31.67 -0.68 31.34 0 31 C0 20.77 0 10.54 0 0 Z " fill="#D3000D" transform="translate(34,7)"/>
<path d="M0 0 C2.5625 0.1875 2.5625 0.1875 4.5625 2.1875 C4.73775055 4.98434797 4.79393189 7.6807808 4.7578125 10.4765625 C4.7549826 11.29498627 4.75215271 12.11341003 4.74923706 12.95663452 C4.73802532 15.57540393 4.71291929 18.19383364 4.6875 20.8125 C4.67747147 22.58593257 4.6683454 24.35937049 4.66015625 26.1328125 C4.63808278 30.48450626 4.60354644 34.8359455 4.5625 39.1875 C4.2325 39.1875 3.9025 39.1875 3.5625 39.1875 C3.5625 29.9475 3.5625 20.7075 3.5625 11.1875 C0.5925 11.1875 -2.3775 11.1875 -5.4375 11.1875 C-5.1075 10.5275 -4.7775 9.8675 -4.4375 9.1875 C-3.4475 9.1875 -2.4575 9.1875 -1.4375 9.1875 C-2.7575 8.8575 -4.0775 8.5275 -5.4375 8.1875 C-3.27321429 0.25178571 -3.27321429 0.25178571 0 0 Z " fill="#9C0008" transform="translate(149.4375,-0.1875)"/>
<path d="M0 0 C0.66 0.66 1.32 1.32 2 2 C3.98821313 2.39764263 5.98944339 2.73775349 8 3 C8.33 2.34 8.66 1.68 9 1 C9 1.99 9 2.98 9 4 C6.36 4 3.72 4 1 4 C1.33 12.25 1.66 20.5 2 29 C3.65 29 5.3 29 7 29 C7 21.08 7 13.16 7 5 C7.66 5 8.32 5 9 5 C9 13.58 9 22.16 9 31 C5.37 31.33 1.74 31.66 -2 32 C-1.34 31.67 -0.68 31.34 0 31 C0 20.77 0 10.54 0 0 Z " fill="#A7000A" transform="translate(34,7)"/>
<path d="M0 0 C2.5625 0.1875 2.5625 0.1875 4.5625 2.1875 C4.96014263 4.17571313 5.30025349 6.17694339 5.5625 8.1875 C-0.84944487 9.51828101 -0.84944487 9.51828101 -3.4375 8.0625 C-4.4375 6.1875 -4.4375 6.1875 -4.1875 3.5625 C-3.13874481 0.24144191 -3.13874481 0.24144191 0 0 Z " fill="#C6000C" transform="translate(38.4375,-0.1875)"/>
<path d="M0 0 C2.31 0 4.62 0 7 0 C7 0.33 7 0.66 7 1 C5.02 1 3.04 1 1 1 C1 8.92 1 16.84 1 25 C2.65 25 4.3 25 6 25 C6 20.05 6 15.1 6 10 C6.33 10 6.66 10 7 10 C7 15.61 7 21.22 7 27 C4.36 27 1.72 27 -1 27 C-0.67 18.09 -0.34 9.18 0 0 Z " fill="#D8000E" transform="translate(48,11)"/>
<path d="M0 0 C0.33 0 0.66 0 1 0 C1 7.26 1 14.52 1 22 C-1.97 22.33 -4.94 22.66 -8 23 C-9.66413655 19.6717269 -8.81867406 16.00266027 -8.5625 12.375 C-8.51029297 11.57320312 -8.45808594 10.77140625 -8.40429688 9.9453125 C-8.27451629 7.96320897 -8.13790265 5.98155501 -8 4 C-7.67 4 -7.34 4 -7 4 C-7 9.61 -7 15.22 -7 21 C-4.69 21 -2.38 21 0 21 C0 14.07 0 7.14 0 0 Z " fill="#980009" transform="translate(108,16)"/>
<path d="M0 0 C0.66 0.33 1.32 0.66 2 1 C1.01 1.66 0.02 2.32 -1 3 C-0.67 2.01 -0.34 1.02 0 0 Z " fill="#000000" transform="translate(115,11)"/>
<path d="M0 0 C0.33 0.66 0.66 1.32 1 2 C0.34 1.67 -0.32 1.34 -1 1 C-0.67 0.67 -0.34 0.34 0 0 Z " fill="#000000" transform="translate(18,14)"/>
<path d="" fill="#000000" transform="translate(0,0)"/>
<path d="" fill="#000000" transform="translate(0,0)"/>
<path d="" fill="#000000" transform="translate(0,0)"/>
<path d="" fill="#000000" transform="translate(0,0)"/>
<path d="" fill="#000000" transform="translate(0,0)"/>
<path d="" fill="#000000" transform="translate(0,0)"/>
<path d="" fill="#000000" transform="translate(0,0)"/>
<path d="" fill="#000000" transform="translate(0,0)"/>
<path d="M0 0 C2 1 2 1 2 1 Z " fill="#000000" transform="translate(90,9)"/>
<path d="M0 0 C2 1 2 1 2 1 Z " fill="#000000" transform="translate(57,9)"/>
<path d="" fill="#000000" transform="translate(0,0)"/>
<path d="" fill="#000000" transform="translate(0,0)"/>
<path d="" fill="#000000" transform="translate(0,0)"/>
<path d="" fill="#000000" transform="translate(0,0)"/>
<path d="" fill="#000000" transform="translate(0,0)"/>
<path d="" fill="#000000" transform="translate(0,0)"/>
<path d="" fill="#000000" transform="translate(0,0)"/>
<path d="" fill="#000000" transform="translate(0,0)"/>
<path d="" fill="#000000" transform="translate(0,0)"/>
<path d="" fill="#000000" transform="translate(0,0)"/>
<path d="" fill="#000000" transform="translate(0,0)"/>
<path d="" fill="#000000" transform="translate(0,0)"/>
<path d="" fill="#000000" transform="translate(0,0)"/>
<path d="" fill="#000000" transform="translate(0,0)"/>
<path d="" fill="#000000" transform="translate(0,0)"/>
<path d="" fill="#000000" transform="translate(0,0)"/>
<path d="" fill="#000000" transform="translate(0,0)"/>
<path d="" fill="#000000" transform="translate(0,0)"/>
<path d="" fill="#000000" transform="translate(0,0)"/>
<path d="" fill="#000000" transform="translate(0,0)"/>
<path d="" fill="#000000" transform="translate(0,0)"/>
<path d="" fill="#000000" transform="translate(0,0)"/>
<path d="" fill="#000000" transform="translate(0,0)"/>
<path d="" fill="#000000" transform="translate(0,0)"/>
<path d="" fill="#000000" transform="translate(0,0)"/>
<path d="" fill="#000000" transform="translate(0,0)"/>
<path d="" fill="#000000" transform="translate(0,0)"/>
<path d="" fill="#000000" transform="translate(0,0)"/>
<path d="" fill="#000000" transform="translate(0,0)"/>
<path d="" fill="#000000" transform="translate(0,0)"/>
<path d="" fill="#000000" transform="translate(0,0)"/>
<path d="" fill="#000000" transform="translate(0,0)"/>
<path d="" fill="#000000" transform="translate(0,0)"/>
<path d="" fill="#000000" transform="translate(0,0)"/>
<path d="" fill="#000000" transform="translate(0,0)"/>
<path d="" fill="#000000" transform="translate(0,0)"/>
<path d="" fill="#000000" transform="translate(0,0)"/>
<path d="" fill="#000000" transform="translate(0,0)"/>
<path d="" fill="#000000" transform="translate(0,0)"/>
<path d="" fill="#000000" transform="translate(0,0)"/>
<path d="" fill="#000000" transform="translate(0,0)"/>
<path d="" fill="#000000" transform="translate(0,0)"/>
<path d="" fill="#000000" transform="translate(0,0)"/>
<path d="" fill="#000000" transform="translate(0,0)"/>
<path d="" fill="#000000" transform="translate(0,0)"/>
<path d="" fill="#000000" transform="translate(0,0)"/>
<path d="" fill="#000000" transform="translate(0,0)"/>
<path d="" fill="#000000" transform="translate(0,0)"/>
<path d="" fill="#000000" transform="translate(0,0)"/>
<path d="" fill="#000000" transform="translate(0,0)"/>
<path d="" fill="#000000" transform="translate(0,0)"/>
<path d="" fill="#000000" transform="translate(0,0)"/>
<path d="" fill="#000000" transform="translate(0,0)"/>
<path d="" fill="#000000" transform="translate(0,0)"/>
<path d="" fill="#000000" transform="translate(0,0)"/>
<path d="" fill="#000000" transform="translate(0,0)"/>
<path d="" fill="#000000" transform="translate(0,0)"/>
<path d="" fill="#000000" transform="translate(0,0)"/>
<path d="" fill="#000000" transform="translate(0,0)"/>
<path d="" fill="#000000" transform="translate(0,0)"/>
<path d="" fill="#000000" transform="translate(0,0)"/>
<path d="" fill="#000000" transform="translate(0,0)"/>
</svg>
