<svg width="30" height="30" viewBox="0 0 30 30" fill="none" xmlns="http://www.w3.org/2000/svg">
<g clip-path="url(#clip0_1_775)">
<path d="M9.50317 20.7857C9.61666 20.7869 9.73015 20.7879 9.84363 20.7889C10.1171 20.7914 10.3906 20.7954 10.6641 20.8003C10.6746 20.8624 10.6851 20.9244 10.6959 20.9883C10.8527 21.8845 11.1388 22.606 11.7187 23.3199C11.7731 23.3923 11.7731 23.3923 11.8286 23.4661C12.5255 24.2872 13.6175 24.718 14.6631 24.8323C15.8738 24.9003 17.0257 24.4939 17.9473 23.7064C18.7759 22.909 19.1772 21.9282 19.3359 20.8003C19.666 20.7944 19.9961 20.7902 20.3262 20.7875C20.438 20.7863 20.5497 20.7847 20.6615 20.7826C22.7303 20.7456 24.5463 21.4466 26.0554 22.8676C27.3663 24.1443 28.1781 25.9488 28.2147 27.7833C28.2159 27.9316 28.2156 28.0797 28.2141 28.228C28.2129 28.3799 28.2142 28.5315 28.2156 28.6834C28.2155 28.7813 28.2152 28.8792 28.2147 28.9771C28.2152 29.0218 28.2157 29.0665 28.2162 29.1125C28.2108 29.4169 28.1471 29.5929 27.9492 29.8238C27.7071 30.0059 27.5255 30.0216 27.2259 30.0218C27.1829 30.0221 27.1399 30.0224 27.0957 30.0227C26.9512 30.0234 26.8068 30.0228 26.6624 30.0223C26.558 30.0225 26.4536 30.0228 26.3492 30.0232C26.0619 30.0241 25.7747 30.0238 25.4874 30.0234C25.1777 30.0231 24.8681 30.0238 24.5584 30.0244C23.9516 30.0254 23.3448 30.0255 22.738 30.0252C22.2449 30.025 21.7519 30.025 21.2588 30.0254C21.1536 30.0254 21.1536 30.0254 21.0463 30.0255C20.9039 30.0256 20.7615 30.0257 20.6191 30.0258C19.2828 30.0266 17.9465 30.0262 16.6102 30.0256C15.387 30.025 14.1638 30.0257 12.9406 30.0271C11.6853 30.0286 10.4301 30.0291 9.17481 30.0287C8.46978 30.0285 7.76476 30.0287 7.05974 30.0297C6.45958 30.0306 5.85942 30.0306 5.25926 30.0296C4.95293 30.0291 4.64661 30.029 4.34028 30.0299C4.05999 30.0307 3.77972 30.0304 3.49944 30.0293C3.39791 30.029 3.29637 30.0292 3.19485 30.0298C3.05704 30.0306 2.91931 30.0299 2.7815 30.0289C2.6666 30.0289 2.6666 30.0289 2.54938 30.0289C2.25593 29.987 2.0719 29.8609 1.88378 29.635C1.79294 29.4155 1.79123 29.2104 1.79306 28.9767C1.79281 28.9045 1.79281 28.9045 1.79255 28.831C1.79243 28.7291 1.79275 28.6272 1.79349 28.5253C1.79442 28.3726 1.7935 28.2201 1.79237 28.0674C1.78978 26.043 2.59868 24.2768 3.9917 22.8218C5.50433 21.345 7.42281 20.7474 9.50317 20.7857Z" fill="#EB3135"/>
<path d="M17.9297 7.55859C18.1975 7.70663 18.4238 7.89163 18.6584 8.08594C18.7425 8.15488 18.8266 8.22378 18.9107 8.29262C18.9736 8.34415 18.9736 8.34415 19.0379 8.39673C19.1802 8.51234 19.3236 8.62632 19.4683 8.73891C19.5349 8.79127 19.601 8.84429 19.6663 8.89821C19.8407 9.04039 20.0079 9.15872 20.21 9.25834C20.485 9.40817 20.7018 9.56795 20.8594 9.84375C21.0055 10.4184 20.9564 11.0353 20.9334 11.6232C20.9275 11.7982 20.9257 11.9731 20.9241 12.1482C20.9138 13.224 20.8413 14.2206 20.4492 15.2344C20.7019 15.2279 20.9546 15.2202 21.2073 15.2124C21.3138 15.2097 21.3138 15.2097 21.4225 15.2069C22.0601 15.1862 22.594 15.1464 23.0859 14.707C23.4591 14.2894 23.4552 13.7151 23.4961 13.1836C23.2061 13.1836 22.916 13.1836 22.6172 13.1836C22.6172 12.0234 22.6172 10.8633 22.6172 9.66797C24.2603 9.66797 24.2603 9.66797 24.7794 10.1157C25.2276 10.5847 25.2892 11.1158 25.285 11.74C25.2853 11.8144 25.2855 11.8887 25.2857 11.9652C25.2859 12.1219 25.2856 12.2785 25.2845 12.4352C25.2831 12.634 25.2839 12.8327 25.2853 13.0314C25.2864 13.2235 25.2856 13.4156 25.285 13.6077C25.2855 13.678 25.286 13.7484 25.2865 13.8208C25.277 14.6828 24.9581 15.4628 24.3713 16.0986C23.6562 16.7698 22.8479 17.0211 21.8829 17.0036C21.73 17.0032 21.577 17.0029 21.424 17.0027C21.1852 17.0017 20.9465 16.9997 20.7078 16.9956C20.4757 16.9918 20.2437 16.9922 20.0116 16.9926C19.9408 16.9907 19.8701 16.9887 19.7972 16.9866C19.4018 16.9899 19.1872 17.04 18.889 17.3086C18.803 17.3979 18.7176 17.4877 18.6328 17.5781C17.3458 18.6148 15.7871 18.8607 14.1797 18.75C12.7292 18.5935 11.4038 17.7833 10.4537 16.6992C9.25374 15.2056 9.10349 13.6149 9.12453 11.7644C9.12696 11.5274 9.128 11.2905 9.12918 11.0536C9.13166 10.5917 9.13565 10.1298 9.14062 9.66797C9.1954 9.66726 9.1954 9.66726 9.25128 9.66653C9.63926 9.6614 10.0272 9.65557 10.4152 9.64937C10.5591 9.64716 10.7029 9.64511 10.8468 9.64325C11.5903 9.63351 12.3314 9.61639 13.0728 9.55627C13.1282 9.55188 13.1835 9.54748 13.2405 9.54295C14.8727 9.39751 16.4055 8.73105 17.6953 7.73437C17.7734 7.6757 17.8515 7.61707 17.9297 7.55859ZM14.9121 15.5603C14.7381 15.843 14.7293 16.0774 14.7656 16.4062C14.8941 16.6681 15.0285 16.8111 15.293 16.9336C15.5096 16.9865 15.7163 17.0022 15.9389 17.0081C16.0437 17.011 16.0437 17.011 16.1505 17.0139C16.4273 17.0195 16.704 17.0242 16.9807 17.0274C17.1904 17.0298 17.3998 17.0333 17.6094 17.0396C17.813 17.0457 18.0165 17.0489 18.2202 17.0501C18.3345 17.0514 18.4487 17.0557 18.563 17.0601C18.8691 17.0594 19.0764 17.0575 19.3232 16.8651C19.4575 16.718 19.5747 16.5702 19.6875 16.4062C19.7142 16.3692 19.741 16.3322 19.7685 16.294C19.8308 16.2034 19.8876 16.109 19.9438 16.0144C19.9806 15.9538 20.0173 15.8931 20.0551 15.8306C20.1282 15.6961 20.1913 15.5681 20.2505 15.4278C20.2774 15.364 20.3043 15.3001 20.332 15.2344C19.7223 15.2303 19.1126 15.2272 18.5029 15.2253C18.2198 15.2244 17.9366 15.2231 17.6535 15.2211C17.3799 15.2192 17.1064 15.2182 16.8328 15.2177C16.7288 15.2174 16.6247 15.2167 16.5206 15.2158C15.6485 15.172 15.6485 15.172 14.9121 15.5603Z" fill="#EB3135"/>
<path d="M17.1094 0.234788C17.1519 0.247033 17.1945 0.259279 17.2383 0.271895C18.4615 0.636061 19.4662 1.29755 20.3906 2.16838C20.4295 2.2035 20.4684 2.23863 20.5085 2.27481C21.7187 3.41135 22.5347 5.19583 22.6267 6.85199C22.636 7.20528 22.6299 7.55745 22.6172 7.91057C21.161 8.028 21.161 8.028 20.7408 7.71872C20.6118 7.60489 20.4894 7.48659 20.3702 7.36254C20.195 7.18777 19.9983 7.03882 19.8047 6.88518C19.7261 6.82134 19.6476 6.7574 19.5692 6.69338C19.3424 6.50923 19.1146 6.32661 18.8855 6.14543C18.8524 6.11911 18.8194 6.09279 18.7854 6.06567C18.402 5.75454 18.402 5.75454 17.9333 5.65837C17.8857 5.65724 17.838 5.65611 17.7889 5.65494C17.4575 5.71823 17.2268 5.96537 16.9922 6.19304C15.8248 7.26445 14.165 7.93675 12.5779 7.92387C12.4929 7.9239 12.4929 7.9239 12.4062 7.92392C12.2214 7.92384 12.0365 7.92294 11.8517 7.92201C11.7226 7.92179 11.5935 7.92163 11.4643 7.92151C11.1263 7.92107 10.7883 7.91992 10.4503 7.91862C10.1047 7.91741 9.75899 7.91688 9.41333 7.91629C8.73649 7.91504 8.05965 7.91304 7.38281 7.91057C7.37999 7.71801 7.37833 7.52545 7.37685 7.33287C7.37606 7.27922 7.37526 7.22556 7.37444 7.17028C7.3635 5.26123 8.31533 3.45965 9.62402 2.12077C10.5303 1.22458 11.6704 0.589583 12.8906 0.234788C12.9329 0.222382 12.9752 0.209976 13.0187 0.197194C14.3022 -0.160365 15.833 -0.138678 17.1094 0.234788Z" fill="#EB3135"/>
<path d="M12.3633 20.0391C12.4739 20.0608 12.4739 20.0608 12.5867 20.083C12.6669 20.0988 12.6669 20.0988 12.7487 20.1148C12.9001 20.1461 13.0504 20.1793 13.201 20.2142C14.5182 20.5148 15.7649 20.4937 17.0762 20.1505C17.2627 20.1033 17.4465 20.0676 17.6367 20.0391C17.6798 20.8923 17.6184 21.5904 17.0391 22.2702C16.5927 22.7466 16.0038 23.1363 15.3335 23.1606C14.4633 23.185 13.7812 23.0563 13.125 22.4414C12.7395 22.0766 12.3858 21.5111 12.3566 20.9703C12.3569 20.9274 12.3572 20.8844 12.3576 20.8401C12.3578 20.7699 12.3578 20.7699 12.3581 20.6982C12.3586 20.6499 12.3591 20.6016 12.3596 20.5518C12.3599 20.5025 12.3601 20.4533 12.3604 20.4025C12.3611 20.2814 12.3622 20.1602 12.3633 20.0391Z" fill="#EB3135"/>
<path d="M7.38281 9.66797C7.38281 10.8281 7.38281 11.9883 7.38281 13.1836C6.85511 13.1836 6.50272 13.0762 6.09603 12.7359C6.00415 12.6361 5.93136 12.5368 5.85937 12.4219C5.83535 12.3855 5.81133 12.3491 5.78659 12.3116C5.56111 11.9026 5.55172 11.4105 5.625 10.957C5.78728 10.445 6.05178 10.0946 6.51351 9.82956C6.84142 9.66617 6.97795 9.66797 7.38281 9.66797Z" fill="#EB3135"/>
</g>
<defs>
<clipPath id="clip0_1_775">
<rect width="30" height="30" fill="white"/>
</clipPath>
</defs>
</svg>
