<?xml version="1.0" encoding="UTF-8"?>
<svg version="1.1" xmlns="http://www.w3.org/2000/svg" width="512" height="512">
<path d="M0 0 C93.06 0 186.12 0 282 0 C282 62.31151242 282 62.31151242 263.26953125 82.90234375 C259.04322112 87.01669865 254.21549198 89.66277098 249 92.3125 C248.33548828 92.65039551 247.67097656 92.98829102 246.98632812 93.33642578 C239.27136011 97.0820162 232.02241596 98.29187625 223.5 98.625 C222.67757812 98.66367187 221.85515625 98.70234375 221.0078125 98.7421875 C219.0055299 98.83531692 217.00279738 98.91868985 215 99 C215.4439209 99.42297363 215.8878418 99.84594727 216.34521484 100.28173828 C218.3657716 102.21874414 220.37033912 104.17155309 222.375 106.125 C223.07367188 106.79015625 223.77234375 107.4553125 224.4921875 108.140625 C228.2392943 111.81567206 231.03913929 114.64105329 232 120 C231.0333544 123.8665824 230.38264302 124.74490465 227 127 C223.69840645 127.37468018 221.75419018 127.46594681 218.89453125 125.69921875 C217.86392578 124.70341797 217.86392578 124.70341797 216.8125 123.6875 C215.51602539 122.51695068 215.51602539 122.51695068 214.19335938 121.32275391 C211.67017952 118.88945484 209.91589843 116.361929 208.0690918 113.3894043 C202.61781439 105.53093617 196.48709028 99.71650458 186.9581604 97.79660034 C174.09781356 95.8110254 161.02186627 95.93344259 148.04345703 96.08349609 C143.35407329 96.13421762 138.68642323 96.0792584 133.99951172 95.91943359 C103.85529356 94.17467038 103.85529356 94.17467038 77.79949951 106.97238731 C72.60692705 112.00456547 68.0453318 117.55071764 63.88037109 123.45358276 C62 126 62 126 60 127 C56.4182378 127.38932198 54.63718279 127.43596718 51.625 125.375 C50 123 50 123 49.3125 120.25 C50.37241644 115.23948591 53.45631606 112.56236768 57 109 C57.88816406 108.09765625 58.77632812 107.1953125 59.69140625 106.265625 C62.11223962 103.82757376 64.54847297 101.40713318 67 99 C65.80246094 98.98582031 64.60492188 98.97164063 63.37109375 98.95703125 C45.10112906 98.51574598 30.18460487 94.07981048 16.6875 81.125 C-5.34226671 57.91008761 0 32.18179593 0 0 Z " fill="#000000" transform="translate(18,332)"/>
<path d="M0 0 C5.3771641 2.15463468 8.40936913 2.4276766 13.9140625 0.88671875 C24.13344559 -1.62953419 34.69864217 0.35844048 43.74609375 5.53515625 C45.8210591 6.98722752 47.64719734 8.5235248 49.5 10.25 C50.24765625 10.94480469 50.9953125 11.63960937 51.765625 12.35546875 C57.99039832 18.67818431 57.99039832 18.67818431 58.5 23.4375 C56.68816813 30.34510899 49.77326206 33.16016583 43.875 36.625 C41.7532268 37.8389905 39.62806087 39.04706552 37.5 40.25 C35.18940322 41.56259176 32.87934716 42.87607437 30.5703125 44.19140625 C29.69320114 44.69009972 29.69320114 44.69009972 28.79837036 45.1988678 C24.73969974 47.51551976 20.73349448 49.9082437 16.7421875 52.33984375 C15.67097656 52.98630859 14.59976563 53.63277344 13.49609375 54.29882812 C11.4616917 55.52990872 9.43516186 56.77412288 7.41796875 58.03320312 C1.85250189 61.37481189 -1.97071004 63.40012657 -8.5 62.25 C-14.06204955 58.41918442 -15.14101851 51.51525314 -16.5 45.25 C-17.79319169 33.72496198 -14.93266733 24.69074917 -8.5 15.25 C-8.17 14.59 -7.84 13.93 -7.5 13.25 C-21.31284374 9.37868729 -34.55646275 10.07721647 -47.3984375 16.7578125 C-58.40134865 23.23897934 -66.39006025 32.71184599 -70.04607201 45.10038662 C-71.63292551 51.57950156 -71.80588959 57.82191679 -71.81884766 64.47094727 C-71.83391609 66.25782204 -71.83391609 66.25782204 -71.84928894 68.08079529 C-71.87473313 71.31983681 -71.89167763 74.55878391 -71.90471697 77.79789472 C-71.92043688 81.19318857 -71.94719842 84.58839577 -71.9727478 87.98362732 C-72.01937977 94.40066803 -72.05619883 100.81772534 -72.08942068 107.23484796 C-72.12775276 114.54573316 -72.17713356 121.85653098 -72.22740483 129.16734231 C-72.33049265 144.19483014 -72.41982769 159.22237111 -72.5 174.25 C-71.94480149 174.24848112 -71.38960299 174.24696224 -70.81758028 174.24539733 C-37.89956438 174.1558519 -4.98157904 174.08723706 27.93653139 174.04573868 C31.89054913 174.04073596 35.84456662 174.03555866 39.79858398 174.03027344 C40.97932624 174.02869957 40.97932624 174.02869957 42.18392188 174.02709392 C54.92340384 174.00969676 67.66281347 173.97816288 80.40225255 173.94138882 C93.47766498 173.90396019 106.55303958 173.88176009 119.62850338 173.87364602 C127.69440745 173.86816222 135.76010706 173.85085284 143.82594819 173.81833413 C150.01468746 173.79465682 156.20327141 173.79218502 162.39204979 173.79756927 C164.92805997 173.79646922 167.46407793 173.78851775 170.00004196 173.7731781 C173.46539431 173.75324563 176.92987545 173.75807369 180.39524841 173.76898193 C181.39624319 173.75733057 182.39723797 173.7456792 183.42856592 173.73367476 C191.16649016 173.799407 196.70731783 175.9226723 203.25 179.9375 C208.67438236 185.51255964 211.15995916 191.82946906 211.75 199.5 C211.23680997 207.19785051 208.75161877 212.55591504 203.8046875 218.42578125 C196.72851958 224.02674806 189.58603402 224.83174544 180.80369568 224.75793457 C179.65417217 224.76417453 178.50464866 224.7704145 177.3202911 224.77684355 C173.48341726 224.79274867 169.64718086 224.78017826 165.81030273 224.76757812 C163.05350439 224.77080063 160.29673279 224.77997923 157.53994751 224.78881836 C150.83876848 224.80656972 144.13776905 224.80277894 137.43658309 224.7911678 C131.98919681 224.78212113 126.54186072 224.78091479 121.09446907 224.78526306 C120.31812175 224.78587599 119.54177444 224.78648893 118.74190145 224.78712043 C117.16460409 224.78839938 115.58730674 224.78969623 114.01000942 224.7910108 C99.23315895 224.80240648 84.45640788 224.78931841 69.67957372 224.76780933 C57.00809381 224.74993572 44.33676048 224.75304656 31.6652832 224.77148438 C16.93847605 224.7929029 2.2117559 224.80131166 -12.51506466 224.78903532 C-14.08613804 224.78776116 -15.65721143 224.78650368 -17.22828484 224.78526306 C-18.00121923 224.78464596 -18.77415363 224.78402886 -19.57051029 224.78339306 C-25.01009235 224.77994336 -30.44961909 224.7857602 -35.88919258 224.79518127 C-42.51997174 224.80641341 -49.15056155 224.80333566 -55.78131909 224.7820583 C-59.162722 224.77156437 -62.54354895 224.76955952 -65.9249897 224.78065491 C-69.5938676 224.79158368 -73.26185798 224.77787711 -76.93067932 224.75793457 C-77.99459398 224.76685746 -79.05850865 224.77578034 -80.15466315 224.78497362 C-88.01287253 224.70211082 -93.28424891 223.02723958 -99.25 217.875 C-105.31041281 210.80451839 -106.88160934 205.77940037 -106.76953125 196.609375 C-106.20358895 189.55560135 -103.70305244 185.03990026 -98.5 180.3125 C-94.97834461 177.40300736 -92.16487231 175.25 -87.5 175.25 C-87.50276538 174.64114708 -87.50553076 174.03229416 -87.50837994 173.40499115 C-87.57492964 158.51991737 -87.62442054 143.63485816 -87.65543652 128.74967194 C-87.67083823 121.55099612 -87.69179784 114.35242023 -87.72631836 107.15380859 C-87.75642775 100.87200613 -87.77562351 94.59027612 -87.78226548 88.30840349 C-87.78614177 84.98892943 -87.79673626 81.66982505 -87.81719017 78.35038757 C-88.02608147 43.01933979 -88.02608147 43.01933979 -81 30 C-80.65888184 29.34652588 -80.31776367 28.69305176 -79.96630859 28.01977539 C-71.6581108 12.9000365 -57.77725205 2.47226789 -41.44140625 -2.72265625 C-27.2355494 -6.46103963 -13.4297563 -5.74442956 0 0 Z " fill="#000000" transform="translate(106.5,100.75)"/>
<path d="M0 0 C0.9925882 -0.0112793 1.98517639 -0.02255859 3.00784302 -0.03417969 C4.63192581 -0.0220343 4.63192581 -0.0220343 6.28881836 -0.00964355 C7.43389862 -0.01665283 8.57897888 -0.02366211 9.75875854 -0.03088379 C13.54897209 -0.04850841 17.33844079 -0.03682435 21.12866211 -0.02331543 C23.75895328 -0.02600904 26.38924349 -0.02989036 29.01953125 -0.03491211 C34.53418061 -0.04218715 40.04861562 -0.0326048 45.56323242 -0.0135498 C51.93678878 0.00821897 58.30983331 0.00116748 64.68337727 -0.02085543 C70.81729733 -0.04120114 76.95099065 -0.03903943 83.08493042 -0.02732849 C85.69408235 -0.02465653 88.30324731 -0.02794735 90.91238403 -0.0372467 C94.55644537 -0.04738376 98.1995183 -0.03194917 101.84350586 -0.00964355 C102.92622772 -0.01774048 104.00894958 -0.0258374 105.1244812 -0.03417969 C106.1170694 -0.02290039 107.10965759 -0.01162109 108.13232422 0 C109.42425941 0.00226215 109.42425941 0.00226215 110.74229431 0.00457001 C113.95600038 0.70067921 115.12087891 1.88461355 117.06616211 4.50793457 C117.56952667 7.14414978 117.56952667 7.14414978 117.57409668 10.2010498 C117.58537598 11.36192108 117.59665527 12.52279236 117.60827637 13.71884155 C117.60017944 14.98857819 117.59208252 16.25831482 117.58374023 17.56652832 C117.58916169 18.92022454 117.59628448 20.27391485 117.60498047 21.62759399 C117.62321447 25.30120944 117.61614632 28.97437551 117.60346413 32.64799881 C117.59333671 36.49251771 117.60272908 40.33699814 117.60900879 44.18151855 C117.61628598 50.63772489 117.60669574 57.09374821 117.58764648 63.54992676 C117.56587745 71.01408906 117.57292878 78.47781434 117.59495211 85.94196606 C117.61310419 92.3505868 117.61566542 98.75907598 117.60519743 105.16771412 C117.59896138 108.99529496 117.59812974 112.82267039 117.61134338 116.65023804 C117.62289866 120.24879284 117.61488295 123.84678423 117.59176636 127.44527817 C117.58395445 129.39585343 117.59583799 131.34647634 117.60827637 133.29702759 C117.59135742 135.0383345 117.59135742 135.0383345 117.57409668 136.81481934 C117.57258858 137.82359634 117.57108047 138.83237335 117.56952667 139.87171936 C116.9172295 143.28792273 115.84752131 144.46044535 113.06616211 146.50793457 C110.74229431 147.01129913 110.74229431 147.01129913 108.13232422 147.01586914 C107.13973602 147.02714844 106.14714783 147.03842773 105.1244812 147.05004883 C104.04175934 147.0419519 102.95903748 147.03385498 101.84350586 147.0255127 C100.6984256 147.03252197 99.55334534 147.03953125 98.37356567 147.04675293 C94.58335213 147.06437755 90.79388343 147.05269349 87.00366211 147.03918457 C84.37337093 147.04187818 81.74308073 147.0457595 79.11279297 147.05078125 C73.59814361 147.05805629 68.0837086 147.04847394 62.5690918 147.02941895 C56.19553544 147.00765017 49.82249091 147.01470166 43.44894695 147.03672457 C37.31502689 147.05707028 31.18133357 147.05490857 25.0473938 147.04319763 C22.43824187 147.04052567 19.82907691 147.04381649 17.21994019 147.05311584 C13.57587884 147.0632529 9.93280592 147.04781831 6.28881836 147.0255127 C5.2060965 147.03360962 4.12337463 147.04170654 3.00784302 147.05004883 C2.01525482 147.03876953 1.02266663 147.02749023 0 147.01586914 C-0.86129013 147.01436104 -1.72258026 147.01285294 -2.60997009 147.01129913 C-5.82367616 146.31518994 -6.98855469 145.13125559 -8.93383789 142.50793457 C-9.43720245 139.87171936 -9.43720245 139.87171936 -9.44177246 136.81481934 C-9.45305176 135.65394806 -9.46433105 134.49307678 -9.47595215 133.29702759 C-9.46785522 132.02729095 -9.4597583 130.75755432 -9.45141602 129.44934082 C-9.45683747 128.0956446 -9.46396027 126.74195429 -9.47265625 125.38827515 C-9.49089025 121.7146597 -9.4838221 118.04149363 -9.47113991 114.36787033 C-9.46101249 110.52335143 -9.47040486 106.678871 -9.47668457 102.83435059 C-9.48396176 96.37814425 -9.47437152 89.92212093 -9.45532227 83.46594238 C-9.43355323 76.00178008 -9.44060456 68.5380548 -9.46262789 61.07390308 C-9.48077997 54.66528234 -9.4833412 48.25679316 -9.47287321 41.84815502 C-9.46663716 38.02057418 -9.46580552 34.19319875 -9.47901917 30.3656311 C-9.49057444 26.7670763 -9.48255873 23.16908491 -9.45944214 19.57059097 C-9.45163023 17.62001571 -9.46351377 15.6693928 -9.47595215 13.71884155 C-9.46467285 12.55797028 -9.45339355 11.397099 -9.44177246 10.2010498 C-9.44026436 9.1922728 -9.43875626 8.18349579 -9.43720245 7.14414978 C-8.41225004 1.77628056 -5.19057249 0.00908859 0 0 Z " fill="#000000" transform="translate(366.933837890625,52.4920654296875)"/>
<path d="M0 0 C60.06 0 120.12 0 182 0 C182 29.86447639 182 29.86447639 171 41 C155.34016276 55.78045113 132.55207193 55.15888258 112.4609375 55.16796875 C110.76860528 55.1711917 109.07627332 55.1745565 107.38394165 55.17805481 C103.84889074 55.18401201 100.31386416 55.18589832 96.77880859 55.18530273 C92.29784361 55.18520148 87.81703837 55.19883133 83.33611107 55.21607494 C79.84232906 55.22731613 76.34858414 55.22921825 72.85478592 55.22869301 C71.20534339 55.22985583 69.55589934 55.23417929 67.90647507 55.24202538 C48.08934536 55.32745297 26.30044919 54.9888132 10.7421875 40.96484375 C-0.90596384 28.77941605 0 16.83258979 0 0 Z " fill="#000000" transform="translate(330,312)"/>
<path d="M0 0 C7.47975082 4.83803184 13.57784288 10.44738637 15.90234375 19.23046875 C16.89298715 23.89765493 17.39798374 27.71257128 15.90234375 32.29296875 C13.90234375 34.23046875 13.90234375 34.23046875 10.52734375 35.35546875 C6.90234375 35.23046875 6.90234375 35.23046875 4.08984375 33.35546875 C1.67274064 29.9024643 1.15165544 27.43692911 0.41015625 23.37890625 C-0.3523012 20.15312473 -1.67351294 18.4580599 -4.09765625 16.23046875 C-8.60694386 13.62895667 -12.10951187 12.69142285 -17.171875 13.5859375 C-21.15821942 14.92010957 -24.05507215 17.51082095 -26.24179077 21.11761475 C-27.19168722 23.46260068 -27.37299125 25.19989896 -27.41650391 27.72363281 C-27.4363736 28.60424377 -27.45624329 29.48485474 -27.47671509 30.39215088 C-27.4882663 31.33395203 -27.4998175 32.27575317 -27.51171875 33.24609375 C-27.5310849 34.21705994 -27.55045105 35.18802612 -27.57040405 36.18841553 C-27.63012134 39.28567761 -27.67655405 42.38297701 -27.72265625 45.48046875 C-27.76084323 47.58204734 -27.79989539 49.6836104 -27.83984375 51.78515625 C-27.93581656 56.93346743 -28.01987685 62.08185187 -28.09765625 67.23046875 C-26.87878723 67.2215863 -25.65991821 67.21270386 -24.40411377 67.20355225 C-12.92681852 67.12252442 -1.44958117 67.06253114 10.02793503 67.02322006 C15.92890071 67.0023305 21.82963579 66.97398744 27.73046875 66.92871094 C33.42333498 66.88530268 39.11597918 66.86134196 44.80899811 66.85095978 C46.98277533 66.84355943 49.15654018 66.82910856 51.33022308 66.80754852 C54.37113362 66.77858177 57.41112251 66.77450999 60.45214844 66.77636719 C61.35413971 66.76198608 62.25613098 66.74760498 63.18545532 66.73278809 C64.01554108 66.73828674 64.84562683 66.7437854 65.7008667 66.74945068 C66.41986523 66.74576351 67.13886375 66.74207634 67.87965012 66.73827744 C69.90234375 67.23046875 69.90234375 67.23046875 73.90234375 71.23046875 C73.90234375 79.81046875 73.90234375 88.39046875 73.90234375 97.23046875 C13.84234375 97.23046875 -46.21765625 97.23046875 -108.09765625 97.23046875 C-108.09765625 71.23046875 -108.09765625 71.23046875 -104.09765625 67.23046875 C-101.30084229 66.74945068 -101.30084229 66.74945068 -98.04394531 66.77636719 C-96.82298157 66.77666931 -95.60201782 66.77697144 -94.34405518 66.77728271 C-93.03039978 66.79792786 -91.71674438 66.818573 -90.36328125 66.83984375 C-89.00137157 66.84730788 -87.63945113 66.85300001 -86.27752686 66.85699463 C-82.69995257 66.87223783 -79.12303203 66.91150694 -75.54571533 66.95581055 C-71.89254601 66.99679243 -68.23927063 67.01501178 -64.5859375 67.03515625 C-57.42287965 67.07800365 -50.26035969 67.1462376 -43.09765625 67.23046875 C-43.09765625 65.25046875 -43.09765625 63.27046875 -43.09765625 61.23046875 C-43.9175 61.276875 -44.73734375 61.32328125 -45.58203125 61.37109375 C-46.6596875 61.4071875 -47.73734375 61.44328125 -48.84765625 61.48046875 C-49.915 61.526875 -50.98234375 61.57328125 -52.08203125 61.62109375 C-55.09765625 61.23046875 -55.09765625 61.23046875 -57.4609375 59.40234375 C-59.09765625 57.23046875 -59.09765625 57.23046875 -59.53515625 54.23046875 C-59.03892804 50.82776099 -58.55531075 49.60687847 -56.09765625 47.23046875 C-52.9609375 46.83984375 -52.9609375 46.83984375 -49.41015625 46.98046875 C-48.23066406 47.0165625 -47.05117188 47.05265625 -45.8359375 47.08984375 C-44.93230469 47.13625 -44.02867187 47.18265625 -43.09765625 47.23046875 C-43.1133667 46.55580566 -43.12907715 45.88114258 -43.14526367 45.18603516 C-43.20831704 42.07593451 -43.24686756 38.96596903 -43.28515625 35.85546875 C-43.31029297 34.79457031 -43.33542969 33.73367187 -43.36132812 32.640625 C-43.46461102 21.41721733 -41.58241303 13.57207478 -33.6015625 5.4375 C-24.62169069 -2.47767562 -11.2589768 -5.24761938 0 0 Z " fill="#000000" transform="translate(438.09765625,207.76953125)"/>
<path d="M0 0 C13.86 0.33 27.72 0.66 42 1 C42.33 12.88 42.66 24.76 43 37 C44.32 37 45.64 37 47 37 C47.33 25.12 47.66 13.24 48 1 C61.53 0.67 75.06 0.34 89 0 C89.16043524 20.59364533 89.16043524 20.59364533 89.1953125 29.35742188 C89.21924404 35.34251042 89.24758477 41.3273547 89.30175781 47.31225586 C89.34515089 52.13628507 89.36912342 56.96005243 89.37950897 61.7842617 C89.38691212 63.6267325 89.40136845 65.46918862 89.42292023 67.31154823 C89.45186776 69.88811071 89.4559597 72.46358485 89.45410156 75.0402832 C89.46848267 75.80560867 89.48286377 76.57093414 89.49768066 77.35945129 C89.47337625 80.46454051 89.4034666 82.48470065 87.45501709 84.97322083 C84.05968961 86.39327267 80.8847054 86.41839771 77.265625 86.38818359 C76.49118042 86.39344055 75.71673584 86.39869751 74.91882324 86.40411377 C72.36234284 86.41730292 69.80648659 86.40857976 67.25 86.3984375 C65.47167847 86.40045855 63.69335775 86.40337025 61.91503906 86.40713501 C58.1893728 86.41155688 54.46392241 86.40513174 50.73828125 86.39111328 C45.96314307 86.37402143 41.18851074 86.38386335 36.41339111 86.40183067 C32.74166046 86.41267222 29.0700497 86.40922047 25.39831543 86.4014473 C23.63765401 86.39944631 21.87698171 86.401901 20.11633301 86.40888596 C17.65538711 86.4165066 15.19525993 86.40488817 12.734375 86.38818359 C12.0069812 86.39425629 11.2795874 86.40032898 10.53015137 86.40658569 C7.44805607 86.36783577 5.30034434 86.16584287 2.57910156 84.66323853 C-0.75251429 81.15410905 -0.13560157 76.8427756 -0.11352539 72.31567383 C-0.11374443 71.14458824 -0.11374443 71.14458824 -0.1139679 69.94984436 C-0.11327114 67.36887841 -0.10548982 64.7879846 -0.09765625 62.20703125 C-0.09579123 60.41769958 -0.09436772 58.6283674 -0.09336853 56.83903503 C-0.08954999 52.12902416 -0.07972533 47.41904411 -0.06866455 42.70904541 C-0.05663794 37.05808397 -0.05204503 31.40711223 -0.04621124 25.75614166 C-0.03651325 17.17073967 -0.01735204 8.58540531 0 0 Z " fill="#000000" transform="translate(376,373)"/>
<path d="M0 0 C2.08203125 2.21484375 2.08203125 2.21484375 3.8125 4.9375 C4.68841797 6.28134766 4.68841797 6.28134766 5.58203125 7.65234375 C8.02817645 11.70229766 8.49722633 14.19347881 8 19 C5.9375 21.5 5.9375 21.5 3 23 C-0.4375 23.3125 -0.4375 23.3125 -4 22 C-8.18871786 17.32355472 -12.06564379 11.28218936 -11.9375 4.875 C-11 2 -11 2 -8.8125 0.0625 C-5.29905742 -1.26480053 -3.5954498 -1.02727137 0 0 Z " fill="#000000" transform="translate(163,142)"/>
<path d="M0 0 C2.1875 2.125 2.1875 2.125 4 5 C4.37253906 5.54140625 4.74507812 6.0828125 5.12890625 6.640625 C7.80497159 10.78060065 8.85356483 13.97345157 8 19 C5.875 21.5 5.875 21.5 3 23 C-0.41048516 23 -2.26770501 22.51038742 -5.0625 20.5625 C-8.70010679 15.75147166 -11.9509024 10.70036795 -12.0625 4.5625 C-9.57353642 -1.44029451 -5.96684657 -1.7048133 0 0 Z " fill="#000000" transform="translate(168,173)"/>
<path d="M0 0 C2.21235578 2.05800538 3.45979879 3.50180422 5 6 C5.60908203 6.97453125 5.60908203 6.97453125 6.23046875 7.96875 C8.12055712 11.32317304 9.01121928 13.40537827 8.9375 17.3125 C7.47058824 21.51764706 7.47058824 21.51764706 5 23 C1.625 23.5625 1.625 23.5625 -2 23 C-4.14662299 20.95321994 -5.44907379 19.43334974 -7 17 C-7.39445313 16.42378906 -7.78890625 15.84757813 -8.1953125 15.25390625 C-10.64070941 11.4148041 -11.80370201 8.52082383 -11 4 C-8.07239315 -0.44996242 -5.11631317 -0.8975988 0 0 Z " fill="#000000" transform="translate(149,183)"/>
<path d="M0 0 C2.125 1.9375 2.125 1.9375 4 5 C4.45761719 5.70125 4.91523438 6.4025 5.38671875 7.125 C7.60992572 10.73085898 9 13.07725079 9 17.375 C7.40740741 21.55555556 7.40740741 21.55555556 5 23 C1.30764179 23.4699365 -0.98571617 23.68613318 -4.125 21.5625 C-7.5238713 16.91737588 -10.58721173 12.43086425 -11.5625 6.6875 C-10.21334813 0.24155219 -6.1258318 -0.98450868 0 0 Z " fill="#000000" transform="translate(144,152)"/>
<path d="M0 0 C2.25 2.0625 2.25 2.0625 4 5 C4.556875 5.79664063 4.556875 5.79664063 5.125 6.609375 C8.14049864 11.17450489 8.72490916 14.56318127 8 20 C5.81246717 22.6923481 4.41576045 22.93936827 1 23.4375 C-2.86310797 22.87413009 -3.64995686 22.10812157 -6 19 C-9.50160979 13.77281305 -12.03954146 9.49713413 -11 3 C-8.84742382 -1.17061636 -4.14958365 -0.88378556 0 0 Z " fill="#000000" transform="translate(186,162)"/>
<path d="M0 0 C2.25 2.0625 2.25 2.0625 4 5 C4.556875 5.81404297 4.556875 5.81404297 5.125 6.64453125 C7.82148643 10.7922517 8.7614812 13.95518703 8 19 C6.375 21.4375 6.375 21.4375 4 23 C0.5521373 23.57464378 -1.17014671 23.5783826 -4.0625 21.5625 C-7.73916443 16.69981478 -10.70947809 12.25154478 -11.5 6.125 C-11 3 -11 3 -10 1.0625 C-6.74577987 -0.66630444 -3.53114811 -0.75207008 0 0 Z " fill="#000000" transform="translate(126,163)"/>
</svg>
