<svg width="26" height="26" viewBox="0 0 26 26" fill="none" xmlns="http://www.w3.org/2000/svg">
<g clip-path="url(#clip0_1_766)">
<path d="M13.072 3.72677C13.1153 3.75368 13.1585 3.78058 13.2031 3.8083C13.2495 3.83589 13.2495 3.83589 13.2967 3.86404C13.4118 3.93345 13.5249 4.00548 13.6379 4.07808C13.6804 4.10513 13.7229 4.13218 13.7667 4.16005C14.1066 4.37703 14.4447 4.59674 14.7825 4.81707C15.1233 5.03929 15.4659 5.25879 15.8088 5.47774C16.2679 5.77089 16.7249 6.06696 17.1808 6.36517C17.5942 6.63533 18.0101 6.90163 18.4264 7.16744C18.8831 7.45924 19.3376 7.75426 19.7917 8.05012C20.3244 8.39704 20.8591 8.74083 21.3948 9.0832C21.7953 9.33934 22.1955 9.5959 22.5945 9.85445C22.6338 9.8798 22.673 9.90516 22.7135 9.93129C22.7867 9.97884 22.8595 10.027 22.9317 10.0761C23.054 10.158 23.054 10.158 23.1862 10.2265C23.5357 10.4298 23.5357 10.4298 23.607 10.6471C23.6213 10.8119 23.6197 10.9696 23.6121 11.1349C23.611 11.2237 23.611 11.2237 23.6099 11.3144C23.6071 11.5028 23.6007 11.691 23.5942 11.8793C23.5917 12.0074 23.5894 12.1354 23.5873 12.2635C23.5817 12.5767 23.5732 12.8897 23.5625 13.2028C23.5051 13.1923 23.5051 13.1923 23.4466 13.1815C23.3964 13.1723 23.3462 13.1631 23.2944 13.1536C23.2447 13.1444 23.1949 13.1353 23.1437 13.1259C21.9901 12.9227 20.8372 13.1839 19.8555 13.8122C18.9076 14.4779 18.2407 15.4731 18.0024 16.6113C17.778 18.3247 18.5964 19.7062 19.6016 21.0231C20.1352 21.7068 20.6992 22.3675 21.2892 23.003C21.3789 23.1052 21.3789 23.1052 21.3789 23.156C18.0776 23.156 14.7763 23.156 11.375 23.156C11.3725 22.3378 11.37 21.5196 11.3675 20.6766C11.3657 20.1594 11.3638 19.6421 11.3619 19.1249C11.3609 18.8533 11.3599 18.5816 11.3589 18.31C11.3588 18.2759 11.3586 18.2419 11.3585 18.2068C11.3565 17.657 11.3548 17.1073 11.3533 16.5575C11.3517 15.9934 11.3497 15.4292 11.3474 14.8651C11.3462 14.5482 11.345 14.2313 11.3444 13.9144C11.3437 13.6163 11.3426 13.3181 11.3411 13.02C11.3407 12.9105 11.3404 12.8009 11.3403 12.6914C11.3401 12.542 11.3393 12.3927 11.3384 12.2433C11.3385 12.1781 11.3385 12.1781 11.3387 12.1115C11.3378 11.8056 11.3378 11.8056 11.2227 11.5271C11.0513 11.4306 10.903 11.4128 10.7086 11.4126C10.6573 11.4123 10.6061 11.412 10.5533 11.4117C10.4698 11.412 10.4698 11.412 10.3846 11.4123C10.3255 11.4122 10.2664 11.412 10.2056 11.4118C10.0103 11.4114 9.81511 11.4117 9.61988 11.412C9.48422 11.4119 9.34857 11.4118 9.21292 11.4117C8.92862 11.4115 8.64432 11.4118 8.36001 11.4122C8.0316 11.4128 7.7032 11.4126 7.37479 11.4121C7.09252 11.4116 6.81025 11.4115 6.52798 11.4118C6.35953 11.412 6.19108 11.4119 6.02262 11.4116C5.83481 11.4114 5.647 11.4118 5.45918 11.4123C5.40352 11.4121 5.34785 11.4119 5.29049 11.4117C5.21361 11.4122 5.21361 11.4122 5.13517 11.4126C5.0908 11.4126 5.04642 11.4127 5.0007 11.4127C4.85297 11.4277 4.75093 11.454 4.6211 11.5271C4.48363 11.7453 4.50483 11.9938 4.50539 12.2433C4.5051 12.29 4.5048 12.3367 4.5045 12.3847C4.50364 12.5412 4.50349 12.6976 4.50334 12.854C4.50287 12.9661 4.50235 13.0782 4.5018 13.1903C4.50041 13.4947 4.49964 13.7992 4.49898 14.1036C4.49819 14.4218 4.49683 14.7399 4.49553 15.058C4.49342 15.592 4.49166 16.126 4.49018 16.66C4.48864 17.21 4.4869 17.76 4.48487 18.31C4.48474 18.3439 4.48462 18.3778 4.48449 18.4127C4.48386 18.5829 4.48323 18.753 4.48259 18.9231C4.47735 20.3341 4.47283 21.745 4.46875 23.156C3.79844 23.156 3.12813 23.156 2.4375 23.156C2.42602 21.5512 2.41693 19.9464 2.41157 18.3416C2.41094 18.1521 2.41028 17.9626 2.40961 17.7732C2.40941 17.7166 2.40941 17.7166 2.4092 17.6589C2.40699 17.0481 2.40299 16.4374 2.39832 15.8267C2.39357 15.2 2.39075 14.5734 2.38972 13.9467C2.38903 13.56 2.38683 13.1733 2.3827 12.7867C2.3797 12.4901 2.37938 12.1936 2.38006 11.897C2.37992 11.7754 2.37891 11.6538 2.37697 11.5322C2.36296 10.6111 2.36296 10.6111 2.54887 10.3624C2.67944 10.2692 2.79537 10.211 2.94531 10.156C2.99748 10.1215 3.04964 10.087 3.10339 10.0515C3.14745 10.0235 3.19151 9.99554 3.23691 9.96672C3.28731 9.93461 3.33772 9.9025 3.38965 9.86942C3.44202 9.8362 3.49439 9.80298 3.54834 9.76875C3.66143 9.69671 3.7745 9.62464 3.88754 9.55253C3.97088 9.49939 3.97088 9.49939 4.05591 9.44517C4.27894 9.30244 4.5009 9.15808 4.72266 9.01338C5.09901 8.76795 5.47701 8.52519 5.85571 8.2834C6.26655 8.02104 6.67607 7.75682 7.08399 7.48994C7.54518 7.18821 8.00873 6.89031 8.47323 6.5937C8.92995 6.30189 9.38451 6.00688 9.8386 5.71101C10.2654 5.43308 10.6931 5.15661 11.1221 4.88205C11.2029 4.83032 11.2029 4.83032 11.2854 4.77755C11.3953 4.70727 11.5054 4.63713 11.6155 4.56711C11.8627 4.40973 12.1085 4.25129 12.3502 4.08562C12.3896 4.05891 12.429 4.0322 12.4697 4.00468C12.5418 3.9556 12.6135 3.90579 12.6845 3.85512C12.9129 3.70081 12.9129 3.70081 13.072 3.72677ZM12.6953 11.5271C12.5905 11.7067 12.5809 11.8663 12.5805 12.0716C12.5802 12.1296 12.5798 12.1877 12.5794 12.2474C12.5795 12.3106 12.5797 12.3738 12.5798 12.4389C12.5795 12.5058 12.5793 12.5727 12.579 12.6417C12.5783 12.8249 12.5783 13.0081 12.5784 13.1912C12.5785 13.3443 12.5782 13.4974 12.578 13.6505C12.5774 14.0117 12.5774 14.3729 12.5777 14.734C12.578 15.1064 12.5774 15.4787 12.5763 15.851C12.5754 16.1709 12.5751 16.4909 12.5753 16.8109C12.5754 17.0018 12.5752 17.1928 12.5745 17.3837C12.5738 17.5967 12.5743 17.8097 12.5748 18.0227C12.5745 18.0858 12.5741 18.1488 12.5737 18.2138C12.5687 18.6281 12.5687 18.6281 12.7461 18.9919C12.9452 19.1129 13.14 19.1066 13.3689 19.1074C13.4051 19.1077 13.4413 19.1079 13.4786 19.1082C13.5978 19.1089 13.7169 19.1088 13.8361 19.1087C13.9193 19.1089 14.0024 19.1092 14.0856 19.1094C14.2597 19.1098 14.4338 19.1098 14.6079 19.1095C14.8307 19.1092 15.0534 19.1101 15.2761 19.1112C15.4478 19.112 15.6194 19.112 15.7911 19.1119C15.8732 19.1119 15.9553 19.1122 16.0374 19.1127C16.1524 19.1133 16.2673 19.113 16.3823 19.1124C16.4803 19.1124 16.4803 19.1124 16.5802 19.1125C16.7739 19.0917 16.8973 19.0429 17.0625 18.9411C17.1346 18.7969 17.1293 18.6946 17.1133 18.5349C16.9999 18.3902 16.933 18.3394 16.7578 18.281C16.6496 18.2764 16.5412 18.275 16.4329 18.2752C16.3996 18.2752 16.3664 18.2752 16.3321 18.2752C16.2247 18.2752 16.1172 18.2756 16.0098 18.276C15.9112 18.2761 15.9112 18.2761 15.8106 18.2762C15.5646 18.2764 15.3185 18.2771 15.0725 18.2778C14.5226 18.2788 13.9728 18.2799 13.4063 18.281C13.4063 16.27 13.4063 14.2591 13.4063 12.1872C13.9599 12.189 14.5136 12.1907 15.084 12.1926C15.4344 12.1933 15.7848 12.1941 16.1352 12.1946C16.6915 12.1956 17.2479 12.1966 17.8042 12.1987C18.2094 12.2002 18.6146 12.2012 19.0197 12.2015C19.2343 12.2017 19.4488 12.2022 19.6633 12.2033C19.8653 12.2044 20.0673 12.2047 20.2693 12.2044C20.3433 12.2045 20.4174 12.2048 20.4914 12.2054C20.5927 12.2061 20.694 12.2059 20.7953 12.2055C20.852 12.2057 20.9086 12.2058 20.967 12.206C21.1499 12.1843 21.2725 12.1297 21.4297 12.0349C21.5018 11.8906 21.4964 11.7883 21.4805 11.6286C21.3671 11.484 21.3002 11.4331 21.125 11.3747C21.0169 11.3697 20.9085 11.3679 20.8003 11.3676C20.7672 11.3674 20.7341 11.3673 20.7 11.3671C20.5889 11.3667 20.4778 11.3666 20.3667 11.3665C20.2871 11.3663 20.2075 11.366 20.128 11.3658C19.9116 11.3651 19.6953 11.3648 19.4789 11.3645C19.3438 11.3644 19.2086 11.3642 19.0734 11.364C18.6506 11.3633 18.2277 11.3628 17.8048 11.3626C17.3167 11.3624 16.8285 11.3615 16.3403 11.36C15.963 11.3589 15.5857 11.3584 15.2084 11.3583C14.983 11.3583 14.7576 11.358 14.5323 11.357C14.3202 11.3562 14.1082 11.3561 13.8962 11.3565C13.8184 11.3566 13.7407 11.3564 13.6629 11.3559C13.5566 11.3552 13.4504 11.3555 13.3441 11.356C13.2549 11.3559 13.2549 11.3559 13.164 11.3558C12.9737 11.3777 12.8549 11.4213 12.6953 11.5271Z" fill="#EB3135"/>
<path d="M13.2031 -1.66685e-05C13.339 0.0657029 13.4487 0.128121 13.5713 0.21263C13.6228 0.246462 13.6228 0.246462 13.6753 0.280979C13.7499 0.329994 13.8241 0.379398 13.8981 0.429144C14.0613 0.538361 14.2263 0.644652 14.3912 0.751214C14.5215 0.835467 14.6514 0.920117 14.7813 1.0049C15.3589 1.3818 15.9387 1.75505 16.5198 2.12645C17.0365 2.45673 17.5513 2.78983 18.0652 3.12462C18.5979 3.47154 19.1326 3.81534 19.6682 4.1577C20.1849 4.48798 20.6998 4.82108 21.2136 5.15587C21.7463 5.50279 22.281 5.84659 22.8167 6.18895C23.2925 6.49312 23.7669 6.79941 24.2401 7.10777C24.4342 7.23422 24.6286 7.36004 24.8232 7.48561C24.9956 7.59689 25.1677 7.70855 25.3398 7.8203C25.3713 7.84069 25.4028 7.86108 25.4353 7.88209C25.5221 7.93846 25.6087 7.99521 25.6953 8.05198C25.7676 8.09921 25.7676 8.09921 25.8413 8.1474C25.9492 8.22655 25.9492 8.22655 26 8.32811C26.0429 8.73453 25.9194 9.06428 25.7725 9.43765C25.7333 9.53767 25.6955 9.63815 25.6578 9.73878C25.4437 10.2968 25.4437 10.2968 25.2383 10.4609C24.8507 10.5293 24.6244 10.3602 24.3115 10.1467C24.2626 10.1144 24.2136 10.0822 24.1632 10.0489C24.0621 9.98212 23.9611 9.91497 23.8605 9.84745C23.6875 9.73169 23.5131 9.61827 23.3384 9.50516C23.2141 9.42464 23.0899 9.34373 22.9658 9.2628C22.6696 9.07015 22.3718 8.88006 22.074 8.68992C21.6149 8.39677 21.1579 8.1007 20.7021 7.80249C20.2886 7.53233 19.8727 7.26603 19.4565 7.00022C18.9997 6.70842 18.5452 6.4134 18.0911 6.11754C17.5584 5.77062 17.0237 5.42681 16.488 5.08446C15.972 4.7546 15.4578 4.42197 14.9447 4.08763C14.6537 3.89808 14.3625 3.709 14.0704 3.52135C13.9602 3.4501 13.8507 3.37784 13.7413 3.30552C13.6688 3.25842 13.5962 3.21134 13.5237 3.16429C13.4908 3.14222 13.4579 3.12015 13.4241 3.0974C13.2229 2.96839 13.0857 2.90252 12.8477 2.9453C12.7154 3.01356 12.599 3.08193 12.4763 3.16429C12.4411 3.18711 12.4059 3.20992 12.3697 3.23343C12.2953 3.28175 12.2211 3.33037 12.1471 3.37927C12.0387 3.45078 11.9298 3.52134 11.8205 3.59157C11.6396 3.70793 11.4592 3.82493 11.2788 3.94217C11.1079 4.05332 10.9368 4.16428 10.7656 4.27513C10.731 4.29759 10.6963 4.32004 10.6606 4.34318C10.3356 4.55338 10.0095 4.76178 9.68335 4.9702C9.16662 5.30048 8.65179 5.63358 8.13797 5.96837C7.60525 6.31529 7.07058 6.65909 6.53491 7.00145C6.01818 7.33173 5.50335 7.66483 4.98953 7.99962C4.40251 8.3819 3.81295 8.76015 3.22266 9.13738C2.92101 9.33033 2.61989 9.52407 2.31979 9.71942C2.23452 9.77492 2.14919 9.83031 2.06377 9.88558C1.89225 9.99667 1.72143 10.1081 1.55399 10.2253C1.18046 10.4811 1.18046 10.4811 0.942629 10.4958C0.733555 10.4555 0.691582 10.4184 0.558596 10.2578C0.459749 10.057 0.382997 9.84785 0.304615 9.63839C0.266912 9.53816 0.227848 9.43853 0.188646 9.33887C-0.0600948 8.69272 -0.0600948 8.69272 1.7758e-06 8.32811C0.1737 8.08776 0.438509 7.94758 0.688722 7.7949C0.775975 7.74075 0.863188 7.68653 0.950365 7.63225C0.995001 7.60452 1.03964 7.5768 1.08562 7.54824C1.29465 7.41727 1.50109 7.28244 1.70752 7.14744C2.09337 6.89563 2.48083 6.64643 2.86914 6.39842C3.38274 6.07031 3.89437 5.73931 4.405 5.4066C4.93772 5.05968 5.4724 4.71588 6.00806 4.37352C6.52479 4.04323 7.03962 3.71014 7.55344 3.37535C8.08616 3.02843 8.62083 2.68463 9.1565 2.34227C9.673 2.01213 10.1876 1.67919 10.7012 1.34455C10.9506 1.18213 11.2001 1.02006 11.4506 0.859297C11.6243 0.747564 11.796 0.633158 11.9675 0.518111C12.0673 0.452238 12.1671 0.386381 12.2668 0.32054C12.3134 0.288796 12.3599 0.257052 12.4079 0.224346C12.6883 0.0409618 12.8669 -0.0580775 13.2031 -1.66685e-05Z" fill="#EB3135"/>
<path d="M5.28125 12.1875C7.02406 12.1875 8.76687 12.1875 10.5625 12.1875C10.5625 15.8072 10.5625 19.4269 10.5625 23.1562C8.81969 23.1562 7.07688 23.1562 5.28125 23.1562C5.28125 19.5366 5.28125 15.9169 5.28125 12.1875ZM9.48022 16.7991C9.32284 17.0031 9.31652 17.2199 9.34375 17.4688C9.4233 17.6882 9.4233 17.6882 9.59766 17.8242C9.78454 17.8445 9.86928 17.8501 10.0198 17.7322C10.1772 17.5282 10.1835 17.3114 10.1562 17.0625C10.0767 16.843 10.0767 16.843 9.90234 16.707C9.71546 16.6867 9.63072 16.6811 9.48022 16.7991Z" fill="#EB3135"/>
<path d="M0.627198 23.9429C0.670583 23.9426 0.713968 23.9423 0.758668 23.942C0.905047 23.9412 1.05138 23.942 1.19776 23.9427C1.30336 23.9424 1.40896 23.9421 1.51456 23.9417C1.80552 23.9408 2.09647 23.9413 2.38743 23.9419C2.70092 23.9423 3.0144 23.9416 3.32788 23.9411C3.90676 23.9402 4.48564 23.9403 5.06452 23.9409C5.59925 23.9414 6.13398 23.9415 6.66871 23.9413C6.70415 23.9412 6.73959 23.9412 6.7761 23.9412C6.91995 23.9412 7.06379 23.9411 7.20764 23.941C8.55768 23.9404 9.90771 23.941 11.2577 23.9421C12.4578 23.943 13.6578 23.9429 14.8578 23.942C16.2053 23.9409 17.5529 23.9404 18.9004 23.9411C19.044 23.9411 19.1876 23.9412 19.3312 23.9413C19.3665 23.9413 19.4019 23.9413 19.4383 23.9413C19.9728 23.9415 20.5072 23.9413 21.0417 23.9408C21.6493 23.9402 22.2568 23.9403 22.8644 23.9414C23.1746 23.942 23.4848 23.9422 23.795 23.9415C24.0787 23.9409 24.3623 23.9412 24.646 23.9423C24.7489 23.9425 24.8518 23.9424 24.9548 23.9419C25.0941 23.9413 25.2334 23.9419 25.3727 23.9429C25.4334 23.9422 25.4334 23.9422 25.4953 23.9414C25.6738 23.9439 25.7773 23.9542 25.9232 24.061C26.0345 24.2214 26.0262 24.346 26.0269 24.5397C26.0271 24.575 26.0273 24.6103 26.0275 24.6467C26.0276 24.7211 26.0273 24.7956 26.0264 24.87C26.0253 24.9837 26.0264 25.0973 26.0277 25.211C26.0276 25.2835 26.0273 25.3559 26.0269 25.4284C26.0267 25.4941 26.0265 25.5598 26.0262 25.6276C25.9944 25.832 25.9623 25.8785 25.7968 25.9997C25.649 26.0196 25.5205 26.027 25.3727 26.0253C25.3293 26.0256 25.2859 26.0258 25.2412 26.0262C25.0948 26.0269 24.9485 26.0262 24.8021 26.0255C24.6965 26.0257 24.5909 26.026 24.4853 26.0264C24.1944 26.0273 23.9034 26.0269 23.6124 26.0262C23.299 26.0258 22.9855 26.0265 22.672 26.0271C22.0931 26.0279 21.5142 26.0278 20.9354 26.0273C20.4006 26.0268 19.8659 26.0266 19.3312 26.0269C19.2957 26.0269 19.2603 26.0269 19.2238 26.0269C19.0799 26.027 18.9361 26.0271 18.7922 26.0271C17.4422 26.0277 16.0922 26.0272 14.7421 26.0261C13.5421 26.0251 12.3421 26.0252 11.1421 26.0262C9.79453 26.0273 8.447 26.0277 7.09948 26.0271C6.95589 26.027 6.8123 26.0269 6.66871 26.0269C6.63335 26.0269 6.598 26.0268 6.56157 26.0268C6.02711 26.0266 5.49265 26.0269 4.95819 26.0274C4.35062 26.028 3.74306 26.0278 3.1355 26.0267C2.82529 26.0262 2.51508 26.026 2.20487 26.0266C1.92121 26.0272 1.63756 26.0269 1.3539 26.0258C1.25097 26.0256 1.14805 26.0257 1.04512 26.0262C0.905792 26.0268 0.766523 26.0262 0.627198 26.0253C0.566493 26.026 0.566493 26.026 0.504563 26.0267C0.326034 26.0242 0.222559 26.014 0.0766358 25.9071C-0.0346201 25.7468 -0.0263634 25.6221 -0.0270386 25.4284C-0.0272329 25.3931 -0.0274272 25.3578 -0.0276275 25.3214C-0.0277653 25.247 -0.0273929 25.1726 -0.0265427 25.0981C-0.0254549 24.9844 -0.026533 24.8709 -0.027832 24.7571C-0.0276978 24.6847 -0.0274375 24.6122 -0.0270386 24.5397C-0.0268095 24.474 -0.0265804 24.4083 -0.0263443 24.3406C0.0333903 23.9565 0.286641 23.9389 0.627198 23.9429Z" fill="#EB3135"/>
<path d="M24.6289 14.5484C24.6976 14.6064 24.7654 14.6657 24.832 14.7261C24.8667 14.7568 24.9014 14.7874 24.9371 14.819C25.6064 15.445 25.9891 16.3377 26.0231 17.2459C26.0313 17.7559 25.971 18.1716 25.7461 18.6363C25.7303 18.6695 25.7145 18.7027 25.6982 18.7369C25.307 19.5488 24.7813 20.2688 24.2226 20.9722C24.1845 21.0202 24.1464 21.0682 24.1072 21.1176C23.8733 21.4077 23.6287 21.6856 23.3764 21.9597C23.2754 22.0701 23.1773 22.182 23.08 22.2957C22.8646 22.5443 22.6291 22.7731 22.3945 23.0035C22.1745 22.9189 22.0321 22.7559 21.8708 22.5909C21.8412 22.5608 21.8116 22.5308 21.7811 22.4999C21.5706 22.2853 21.3696 22.0652 21.1757 21.8355C21.1295 21.7823 21.0832 21.7291 21.0369 21.676C19.8474 20.3087 18.5649 18.7578 18.6875 16.8589C18.8051 15.8899 19.3812 15.1275 20.0966 14.5071C21.4228 13.4967 23.3151 13.5591 24.6289 14.5484ZM20.8838 16.0528C20.449 16.5133 20.3381 17.0582 20.3492 17.6653C20.375 18.225 20.6629 18.6483 21.0551 19.0267C21.535 19.4206 22.0482 19.511 22.6506 19.4609C23.1951 19.3943 23.6133 19.0849 23.9592 18.6744C24.3242 18.1684 24.4033 17.6203 24.3242 17.0113C24.1905 16.4509 23.8343 16.0185 23.3498 15.7164C22.5081 15.2573 21.5926 15.4196 20.8838 16.0528Z" fill="#EB3135"/>
<path d="M22.9245 16.326C23.2203 16.5047 23.46 16.7825 23.5625 17.1131C23.6033 17.511 23.6196 17.9062 23.3593 18.2302C23.1154 18.4864 22.8941 18.6673 22.5331 18.7043C22.1007 18.7091 21.8016 18.6933 21.4822 18.3891C21.1581 18.0386 21.1006 17.763 21.1095 17.288C21.1448 16.8888 21.3305 16.6789 21.6278 16.4247C21.9866 16.1776 22.5262 16.1494 22.9245 16.326Z" fill="#EB3135"/>
</g>
<defs>
<clipPath id="clip0_1_766">
<rect width="26" height="26" fill="white"/>
</clipPath>
</defs>
</svg>
