<svg width="134" height="134" viewBox="0 0 134 134" fill="none" xmlns="http://www.w3.org/2000/svg">
<path d="M50.2716 0.397423C49.8005 0.63297 49.2248 1.18258 48.9892 1.60133C48.7798 2.04625 48.1517 5.00367 47.6283 8.17047L46.6861 13.9544L43.9904 14.9228C42.4986 15.4462 40.3001 16.3623 39.0962 16.938C37.8923 17.54 36.8455 18.0111 36.7669 18.0111C36.7146 18.0111 34.4376 16.4146 31.7419 14.4779C26.9787 11.0755 26.7693 10.9447 25.513 10.9447H24.1783L17.583 17.5662L10.9615 24.1615V25.4962C10.9615 26.7525 11.0662 26.9619 14.5209 31.7252L18.0802 36.6716L16.9548 39.0533C16.3529 40.3619 15.4369 42.6127 14.9134 44.0521L13.9712 46.6693L8.21343 47.6377C5.04664 48.1611 2.08921 48.763 1.64429 48.9724C-0.00453603 49.7576 -0.0568797 50.2025 0.0216359 60.3048L0.100152 69.3603L1.04234 70.224C1.8275 70.9306 2.35093 71.14 3.92125 71.4017C4.99429 71.5849 7.69 72.0298 9.9146 72.4224L13.9712 73.1029L14.9134 75.7201C15.4107 77.1595 16.3529 79.358 16.9548 80.6404C18.0802 82.9173 18.0802 82.9173 17.6091 83.6502C17.3474 84.0427 15.7509 86.2935 14.0498 88.649C11.0662 92.7841 10.9615 92.9673 10.9615 94.2759V95.6107L17.583 102.206L24.1783 108.828H25.356C26.7693 108.828 27.031 108.67 32.4748 104.745C34.7517 103.096 36.7146 101.761 36.8716 101.761C37.0025 101.761 37.997 102.206 39.0177 102.729C40.0646 103.253 42.2369 104.195 43.8072 104.771L46.6861 105.844L47.3666 109.874C47.7591 112.099 48.2041 114.795 48.3873 115.868C48.649 117.438 48.8584 117.961 49.565 118.747L50.4287 119.689L59.4056 119.767C68.749 119.846 70.0576 119.715 69.7435 118.799C69.6912 118.563 69.1939 117.307 68.6966 116.025C67.1001 111.916 66.6029 108.88 66.6029 103.462C66.6029 99.5627 66.7076 98.2802 67.1787 96.0556C67.6759 93.831 68.7751 90.3763 69.7173 88.047C69.9005 87.6021 69.8482 87.5759 69.2986 87.733C64.7185 89.0677 64.8755 89.0416 59.9029 89.0416C55.4798 89.0416 54.8517 88.963 52.4439 88.3349C45.8486 86.5552 39.358 81.9752 35.563 76.3744C33.9666 74.0451 32.2916 70.3548 31.5064 67.4759C30.6427 64.4138 30.3548 58.813 30.8259 55.4107C31.7158 49.3388 34.8564 43.3193 39.4365 38.8962C42.7341 35.7294 45.7439 33.7927 49.8791 32.2486C53.2814 30.9662 55.0087 30.7044 60.0337 30.7044C64.3783 30.7044 64.9541 30.783 67.3357 31.4373C75.7892 33.7666 82.5416 39.3673 86.3626 47.1927C88.1423 50.8306 88.9537 54.1806 89.1369 58.4728C89.2939 62.2154 88.9798 65.1728 88.1423 67.9209C87.8544 68.863 87.6451 69.6482 87.6974 69.7005C87.7498 69.7529 88.9013 69.3865 90.2623 68.863C91.6232 68.3658 94.031 67.633 95.6275 67.2666C98.1662 66.6646 99.056 66.5861 103.348 66.5861C108.897 66.5861 111.88 67.0834 116.042 68.6798C117.324 69.1771 118.58 69.6482 118.816 69.7267C119.706 70.0146 119.836 68.7845 119.836 59.8599C119.836 50.2548 119.784 49.8884 118.188 49.0248C117.717 48.7892 114.759 48.1611 111.592 47.6115L105.861 46.6693L104.788 43.7642C104.186 42.1939 103.27 40.0216 102.746 38.9748C102.223 37.9279 101.778 36.9595 101.778 36.8287C101.778 36.6716 103.139 34.6826 104.814 32.3794C108.74 26.9095 108.844 26.7525 108.844 25.3392V24.1615L102.223 17.5662L95.6275 10.9447H94.2927C93.0103 10.9447 92.8271 11.0494 88.0638 14.4779C85.3419 16.4146 83.065 18.0111 83.0126 18.0111C82.9603 18.0111 81.9134 17.54 80.7095 16.938C79.5056 16.3623 77.3072 15.4462 75.8154 14.9228L73.1197 13.9544L72.4392 9.89781C72.0466 7.6732 71.6017 4.9775 71.4185 3.90445C71.1568 2.33414 70.9474 1.8107 70.2408 1.02555L69.3771 0.0833605L60.2431 0.0310168C52.2345 -0.0474989 51.0306 0.00484489 50.2716 0.397423Z" fill="white"/>
<path d="M55.0611 37.5092C47.3142 39.1842 40.7189 45.1514 38.1803 52.7674C37.4213 54.992 37.2904 55.7248 37.1857 58.8392C36.9502 65.9318 38.9392 71.1139 43.8072 75.9818C47.1572 79.3318 50.9521 81.3732 55.4275 82.2892C58.0971 82.8127 63.3314 82.6818 65.7916 82.0014C68.2517 81.3471 72.4131 79.1748 74.3498 77.5783C76.9146 75.4584 78.8775 72.9459 80.317 69.9623C82.0181 66.5076 82.4107 64.8588 82.5939 60.9068C82.8033 55.908 81.8349 52.0084 79.2178 47.6639C76.3388 42.8221 70.4502 38.7392 64.6138 37.5092C62.3369 37.0381 57.2334 37.0381 55.0611 37.5092Z" fill="white"/>
<path d="M98.3493 73.3909C93.7692 74.2022 88.7442 76.3745 85.2896 78.9655C83.1173 80.6143 79.6888 84.1475 78.2493 86.2674C76.7052 88.5444 74.9517 92.3131 74.1927 94.9827C68.0685 116.417 86.1009 136.884 108.138 133.56C121.145 131.597 131.614 121.128 133.577 108.121C136.115 91.2663 124.469 75.5893 107.693 73.26C104.997 72.8674 100.809 72.946 98.3493 73.3909ZM116.643 93.1245C117.743 93.8049 118.345 95.1659 118.109 96.4745C117.978 97.312 116.827 98.5682 109.656 105.739C102.484 112.937 101.254 114.036 100.417 114.193C99.8673 114.298 99.1083 114.298 98.7157 114.193C97.5903 113.931 89.2677 105.556 88.9013 104.352C88.404 102.625 89.4771 100.714 91.2306 100.296C92.7747 99.903 93.5599 100.374 96.5958 103.489L99.5271 106.498L106.096 99.9815C109.682 96.396 112.927 93.2553 113.293 93.0198C114.157 92.444 115.597 92.4963 116.643 93.1245Z" fill="white"/>
</svg>
