<svg width="39" height="57" viewBox="0 0 39 57" fill="none" xmlns="http://www.w3.org/2000/svg">
<path d="M19.2168 36.063C22.824 36.063 25.7483 33.1387 25.7483 29.5315C25.7483 25.9243 22.824 23 19.2168 23C15.6096 23 12.6853 25.9243 12.6853 29.5315C12.6853 33.1387 15.6096 36.063 19.2168 36.063Z" fill="#EB3135"/>
<path d="M32.4361 36.0631C34.7166 36.0631 36.5652 34.2145 36.5652 31.934C36.5652 29.6536 34.7166 27.8049 32.4361 27.8049C30.1557 27.8049 28.307 29.6536 28.307 31.934C28.307 34.2145 30.1557 36.0631 32.4361 36.0631Z" fill="#EB3135"/>
<path d="M6.00844 36.0629C8.28888 36.0629 10.1375 34.2142 10.1375 31.9338C10.1375 29.6534 8.28888 27.8047 6.00844 27.8047C3.728 27.8047 1.87933 29.6534 1.87933 31.9338C1.87933 34.2142 3.728 36.0629 6.00844 36.0629Z" fill="#EB3135"/>
<path d="M10.0743 39.771C8.4489 38.4394 6.97692 38.6156 5.09757 38.6156C2.28677 38.6156 0 40.8889 0 43.6824V51.8813C0 53.0945 0.990235 54.081 2.20795 54.081C7.46513 54.081 6.8318 54.1761 6.8318 53.8543C6.8318 48.0446 6.14366 43.784 10.0743 39.771Z" fill="#EB3135"/>
<path d="M21.0066 38.6455C17.724 38.3717 14.8708 38.6486 12.4098 40.68C8.29142 43.9788 9.08398 48.4204 9.08398 53.8541C9.08398 55.2917 10.2536 56.4832 11.7131 56.4832C27.56 56.4832 28.1907 56.9944 29.1304 54.9134C29.4386 54.2097 29.3541 54.4333 29.3541 47.701C29.3541 42.3537 24.7241 38.6455 21.0066 38.6455Z" fill="#EB3135"/>
<path d="M33.3371 38.6152C31.4475 38.6152 29.9836 38.4407 28.3604 39.7706C32.2617 43.7538 31.6029 47.7236 31.6029 53.8539C31.6029 54.1777 31.0771 54.0806 36.1479 54.0806C37.4092 54.0806 38.4347 53.0588 38.4347 51.8028V43.682C38.4347 40.8885 36.1479 38.6152 33.3371 38.6152Z" fill="#EB3135"/>
<path d="M27.9581 6.50841C27.8573 6.19843 27.5894 5.97249 27.2669 5.92562L22.0852 5.17267L19.7679 0.47729C19.6236 0.185013 19.3259 0 19 0C18.6741 0 18.3764 0.185013 18.2322 0.477347L15.9148 5.17273L10.7332 5.92568C10.4106 5.97255 10.1426 6.19849 10.0419 6.50846C9.94122 6.81844 10.0252 7.15872 10.2586 7.38621L14.0081 11.041L13.123 16.2018C13.0679 16.523 13.1999 16.8477 13.4636 17.0393C13.7273 17.2308 14.0769 17.2561 14.3654 17.1045L19 14.6679L23.6347 17.1045C23.9253 17.2572 24.2747 17.2294 24.5364 17.0393C24.8001 16.8477 24.9322 16.523 24.8771 16.2018L23.992 11.041L27.7414 7.38621C27.9748 7.15867 28.0588 6.81838 27.9581 6.50841Z" fill="#FFCC00"/>
</svg>
