<svg width="35" height="35" viewBox="0 0 35 35" fill="none" xmlns="http://www.w3.org/2000/svg">
<path d="M0.195531 0.19554L0 0.38327V2.38573V4.38037H1.28268H2.57318L2.76089 3.9658C2.99553 3.44954 3.39441 3.04279 3.93408 2.76119C4.28603 2.57346 4.43464 2.54217 5.00559 2.54217C5.57654 2.54217 5.72514 2.57346 6.0771 2.76119C6.61676 3.04279 7.01564 3.44954 7.25028 3.9658L7.43799 4.38037H9.07263H10.7073L10.895 3.9658C11.1296 3.44954 11.5285 3.04279 12.0682 2.76119C12.4201 2.57346 12.5687 2.54217 13.1397 2.54217C13.7106 2.54217 13.8592 2.57346 14.2112 2.76119C14.7508 3.04279 15.1497 3.44954 15.3844 3.9658L15.5721 4.38037H17.1676H18.7553L18.7866 3.83282C18.8179 3.25399 18.9352 3.0115 19.3497 2.70644C19.5609 2.55 19.6547 2.54217 22.5251 2.54217C25.3955 2.54217 25.4894 2.55 25.7006 2.70644C26.1151 3.0115 26.2324 3.25399 26.2637 3.83282L26.295 4.38037H27.5385H28.7821V2.38573V0.38327L28.5866 0.19554L28.3989 -1.32918e-05H14.3911H0.38324L0.195531 0.19554Z" fill="#EB3135"/>
<path d="M4.49722 3.86393C3.70728 4.2081 3.51957 5.25627 4.13744 5.87421C5.01342 6.75811 6.45253 5.96808 6.22571 4.73219C6.08493 3.99691 5.20113 3.55105 4.49722 3.86393Z" fill="#EB3135"/>
<path d="M12.6313 3.86393C11.8413 4.2081 11.6536 5.25627 12.2715 5.87421C13.1475 6.75811 14.5866 5.96808 14.3598 4.73219C14.219 3.99691 13.3352 3.55105 12.6313 3.86393Z" fill="#EB3135"/>
<path d="M20.0223 5.00627V6.25781H22.5251H25.0279V5.00627V3.75474H22.5251H20.0223V5.00627Z" fill="#EB3135"/>
<path d="M0 7.82201V10.0122H14.3911H28.7821V7.82201V5.63182H27.5385H26.295L26.2637 6.17937C26.2324 6.75821 26.1151 7.00069 25.7006 7.30576C25.4894 7.4622 25.3955 7.47002 22.5251 7.47002C19.6547 7.47002 19.5609 7.4622 19.3497 7.30576C18.9352 7.00069 18.8179 6.75821 18.7866 6.17937L18.7553 5.63182H17.1676H15.5721L15.3844 6.04639C15.1497 6.56265 14.7508 6.9694 14.2112 7.251C13.8592 7.43091 13.7106 7.4622 13.1397 7.4622C12.5687 7.4622 12.4201 7.43091 12.0682 7.251C11.5285 6.9694 11.1296 6.56265 10.895 6.04639L10.7073 5.63182H9.07263H7.43799L7.25028 6.04639C7.01564 6.56265 6.61676 6.9694 6.0771 7.251C5.72514 7.43091 5.57654 7.4622 5.00559 7.4622C4.43464 7.4622 4.28603 7.43091 3.93408 7.251C3.39441 6.9694 2.99553 6.56265 2.76089 6.04639L2.57318 5.63182H1.28268H0V7.82201Z" fill="#EB3135"/>
<path d="M0 20.4548V29.6536L0.195531 29.8413L0.38324 30.0369H8.18101C15.5721 30.0369 15.971 30.029 15.9084 29.9039C15.705 29.4424 15.3218 28.1752 15.2045 27.5885L15.0715 26.908H9.59665C5.52961 26.908 4.04358 26.8846 3.80112 26.8142C3.37095 26.689 2.72179 26.0398 2.59665 25.6095C2.46369 25.148 2.46369 16.1526 2.59665 15.6911C2.72179 15.2609 3.37095 14.6117 3.80112 14.4865C4.0514 14.4161 6.56201 14.3926 14.438 14.3926C24.6525 14.3926 24.7542 14.4005 25.1061 14.5569C25.3017 14.6429 25.5285 14.7759 25.6145 14.862C25.7318 14.9636 25.9587 15.0184 26.4592 15.0575C27.124 15.1123 28.352 15.3313 28.6492 15.4486C28.7743 15.5034 28.7821 15.3704 28.7821 13.3836V11.2638H14.3911H0V20.4548Z" fill="#EB3135"/>
<path d="M3.94971 15.8397L3.75418 16.0275V20.6503V25.2732L3.94971 25.4609L4.13742 25.6565H9.56535H14.9933L15.048 24.929C15.2749 21.9097 16.7922 19.0703 19.1464 17.2634C19.8033 16.7549 20.9296 16.0979 21.5084 15.8789C21.7665 15.785 21.9776 15.6911 21.9776 15.6755C21.9776 15.6598 17.9654 15.6442 13.0614 15.6442H4.13742L3.94971 15.8397Z" fill="#EB3135"/>
<path d="M24.5978 16.3169C23.276 16.5203 22.2827 16.841 21.2268 17.3963C18.7944 18.6948 17.0503 21.018 16.4559 23.7792C16.2525 24.7022 16.2525 26.6108 16.4559 27.5338C17.2693 31.3041 20.1709 34.1435 23.9721 34.8944C24.6838 35.0352 26.6235 35.0352 27.3352 34.8944C31.2067 34.1278 34.124 31.2102 34.8905 27.3382C34.9531 27.0254 35 26.3057 35 25.6565C35 25.0072 34.9531 24.2876 34.8905 23.9747C34.1397 20.1654 31.3084 17.2868 27.5151 16.4577C26.9598 16.3403 25.0749 16.2465 24.5978 16.3169ZM23.0413 18.8825C24.1363 19.4301 24.7855 20.4704 24.7933 21.7063C24.7933 22.0974 24.8011 22.1052 25.5207 22.8249L26.2402 23.5445L27.0614 22.7232C27.8592 21.9175 27.8749 21.9019 27.7106 21.7845C27.4369 21.5968 27.2022 21.1588 27.257 20.9398C27.2883 20.8302 27.5933 20.4704 27.9452 20.1263C28.5006 19.6022 28.7195 19.4535 29.533 19.0624C30.4559 18.6166 30.4871 18.6088 30.7452 18.7183C31.0659 18.8512 31.9888 19.7977 31.9966 20.0011C32.0201 20.314 31.9575 20.4782 31.5195 21.3543C31.1285 22.1365 30.9799 22.3321 30.4402 22.8562C30.0961 23.1925 29.7598 23.4663 29.6816 23.4663C29.5017 23.4663 29.2514 23.3255 28.9776 23.0674L28.7352 22.8405L27.9218 23.6618L27.1006 24.4832L28.1095 25.4922L29.1106 26.4935L29.7676 26.5404C31.2536 26.6264 32.4033 27.612 32.6927 29.0591C32.8492 29.8178 32.6693 30.7252 32.3408 30.8504C32.0123 30.9755 31.8089 30.8895 31.324 30.4202C30.8547 29.9743 30.8078 29.943 30.5497 29.9899C30.1978 30.0603 30.057 30.2011 29.9866 30.5531C29.9397 30.8113 29.9709 30.8582 30.4168 31.3275C30.7531 31.6795 30.8938 31.8829 30.8938 32.0315C30.8938 32.5478 30.5341 32.7355 29.5564 32.7355C28.9464 32.7355 28.8447 32.712 28.2972 32.4461C27.2179 31.9064 26.6078 30.9833 26.5374 29.7631C26.4905 29.1139 26.4905 29.106 26.1464 28.7697L25.81 28.4412L24.1441 30.0838C23.2369 30.9912 22.4 31.7968 22.2905 31.8672C22.0324 32.0393 21.2972 32.0315 21.0391 31.8672C20.7497 31.6717 19.1776 30.1229 18.9195 29.7709C18.7318 29.5206 18.6927 29.3876 18.6927 29.02C18.6927 28.4333 18.7631 28.3473 20.6793 26.4387C21.524 25.6017 22.2123 24.8899 22.2123 24.8665C22.2123 24.843 21.9151 24.7961 21.5475 24.7804C20.0536 24.6865 18.9117 23.701 18.6145 22.2539C18.4581 21.4951 18.638 20.5878 18.9665 20.4626C19.295 20.3374 19.4983 20.4235 19.9832 20.8928C20.4525 21.3387 20.4994 21.37 20.7575 21.323C21.1095 21.2526 21.2503 21.1118 21.3207 20.7598C21.3676 20.5017 21.3363 20.4548 20.8905 19.9855C20.5307 19.61 20.4134 19.4379 20.4134 19.2658C20.4134 18.7496 20.8983 18.5149 21.8525 18.5696C22.3609 18.6009 22.5642 18.6557 23.0413 18.8825Z" fill="#EB3135"/>
<path d="M29.7207 20.3765C29.3531 20.5564 28.9855 20.7833 28.9073 20.8771L28.7509 21.0492L29.1967 21.4872L29.6347 21.9331L29.8067 21.7767C29.9006 21.6984 30.1274 21.323 30.3151 20.9553C30.6279 20.3217 30.6436 20.267 30.5185 20.1575C30.4011 20.048 30.3229 20.0714 29.7207 20.3765Z" fill="#EB3135"/>
<path d="M22.7285 20.1967C22.7754 20.3375 22.3452 21.7455 22.1654 22.0349C22.0402 22.2304 20.4056 22.8093 20.1944 22.7232C19.8737 22.6059 20.6324 23.2395 20.9843 23.3959C21.3285 23.5367 21.4693 23.5524 21.9542 23.5133L22.5251 23.4585L22.9475 23.8574C23.2369 24.1312 23.4246 24.2486 23.5732 24.2486C23.8547 24.2486 24.1519 24.4128 24.4804 24.7492L24.7464 25.0308L25.0436 24.7413L25.3408 24.4519L24.3944 23.4976L23.448 22.5355L23.5028 22.0192C23.581 21.3153 23.448 20.8929 23.0257 20.4314C22.838 20.228 22.705 20.1263 22.7285 20.1967Z" fill="#EB3135"/>
<path d="M25.943 25.6409L25.6536 25.9382L25.9352 26.2041C26.2715 26.5327 26.4357 26.8299 26.4357 27.1115C26.4357 27.2758 26.6 27.4948 27.1475 28.0502L27.8592 28.7776L27.8045 29.2939C27.7341 29.9509 27.8514 30.3968 28.2112 30.8192L28.4927 31.1399L28.7821 30.2325C28.9464 29.7319 29.1184 29.2782 29.1732 29.2157C29.2983 29.067 30.9486 28.5273 31.1128 28.5821C31.1832 28.6055 31.0816 28.4726 30.8782 28.2848C30.4168 27.8624 29.9944 27.7295 29.2827 27.8077L28.7665 27.8624L27.4994 26.6031L26.2324 25.3437L25.943 25.6409Z" fill="#EB3135"/>
<path d="M21.6648 27.2601L19.905 29.0201L20.124 29.2313L20.3352 29.4503L21.4145 28.3708C22.0011 27.7842 22.5251 27.2992 22.5721 27.2992C22.6659 27.2992 23.3855 28.0188 23.3855 28.1205C23.3855 28.1596 22.9006 28.6837 22.314 29.2704L21.2346 30.3498L21.4536 30.561L21.6648 30.78L23.448 28.9966L25.2235 27.221L24.3631 26.3605C23.8939 25.8912 23.4872 25.5001 23.4637 25.5001C23.4402 25.5001 22.6346 26.2901 21.6648 27.2601Z" fill="#EB3135"/>
</svg>
