<svg width="15" height="19" viewBox="0 0 15 19" fill="none" xmlns="http://www.w3.org/2000/svg">
<path d="M8.91758 0.0315614C8.75775 0.124489 8.34515 0.470181 7.98459 0.808438C7.05159 1.68196 6.33047 2.66328 5.75804 3.82674C5.10011 5.16118 4.83248 6.48819 4.7507 8.77793L4.72468 9.46188L4.59086 9.42471C4.3158 9.34665 4.0779 9.19053 3.78797 8.89688C3.33076 8.43224 3.04826 7.88211 2.82523 7.00487C2.68027 6.4473 2.60964 6.34694 2.36059 6.34694C2.07809 6.34694 1.45733 6.8822 1.08191 7.45464C0.357069 8.55491 0.0113771 9.93024 0.000225763 11.7368C-0.00349135 12.6363 0.0373969 13.0043 0.219536 13.6957C0.873748 16.1713 2.82895 18.1265 5.30455 18.7807C5.94018 18.948 6.3788 19 7.11478 19C8.07008 19 8.76147 18.8773 9.64242 18.5502C11.5121 17.8551 13.0808 16.2791 13.7833 14.4019C14.1624 13.3834 14.3 12.4207 14.2182 11.3093C14.1215 9.97484 13.8576 8.94149 13.341 7.84494C12.9209 6.95655 12.5827 6.425 11.4452 4.86009C10.6126 3.71151 10.3561 3.32121 10.0848 2.77851C9.73163 2.07226 9.56065 1.44407 9.50117 0.630017C9.47143 0.250871 9.45657 0.198832 9.37479 0.117055C9.26699 0.0092587 9.03282 -0.0353467 8.91758 0.0315614ZM7.90653 12.1271C7.95857 12.2311 8.21133 12.6289 8.47525 13.0192C8.99564 13.796 9.22611 14.2421 9.34134 14.6919C9.5718 15.5914 9.53463 16.1861 9.20752 16.8664C9.06627 17.16 8.98821 17.2678 8.73545 17.5169C8.25222 17.9964 7.74669 18.2157 7.11478 18.2157C6.48287 18.2157 5.97735 17.9964 5.49412 17.5169C5.24136 17.2715 5.1633 17.16 5.02205 16.8664C4.79159 16.3906 4.71724 16.0152 4.74698 15.4687C4.76928 15.0636 4.85106 14.6175 4.94027 14.4019L4.98488 14.2941L5.0778 14.4577C5.24879 14.7439 5.47182 14.9632 5.71343 15.0784C6.12231 15.2755 6.47544 15.268 6.61669 15.0524C6.67245 14.9706 6.68732 14.8331 6.70962 14.3016C6.73936 13.6027 6.78024 13.2831 6.89919 12.8705C6.9884 12.5582 7.26347 12.0155 7.4865 11.7219L7.64633 11.51L7.72811 11.7256C7.77643 11.8446 7.85449 12.0267 7.90653 12.1271Z" fill="#EB3135"/>
</svg>
