<svg width="30" height="30" viewBox="0 0 30 30" fill="none" xmlns="http://www.w3.org/2000/svg">
<path d="M14.3747 0.930801C14.9858 1.18722 15.4854 0.993737 16.0751 0.768067C16.7077 0.53615 17.3685 0.519807 17.9883 0.798737C18.4366 1.04329 18.7965 1.38064 19.1226 1.76851C19.4916 2.17877 19.9006 2.26476 20.4324 2.32312C20.8761 2.37255 21.2706 2.44696 21.6797 2.63712C21.7216 2.65615 21.7635 2.67518 21.8067 2.69479C22.4604 3.04373 22.753 3.78829 22.9651 4.45718C23.1662 5.06445 23.4242 5.34425 23.9649 5.68399C24.6067 6.08755 25.1524 6.54453 25.3308 7.31363C25.4065 7.77132 25.3894 8.21694 25.3125 8.67227C25.2473 9.35395 25.4001 9.77391 25.7575 10.3449C26.1466 10.9683 26.3409 11.5632 26.25 12.3051C26.1221 12.8576 25.8638 13.3059 25.5462 13.7665C25.2046 14.292 25.2806 14.8698 25.3711 15.4691C25.4109 16.1983 25.3056 16.8313 24.8364 17.4064C24.559 17.7094 24.2218 17.919 23.879 18.1407C23.3185 18.5063 23.135 18.8255 22.9102 19.4535C22.6239 20.2073 22.3071 20.8331 21.5552 21.193C21.1695 21.3458 20.7748 21.3956 20.365 21.4413C19.9393 21.4906 19.5408 21.5655 19.2151 21.8669C19.1761 21.9027 19.1372 21.9386 19.097 21.9756C18.9873 22.0872 18.8892 22.2034 18.7903 22.3246C18.4268 22.752 17.8658 23.1039 17.3005 23.1612C16.7386 23.1794 16.2395 23.0418 15.7178 22.8446C14.9889 22.5753 14.4452 22.7711 13.7332 23.0364C13.2081 23.2244 12.6028 23.2208 12.0955 22.9875C11.6154 22.7281 11.2793 22.4124 10.9202 22.004C10.4979 21.5538 10.0431 21.4719 9.44941 21.4111C8.76557 21.338 8.14302 21.1639 7.6758 20.6254C7.37195 20.2057 7.19192 19.7428 7.02074 19.2576C6.79599 18.6378 6.51404 18.3987 5.97658 18.0473C5.30525 17.6051 4.81468 17.1365 4.64724 16.3297C4.61734 15.977 4.60527 15.6258 4.65822 15.2751C4.76919 14.4566 4.62443 13.942 4.15285 13.2719C3.78076 12.7265 3.67845 12.1355 3.75002 11.4848C3.87184 10.9066 4.17517 10.4273 4.4861 9.93295C4.78274 9.41721 4.72469 8.88995 4.62893 8.32071C4.58433 7.71612 4.61859 7.06862 4.99514 6.57022C5.06697 6.4884 5.14017 6.40775 5.21486 6.32852C5.24493 6.29325 5.27499 6.25798 5.30596 6.22163C5.56508 5.9348 5.88142 5.75371 6.20936 5.5565C6.77878 5.21338 6.94977 4.7797 7.1448 4.15689C7.25639 3.8109 7.41182 3.52204 7.61721 3.22305C7.6538 3.16606 7.6538 3.16606 7.69114 3.10793C8.00801 2.67305 8.59097 2.46172 9.10631 2.36498C9.23274 2.3476 9.35948 2.33243 9.48626 2.31783C9.52755 2.31305 9.56884 2.30827 9.61138 2.30335C9.69348 2.29415 9.77566 2.28568 9.85792 2.27806C10.276 2.23351 10.5397 2.07698 10.8435 1.79483C10.8943 1.748 10.945 1.70117 10.9973 1.65292C11.0944 1.56049 11.1894 1.46592 11.283 1.37003C12.2007 0.475833 13.2229 0.438231 14.3747 0.930801ZM9.29912 7.01058C8.49021 7.94588 7.93174 9.10543 7.6758 10.3129C7.66554 10.3586 7.65528 10.4042 7.6447 10.4513C7.54942 10.9119 7.53601 11.3633 7.53664 11.8327C7.53667 11.8725 7.53671 11.9123 7.53674 11.9533C7.54331 13.7462 8.16887 15.4739 9.37502 16.8168C9.40583 16.8512 9.43663 16.8855 9.46838 16.9209C9.96487 17.4645 10.5057 17.8976 11.1328 18.2816C11.1859 18.3145 11.1859 18.3145 11.2401 18.348C12.7728 19.2775 14.7588 19.6186 16.5118 19.2249C17.9897 18.8526 19.1627 18.2128 20.2735 17.1684C20.3253 17.1221 20.3253 17.1221 20.3783 17.075C21.323 16.1974 21.9299 14.9379 22.2656 13.7113C22.2954 13.6071 22.2954 13.6071 22.3258 13.5008C22.5972 12.3502 22.5503 10.9731 22.2071 9.84415C22.1948 9.80242 22.1826 9.76068 22.1699 9.71769C21.6139 7.8668 20.3336 6.2577 18.6328 5.33243C15.4518 3.66027 11.7112 4.31621 9.29912 7.01058Z" fill="#EB3135"/>
<path d="M17.8711 6.26908C17.9261 6.29612 17.9811 6.32316 18.0377 6.35102C18.4585 6.56494 18.8032 6.84159 19.1601 7.14799C19.2206 7.19391 19.281 7.23983 19.3433 7.28715C20.4377 8.28645 21.2009 9.85088 21.2768 11.3334C21.3311 13.187 20.8726 14.8209 19.5934 16.2026C18.4158 17.4429 16.8981 18.0718 15.1987 18.1767C13.3691 18.2218 11.7621 17.5121 10.4443 16.2703C9.64441 15.4304 9.10069 14.3713 8.84765 13.2417C8.83458 13.1892 8.82151 13.1366 8.80805 13.0824C8.47812 11.5203 8.83334 9.83985 9.66796 8.49564C10.2942 7.55893 11.033 6.88713 12.0117 6.32768C12.0597 6.29996 12.1078 6.27224 12.1573 6.24368C12.4484 6.0869 12.7487 5.97744 13.0627 5.87724C13.0998 5.86536 13.1368 5.85349 13.175 5.84126C14.7105 5.37433 16.4554 5.51067 17.8711 6.26908ZM16.5378 10.3043C16.5013 10.3601 16.4648 10.4159 16.4272 10.4735C16.311 10.6513 16.1956 10.8295 16.0803 11.0079C15.9646 11.1856 15.8487 11.3633 15.7328 11.541C15.6609 11.6513 15.5892 11.7617 15.5176 11.8722C15.3321 12.1581 15.142 12.4388 14.9414 12.7144C14.7217 12.6232 14.5846 12.4874 14.4191 12.3187C14.3649 12.2638 14.3106 12.2089 14.2547 12.1524C14.198 12.0944 14.1412 12.0364 14.0845 11.9783C13.9728 11.8645 13.8609 11.751 13.7489 11.6375C13.6995 11.587 13.65 11.5365 13.5991 11.4845C13.4108 11.3036 13.2718 11.2852 13.0101 11.2871C12.8098 11.3224 12.7188 11.4469 12.5976 11.6011C12.5092 11.7779 12.5097 11.872 12.5391 12.0699C12.6174 12.1809 12.6174 12.1809 12.7203 12.2898C12.7764 12.3516 12.7764 12.3516 12.8335 12.4146C13.1203 12.7219 13.4132 13.0228 13.7086 13.3218C13.7887 13.4031 13.8683 13.4847 13.9476 13.5667C14.0632 13.6862 14.1799 13.8045 14.2969 13.9227C14.3319 13.9593 14.367 13.996 14.4031 14.0338C14.5754 14.2054 14.6819 14.2889 14.9194 14.3601C15.1455 14.3543 15.2353 14.3201 15.4101 14.1792C15.8743 13.661 16.2304 13.0099 16.6113 12.4297C16.7242 12.2575 16.8374 12.0856 16.9506 11.9137C17.0952 11.6941 17.2391 11.4742 17.3826 11.254C17.5029 11.0698 17.6252 10.8875 17.7509 10.707C17.7763 10.6699 17.8016 10.6328 17.8277 10.5946C17.893 10.4992 17.9594 10.4046 18.0258 10.3101C18.1279 10.0873 18.1071 9.96072 18.0469 9.72611C17.9346 9.54545 17.9346 9.54545 17.7539 9.43314C17.1096 9.33088 16.8527 9.81421 16.5378 10.3043Z" fill="#EB3135"/>
<path d="M23.6133 20.7422C23.7884 20.9049 23.9069 21.0609 24.0211 21.2704C24.0532 21.3285 24.0852 21.3867 24.1182 21.4465C24.1522 21.509 24.1862 21.5714 24.2212 21.6357C24.2946 21.7689 24.3682 21.9019 24.4418 22.0349C24.4606 22.0688 24.4793 22.1027 24.4986 22.1376C24.689 22.4812 24.8866 22.8204 25.0854 23.1592C25.3545 23.6184 25.6225 24.0782 25.8875 24.5398C25.9173 24.5916 25.9472 24.6434 25.978 24.6968C26.0053 24.7444 26.0326 24.7921 26.0607 24.8412C26.0846 24.8829 26.1086 24.9246 26.1332 24.9675C26.3056 25.2953 26.2744 25.6552 26.25 26.0156C26.1297 26.3702 25.892 26.6068 25.5725 26.7957C24.9772 27.0611 24.2188 26.8485 23.5986 26.748C23.5087 26.7339 23.4187 26.7198 23.3288 26.7057C23.111 26.6716 22.8934 26.6367 22.6758 26.6016C22.6542 26.6577 22.6327 26.7138 22.6105 26.7716C22.5296 26.9819 22.4481 27.192 22.3664 27.4019C22.3313 27.4924 22.2964 27.583 22.2616 27.6737C21.769 28.9573 21.769 28.9573 21.2695 29.2969C20.8112 29.4719 20.4609 29.4349 20.0114 29.271C19.6468 29.0462 19.4429 28.6743 19.248 28.3044C19.1971 28.2104 19.1461 28.1165 19.0949 28.0227C19.0678 27.9728 19.0406 27.923 19.0126 27.8717C18.8578 27.592 18.6957 27.3167 18.5339 27.041C18.1911 26.4558 17.8511 25.869 17.5129 25.2811C17.478 25.2206 17.4431 25.16 17.4072 25.0976C17.3765 25.0442 17.3458 24.9909 17.3142 24.9359C17.2538 24.8321 17.1901 24.7302 17.1237 24.6301C17.0997 24.5846 17.0756 24.5391 17.0508 24.4922C17.0701 24.4342 17.0895 24.3762 17.1094 24.3164C17.1562 24.3113 17.203 24.3063 17.2513 24.3011C18.0517 24.1987 18.8701 23.9062 19.4112 23.2805C19.9651 22.6461 20.3562 22.5161 21.1852 22.4568C21.8898 22.3808 22.7083 21.9585 23.1544 21.4048C23.2129 21.3215 23.2129 21.3215 23.2727 21.2366C23.332 21.1531 23.332 21.1531 23.3924 21.0679C23.467 20.96 23.5405 20.8513 23.6133 20.7422Z" fill="#EB3135"/>
<path d="M6.32811 20.7422C6.45944 20.8673 6.56646 20.9979 6.67234 21.145C7.20503 21.8605 7.9426 22.2989 8.81742 22.4819C8.97476 22.5041 8.97476 22.5041 9.17448 22.5016C9.63672 22.5138 9.91451 22.585 10.2488 22.9188C10.3949 23.0757 10.5388 23.2346 10.6826 23.3936C11.1582 23.8881 11.9599 24.2349 12.6379 24.2908C12.6962 24.2957 12.7544 24.3006 12.8144 24.3056C12.8811 24.311 12.8811 24.311 12.9492 24.3164C12.9152 24.5394 12.8517 24.6988 12.7363 24.892C12.7041 24.9467 12.6718 25.0013 12.6385 25.0576C12.6033 25.1164 12.568 25.1751 12.5317 25.2356C12.4565 25.3628 12.3812 25.4899 12.306 25.6171C12.267 25.6829 12.2281 25.7486 12.1879 25.8164C11.9997 26.1352 11.8154 26.4563 11.6308 26.7773C11.5577 26.9039 11.4845 27.0305 11.4113 27.1571C11.2616 27.4165 11.1133 27.6767 10.9659 27.9375C10.8934 28.0647 10.8208 28.1919 10.7483 28.3191C10.7155 28.3778 10.6827 28.4365 10.6489 28.497C10.3983 28.934 10.1579 29.2222 9.66795 29.3845C9.30056 29.4771 8.94509 29.411 8.61326 29.2383C8.19697 28.9152 8.03537 28.4248 7.85154 27.9492C7.80521 27.8316 7.75882 27.7141 7.71238 27.5965C7.58187 27.2653 7.45266 26.9336 7.3242 26.6016C7.26931 26.6104 7.21442 26.6193 7.15786 26.6285C6.95089 26.6618 6.74382 26.6944 6.5367 26.7267C6.44769 26.7407 6.35872 26.755 6.26977 26.7694C4.72222 27.0196 4.72222 27.0196 4.21873 26.6602C3.94384 26.428 3.78026 26.2134 3.72503 25.8527C3.69025 25.2907 3.88472 24.9026 4.16014 24.4336C4.21983 24.3299 4.27949 24.2262 4.33912 24.1225C4.47687 23.8843 4.61589 23.6469 4.75569 23.4098C4.98737 23.0167 5.21467 22.6211 5.44188 22.2253C5.72921 21.7257 6.01961 21.2291 6.32811 20.7422Z" fill="#EB3135"/>
</svg>
