<svg width="116" height="116" viewBox="0 0 116 116" fill="none" xmlns="http://www.w3.org/2000/svg">
<circle cx="58" cy="58" r="58" fill="#EB3135"/>
<g clip-path="url(#clip0_98_2465)">
<path d="M59.608 41.5907C59.6729 41.631 59.7378 41.6714 59.8047 41.7129C59.8742 41.7543 59.8742 41.7543 59.9451 41.7966C60.1177 41.9007 60.2873 42.0087 60.4569 42.1176C60.5206 42.1582 60.5843 42.1988 60.65 42.2406C61.1599 42.566 61.6671 42.8956 62.1737 43.2261C62.685 43.5594 63.1988 43.8887 63.7133 44.2171C64.4019 44.6568 65.0874 45.1009 65.7711 45.5482C66.3913 45.9535 67.0151 46.3529 67.6395 46.7516C68.3246 47.1894 69.0065 47.6319 69.6876 48.0757C70.4867 48.5961 71.2887 49.1117 72.0922 49.6253C72.6929 50.0095 73.2933 50.3943 73.8917 50.7822C73.9506 50.8202 74.0095 50.8582 74.0702 50.8974C74.18 50.9687 74.2892 51.041 74.3975 51.1146C74.581 51.2374 74.581 51.2374 74.7793 51.3402C75.3036 51.6452 75.3036 51.6452 75.4105 51.9711C75.4319 52.2184 75.4295 52.4549 75.4181 52.7028C75.4165 52.8361 75.4165 52.8361 75.4149 52.9721C75.4106 53.2548 75.4011 53.537 75.3914 53.8195C75.3875 54.0116 75.3841 54.2036 75.381 54.3957C75.3726 54.8655 75.3598 55.3351 75.3438 55.8047C75.2577 55.7889 75.2577 55.7889 75.1699 55.7727C75.0946 55.7589 75.0193 55.7451 74.9417 55.7309C74.867 55.7172 74.7924 55.7034 74.7155 55.6893C72.9852 55.3845 71.2558 55.7763 69.7832 56.7188C68.3614 57.7173 67.361 59.2102 67.0035 60.9175C66.6671 63.4876 67.8947 65.5597 69.4024 67.5352C70.2027 68.5607 71.0488 69.5518 71.9339 70.505C72.0684 70.6583 72.0684 70.6583 72.0684 70.7344C67.1164 70.7344 62.1645 70.7344 57.0625 70.7344C57.0588 69.5071 57.055 68.2799 57.0512 67.0154C57.0485 66.2395 57.0458 65.4637 57.0429 64.6878C57.0413 64.2804 57.0398 63.8729 57.0383 63.4655C57.0381 63.4144 57.038 63.3633 57.0378 63.3107C57.0347 62.4861 57.0322 61.6614 57.0299 60.8368C57.0276 59.9905 57.0246 59.1443 57.0212 58.2981C57.0192 57.8228 57.0176 57.3474 57.0165 56.8721C57.0156 56.4249 57.0139 55.9777 57.0117 55.5305C57.011 55.3662 57.0105 55.2019 57.0104 55.0375C57.0101 54.8135 57.009 54.5895 57.0075 54.3655C57.0078 54.2676 57.0078 54.2676 57.008 54.1677C57.0066 53.7088 57.0066 53.7088 56.834 53.2911C56.5769 53.1465 56.3544 53.1196 56.0629 53.1194C55.986 53.1189 55.9091 53.1185 55.8299 53.1181C55.7046 53.1185 55.7046 53.1185 55.5769 53.119C55.4883 53.1187 55.3997 53.1185 55.3084 53.1182C55.0155 53.1175 54.7227 53.118 54.4298 53.1185C54.2263 53.1184 54.0229 53.1182 53.8194 53.118C53.3929 53.1178 52.9665 53.1181 52.54 53.1189C52.0474 53.1197 51.5548 53.1194 51.0622 53.1186C50.6388 53.1179 50.2154 53.1178 49.792 53.1182C49.5393 53.1184 49.2866 53.1184 49.0339 53.118C48.7522 53.1176 48.4705 53.1182 48.1888 53.119C48.1053 53.1187 48.0218 53.1184 47.9357 53.1181C47.8204 53.1187 47.8204 53.1187 47.7028 53.1194C47.6362 53.1194 47.5696 53.1195 47.5011 53.1196C47.2795 53.1421 47.1264 53.1815 46.9316 53.2911C46.7254 53.6184 46.7572 53.9911 46.7581 54.3655C46.7576 54.4355 46.7572 54.5055 46.7568 54.5776C46.7555 54.8122 46.7552 55.0468 46.755 55.2814C46.7543 55.4496 46.7535 55.6178 46.7527 55.7859C46.7506 56.2426 46.7495 56.6993 46.7485 57.156C46.7473 57.6332 46.7452 58.1103 46.7433 58.5875C46.7401 59.3885 46.7375 60.1895 46.7353 60.9905C46.733 61.8155 46.7303 62.6405 46.7273 63.4655C46.7271 63.5163 46.7269 63.5672 46.7267 63.6196C46.7258 63.8748 46.7248 64.13 46.7239 64.3851C46.716 66.5016 46.7093 68.618 46.7031 70.7344C45.6977 70.7344 44.6922 70.7344 43.6563 70.7344C43.639 68.3272 43.6254 65.9201 43.6174 63.5129C43.6164 63.2287 43.6154 62.9444 43.6144 62.6602C43.6141 62.5754 43.6141 62.5754 43.6138 62.4888C43.6105 61.5727 43.6045 60.6566 43.5975 59.7406C43.5904 58.8006 43.5861 57.8605 43.5846 56.9205C43.5835 56.3404 43.5802 55.7605 43.5741 55.1805C43.5695 54.7357 43.5691 54.2909 43.5701 53.846C43.5699 53.6636 43.5684 53.4812 43.5655 53.2988C43.5444 51.9172 43.5444 51.9172 43.8233 51.5442C44.0192 51.4043 44.1931 51.317 44.418 51.2344C44.4962 51.1827 44.5745 51.131 44.6551 51.0777C44.7212 51.0358 44.7873 50.9938 44.8554 50.9506C44.931 50.9024 45.0066 50.8542 45.0845 50.8046C45.163 50.7548 45.2416 50.705 45.3225 50.6536C45.4921 50.5456 45.6617 50.4374 45.8313 50.3293C45.9563 50.2496 45.9563 50.2496 46.0839 50.1682C46.4184 49.9541 46.7513 49.7376 47.084 49.5206C47.6485 49.1524 48.2155 48.7883 48.7836 48.4256C49.3998 48.0321 50.0141 47.6357 50.626 47.2354C51.3178 46.7828 52.0131 46.336 52.7098 45.891C53.3949 45.4533 54.0768 45.0108 54.7579 44.567C55.3981 44.1501 56.0397 43.7354 56.6831 43.3236C56.8044 43.246 56.8044 43.246 56.928 43.1668C57.093 43.0614 57.2581 42.9562 57.4233 42.8511C57.794 42.6151 58.1627 42.3774 58.5252 42.1289C58.5844 42.0889 58.6436 42.0488 58.7045 42.0075C58.8127 41.9339 58.9202 41.8592 59.0268 41.7832C59.3693 41.5517 59.3693 41.5517 59.608 41.5907ZM59.043 53.2911C58.8858 53.5605 58.8714 53.7999 58.8708 54.1079C58.8702 54.195 58.8697 54.282 58.8691 54.3717C58.8693 54.4664 58.8695 54.5612 58.8697 54.6589C58.8693 54.7592 58.8689 54.8596 58.8685 54.963C58.8675 55.2378 58.8675 55.5126 58.8677 55.7874C58.8677 56.017 58.8674 56.2466 58.867 56.4762C58.8662 57.018 58.8661 57.5598 58.8666 58.1016C58.867 58.66 58.8661 59.2185 58.8645 59.7769C58.8631 60.2569 58.8627 60.7368 58.8629 61.2168C58.8631 61.5032 58.8629 61.7897 58.8618 62.0761C58.8607 62.3956 58.8614 62.715 58.8623 63.0345C58.8617 63.1291 58.8611 63.2238 58.8605 63.3212C58.853 63.9427 58.853 63.9427 59.1191 64.4883C59.4178 64.6699 59.71 64.6604 60.0534 64.6616C60.1077 64.662 60.162 64.6624 60.218 64.6628C60.3967 64.6638 60.5754 64.6638 60.7542 64.6636C60.8789 64.6639 61.0036 64.6642 61.1284 64.6646C61.3896 64.6651 61.6507 64.6651 61.9119 64.6647C62.246 64.6643 62.58 64.6656 62.9141 64.6673C63.1716 64.6685 63.4292 64.6685 63.6867 64.6683C63.8099 64.6683 63.933 64.6687 64.0561 64.6695C64.2286 64.6704 64.401 64.6699 64.5735 64.669C64.7204 64.6691 64.7204 64.6691 64.8703 64.6692C65.1609 64.6381 65.346 64.5648 65.5938 64.4122C65.702 64.1958 65.6939 64.0424 65.6699 63.8028C65.4999 63.5859 65.3995 63.5095 65.1367 63.4219C64.9744 63.4151 64.8118 63.413 64.6493 63.4133C64.5994 63.4133 64.5496 63.4133 64.4982 63.4132C64.337 63.4133 64.1759 63.4139 64.0147 63.4145C63.8668 63.4146 63.8668 63.4146 63.7159 63.4147C63.3469 63.4151 62.9778 63.4162 62.6088 63.4172C61.784 63.4187 60.9592 63.4203 60.1094 63.4219C60.1094 60.4055 60.1094 57.3891 60.1094 54.2813C60.9399 54.284 61.7704 54.2866 62.626 54.2893C63.1516 54.2905 63.6772 54.2916 64.2027 54.2925C65.0373 54.2938 65.8718 54.2954 66.7063 54.2985C67.3141 54.3008 67.9218 54.3023 68.5296 54.3028C68.8514 54.3031 69.1732 54.3038 69.495 54.3055C69.7979 54.307 70.1009 54.3075 70.4039 54.3071C70.515 54.3072 70.6261 54.3077 70.7372 54.3085C70.8891 54.3097 71.0411 54.3093 71.193 54.3088C71.278 54.309 71.3629 54.3092 71.4505 54.3094C71.7249 54.2769 71.9088 54.195 72.1445 54.0528C72.2527 53.8364 72.2447 53.683 72.2207 53.4434C72.0507 53.2265 71.9503 53.1501 71.6875 53.0626C71.5253 53.0551 71.3628 53.0523 71.2004 53.0519C71.1508 53.0516 71.1011 53.0514 71.05 53.0512C70.8833 53.0505 70.7167 53.0504 70.55 53.0503C70.4307 53.0499 70.3113 53.0495 70.1919 53.0491C69.8674 53.0481 69.5429 53.0476 69.2184 53.0473C69.0156 53.0471 68.8129 53.0468 68.6102 53.0464C67.9758 53.0454 67.3415 53.0446 66.7072 53.0444C65.975 53.044 65.2427 53.0427 64.5105 53.0405C63.9445 53.0388 63.3785 53.0381 62.8126 53.038C62.4745 53.0379 62.1365 53.0374 61.7984 53.0361C61.4804 53.0348 61.1623 53.0346 60.8443 53.0353C60.7277 53.0354 60.611 53.035 60.4944 53.0343C60.335 53.0333 60.1756 53.0338 60.0161 53.0346C59.8824 53.0344 59.8824 53.0344 59.7459 53.0342C59.4606 53.0671 59.2824 53.1325 59.043 53.2911Z" fill="#F6FAFD"/>
<path d="M59.8046 36C60.0085 36.0986 60.1731 36.1922 60.3569 36.3189C60.4341 36.3697 60.4341 36.3697 60.513 36.4215C60.6247 36.495 60.7361 36.5691 60.8471 36.6437C61.0919 36.8075 61.3394 36.967 61.5868 37.1268C61.7821 37.2532 61.9771 37.3802 62.1719 37.5073C63.0382 38.0727 63.908 38.6326 64.7796 39.1897C65.5547 39.6851 66.3269 40.1847 67.0977 40.6869C67.8968 41.2073 68.6988 41.723 69.5023 42.2365C70.2774 42.732 71.0496 43.2316 71.8203 43.7338C72.6194 44.2542 73.4214 44.7699 74.2249 45.2834C74.9387 45.7397 75.6504 46.1991 76.3601 46.6617C76.6512 46.8513 76.9428 47.0401 77.2347 47.2284C77.4933 47.3953 77.7516 47.5628 78.0097 47.7304C78.0569 47.761 78.1042 47.7916 78.1528 47.8231C78.2831 47.9077 78.413 47.9928 78.5429 48.078C78.6513 48.1488 78.6513 48.1488 78.7619 48.2211C78.9238 48.3398 78.9238 48.3398 78.9999 48.4922C79.0643 49.1018 78.879 49.5964 78.6587 50.1565C78.5998 50.3065 78.5432 50.4572 78.4867 50.6082C78.1655 51.4452 78.1655 51.4452 77.8574 51.6914C77.276 51.7939 76.9365 51.5402 76.4672 51.2201C76.3938 51.1716 76.3204 51.1232 76.2448 51.0733C76.093 50.9732 75.9416 50.8725 75.7906 50.7712C75.5312 50.5975 75.2696 50.4274 75.0076 50.2577C74.821 50.137 74.6348 50.0156 74.4487 49.8942C74.0044 49.6052 73.5576 49.3201 73.1109 49.0349C72.4223 48.5952 71.7367 48.151 71.053 47.7037C70.4328 47.2985 69.809 46.899 69.1846 46.5003C68.4996 46.0626 67.8177 45.6201 67.1366 45.1763C66.3375 44.6559 65.5355 44.1402 64.732 43.6267C63.9579 43.1319 63.1867 42.6329 62.4169 42.1314C61.9805 41.8471 61.5437 41.5635 61.1055 41.282C60.9402 41.1751 60.7761 41.0668 60.6119 40.9583C60.5031 40.8876 60.3943 40.817 60.2855 40.7464C60.2361 40.7133 60.1868 40.6802 60.136 40.6461C59.8343 40.4526 59.6285 40.3538 59.2714 40.4179C59.0731 40.5203 58.8984 40.6229 58.7144 40.7464C58.6616 40.7807 58.6089 40.8149 58.5545 40.8501C58.4429 40.9226 58.3316 40.9956 58.2206 41.0689C58.058 41.1762 57.8946 41.282 57.7307 41.3873C57.4594 41.5619 57.1887 41.7374 56.9182 41.9133C56.6617 42.08 56.4051 42.2464 56.1484 42.4127C56.0964 42.4464 56.0444 42.4801 55.9908 42.5148C55.5033 42.8301 55.0141 43.1427 54.525 43.4553C53.7499 43.9507 52.9776 44.4504 52.2069 44.9525C51.4078 45.4729 50.6058 45.9886 49.8023 46.5022C49.0272 46.9976 48.255 47.4972 47.4842 47.9994C46.6037 48.5729 45.7194 49.1402 44.8339 49.7061C44.3814 49.9955 43.9298 50.2861 43.4796 50.5791C43.3517 50.6624 43.2237 50.7455 43.0956 50.8284C42.8383 50.995 42.5821 51.1621 42.3309 51.3379C41.7706 51.7217 41.7706 51.7217 41.4139 51.7437C41.1003 51.6832 41.0373 51.6277 40.8378 51.3867C40.6896 51.0855 40.5744 50.7718 40.4569 50.4576C40.4003 50.3072 40.3417 50.1578 40.2829 50.0083C39.9098 49.0391 39.9098 49.0391 39.9999 48.4922C40.2605 48.1316 40.6577 47.9214 41.033 47.6924C41.1639 47.6111 41.2947 47.5298 41.4255 47.4484C41.4924 47.4068 41.5594 47.3652 41.6284 47.3224C41.9419 47.1259 42.2516 46.9237 42.5612 46.7212C43.14 46.3434 43.7212 45.9696 44.3037 45.5976C45.0741 45.1055 45.8415 44.609 46.6074 44.1099C47.4065 43.5895 48.2085 43.0738 49.012 42.5603C49.7871 42.0648 50.5594 41.5652 51.3301 41.063C52.1292 40.5426 52.9312 40.0269 53.7347 39.5134C54.5094 39.0182 55.2814 38.5188 56.0518 38.0168C56.4258 37.7732 56.8002 37.5301 57.1758 37.2889C57.4363 37.1213 57.6939 36.9497 57.9512 36.7772C58.1009 36.6784 58.2505 36.5796 58.4002 36.4808C58.47 36.4332 58.5398 36.3856 58.6117 36.3365C59.0324 36.0614 59.3002 35.9129 59.8046 36Z" fill="#F6FAFD"/>
<path d="M47.9219 54.2812C50.5361 54.2812 53.1503 54.2812 55.8438 54.2812C55.8438 59.7108 55.8438 65.1403 55.8438 70.7344C53.2295 70.7344 50.6153 70.7344 47.9219 70.7344C47.9219 65.3048 47.9219 59.8753 47.9219 54.2812ZM54.2203 61.1986C53.9843 61.5046 53.9748 61.8298 54.0156 62.2031C54.135 62.5324 54.135 62.5324 54.3965 62.7363C54.6768 62.7668 54.8039 62.7752 55.0297 62.5983C55.2657 62.2922 55.2752 61.9671 55.2344 61.5938C55.115 61.2645 55.115 61.2645 54.8535 61.0605C54.5732 61.0301 54.4461 61.0217 54.2203 61.1986Z" fill="#F6FAFD"/>
<path d="M40.9409 71.9148C41.006 71.9144 41.0711 71.9139 41.1381 71.9135C41.3577 71.9124 41.5772 71.9134 41.7968 71.9145C41.9552 71.9141 42.1136 71.9136 42.272 71.913C42.7084 71.9117 43.1448 71.9124 43.5813 71.9133C44.0515 71.914 44.5217 71.913 44.9919 71.9121C45.8603 71.9108 46.7286 71.9109 47.5969 71.9118C48.399 71.9125 49.2011 71.9127 50.0032 71.9124C50.0563 71.9124 50.1095 71.9123 50.1643 71.9123C50.38 71.9122 50.5958 71.9121 50.8116 71.912C52.8366 71.9111 54.8617 71.9119 56.8867 71.9136C58.6868 71.915 60.4868 71.9149 62.2868 71.9134C64.3081 71.9118 66.3294 71.9112 68.3507 71.9121C68.5661 71.9122 68.7815 71.9123 68.9969 71.9124C69.0499 71.9124 69.1029 71.9124 69.1576 71.9125C69.9593 71.9128 70.761 71.9124 71.5627 71.9116C72.474 71.9108 73.3853 71.911 74.2967 71.9126C74.762 71.9134 75.2273 71.9137 75.6926 71.9127C76.1181 71.9118 76.5436 71.9123 76.9691 71.9139C77.1235 71.9143 77.2779 71.9141 77.4323 71.9134C77.6412 71.9125 77.8502 71.9134 78.0591 71.9148C78.1502 71.9137 78.1502 71.9137 78.2431 71.9127C78.5109 71.9163 78.6661 71.9317 78.885 72.0921C79.0519 72.3325 79.0395 72.5196 79.0405 72.8101C79.0408 72.863 79.0411 72.916 79.0414 72.9705C79.0416 73.0822 79.041 73.1939 79.0398 73.3055C79.0381 73.4761 79.0397 73.6464 79.0417 73.817C79.0415 73.9257 79.0411 74.0344 79.0405 74.1431C79.0402 74.2417 79.0398 74.3403 79.0395 74.4418C78.9918 74.7485 78.9436 74.8182 78.6953 75C78.4736 75.0299 78.2808 75.041 78.0591 75.0384C77.9941 75.0388 77.929 75.0393 77.8619 75.0397C77.6424 75.0408 77.4229 75.0398 77.2033 75.0387C77.0449 75.0391 76.8865 75.0396 76.7281 75.0402C76.2917 75.0414 75.8552 75.0408 75.4188 75.0399C74.9486 75.0392 74.4783 75.0402 74.0081 75.0411C73.1398 75.0424 72.2715 75.0422 71.4032 75.0414C70.6011 75.0406 69.799 75.0404 68.9969 75.0408C68.9437 75.0408 68.8906 75.0408 68.8358 75.0409C68.62 75.041 68.4042 75.0411 68.1885 75.0412C66.1634 75.0421 64.1384 75.0413 62.1133 75.0396C60.3133 75.0382 58.5133 75.0383 56.7132 75.0398C54.6919 75.0414 52.6706 75.042 50.6493 75.0411C50.434 75.041 50.2186 75.0409 50.0032 75.0408C49.9502 75.0408 49.8971 75.0408 49.8425 75.0407C49.0408 75.0404 48.2391 75.0408 47.4374 75.0416C46.5261 75.0424 45.6147 75.0422 44.7034 75.0406C44.2381 75.0398 43.7727 75.0394 43.3074 75.0405C42.8819 75.0414 42.4565 75.0409 42.031 75.0392C41.8766 75.0389 41.7222 75.0391 41.5678 75.0398C41.3588 75.0407 41.1499 75.0398 40.9409 75.0384C40.8499 75.0394 40.8499 75.0394 40.757 75.0405C40.4892 75.0369 40.334 75.0214 40.1151 74.8611C39.9482 74.6206 39.9606 74.4336 39.9596 74.1431C39.9593 74.0901 39.959 74.0372 39.9587 73.9826C39.9585 73.871 39.959 73.7593 39.9603 73.6477C39.9619 73.4771 39.9603 73.3068 39.9584 73.1362C39.9586 73.0275 39.959 72.9188 39.9596 72.8101C39.9599 72.7115 39.9603 72.6129 39.9606 72.5114C40.0502 71.9352 40.4301 71.9088 40.9409 71.9148Z" fill="#F6FAFD"/>
<path d="M76.9434 57.8231C77.0465 57.9101 77.1481 57.999 77.2481 58.0897C77.3001 58.1356 77.3521 58.1816 77.4058 58.2289C78.4097 59.168 78.9837 60.507 79.0347 61.8694C79.0469 62.6344 78.9566 63.2579 78.6191 63.9549C78.5954 64.0047 78.5717 64.0545 78.5473 64.1058C77.9606 65.3236 77.172 66.4037 76.334 67.4588C76.2768 67.5308 76.2197 67.6028 76.1608 67.6769C75.81 68.112 75.4432 68.5289 75.0647 68.94C74.9132 69.1056 74.766 69.2735 74.6201 69.444C74.2969 69.8169 73.9437 70.1602 73.5918 70.5057C73.2618 70.3788 73.0483 70.1344 72.8063 69.8868C72.7619 69.8418 72.7174 69.7967 72.6717 69.7503C72.356 69.4284 72.0545 69.0983 71.7637 68.7537C71.6943 68.6739 71.6249 68.5942 71.5554 68.5145C69.7712 66.4635 67.8475 64.1371 68.0313 61.2889C68.2078 59.8353 69.0719 58.6917 70.145 57.7612C72.1343 56.2455 74.9727 56.3391 76.9434 57.8231ZM71.3257 60.0797C70.6736 60.7704 70.5071 61.5879 70.5238 62.4984C70.5625 63.338 70.9945 63.9729 71.5828 64.5405C72.3025 65.1315 73.0723 65.267 73.976 65.1919C74.7927 65.092 75.42 64.6278 75.9388 64.012C76.4864 63.2532 76.605 62.431 76.4863 61.5174C76.2858 60.6768 75.7516 60.0282 75.0248 59.575C73.7622 58.8865 72.389 59.1299 71.3257 60.0797Z" fill="#F6FAFD"/>
<path d="M74.3868 60.4894C74.8305 60.7575 75.19 61.1742 75.3437 61.6701C75.405 62.267 75.4294 62.8598 75.039 63.3459C74.673 63.7302 74.3411 64.0014 73.7997 64.057C73.151 64.0641 72.7024 64.0404 72.2233 63.5842C71.7372 63.0583 71.6508 62.645 71.6642 61.9325C71.7172 61.3336 71.9957 61.0188 72.4417 60.6376C72.9798 60.2668 73.7893 60.2246 74.3868 60.4894Z" fill="#F6FAFD"/>
</g>
<defs>
<clipPath id="clip0_98_2465">
<rect width="39" height="39" fill="white" transform="translate(40 36)"/>
</clipPath>
</defs>
</svg>
