<svg width="55" height="55" viewBox="0 0 55 55" fill="none" xmlns="http://www.w3.org/2000/svg">
<path d="M27.5 55C42.6878 55 55 42.6878 55 27.5C55 12.3122 42.6878 0 27.5 0C12.3122 0 0 12.3122 0 27.5C0 42.6878 12.3122 55 27.5 55Z" fill="url(#paint0_linear_41_1282)"/>
<path d="M44.3576 22.0228C44.168 21.4395 43.6638 21.0143 43.0569 20.9261L33.3061 19.5092L28.9454 10.6735C28.674 10.1235 28.1138 9.77539 27.5005 9.77539C26.8872 9.77539 26.327 10.1235 26.0556 10.6737L21.6949 19.5093L11.9441 20.9262C11.3372 21.0144 10.8328 21.4396 10.6433 22.0229C10.4538 22.6062 10.612 23.2465 11.0511 23.6746L18.1069 30.5522L16.4412 40.2635C16.3375 40.868 16.586 41.479 17.0822 41.8395C17.5785 42.2 18.2362 42.2476 18.7791 41.9622L27.5005 37.3771L36.2219 41.9622C36.7689 42.2497 37.4263 42.1974 37.9188 41.8395C38.415 41.479 38.6636 40.8681 38.5599 40.2635L36.8942 30.5522L43.9499 23.6746C44.3891 23.2464 44.5471 22.6061 44.3576 22.0228Z" fill="url(#paint1_linear_41_1282)"/>
<defs>
<linearGradient id="paint0_linear_41_1282" x1="27.5" y1="55" x2="27.5" y2="0" gradientUnits="userSpaceOnUse">
<stop stop-color="#FD5900"/>
<stop offset="1" stop-color="#FFDE00"/>
</linearGradient>
<linearGradient id="paint1_linear_41_1282" x1="27.5005" y1="42.1473" x2="27.5005" y2="9.77539" gradientUnits="userSpaceOnUse">
<stop stop-color="#FFE59A"/>
<stop offset="1" stop-color="#FFFFD5"/>
</linearGradient>
</defs>
</svg>
