<svg width="116" height="116" viewBox="0 0 116 116" fill="none" xmlns="http://www.w3.org/2000/svg">
<circle cx="58" cy="58" r="58" fill="#EB3135"/>
<path d="M58.2617 39.3712C58.3695 39.3951 58.4774 39.4185 58.5854 39.4416C58.9727 39.5246 59.359 39.6122 59.7453 39.7C59.887 39.7321 60.0288 39.7641 60.1706 39.7962C60.4658 39.8629 60.7609 39.9298 61.056 39.9969C61.4347 40.0829 61.8134 40.1685 62.1922 40.254C62.4841 40.32 62.7759 40.3861 63.0677 40.4522C63.2074 40.4839 63.3472 40.5155 63.487 40.5471C63.6814 40.591 63.8757 40.6352 64.07 40.6794C64.1278 40.6924 64.1857 40.7055 64.2453 40.7189C64.6427 40.8098 64.6427 40.8098 64.8125 40.8947C64.7149 42.0105 64.5884 43.1206 64.4417 44.231C64.408 44.4874 64.3752 44.7439 64.3425 45.0004C64.2295 45.8697 64.0986 46.7334 63.9353 47.5948C63.913 47.7137 63.913 47.7137 63.8902 47.835C63.6145 49.2415 63.1535 50.5297 62.2226 51.6349C62.1765 51.6913 62.1303 51.7476 62.0828 51.8057C60.8698 53.2365 59.0773 54.2381 57.5 55.215C56.8101 54.8321 56.1627 54.4031 55.5179 53.9496C55.3757 53.8499 55.2329 53.7513 55.0898 53.6529C52.69 51.9887 51.4879 50.0731 50.9664 47.2016C50.7474 45.9303 50.591 44.6499 50.4303 43.3703C50.4182 43.2741 50.406 43.1779 50.3936 43.0789C50.3589 42.8023 50.3247 42.5257 50.2907 42.2491C50.275 42.1236 50.275 42.1236 50.259 41.9955C50.2496 41.9174 50.2401 41.8393 50.2304 41.7589C50.2179 41.6571 50.2179 41.6571 50.2051 41.5532C50.1858 41.3328 50.1845 41.1158 50.1875 40.8947C51.3616 40.5739 52.5448 40.2956 53.7303 40.0208C54.0773 39.9403 54.424 39.8592 54.7704 39.7765C55.1092 39.6955 55.4484 39.6164 55.7879 39.5383C55.9159 39.5086 56.0438 39.4783 56.1715 39.4474C56.9098 39.2691 57.5135 39.178 58.2617 39.3712ZM59.088 45.4599C58.8782 45.6946 58.6526 45.9126 58.4286 46.1336C58.2302 46.3348 58.0469 46.546 57.8636 46.7608C57.6648 46.9837 57.4498 47.189 57.2337 47.3949C57.1021 47.512 57.1021 47.512 57.1191 47.674C56.6549 47.5487 56.3895 47.1776 56.0792 46.8335C55.8464 46.5877 55.716 46.4679 55.3829 46.3725C55.1237 46.3514 55.1237 46.3514 54.953 46.5647C54.9137 46.6291 54.8744 46.6935 54.834 46.7599C54.9902 47.2502 55.3666 47.5636 55.7212 47.918C55.843 48.0403 55.9629 48.1643 56.0828 48.2886C56.1603 48.3668 56.238 48.4449 56.3157 48.5229C56.3858 48.5938 56.4558 48.6648 56.528 48.7379C56.7277 48.9103 56.7277 48.9103 56.978 48.928C57.2068 48.8909 57.2815 48.8621 57.4378 48.6975C57.4783 48.656 57.5188 48.6144 57.5605 48.5716C57.6018 48.5267 57.6431 48.4819 57.6856 48.4357C57.7292 48.3903 57.7727 48.3449 57.8175 48.2982C58.0855 48.0168 58.3449 47.7283 58.5964 47.4321C58.7803 47.2232 58.9799 47.0312 59.1781 46.8361C59.37 46.6411 59.5466 46.4351 59.7247 46.2276C59.8708 46.0637 60.0238 45.9095 60.1803 45.7554C60.6422 45.3377 60.6422 45.3377 60.8515 44.7794C60.7761 44.5764 60.7428 44.4965 60.5468 44.3986C59.8881 44.2574 59.4693 45.016 59.088 45.4599Z" fill="#F6FAFD"/>
<path d="M50.1114 57.2715C50.3593 57.3293 50.5637 57.4152 50.7922 57.5286C51.7845 57.9788 52.7231 57.9868 53.7914 57.9713C53.93 57.9702 54.0686 57.9691 54.2072 57.9682C54.5431 57.9657 54.879 57.9618 55.2149 57.957C55.2149 58.2617 55.2149 58.2617 55.1199 58.3739C55.0757 58.4085 55.0314 58.443 54.9858 58.4786C54.9115 58.5377 54.9115 58.5377 54.8357 58.598C54.7817 58.6394 54.7278 58.6808 54.6722 58.7235C54.6171 58.767 54.5619 58.8105 54.5052 58.8552C54.3361 58.9883 54.1662 59.1202 53.9961 59.252C53.8997 59.3275 53.8034 59.4032 53.7072 59.479C53.5312 59.6176 53.3549 59.7559 53.1785 59.8941C52.0501 60.66 52.0501 60.66 51.4063 61.7656C51.3642 62.3134 51.4984 62.6975 51.7919 63.151C52.1466 63.5468 52.7194 63.7808 53.241 63.8404C54.6417 63.8858 55.9389 63.0788 57.043 62.2988C57.2859 62.1369 57.3626 62.1274 57.6408 62.1756C57.9145 62.2541 58.1644 62.3811 58.4186 62.508C58.9222 62.7227 59.3312 62.7626 59.8705 62.7459C60.5913 62.732 61.0954 62.782 61.6324 63.2891C61.7669 63.4224 61.8979 63.5579 62.0266 63.6968C62.1989 63.877 62.3893 64.0295 62.5845 64.1841C62.6514 64.2383 62.7182 64.2925 62.7871 64.3483C62.8522 64.401 62.9173 64.4536 62.9844 64.5078C63.1162 64.6156 63.2479 64.7236 63.3796 64.8315C63.5271 64.9522 63.6747 65.0728 63.8223 65.1934C63.868 65.2307 63.9137 65.268 63.9607 65.3065C64.7166 65.9239 65.4793 66.5313 66.2487 67.1317C67.73 68.2882 67.73 68.2882 67.8594 68.6211C67.9013 68.9857 67.9039 69.336 67.7785 69.6827C67.4847 69.9955 67.1899 70.1602 66.7644 70.1921C66.3288 70.168 66.0602 69.951 65.7266 69.6875C65.65 69.6283 65.5734 69.5691 65.4945 69.5081C65.3156 69.369 65.1378 69.2287 64.9604 69.0876C64.6338 68.828 64.3043 68.5722 63.9746 68.3164C63.6415 68.0579 63.3085 67.7992 62.9782 67.5371C62.93 67.499 62.8818 67.4608 62.8322 67.4215C62.7432 67.3509 62.6543 67.2801 62.5656 67.2091C62.1454 66.8434 62.1454 66.8434 61.6324 66.7311C61.4479 66.7754 61.4479 66.7754 61.3848 66.9453C61.3375 67.1623 61.3375 67.1623 61.3848 67.4023C61.5463 67.5681 61.6902 67.6918 61.8752 67.826C61.9261 67.8649 61.977 67.9037 62.0295 67.9437C62.1384 68.0265 62.2478 68.1086 62.3576 68.1902C62.5829 68.3577 62.8057 68.5285 63.0286 68.6992C63.1385 68.7834 63.2485 68.8674 63.3586 68.9512C64.9105 70.1337 64.9105 70.1337 65.0411 70.5254C65.081 70.9058 65.0829 71.2018 64.9125 71.5489C64.6604 71.8283 64.4667 71.9433 64.1032 72.0393C63.485 72.0603 63.0738 71.743 62.6274 71.3585C62.521 71.2695 62.4146 71.1807 62.3081 71.0919C62.2555 71.0478 62.203 71.0037 62.1489 70.9583C61.9205 70.769 61.6869 70.5869 61.4515 70.4064C61.3758 70.3481 61.3002 70.2899 61.2223 70.2299C60.8194 69.8915 60.8194 69.8915 60.3374 69.7684C60.141 69.8317 60.141 69.8317 60.0137 70.0684C60.0151 70.352 60.0819 70.441 60.2818 70.6456C60.3646 70.7144 60.4483 70.7822 60.5326 70.8491C60.5766 70.8853 60.6206 70.9214 60.6659 70.9587C61.0351 71.2593 61.4176 71.5406 61.8067 71.815C62.0593 72.0274 62.2006 72.2148 62.253 72.5439C62.2484 73.0396 62.1756 73.292 61.8418 73.6675C61.5898 73.888 61.3541 73.8887 61.0289 73.9019C60.5464 73.8339 60.2153 73.5866 59.8566 73.2723C59.356 72.7996 59.356 72.7996 58.7378 72.5535C58.5515 72.5675 58.5515 72.5675 58.4141 72.7344C58.3672 72.9527 58.3672 72.9527 58.4141 73.1914C58.5906 73.4009 58.5906 73.4009 58.8235 73.5818C59.3731 74.0376 59.3731 74.0376 59.4299 74.4381C59.4381 74.9612 59.3327 75.2262 58.9711 75.6146C58.6971 75.7553 58.4163 75.8032 58.1094 75.7812C57.6963 75.6376 57.3865 75.4302 57.0478 75.1576C57.0029 75.1223 56.9581 75.087 56.9119 75.0506C56.8029 74.9646 56.6944 74.8779 56.586 74.791C56.6323 74.555 56.7097 74.401 56.8478 74.2054C57.1353 73.7533 57.2373 73.338 57.1525 72.8058C57.0203 72.2609 56.7539 71.8269 56.2813 71.5156C56.2169 71.4732 56.1525 71.4308 56.0861 71.3871C55.7024 71.2406 55.3179 71.2301 54.9102 71.2109C54.8889 71.152 54.8676 71.0931 54.8456 71.0324C54.6163 70.4365 54.3894 69.8919 53.7998 69.5854C53.3615 69.4134 52.941 69.3373 52.4727 69.3066C52.4569 69.2532 52.4411 69.1998 52.4248 69.1448C52.2343 68.5581 52.0085 68.0754 51.4578 67.757C51.0191 67.5642 50.5876 67.4988 50.1114 67.4785C50.0956 67.4251 50.0797 67.3717 50.0635 67.3166C49.8529 66.6681 49.5767 66.1643 48.9545 65.8408C48.4171 65.6358 47.8365 65.6364 47.3025 65.8503C46.9839 66.0117 46.767 66.2223 46.5313 66.4883C46.0941 66.2941 45.751 65.9561 45.3887 65.6504C45.2765 65.5592 45.2765 65.5592 45.162 65.4662C45.0923 65.4076 45.0225 65.349 44.9507 65.2886C44.8547 65.209 44.8547 65.209 44.7567 65.1279C44.627 64.9648 44.627 64.9648 44.6166 64.792C44.7459 64.4813 44.946 64.2407 45.1554 63.9794C45.2468 63.8627 45.3381 63.746 45.4292 63.6292C45.4743 63.5714 45.5195 63.5137 45.566 63.4542C45.7399 63.2287 45.9056 62.9982 46.0695 62.7654C46.4987 62.1579 46.9412 61.5605 47.3833 60.9624C47.6074 60.6591 47.8311 60.3554 48.0547 60.0518C48.1428 59.9322 48.2309 59.8127 48.3189 59.6932C48.5047 59.4411 48.6903 59.189 48.876 58.9369C48.9234 58.8724 48.9708 58.808 49.0197 58.7417C49.1095 58.6196 49.1994 58.4975 49.2892 58.3754C49.5613 58.0059 49.8354 57.6381 50.1114 57.2715Z" fill="#F6FAFD"/>
<path d="M65.4971 56.0184C65.704 56.1674 65.7919 56.3302 65.9179 56.5519C65.9426 56.5948 65.9674 56.6378 65.9929 56.6821C66.0465 56.7753 66.0997 56.8686 66.1526 56.9622C66.2957 57.2151 66.4415 57.4665 66.5867 57.7182C66.6166 57.7701 66.6464 57.8219 66.6771 57.8753C66.9739 58.3901 67.2824 58.8974 67.5928 59.4041C68.096 60.2276 68.5884 61.0568 69.0731 61.8913C69.3184 62.3131 69.5661 62.7327 69.8249 63.1464C69.8688 63.2169 69.9126 63.2875 69.9577 63.3602C70.0386 63.4897 70.1205 63.6187 70.2035 63.747C70.2385 63.8033 70.2736 63.8596 70.3096 63.9176C70.3405 63.9658 70.3713 64.0139 70.4031 64.0636C70.4492 64.203 70.4492 64.203 70.3904 64.3651C70.2751 64.5408 70.15 64.6421 69.9826 64.7695C69.9148 64.8221 69.8469 64.8747 69.777 64.929C69.7389 64.9584 69.7008 64.9879 69.6615 65.0182C69.4149 65.211 69.1732 65.4097 68.9305 65.6074C68.8782 65.6497 68.8259 65.6919 68.7719 65.7355C68.5331 65.9288 68.2962 66.1232 68.0653 66.326C67.9926 66.3889 67.9199 66.4518 67.8451 66.5167C67.7827 66.5723 67.7204 66.6278 67.6561 66.6851C67.4785 66.7928 67.4785 66.7928 67.2913 66.7931C67.0414 66.6944 66.8804 66.5563 66.6787 66.3786C66.598 66.3088 66.5172 66.2392 66.4362 66.1697C66.3947 66.134 66.3531 66.0983 66.3104 66.0615C66.1068 65.8904 65.8956 65.7299 65.6837 65.5693C64.9977 65.0463 64.338 64.4949 63.6847 63.9321C63.3493 63.6436 63.0086 63.3623 62.6651 63.0836C62.3703 62.8417 62.08 62.5946 61.7904 62.3465C61.3997 61.9959 61.3997 61.9959 60.9063 61.9083C60.8107 61.9103 60.8107 61.9103 60.7132 61.9123C60.6458 61.9141 60.5783 61.9159 60.5088 61.9178C59.6161 61.9267 58.9373 61.8394 58.1456 61.4142C57.7753 61.2234 57.5257 61.1904 57.1191 61.2323C56.9074 61.3213 56.9074 61.3213 56.724 61.4608C56.6527 61.5094 56.5814 61.558 56.508 61.6081C56.4331 61.66 56.3583 61.7119 56.2812 61.7655C55.2876 62.4175 54.2364 63.0526 53.0058 62.908C52.7224 62.7906 52.4607 62.6556 52.3203 62.3748C52.2503 61.8588 52.2503 61.8588 52.4196 61.633C52.748 61.3205 53.0889 61.0398 53.4533 60.7705C53.9166 60.4225 54.3696 60.0652 54.8149 59.6945C55.187 59.3849 55.5614 59.0813 55.948 58.79C56.3729 58.4674 56.7743 58.1229 57.1753 57.7711C57.7944 57.2295 58.1944 56.8811 59.0383 56.8744C59.1847 56.8724 59.3311 56.8704 59.4774 56.8683C59.5926 56.8668 59.5926 56.8668 59.71 56.8653C62.4811 56.896 62.4811 56.896 65.0934 56.1002C65.3457 55.9764 65.3457 55.9764 65.4971 56.0184Z" fill="#F6FAFD"/>
<path d="M46.3789 53.082C46.645 53.1788 46.8548 53.2898 47.0793 53.4617C47.1695 53.5302 47.1695 53.5302 47.2616 53.6C47.3572 53.6735 47.3572 53.6735 47.4548 53.7485C47.5907 53.8517 47.7265 53.9549 47.8625 54.058C47.9665 54.1371 47.9665 54.1371 48.0726 54.2178C48.4072 54.4707 48.745 54.7191 49.083 54.9673C49.2012 55.0542 49.3195 55.141 49.4377 55.2279C49.487 55.2641 49.5364 55.3004 49.5872 55.3377C49.7371 55.4483 49.8862 55.5599 50.0352 55.6719C49.9886 55.9115 49.911 56.0672 49.7671 56.2634C49.7274 56.318 49.6876 56.3726 49.6467 56.4288C49.6037 56.4869 49.5606 56.5451 49.5162 56.605C49.4717 56.6659 49.4271 56.7268 49.3811 56.7896C49.0213 57.2802 48.6562 57.7669 48.29 58.2528C47.8971 58.7751 47.5112 59.3025 47.124 59.8291C46.9455 60.0718 46.7668 60.3144 46.588 60.5569C46.4993 60.6773 46.4106 60.7976 46.322 60.918C46.0991 61.2206 45.876 61.5231 45.6526 61.8254C45.2168 62.4156 44.7834 63.0073 44.3556 63.6033C43.876 64.271 43.3779 64.9239 42.875 65.5742C42.473 65.4493 42.1685 65.1959 41.8372 64.9458C41.7082 64.8496 41.5793 64.7534 41.4503 64.6572C41.3841 64.6076 41.3179 64.558 41.2497 64.5068C40.8597 64.2157 40.4667 63.9287 40.0743 63.641C39.7843 63.4276 39.4977 63.2122 39.2188 62.9844C39.2654 62.7383 39.3481 62.5836 39.4981 62.3842C39.5617 62.2989 39.5617 62.2989 39.6265 62.2119C39.6726 62.1511 39.7187 62.0902 39.7662 62.0275C39.8641 61.8965 39.962 61.7654 40.0599 61.6344C40.1101 61.5675 40.1603 61.5006 40.2121 61.4317C40.4414 61.1255 40.6679 60.8171 40.8945 60.5088C40.9834 60.3882 41.0723 60.2676 41.1611 60.147C41.2271 60.0574 41.2271 60.0574 41.2944 59.9661C42.1387 58.8203 42.9829 57.6746 43.8271 56.5288C43.8712 56.4691 43.9152 56.4093 43.9605 56.3478C44.0491 56.2276 44.1377 56.1074 44.2262 55.9873C44.4532 55.6792 44.6802 55.3711 44.9069 55.0628C45.3945 54.4002 45.8834 53.7387 46.3789 53.082Z" fill="#F6FAFD"/>
<path d="M69.5503 52.0854C69.759 52.2106 69.8358 52.3725 69.955 52.5834C69.9921 52.648 69.9921 52.648 70.03 52.714C70.0837 52.8076 70.1369 52.9014 70.1897 52.9954C70.3032 53.1974 70.4188 53.3982 70.5344 53.599C70.5944 53.7034 70.6544 53.8079 70.7142 53.9123C70.9848 54.3841 71.2658 54.849 71.5499 55.3127C72.0169 56.0748 72.4746 56.8418 72.9248 57.614C73.3575 58.3562 73.7968 59.0939 74.2435 59.8278C74.2974 59.9166 74.3514 60.0054 74.4053 60.0942C74.6531 60.5017 74.9021 60.9081 75.1543 61.3128C75.2195 61.4186 75.2195 61.4186 75.286 61.5264C75.3662 61.6564 75.4471 61.786 75.5288 61.9149C75.581 62 75.581 62 75.6342 62.0867C75.6647 62.1354 75.6951 62.1841 75.7265 62.2342C75.7812 62.3748 75.7812 62.3748 75.7788 62.5274C75.6668 62.7583 75.5008 62.8331 75.2819 62.963C75.2386 62.9891 75.1952 63.0152 75.1505 63.042C75.009 63.1268 74.8667 63.2102 74.7243 63.2936C74.627 63.3514 74.5297 63.4093 74.4324 63.4672C74.2378 63.5829 74.0428 63.698 73.8475 63.8125C73.6039 63.9555 73.3615 64.1003 73.1194 64.2457C72.9911 64.322 72.8627 64.3982 72.7343 64.4743C72.6762 64.5092 72.6181 64.5441 72.5582 64.5801C72.286 64.7389 72.1423 64.8123 71.8203 64.8123C71.7924 64.7634 71.7646 64.7146 71.7359 64.6643C71.1598 63.6553 70.5743 62.6536 69.9686 61.6619C69.5265 60.938 69.0911 60.2103 68.6591 59.4802C68.2222 58.7419 67.7825 58.0055 67.3366 57.2726C67.2558 57.1398 67.1752 57.0069 67.0947 56.874C66.8503 56.4713 66.6043 56.0698 66.3541 55.6708C66.3105 55.6005 66.2669 55.5302 66.2221 55.4578C66.1419 55.3285 66.0609 55.1998 65.9789 55.0717C65.9441 55.0153 65.9093 54.9588 65.8735 54.9007C65.8431 54.8524 65.8126 54.8042 65.7812 54.7545C65.702 54.5384 65.7155 54.4381 65.8027 54.2244C65.9695 54.0957 66.121 53.9964 66.3032 53.8947C66.3545 53.8647 66.4057 53.8348 66.4586 53.8039C66.6233 53.708 66.789 53.6139 66.9548 53.5198C67.0623 53.4577 67.1697 53.3955 67.277 53.3332C67.4374 53.2402 67.5979 53.1473 67.759 53.0554C68.0308 52.9001 68.2995 52.7416 68.5647 52.5752C68.6166 52.543 68.6684 52.5107 68.7218 52.4775C68.8201 52.4161 68.9179 52.3539 69.0151 52.2908C69.1949 52.1789 69.3357 52.0933 69.5503 52.0854Z" fill="#F6FAFD"/>
<path d="M50.9492 68.4687C51.2323 68.6162 51.3138 68.7452 51.4729 69.021C51.5696 69.3433 51.5683 69.5947 51.4824 69.916C51.3696 70.099 51.2674 70.2454 51.1301 70.4064C51.0605 70.4917 50.9909 70.5771 50.9212 70.6625C50.887 70.7037 50.8528 70.745 50.8175 70.7874C50.6832 70.9522 50.5601 71.1248 50.4351 71.2966C50.2282 71.56 50.0583 71.7179 49.7305 71.8203C49.3338 71.8628 49.0705 71.8193 48.7402 71.5918C48.5303 71.3403 48.4437 71.1159 48.3975 70.792C48.4811 70.2067 48.9194 69.7373 49.2734 69.2828C49.3204 69.2211 49.3673 69.1594 49.4157 69.0958C49.4614 69.0369 49.5072 68.9779 49.5543 68.9171C49.5955 68.8639 49.6366 68.8106 49.679 68.7558C50.0275 68.388 50.4742 68.413 50.9492 68.4687Z" fill="#F6FAFD"/>
<path d="M53.2344 70.2969C53.5169 70.433 53.6564 70.553 53.839 70.8063C53.9497 71.1517 53.9587 71.3983 53.8437 71.7442C53.6672 72.0459 53.4549 72.3115 53.2344 72.5821C53.1752 72.6585 53.1159 72.7349 53.0549 72.8136C52.4385 73.5963 52.4385 73.5963 51.9969 73.6815C51.5869 73.6822 51.3414 73.6297 51.0254 73.3438C50.7988 73.0295 50.7519 72.765 50.8102 72.3902C50.9425 71.9921 51.2207 71.6845 51.4824 71.3633C51.5416 71.2869 51.6008 71.2105 51.6618 71.1318C52.1199 70.5502 52.4575 70.175 53.2344 70.2969Z" fill="#F6FAFD"/>
<path d="M48.5879 66.6407C48.8558 66.7937 49.0216 66.9515 49.1211 67.25C49.1856 67.6063 49.1841 67.8954 49.0092 68.2186C48.8514 68.4368 48.6848 68.6433 48.5117 68.8497C48.4214 68.9641 48.4214 68.9641 48.3293 69.0808C47.698 69.8756 47.698 69.8756 47.2311 69.9827C46.8958 70.0121 46.6706 69.9376 46.3789 69.7637C46.1494 69.5166 46.0527 69.3099 46.0266 68.9782C46.0507 68.5392 46.2664 68.2721 46.5312 67.9356C46.6001 67.8449 46.6688 67.7541 46.7374 67.6633C46.8114 67.5667 46.8855 67.4702 46.9597 67.3738C47.0131 67.3044 47.0131 67.3044 47.0675 67.2336C47.5103 66.6711 47.8804 66.4623 48.5879 66.6407Z" fill="#F6FAFD"/>
<path d="M55.7671 72.2203C56.0582 72.4055 56.1729 72.5619 56.2812 72.8868C56.3459 73.5593 55.9606 73.9974 55.5624 74.4959C55.5093 74.5638 55.5093 74.5638 55.4551 74.6331C54.9068 75.326 54.9068 75.326 54.6055 75.4766C54.2306 75.5177 53.928 75.5149 53.5819 75.3576C53.3405 75.1279 53.2491 74.9596 53.1582 74.6387C53.176 74.1678 53.2786 73.9003 53.5867 73.539C53.6563 73.4536 53.7259 73.3682 53.7955 73.2828C53.8298 73.2416 53.864 73.2004 53.8993 73.1579C54.0336 72.9931 54.1567 72.8206 54.2817 72.6487C54.681 72.1404 55.1488 71.9825 55.7671 72.2203Z" fill="#F6FAFD"/>
</svg>
