<svg width="391" height="440" viewBox="0 0 391 440" fill="none" xmlns="http://www.w3.org/2000/svg">
<path d="M182.248 30.6929C182.929 30.9072 183.611 31.1216 184.313 31.3424C198.541 35.925 210.934 42.8801 222.248 52.6929C223.056 53.3568 223.864 54.0207 224.697 54.7047C246.05 72.8392 259.93 100.875 262.248 128.693C263.914 161.079 255.404 190.427 233.685 214.943C232.212 216.531 230.733 218.115 229.248 219.693C228.709 220.296 228.17 220.899 227.615 221.521C209.275 241.244 180.722 251.743 154.291 252.978C125.413 253.766 98.6041 245.066 76.2478 226.693C75.3351 225.957 74.4225 225.221 73.4822 224.462C53.9923 207.84 39.2319 181.865 36.447 156.247C33.9624 124.391 39.335 94.4444 59.5603 68.9429C61.0965 67.1698 62.6604 65.4204 64.2478 63.6929C64.6949 63.2034 65.1421 62.7139 65.6028 62.2095C80.2346 46.3672 98.5233 35.4826 119.248 29.6929C120.311 29.3733 121.375 29.0536 122.47 28.7242C141.342 23.9566 163.735 24.6925 182.248 30.6929ZM171.697 38.7554C169.637 41.5101 168.37 44.537 167.06 47.6929C166.788 48.322 166.515 48.9511 166.234 49.5992C165.023 52.465 164.248 54.55 164.248 57.6929C163.258 57.5331 162.268 57.3733 161.248 57.2086C145.48 54.9764 130.027 57.0772 115.541 63.7047C113.248 64.6929 113.248 64.6929 111.248 64.6929C110.682 63.6939 110.116 62.6949 109.533 61.6656C108.792 60.3622 108.051 59.0588 107.31 57.7554C106.751 56.7664 106.751 56.7664 106.179 55.7574C104.478 52.5346 104.478 52.5346 102.248 49.6929C99.7897 49.4429 99.7897 49.4429 97.2478 49.6929C96.5878 50.3529 95.9278 51.0129 95.2478 51.6929C95.2478 57.1847 98.1021 60.9383 101.068 65.3258C102.248 67.6929 102.248 67.6929 102.209 69.7711C100.881 72.4257 99.1447 73.5794 96.7478 75.3179C79.2615 88.8436 69.6072 108.062 66.2478 129.693C66.2052 131.359 66.1887 133.027 66.2478 134.693C64.9832 134.658 63.7186 134.623 62.4157 134.587C60.7556 134.559 59.0954 134.532 57.4353 134.505C56.6019 134.48 55.7685 134.455 54.9099 134.429C54.1074 134.42 53.305 134.41 52.4782 134.4C51.7399 134.384 51.0015 134.369 50.2407 134.352C47.6768 134.791 46.7816 135.624 45.2478 137.693C45.4898 141.011 45.4898 141.011 47.2478 143.693C48.6635 143.779 50.0834 143.8 51.5017 143.791C52.3557 143.787 53.2097 143.784 54.0896 143.781C54.9874 143.772 55.8852 143.764 56.8103 143.755C58.1628 143.749 58.1628 143.749 59.5427 143.742C61.7778 143.73 64.0128 143.713 66.2478 143.693C66.2829 144.383 66.318 145.072 66.3542 145.783C67.0425 157.638 70.141 168.24 75.6228 178.693C75.9857 179.387 76.3485 180.08 76.7224 180.795C79.3672 185.609 82.5332 189.655 86.2478 193.693C83.9863 198.621 80.2492 201.555 76.2673 205.158C73.9347 207.513 73.9347 207.513 74.3845 210.447C75.0488 212.629 75.0488 212.629 76.2478 213.693C78.5526 214.243 78.5526 214.243 81.2478 213.693C83.2908 211.882 85.024 210.164 86.8103 208.13C88.558 206.142 90.2465 204.456 92.2478 202.693C96.9321 202.465 100.971 207.287 104.396 210.076C107.19 212.011 107.19 212.011 110.599 211.435C111.473 211.19 112.347 210.945 113.248 210.693C114.108 208.4 114.108 208.4 114.248 205.693C111.126 201.294 105.738 198.571 101.248 195.693C103.037 191.873 103.037 191.873 104.935 190.255C105.368 189.74 105.802 189.224 106.248 188.693C106.006 185.375 106.006 185.375 104.248 182.693C101.875 182.275 101.875 182.275 99.2478 182.693C97.8747 183.985 96.5374 185.317 95.2478 186.693C94.2578 186.693 93.2678 186.693 92.2478 186.693C90.4978 184.943 90.4978 184.943 89.2478 182.693C89.2478 180.63 89.2478 180.63 90.2478 178.693C91.0934 178.219 91.939 177.744 92.8103 177.255C93.6147 176.74 94.419 176.224 95.2478 175.693C95.8313 173.15 95.8313 173.15 95.2478 170.693C93.447 168.49 93.447 168.49 90.9978 168.38C87.6005 168.766 85.2134 170.038 82.2478 171.693C81.2578 168.723 80.2678 165.753 79.2478 162.693C80.5265 162.466 81.8053 162.239 83.1228 162.005C86.6466 161.152 86.6466 161.152 88.8728 158.255C89.5742 155.457 89.5742 155.457 87.2478 152.693C83.2233 152.395 80.1767 152.711 76.2478 153.693C75.7528 148.743 75.7528 148.743 75.2478 143.693C76.6915 143.734 78.1353 143.775 79.6228 143.818C82.0371 143.935 82.0371 143.935 84.2478 143.693C86.4862 141.864 86.4862 141.864 86.5603 139.193C86.4056 137.955 86.4056 137.955 86.2478 136.693C83.1589 134.634 82.5384 134.454 79.0603 134.568C77.8022 134.609 76.544 134.65 75.2478 134.693C75.5778 131.393 75.9078 128.093 76.2478 124.693C76.9697 125.023 77.6915 125.353 78.4353 125.693C81.3795 126.74 83.1704 127.26 86.2478 126.693C88.1102 124.284 88.1102 124.284 89.2478 121.693C88.2107 119.61 88.2107 119.61 86.2478 117.693C82.6431 116.88 82.6431 116.88 79.2478 116.693C80.2378 113.393 81.2278 110.093 82.2478 106.693C83.2997 107.374 84.3515 108.054 85.4353 108.755C88.0982 110.289 88.964 110.711 92.1228 110.505C94.1998 109.877 94.1998 109.877 95.2478 108.693C95.9176 106.366 95.9176 106.366 95.2478 103.693C93.0616 101.676 90.7901 100.282 88.2478 98.6929C89.8978 96.3829 91.5478 94.0729 93.2478 91.6929C94.9405 93.0276 96.6332 94.3622 98.3259 95.6968C100.203 96.8935 100.203 96.8935 102.357 96.4703C104.443 95.7546 104.443 95.7546 106.248 93.6929C106.01 89.2966 104.106 86.9204 101.248 83.6929C103.228 82.0429 105.208 80.3929 107.248 78.6929C108.989 80.351 110.336 81.8329 111.623 83.8804C113.137 85.9473 113.137 85.9473 115.81 86.1304C116.615 85.9861 117.419 85.8417 118.248 85.6929C120.515 82.9616 120.515 82.9616 120.06 80.3179C119.17 77.4421 117.896 75.2017 116.248 72.6929C119.548 71.7029 122.848 70.7129 126.248 69.6929C126.31 70.7861 126.372 71.8792 126.435 73.0054C126.861 76.8363 126.861 76.8363 129.81 78.6304C130.615 78.9811 131.419 79.3317 132.248 79.6929C133.568 78.7029 134.888 77.7129 136.248 76.6929C136.031 74.7748 136.031 74.7748 135.81 72.8179C135.729 72.0986 135.648 71.3793 135.564 70.6383C135.335 68.6189 135.335 68.6189 134.248 66.6929C137.548 66.3629 140.848 66.0329 144.248 65.6929C144.183 67.6786 144.118 69.6643 144.052 71.65C144.115 74.0065 144.115 74.0065 146.248 76.6929C148.748 77.1096 148.748 77.1096 151.248 76.6929C153.461 74.9064 153.461 74.9064 153.443 72.5289C153.42 71.7168 153.397 70.9047 153.373 70.0679C153.355 69.2507 153.337 68.4334 153.318 67.5914C153.295 66.9649 153.272 66.3384 153.248 65.6929C154.898 66.0229 156.548 66.3529 158.248 66.6929C156.275 72.9796 153.924 78.985 151.236 84.9976C150.471 86.732 149.706 88.4664 148.941 90.2008C147.745 92.9007 146.546 95.5999 145.346 98.2984C144.18 100.925 143.02 103.555 141.861 106.185C141.499 106.994 141.136 107.804 140.763 108.638C140.432 109.389 140.101 110.141 139.761 110.915C139.468 111.574 139.175 112.233 138.873 112.912C138.082 114.85 138.082 114.85 138.248 117.693C137.547 117.879 136.845 118.064 136.123 118.255C130.932 120.851 127.622 125.264 125.373 130.568C123.027 137.873 123.781 144.348 126.853 151.33C130.479 157.473 136.438 161.763 143.248 163.693C150.741 164.522 157.052 164.233 163.248 159.693C167.894 155.909 172.024 151.745 173.248 145.693C173.781 139.832 174.145 134.655 171.661 129.223C169.54 123.689 170.458 118.582 171.232 112.826C171.367 111.71 171.502 110.594 171.641 109.444C172.075 105.9 172.537 102.359 172.998 98.8179C173.294 96.4145 173.588 94.0109 173.881 91.607C174.423 87.2283 174.965 82.8498 175.536 78.4747C175.706 77.1585 175.706 77.1585 175.88 75.8158C176.248 73.6929 176.248 73.6929 177.248 71.6929C178.238 72.0229 179.228 72.3529 180.248 72.6929C180.103 73.2086 179.959 73.7242 179.81 74.2554C179.083 77.4069 178.546 80.4703 178.248 83.6929C178.908 84.3529 179.568 85.0129 180.248 85.6929C182.721 85.8339 182.721 85.8339 185.248 84.6929C187.582 81.7344 187.582 81.7344 189.248 78.6929C191.558 80.0129 193.868 81.3329 196.248 82.6929C195.822 85.1606 195.561 86.4049 193.685 88.1304C191.968 89.6704 191.968 89.6704 192.06 92.3804C192.122 93.1436 192.184 93.9067 192.248 94.6929C193.898 95.3529 195.548 96.0129 197.248 96.6929C198.176 95.8473 199.104 95.0017 200.06 94.1304C201.642 92.689 201.642 92.689 203.248 91.6929C207.639 93.1568 208.127 95.6713 210.248 99.6929C209.485 99.9611 208.722 100.229 207.935 100.505C205.335 101.654 203.859 102.366 202.248 104.693C202.518 107.667 203.102 108.547 205.248 110.693C208.834 110.305 211.948 109.107 215.248 107.693C216.238 110.333 217.228 112.973 218.248 115.693C216.299 116.281 216.299 116.281 214.31 116.88C210.881 118.093 210.881 118.093 209.06 121.193C209.078 123.677 209.078 123.677 210.248 125.568C213.378 127.329 215.844 126.436 219.248 125.693C219.908 125.363 220.568 125.033 221.248 124.693C221.578 127.993 221.908 131.293 222.248 134.693C220.99 134.631 219.732 134.569 218.435 134.505C215.761 134.515 214.533 134.529 212.185 135.88C210.853 138.456 211.394 139.99 212.248 142.693C213.256 143.926 213.256 143.926 215.314 143.791C217.625 143.758 219.937 143.725 222.248 143.693C221.918 146.993 221.588 150.293 221.248 153.693C218.709 153.367 216.17 153.042 213.631 152.716C212.844 152.709 212.058 152.701 211.248 152.693C208.972 154.509 208.972 154.509 209.185 157.13C210.091 160.099 210.091 160.099 213.81 161.505C214.945 161.897 216.079 162.289 217.248 162.693C216.373 168.443 216.373 168.443 215.248 170.693C214.361 170.363 213.474 170.033 212.56 169.693C209.508 168.772 207.393 168.343 204.248 168.693C203.588 169.353 202.928 170.013 202.248 170.693C202.107 173.166 202.107 173.166 203.248 175.693C206.206 178.027 206.206 178.027 209.248 179.693C208.044 182.187 206.793 184.374 205.248 186.693C202.78 185.541 201.2 184.645 199.248 182.693C196.206 182.443 196.206 182.443 193.248 182.693C191.94 183.792 191.94 183.792 191.935 186.505C191.954 189.8 191.954 189.8 194.248 192.068C194.908 192.604 195.568 193.14 196.248 193.693C194.683 198.387 190.701 200.044 186.717 202.755C183.999 204.522 183.999 204.522 183.248 207.693C184.619 209.883 184.619 209.883 186.248 211.693C190.163 211.132 192.695 210.005 195.935 207.755C196.702 207.231 197.469 206.706 198.259 206.166C200.335 204.704 200.335 204.704 202.248 202.693C205.351 202.793 206.384 203.823 208.65 205.978C210.34 207.83 212.028 209.684 213.713 211.541C216.047 213.899 216.047 213.899 218.939 214.127C221.434 213.883 221.434 213.883 223.248 211.693C223.171 207.735 222.565 206.053 219.927 203.06C219.002 202.238 218.076 201.415 217.123 200.568C214.302 198.06 214.302 198.06 212.248 195.693C212.183 191.999 214.728 189.551 216.935 186.755C226.171 174.282 230.549 159.982 232.248 144.693C233.524 144.644 234.8 144.595 236.115 144.545C237.784 144.469 239.454 144.394 241.123 144.318C241.965 144.287 242.806 144.256 243.674 144.224C244.479 144.186 245.285 144.147 246.115 144.107C246.859 144.076 247.602 144.044 248.368 144.012C250.488 143.839 250.488 143.839 252.248 141.693C252.664 139.193 252.664 139.193 252.248 136.693C249.147 134.626 248.518 134.448 245.017 134.498C244.215 134.504 243.412 134.511 242.586 134.517C241.752 134.534 240.919 134.551 240.06 134.568C238.793 134.581 238.793 134.581 237.5 134.595C235.416 134.619 233.332 134.655 231.248 134.693C231.279 133.528 231.31 132.362 231.342 131.162C231.304 109.551 218.272 91.5468 203.74 76.9195C201.038 74.5052 198.303 72.6322 195.248 70.6929C195.848 69.5959 196.449 68.499 197.068 67.3687C197.837 65.9148 198.605 64.4603 199.373 63.0054C199.97 61.9236 199.97 61.9236 200.58 60.8199C202.952 56.4671 202.952 56.4671 202.49 51.6734C202.08 51.0199 201.67 50.3663 201.248 49.6929C198.879 49.3429 198.879 49.3429 196.248 49.6929C194.444 51.4705 194.444 51.4705 193.123 53.8804C192.373 55.1102 192.373 55.1102 191.607 56.3648C191.159 57.1331 190.71 57.9014 190.248 58.6929C189.32 60.147 189.32 60.147 188.373 61.6304C187.088 63.594 187.088 63.594 187.248 65.6929C182.793 63.7129 182.793 63.7129 178.248 61.6929C178.32 60.9427 178.392 60.1925 178.467 59.4195C179.531 49.5633 179.531 49.5633 179.248 39.6929C178.258 38.7029 178.258 38.7029 177.248 37.6929C173.484 37.3161 173.484 37.3161 171.697 38.7554Z" fill="black"/>
<path d="M363.22 287.255C379.286 302.44 389.615 322.924 390.529 345.158C391.145 370.951 384.406 393.319 366.493 412.418C354.055 425.279 338.76 433.926 321.248 437.693C320.372 437.882 319.497 438.072 318.595 438.267C292.642 441.568 269.134 436.193 248.174 420.373C230.178 405.967 218.652 385.261 215.623 362.38C213.385 338.861 219.343 315.156 234.123 296.528C250.003 277.492 271.046 266.521 295.6 264.091C321.112 262.068 344.087 270.762 363.22 287.255ZM294.898 291.196C293.557 292.812 292.27 294.459 290.998 296.13C290.527 296.741 290.057 297.351 289.572 297.981C288.121 299.877 286.682 301.783 285.248 303.693C284.589 304.563 284.589 304.563 283.917 305.45C267.751 326.913 253.124 352.942 256.248 380.693C258.53 393.172 264.9 403.323 275.248 410.693C286.727 418.045 299.935 419.935 313.248 417.693C326.319 414.627 335.912 407.774 343.826 397.005C347.339 391.291 349.69 384.38 350.248 377.693C350.311 376.976 350.374 376.259 350.439 375.521C351.147 360.456 345.941 345.943 339.248 332.693C338.927 332.052 338.606 331.411 338.276 330.75C332.211 318.833 324.429 308.233 316.248 297.693C315.739 297.036 315.231 296.379 314.707 295.702C310.172 289.448 310.172 289.448 304.349 284.576C300.244 284.805 297.508 288.289 294.898 291.196Z" fill="black"/>
<path d="M230.247 25.6928C233.996 28.6001 237.633 31.6206 241.247 34.6928C241.907 35.229 242.567 35.7653 243.247 36.3178C247.768 40.0318 251.547 44.1676 255.247 48.6928C256.033 49.6531 256.82 50.6135 257.63 51.6029C263.708 59.1808 268.773 67.0655 273.247 75.6928C273.713 76.5859 273.713 76.5859 274.189 77.497C290.999 110.213 292.512 148.469 281.783 183.343C270.188 218.918 244.32 247.712 211.225 264.72C182.205 278.993 148.769 282.721 117.247 275.693C116.558 275.542 115.869 275.392 115.159 275.237C96.38 270.936 78.1454 261.859 63.2471 249.693C62.6561 249.217 62.065 248.741 61.4561 248.251C32.7317 224.964 14.8082 192.424 10.2471 155.693C9.34686 137.858 9.28131 119.958 14.2471 102.693C14.4508 101.946 14.6544 101.199 14.8643 100.43C24.8317 64.5752 49.5486 35.7778 81.3565 17.2709C127.436 -8.68016 187.323 -4.99516 230.247 25.6928ZM55.9956 59.6942C43.7391 73.7031 35.1908 90.8279 30.2471 108.693C29.9274 109.84 29.6077 110.987 29.2783 112.169C21.996 143.659 28.3705 177.4 45.2471 204.693C65.4708 234.669 92.9461 252.105 127.599 260.505C158.402 266.357 191.267 258.597 217.183 241.409C221.035 238.695 224.657 235.747 228.247 232.693C229.583 231.583 229.583 231.583 230.946 230.451C253.236 211.267 267.472 182.56 270.966 153.501C273.543 118.607 264.328 86.4317 241.622 59.5404C221.745 36.7238 193.615 20.8115 163.247 17.6928C120.845 15.6264 85.0252 28.1907 55.9956 59.6942Z" fill="black"/>
<path d="M109.248 282.693C121.248 284.693 121.248 284.693 124.787 285.326C143.633 288.331 162.592 287.275 181.248 283.693C183.58 283.352 185.914 283.018 188.248 282.693C188.254 283.29 188.26 283.887 188.266 284.502C188.33 290.698 188.414 296.895 188.51 303.091C188.544 305.405 188.572 307.72 188.594 310.034C188.628 313.356 188.68 316.676 188.736 319.998C188.743 321.037 188.749 322.077 188.756 323.148C188.775 324.109 188.795 325.07 188.816 326.06C188.827 326.908 188.838 327.756 188.849 328.63C188.981 329.311 189.112 329.992 189.248 330.693C192.969 333.173 196.113 333.137 200.436 333.318C201.56 333.376 201.56 333.376 202.707 333.435C204.554 333.529 206.401 333.612 208.248 333.693C208.176 334.42 208.104 335.147 208.029 335.896C206.519 352.255 207.563 367.101 212.443 382.83C213.248 385.693 213.248 385.693 213.248 388.693C163.418 388.693 113.588 388.693 62.248 388.693C62.248 370.543 62.248 352.393 62.248 333.693C84.123 333.255 84.123 333.255 91.0288 333.125C92.8285 333.087 94.6281 333.048 96.4277 333.009C97.3675 332.993 98.3073 332.976 99.2756 332.959C100.169 332.939 101.062 332.919 101.982 332.898C103.148 332.875 103.148 332.875 104.337 332.851C106.334 332.805 106.334 332.805 108.248 331.693C108.578 315.523 108.908 299.353 109.248 282.693Z" fill="black"/>
<path d="M302.247 296.693C305.511 297.781 306.031 298.351 308.032 300.982C308.558 301.668 309.084 302.354 309.625 303.062C310.181 303.806 310.737 304.551 311.31 305.318C311.888 306.087 312.465 306.856 313.061 307.648C314.804 309.987 316.529 312.336 318.247 314.693C318.722 315.342 319.197 315.991 319.686 316.66C332.441 334.307 343.916 356.245 341.247 378.693C339.525 388.447 335.778 395.224 328.247 401.693C318.723 408.334 308.179 410.5 296.677 409.33C286.816 407.563 278.289 403.811 271.81 395.943C264.554 384.902 263.852 373.232 265.72 360.462C266.397 357.457 267.25 354.608 268.247 351.693C268.638 350.547 269.028 349.401 269.431 348.22C276.687 328.671 289.019 312.579 302.247 296.693Z" fill="black"/>
<path d="M6.83411 324.434C8.26086 324.425 8.26086 324.425 9.71642 324.415C11.2617 324.421 11.2617 324.421 12.8383 324.427C13.8937 324.425 14.9492 324.423 16.0366 324.422C18.2719 324.42 20.5071 324.424 22.7423 324.432C26.1684 324.443 29.5939 324.432 33.0199 324.419C35.1885 324.421 37.3571 324.423 39.5258 324.427C41.068 324.421 41.068 324.421 42.6415 324.415C43.5958 324.421 44.5501 324.428 45.5333 324.434C46.3734 324.436 47.2134 324.437 48.0788 324.439C50.2484 324.693 50.2484 324.693 53.2484 326.693C53.6226 329.502 53.6226 329.502 53.6207 333.13C53.6244 333.791 53.628 334.451 53.6318 335.131C53.6399 337.319 53.6263 339.506 53.6117 341.693C53.6112 343.21 53.6117 344.727 53.6132 346.244C53.6131 349.425 53.6027 352.606 53.5846 355.787C53.5619 359.869 53.5614 363.951 53.5681 368.034C53.5715 371.167 53.5648 374.3 53.555 377.433C53.5511 378.938 53.55 380.444 53.5516 381.949C53.5519 384.052 53.5393 386.153 53.5231 388.255C53.5185 389.453 53.5139 390.651 53.5091 391.884C53.2484 394.693 53.2484 394.693 51.2484 396.693C49.1164 396.94 49.1164 396.94 46.4474 396.936C45.4497 396.939 44.4521 396.942 43.4242 396.945C42.344 396.938 41.2637 396.931 40.1508 396.923C39.0462 396.923 37.9416 396.922 36.8035 396.922C34.4657 396.919 32.1279 396.911 29.7902 396.899C26.1974 396.88 22.6049 396.878 19.0121 396.878C16.7458 396.874 14.4795 396.868 12.2133 396.861C11.131 396.86 10.0488 396.859 8.93371 396.858C7.44195 396.848 7.44195 396.848 5.92005 396.838C5.04006 396.834 4.16007 396.831 3.25341 396.827C1.24842 396.693 1.24842 396.693 0.248421 395.693C0.143632 393.556 0.109854 391.416 0.103157 389.277C0.0997986 388.607 0.09644 387.937 0.0929796 387.247C0.0834437 385.022 0.0815251 382.797 0.0804521 380.572C0.0772413 379.031 0.0738774 377.49 0.070366 375.95C0.0643681 372.715 0.0625268 369.481 0.0631181 366.247C0.0632198 362.096 0.0495673 357.946 0.0323459 353.795C0.0212455 350.611 0.0191983 347.428 0.0197278 344.244C0.0185448 342.714 0.0141048 341.183 0.00639548 339.652C-0.00336514 337.514 -0.000542196 335.376 0.00550093 333.238C0.00407591 332.02 0.0026509 330.801 0.0011827 329.546C0.420633 324.705 2.4951 324.442 6.83411 324.434Z" fill="black"/>
<path d="M155.185 124.376C159.524 126.63 162.221 129.152 164.248 133.693C165.001 139.348 165.023 144.056 162.56 149.255C158.6 153.429 155.202 155.234 149.365 155.751C144.885 155.627 141.005 154.289 137.669 151.259C133.916 146.934 132.932 143.435 133.037 137.747C133.522 133.015 135.765 129.912 139.248 126.88C144.078 123.358 149.483 122.365 155.185 124.376ZM148.248 134.693C146.102 136.421 146.102 136.421 144.248 138.693C144.384 140.911 144.384 140.911 145.248 142.693C148.148 143.371 148.148 143.371 151.248 143.693C153.535 141.854 153.535 141.854 153.373 139.068C153.331 138.284 153.29 137.5 153.248 136.693C150.773 135.703 150.773 135.703 148.248 134.693Z" fill="black"/>
<path d="M165.248 74.6929C165.578 74.6929 165.908 74.6929 166.248 74.6929C166.577 83.6371 165.341 92.3998 164.248 101.255C164.055 102.852 163.862 104.449 163.67 106.046C163.202 109.929 162.727 113.811 162.248 117.693C160.831 117.381 159.415 117.068 157.998 116.755C157.209 116.581 156.42 116.407 155.607 116.228C153.479 115.745 151.363 115.231 149.248 114.693C149.935 109.957 151.728 105.898 153.627 101.548C153.958 100.779 154.29 100.009 154.632 99.2157C155.687 96.7686 156.749 94.3245 157.811 91.8804C158.529 90.2172 159.247 88.5537 159.965 86.8901C161.721 82.8222 163.483 78.7568 165.248 74.6929Z" fill="black"/>
</svg>
