<svg width="116" height="116" viewBox="0 0 116 116" fill="none" xmlns="http://www.w3.org/2000/svg">
<circle cx="58" cy="58" r="58" fill="#EB3135"/>
<path d="M64.3704 50.436C66.2774 52.2952 67.2197 54.8129 67.2696 57.4549C67.2184 59.8513 66.434 61.9951 64.8911 63.8357C64.8506 63.8857 64.8102 63.9357 64.7685 63.9872C63.8899 65.0525 62.679 65.7844 61.4314 66.3429C61.3475 66.3808 61.2636 66.4187 61.1771 66.4577C60.2363 66.8491 59.15 67.0889 58.129 67.1264C58.0404 67.1305 57.9518 67.1345 57.8606 67.1387C56.6149 67.1685 55.4022 66.9918 54.2249 66.5847C53.7436 66.4218 53.7436 66.4218 53.2574 66.5081C53.1777 66.5525 53.0981 66.5968 53.016 66.6426C52.8836 66.715 52.8836 66.715 52.7486 66.789C52.6566 66.8411 52.5646 66.8931 52.4726 66.9452C52.3365 67.0203 52.3365 67.0203 52.1976 67.0969C51.8382 67.2956 51.4812 67.4967 51.1292 67.7083C50.8047 67.8792 50.5453 67.9013 50.1875 67.8316C49.9491 67.6594 49.8874 67.5613 49.7944 67.2831C49.7547 66.8226 49.8205 66.4326 49.9396 65.9882C49.9535 65.935 49.9674 65.8819 49.9816 65.8271C50.0398 65.6048 50.098 65.3828 50.163 65.1623C50.2704 64.7936 50.3516 64.4564 50.3448 64.0707C50.1632 63.7445 49.9146 63.5327 49.6371 63.2872C49.474 63.0784 49.3361 62.8579 49.1997 62.631C49.1637 62.5713 49.1277 62.5115 49.0905 62.45C48.2945 61.0881 47.8039 59.5402 47.75 57.9593C47.7469 57.8772 47.7437 57.7951 47.7405 57.7105C47.6915 55.1742 48.5025 52.6915 50.2692 50.8349C50.3727 50.7283 50.4766 50.6221 50.5806 50.5159C50.6591 50.4305 50.6591 50.4305 50.7391 50.3433C52.3371 48.644 54.8373 47.8123 57.1203 47.7005C59.846 47.6534 62.388 48.5583 64.3704 50.436ZM51.131 56.3139C50.7706 56.7889 50.7406 57.3025 50.8165 57.881C50.9549 58.3689 51.2601 58.704 51.6814 58.9779C52.1153 59.2034 52.5295 59.2916 53.0157 59.1762C53.491 59.0232 53.8702 58.7687 54.1444 58.348C54.3997 57.8428 54.4626 57.3541 54.2882 56.8119C54.0741 56.3297 53.7978 56.018 53.3326 55.7655C52.5054 55.4581 51.7185 55.6482 51.131 56.3139ZM61.0383 56.2356C60.7036 56.7314 60.5317 57.2061 60.6451 57.8026C60.8331 58.3836 61.1354 58.7566 61.6673 59.0562C62.1549 59.2744 62.5817 59.2663 63.0826 59.0954C63.5648 58.8896 63.8888 58.5538 64.1177 58.0854C64.2699 57.6118 64.2664 57.0548 64.0605 56.598C63.7561 56.0877 63.3402 55.8055 62.7724 55.6455C62.1549 55.5051 61.4453 55.7456 61.0383 56.2356ZM56.1424 56.2295C55.8047 56.6327 55.6601 57.0639 55.6964 57.5871C55.7946 58.2059 56.0864 58.5497 56.5515 58.9534C56.9406 59.2001 57.3592 59.2797 57.8145 59.2129C58.4294 59.0234 58.8615 58.6932 59.1671 58.1166C59.3489 57.6603 59.3543 57.2324 59.1954 56.7694C58.9776 56.2967 58.6524 55.9756 58.1778 55.7581C57.4024 55.4832 56.7343 55.668 56.1424 56.2295Z" fill="#F6FAFD"/>
<path d="M67.3286 47.3817C67.4025 47.4512 67.4764 47.5206 67.5525 47.5922C69.0456 49.032 70.7105 51.3806 70.9455 53.4931C71.0428 53.4882 71.1401 53.4834 71.2404 53.4784C72.2255 53.4845 73.0291 53.8667 73.7516 54.5214C74.9837 55.8405 75.3792 57.7145 75.3604 59.4637C75.2899 61.2602 74.773 63.0324 73.5402 64.3839C73.4793 64.4582 73.4793 64.4582 73.4171 64.5339C72.9349 65.0806 72.0979 65.5121 71.3672 65.5779C70.6124 65.5962 69.9389 65.4391 69.2157 65.2458C69.1689 65.3084 69.1222 65.371 69.0741 65.4356C68.6368 66.0154 68.1791 66.5637 67.6758 67.0883C67.6017 67.1657 67.5279 67.2436 67.4546 67.3218C65.8318 69.0502 63.5266 70.4456 61.1955 70.9655C61.0918 70.9655 60.988 70.9655 60.881 70.9655C60.8883 71.1012 60.8883 71.1012 60.8958 71.2397C60.8927 71.6667 60.8098 72.0275 60.5263 72.3574C59.9647 72.8755 59.3524 72.8701 58.6211 72.8695C58.5328 72.8698 58.4445 72.8701 58.3535 72.8705C58.1673 72.8709 57.9811 72.871 57.7948 72.8706C57.5113 72.8704 57.2279 72.8722 56.9444 72.8742C56.7629 72.8744 56.5813 72.8744 56.3998 72.8744C56.2737 72.8754 56.2737 72.8754 56.1451 72.8765C55.5879 72.8731 55.0387 72.8311 54.5812 72.4844C54.53 72.4185 54.53 72.4185 54.4777 72.3513C54.4421 72.308 54.4066 72.2646 54.3699 72.22C54.0156 71.6239 54.0398 70.8837 54.1528 70.2178C54.2805 69.8114 54.5477 69.5373 54.9053 69.3201C55.3361 69.1363 55.7361 69.1415 56.1962 69.1419C56.3598 69.1404 56.5235 69.1387 56.6871 69.1371C56.9421 69.1353 57.197 69.134 57.4519 69.1335C58.5544 69.1302 59.5785 69.0597 60.6451 68.7716C60.724 68.7503 60.8029 68.7291 60.8842 68.7072C61.0692 68.6525 61.2501 68.5924 61.4314 68.5268C61.4955 68.5039 61.5596 68.481 61.6256 68.4574C64.2419 67.4853 66.4016 65.6164 67.7807 63.2087C67.8075 63.1623 67.8342 63.116 67.8618 63.0683C67.9508 62.9082 68.0327 62.7455 68.1149 62.5819C68.1703 62.4814 68.1703 62.4814 68.2268 62.3788C68.6982 61.4313 68.8029 60.3887 68.9562 59.3535C68.9952 59.0962 69.0378 58.8395 69.0796 58.5827C69.2522 57.478 69.3468 56.4758 69.137 55.3735C69.1227 55.2942 69.1084 55.2148 69.0936 55.1331C69.0554 54.9447 69.0106 54.7607 68.9601 54.5753C68.9431 54.5107 68.926 54.4461 68.9084 54.3795C68.3897 52.4731 67.4667 50.8038 66.0902 49.3815C65.9133 49.1838 65.9133 49.1838 65.8297 49.0105C65.7327 48.826 65.6289 48.7993 65.4415 48.7136C65.3392 48.6249 65.2395 48.5332 65.1417 48.4394C62.8771 46.4007 59.7184 45.512 56.7137 45.6579C54.08 45.86 51.7322 46.8863 49.7158 48.5569C49.6533 48.6079 49.5909 48.659 49.5266 48.7115C49.1579 49.0216 48.8408 49.3598 48.5363 49.7322C48.4451 49.8436 48.4451 49.8436 48.3521 49.9572C47.3445 51.2114 46.6122 52.6031 46.1529 54.1444C46.1348 54.2036 46.1167 54.2628 46.098 54.3238C46.037 54.5419 45.988 54.76 45.9416 54.9818C45.9298 55.0373 45.918 55.0928 45.9059 55.15C45.6721 56.2997 45.7432 57.2994 45.9367 58.4488C45.9628 58.6156 45.9887 58.7825 46.0144 58.9494C46.0669 59.2889 46.1206 59.6282 46.1756 59.9674C46.2882 60.6629 46.3953 61.3593 46.4998 62.0561C46.5305 62.2584 46.5626 62.4605 46.5949 62.6626C46.8181 64.0988 46.8181 64.0988 46.5264 64.7267C45.9498 65.3455 44.9316 65.4968 44.1178 65.5871C43.1303 65.6165 42.2855 65.204 41.5728 64.5406C40.3786 63.2834 39.7165 61.4816 39.6513 59.7612C39.6472 59.6824 39.6432 59.6036 39.639 59.5225C39.5876 57.6707 40.0579 55.907 41.3458 54.5343C41.9786 53.945 42.7923 53.4769 43.6712 53.4735C43.799 53.4784 43.9269 53.4844 44.0545 53.4931C44.062 53.4174 44.0695 53.3418 44.0772 53.2638C44.3706 51.2461 45.8978 49.2029 47.2783 47.7734C47.3156 47.7342 47.353 47.6949 47.3915 47.6545C49.8756 45.0542 53.3909 43.4948 56.9971 43.3886C60.9239 43.3296 64.4896 44.6747 67.3286 47.3817Z" fill="#F6FAFD"/>
</svg>
