<svg width="26" height="26" viewBox="0 0 26 26" fill="none" xmlns="http://www.w3.org/2000/svg">
<path fill-rule="evenodd" clip-rule="evenodd" d="M21.9826 3.75694C19.5637 1.3352 16.3468 0.000931994 12.9196 -0.000488281C5.8577 -0.000488281 0.110308 5.74674 0.107468 12.8106C0.106521 15.0687 0.696409 17.2729 1.81764 19.2159L0 25.8549L6.79192 24.0732C8.66338 25.0941 10.7703 25.6321 12.9144 25.6327H12.9198C19.9809 25.6327 25.729 19.885 25.7316 12.8208C25.7331 9.39733 24.4016 6.17851 21.9826 3.75694ZM12.9196 23.469H12.9152C11.0045 23.4682 9.13049 22.9547 7.49528 21.9846L7.1066 21.7537L3.07616 22.8111L4.15194 18.8815L3.89866 18.4786C2.83266 16.7831 2.26976 14.8234 2.27071 12.8114C2.27292 6.94009 7.0501 2.16338 12.9239 2.16338C15.7682 2.16433 18.442 3.27341 20.4525 5.28626C22.463 7.29911 23.5695 9.9746 23.5686 12.82C23.566 18.6918 18.7892 23.469 12.9196 23.469ZM18.7608 15.4935C18.4407 15.3331 16.8667 14.5589 16.5732 14.4519C16.28 14.3451 16.0663 14.2919 15.8531 14.6123C15.6396 14.9326 15.0262 15.6538 14.8394 15.8673C14.6525 16.081 14.466 16.1078 14.1458 15.9475C13.8256 15.7873 12.7942 15.4491 11.5713 14.3585C10.6197 13.5097 9.97729 12.4613 9.79045 12.141C9.60392 11.8203 9.78887 11.6638 9.9309 11.4877C10.2774 11.0573 10.6245 10.6061 10.7311 10.3926C10.838 10.179 10.7845 9.99195 10.7043 9.83178C10.6245 9.6716 9.98423 8.09588 9.71754 7.45471C9.45747 6.83073 9.19377 6.915 8.99714 6.90522C8.81061 6.89591 8.5971 6.89401 8.38358 6.89401C8.17023 6.89401 7.82336 6.97402 7.52984 7.29469C7.23647 7.6152 6.40955 8.38956 6.40955 9.96528C6.40955 11.541 7.55667 13.0632 7.71668 13.2769C7.8767 13.4906 9.97414 16.7241 13.1854 18.1106C13.9492 18.4407 14.5454 18.6375 15.0104 18.785C15.7774 19.0287 16.4751 18.9943 17.0268 18.9119C17.6419 18.8199 18.9206 18.1374 19.1876 17.3897C19.4543 16.6419 19.4543 16.001 19.3742 15.8673C19.2943 15.7338 19.0808 15.6538 18.7608 15.4935Z" fill="#32BE62"/>
</svg>
