<svg width="116" height="116" viewBox="0 0 116 116" fill="none" xmlns="http://www.w3.org/2000/svg">
<circle cx="58" cy="58" r="58" fill="#EB3135"/>
<path d="M59.6328 57.119C59.7394 57.1998 59.7394 57.1998 59.8482 57.2823C60.2747 57.6184 60.6659 57.9848 61.0515 58.3663C61.0985 58.4125 61.1455 58.4588 61.1939 58.5065C61.2374 58.5504 61.281 58.5942 61.3258 58.6394C61.3648 58.6785 61.4037 58.7177 61.4438 58.758C61.5371 58.8709 61.5371 58.8709 61.6133 59.0994C61.548 59.1308 61.4827 59.1623 61.4154 59.1946C60.5983 59.6073 60.0932 60.0463 59.7851 60.9275C59.7076 61.177 59.6988 61.4046 59.6994 61.6655C59.6991 61.7868 59.6991 61.7868 59.6988 61.9106C59.7078 62.1199 59.74 62.3 59.7851 62.5034C59.8162 62.7343 59.8043 62.8054 59.6652 62.997C59.5558 63.1112 59.4455 63.2246 59.3343 63.3371C58.8981 63.8331 58.8191 64.4606 58.8419 65.1012C58.9301 65.8403 59.2643 66.4243 59.7851 66.9451C59.7694 67.0842 59.7528 67.2232 59.7325 67.3617C59.6333 68.1747 59.6684 68.9188 60.1705 69.5933C60.6407 70.1356 61.0919 70.4452 61.7656 70.6775C60.4877 72.2021 56.4875 72.3191 54.68 72.4858C50.25 72.8743 44.378 72.7972 40.6565 70.0253C40.5565 69.9399 40.4581 69.8525 40.3613 69.7635C40.3031 69.713 40.2449 69.6625 40.1849 69.6105C39.6741 69.1411 39.1808 68.4654 39.1291 67.7484C39.0795 65.3724 39.4914 63.169 40.666 61.0799C40.7044 61.0095 40.7044 61.0095 40.7435 60.9377C42.3053 58.086 45.0671 55.9595 48.1588 55.0076C52.091 53.8749 56.3816 54.6327 59.6328 57.119Z" fill="#F6FAFD"/>
<path d="M55.6657 40.6876C56.9131 41.7733 57.6431 43.2433 57.7952 44.8887C57.8627 46.4621 57.407 48.0546 56.3289 49.2305C55.1863 50.4211 53.7695 51.1628 52.1037 51.2133C50.5466 51.2287 49.0742 50.7948 47.9024 49.7303C47.8465 49.6814 47.7906 49.6325 47.7331 49.5822C46.584 48.5139 46.0143 47.0547 45.9094 45.5091C45.8618 44.0783 46.3155 42.6915 47.2168 41.58C47.2667 41.5168 47.3166 41.4537 47.368 41.3886C49.4401 38.9195 53.189 38.748 55.6657 40.6876Z" fill="#F6FAFD"/>
<path d="M68.7734 57.0428C69.0187 57.2076 69.2069 57.3902 69.3781 57.6331C69.5273 57.8249 69.5273 57.8249 69.7827 57.8807C70.0837 57.8807 70.2519 57.8194 70.5233 57.7069C70.9942 57.5399 71.4243 57.6585 71.8658 57.8503C72.2479 58.0727 72.5031 58.3894 72.682 58.79C72.7122 58.9244 72.7398 59.0596 72.7603 59.1958C72.8182 59.5833 72.8182 59.5833 73.0819 59.8564C73.2854 59.9193 73.4786 59.9666 73.6865 60.0087C74.229 60.1207 74.5482 60.4172 74.8672 60.8514C75.0145 61.1505 75.0401 61.3954 75.0386 61.7273C75.0392 61.8534 75.0392 61.8534 75.0398 61.982C75.0196 62.2219 74.9646 62.3853 74.8672 62.6033C74.7973 62.86 74.7973 62.86 74.8672 63.1365C75.0277 63.3034 75.2015 63.4452 75.3799 63.5926C75.7178 63.8922 75.8341 64.1637 75.8884 64.6094C75.9094 65.1034 75.8989 65.4993 75.5965 65.9031C75.4278 66.0831 75.2487 66.2432 75.0541 66.3946C74.9325 66.4848 74.9325 66.4848 74.8672 66.6404C74.846 67.0049 74.846 67.0049 74.9425 67.3516C75.104 67.777 75.0896 68.2953 74.9672 68.7313C74.762 69.18 74.4432 69.4405 74.0055 69.6635C73.7335 69.7603 73.4771 69.8175 73.1926 69.8608C72.9816 69.9364 72.9215 70.0273 72.8106 70.2205C72.7509 70.4311 72.7509 70.4311 72.7106 70.6585C72.5897 71.1694 72.4049 71.5143 71.9974 71.8487C71.5325 72.1354 70.9764 72.1028 70.4492 72.0486C70.3207 72.0019 70.1933 71.9517 70.0684 71.8963C69.8399 71.8518 69.8399 71.8518 69.6113 71.8963C69.4161 72.0596 69.4161 72.0596 69.2305 72.2771C69.1414 72.3596 69.0509 72.4405 68.9591 72.5199C68.9166 72.5571 68.8741 72.5944 68.8303 72.6327C68.4475 72.9247 68.0175 72.9982 67.5431 72.9439C66.9856 72.823 66.6315 72.5241 66.2824 72.0858C66.1874 71.9623 66.1874 71.9623 66.0313 71.8963C65.7941 71.8805 65.6209 71.8761 65.4011 71.9713C64.9552 72.1373 64.3871 72.1404 63.938 71.982C63.7806 71.8894 63.6524 71.7906 63.5176 71.6678C63.4747 71.6317 63.4318 71.5957 63.3876 71.5586C62.9867 71.1675 62.9319 70.6761 62.832 70.1443C62.8069 70.0689 62.7818 69.9935 62.7559 69.9158C62.559 69.8561 62.3711 69.809 62.1703 69.7682C61.6851 69.6698 61.2844 69.5549 60.9548 69.1541C60.9255 69.1038 60.8961 69.0535 60.8659 69.0017C60.8203 68.9263 60.8203 68.9263 60.7739 68.8494C60.5699 68.4333 60.5363 67.9029 60.6769 67.4616C60.7092 67.3851 60.7092 67.3851 60.7421 67.3069C60.8593 67.0211 60.8996 66.8622 60.7754 66.5642C60.6113 66.4005 60.4408 66.2537 60.2595 66.1093C59.9349 65.8138 59.8075 65.5056 59.767 65.0777C59.7538 64.5907 59.7874 64.2164 60.0899 63.8221C60.2412 63.6761 60.3958 63.5428 60.5618 63.4138C60.711 63.2782 60.781 63.1722 60.8516 62.9842C60.8306 62.7425 60.7819 62.5439 60.6945 62.3177C60.5507 61.8193 60.5623 61.3849 60.7754 60.9085C60.9876 60.533 61.2211 60.2761 61.6133 60.0896C61.8701 60.0206 62.1235 59.9673 62.386 59.9248C62.6067 59.8783 62.6067 59.8783 62.741 59.7296C62.8479 59.5263 62.8891 59.3439 62.932 59.1184C63.0501 58.6168 63.2352 58.2427 63.6551 57.9309C64.0808 57.6742 64.4711 57.599 64.9649 57.6521C65.0834 57.6884 65.2009 57.7282 65.3171 57.7712C65.612 57.877 65.803 57.9152 66.1074 57.8045C66.301 57.6363 66.301 57.6363 66.4883 57.4236C67.1544 56.7827 67.9291 56.5947 68.7734 57.0428ZM63.6556 61.2465C62.6824 62.3937 62.212 63.8462 62.3195 65.3439C62.4696 66.9217 63.2629 68.1969 64.4316 69.2303C65.6484 70.1491 67.1266 70.5437 68.6344 70.3518C70.0936 70.1193 71.3568 69.3405 72.2669 68.1755C73.1659 66.8491 73.5428 65.3657 73.2533 63.7745C72.9233 62.3022 72.0809 61.0365 70.8015 60.2182C68.3793 58.8076 65.6039 59.2074 63.6556 61.2465Z" fill="#F6FAFD"/>
<path d="M70.2493 61.0231C71.3003 61.7238 72.0125 62.74 72.3011 63.97C72.5049 65.214 72.2499 66.4775 71.535 67.5203C70.8128 68.4794 69.833 69.1102 68.6532 69.3473C67.4045 69.5183 66.3435 69.2727 65.2695 68.6212C64.9941 68.4111 64.749 68.184 64.5078 67.9357C64.4437 67.874 64.4437 67.874 64.3784 67.811C63.5934 66.9931 63.3014 65.8368 63.2891 64.7365C63.3609 63.5356 63.8424 62.339 64.7369 61.5081C66.3429 60.2045 68.4499 59.9769 70.2493 61.0231ZM69.1638 63.5987C69.0974 63.6614 69.0311 63.7242 68.9627 63.7888C68.7642 63.9838 68.567 64.1799 68.372 64.3785C68.176 64.571 67.9687 64.7495 67.7603 64.9284C67.6631 65.0131 67.5697 65.1023 67.4785 65.1935C67.1057 65.1869 66.8587 64.8301 66.6167 64.5803C66.3361 64.3066 66.1337 64.2106 65.7266 64.2033C65.5249 64.3097 65.5249 64.3097 65.4219 64.508C65.4053 64.7567 65.4448 64.8986 65.6016 65.0941C65.7398 65.2355 65.8832 65.3673 66.0312 65.4982C66.0805 65.5432 66.1298 65.5881 66.1806 65.6345C66.3316 65.7699 66.4852 65.9012 66.6406 66.0314C66.6936 66.0769 66.7467 66.1223 66.8013 66.1692C66.8535 66.2117 66.9058 66.2542 66.9596 66.298C67.0062 66.3365 67.0529 66.375 67.1009 66.4146C67.2508 66.5042 67.2508 66.5042 67.4401 66.4771C67.6507 66.4055 67.7634 66.3247 67.926 66.1742C67.9785 66.1261 68.0309 66.078 68.0849 66.0284C68.2727 65.8479 68.4564 65.6638 68.6389 65.478C68.7744 65.3449 68.9147 65.2215 69.0591 65.0983C69.1673 65.0035 69.2752 64.9082 69.3828 64.8127C69.4579 64.7463 69.533 64.6799 69.6104 64.6115C69.6886 64.5391 69.7667 64.4665 69.8446 64.3937C69.9178 64.3269 69.9909 64.2602 70.0663 64.1914C70.2482 63.9807 70.2482 63.9807 70.2204 63.6915C70.1675 63.4219 70.1675 63.4219 69.916 63.2892C69.5573 63.2322 69.4182 63.3553 69.1638 63.5987Z" fill="#F6FAFD"/>
<path d="M63.4033 44.9316C63.6987 45.0498 63.7722 45.2754 63.8975 45.5589C63.981 45.7584 64.0615 45.9589 64.1412 46.1599C64.1693 46.2289 64.1973 46.298 64.2262 46.3691C64.2526 46.4354 64.2791 46.5016 64.3064 46.5699C64.3425 46.6602 64.3425 46.6602 64.3793 46.7524C64.4316 46.9121 64.4316 46.9121 64.4316 47.1406C64.5065 47.1435 64.5065 47.1435 64.5828 47.1464C64.8117 47.1553 65.0406 47.1646 65.2695 47.174C65.348 47.1769 65.4264 47.1799 65.5073 47.183C66.7338 47.2338 66.7338 47.2338 66.9453 47.4453C66.949 47.6795 66.9246 47.8373 66.7696 48.019C66.6372 48.1402 66.5006 48.2528 66.3597 48.3641C66.2897 48.4217 66.2897 48.4217 66.2183 48.4803C66.1255 48.5564 66.0323 48.6318 65.9386 48.7066C65.8063 48.8135 65.6777 48.924 65.5489 49.0351C65.3457 49.1973 65.3457 49.1973 65.1934 49.1973C65.2099 49.2576 65.2265 49.3179 65.2435 49.38C65.3181 49.6537 65.3914 49.9277 65.4647 50.2018C65.4908 50.2967 65.5169 50.3916 65.5437 50.4894C65.5802 50.6267 65.5802 50.6267 65.6174 50.7668C65.6401 50.851 65.6628 50.9352 65.6863 51.0219C65.7275 51.2594 65.7237 51.4065 65.6504 51.6348C65.498 51.7871 65.498 51.7871 65.3076 51.7901C64.8418 51.6518 64.4697 51.3418 64.077 51.0623C63.7118 50.806 63.7118 50.806 63.2891 50.6969C62.8555 50.8866 62.4807 51.1721 62.0965 51.4455C61.5946 51.7887 61.5946 51.7887 61.261 51.7794C61.2013 51.7568 61.1416 51.7342 61.0801 51.7109C60.9992 51.3551 61.0179 51.1103 61.1131 50.7594C61.1374 50.6681 61.1617 50.5768 61.1867 50.4827C61.2128 50.3884 61.2389 50.2941 61.2657 50.197C61.2915 50.101 61.3173 50.005 61.3439 49.906C61.4075 49.6695 61.4719 49.4333 61.5371 49.1973C61.4916 49.1759 61.4461 49.1546 61.3992 49.1326C61.1537 49.0035 60.9552 48.821 60.7468 48.6403C60.6621 48.5675 60.5774 48.4948 60.4927 48.4222C60.4308 48.3685 60.4308 48.3685 60.3677 48.3138C60.2831 48.2418 60.1972 48.1713 60.1102 48.1022C59.789 47.8468 59.789 47.8468 59.7471 47.6215C59.7852 47.4453 59.7852 47.4453 59.9375 47.293C60.1224 47.2617 60.1224 47.2617 60.3529 47.2448C60.4779 47.2352 60.4779 47.2352 60.6055 47.2254C60.693 47.2194 60.7805 47.2134 60.8706 47.2073C60.9569 47.2007 61.0432 47.1941 61.1321 47.1873C61.5222 47.1585 61.9076 47.1372 62.2988 47.1406C62.3136 47.0581 62.3136 47.0581 62.3286 46.9739C62.4053 46.6197 62.5416 46.2886 62.6702 45.9504C62.697 45.8778 62.7238 45.8051 62.7514 45.7303C62.791 45.6257 62.791 45.6257 62.8314 45.519C62.8672 45.4239 62.8672 45.4239 62.9037 45.3269C63.0257 45.0747 63.1131 44.9316 63.4033 44.9316Z" fill="#F6FAFD"/>
<path d="M72.5821 49.7305C72.7329 49.7305 72.8837 49.7305 73.0391 49.7305C73.6485 50.9057 73.6485 50.9057 73.6485 51.2539C73.6934 51.255 73.7384 51.2561 73.7847 51.2573C73.9885 51.2629 74.1922 51.2703 74.3959 51.2777C74.4667 51.2794 74.5374 51.2811 74.6103 51.2829C74.6783 51.2856 74.7463 51.2883 74.8164 51.2911C74.9103 51.2941 74.9103 51.2941 75.0061 51.2971C75.2073 51.3371 75.2788 51.3956 75.4004 51.5586C75.3992 51.8233 75.3397 51.9225 75.1609 52.1186C75.0939 52.1757 75.0268 52.2329 74.9577 52.2917C74.8912 52.3493 74.8247 52.4068 74.7563 52.4661C74.593 52.6 74.4282 52.7289 74.2579 52.8535C74.2807 52.9481 74.3036 53.0426 74.3272 53.1401C74.3565 53.2651 74.3858 53.3902 74.415 53.5153C74.4301 53.5775 74.4453 53.6397 74.4609 53.7038C74.5356 54.0273 74.5918 54.2799 74.4864 54.6055C74.2915 54.665 74.2915 54.665 74.0294 54.6816C73.8336 54.5742 73.6687 54.4707 73.4914 54.3389C73.1643 54.0831 73.1643 54.0831 72.7704 53.9934C72.4766 54.1164 72.221 54.2907 71.9587 54.4687C71.7005 54.6367 71.521 54.7335 71.211 54.6816C71.1607 54.6314 71.1104 54.5811 71.0586 54.5293C71.0868 53.9565 71.2268 53.4089 71.3633 52.8535C71.2872 52.7992 71.2111 52.7449 71.1327 52.689C71.0334 52.6154 70.9341 52.5417 70.8349 52.4679C70.7596 52.4147 70.7596 52.4147 70.6827 52.3603C70.4141 52.1579 70.3108 52.0643 70.2157 51.7303C70.2208 51.4824 70.2208 51.4824 70.3731 51.3301C70.5372 51.3058 70.5372 51.3058 70.7379 51.2985C70.8454 51.2941 70.8454 51.2941 70.9551 51.2896C71.0301 51.2873 71.1051 51.2849 71.1824 51.2825C71.2958 51.2781 71.2958 51.2781 71.4115 51.2735C71.5986 51.2664 71.7856 51.2598 71.9727 51.2539C71.9939 51.1789 71.9939 51.1789 72.0155 51.1023C72.1206 50.7395 72.2287 50.3991 72.4059 50.0637C72.4392 49.9999 72.4725 49.9361 72.5068 49.8703C72.5316 49.8242 72.5565 49.778 72.5821 49.7305Z" fill="#F6FAFD"/>
<path d="M62.2989 71.8203C62.4544 71.9434 62.6067 72.0706 62.7559 72.2012C62.7559 72.2514 62.7559 72.3017 62.7559 72.3535C62.7992 72.3747 62.8425 72.3959 62.8871 72.4178C63.0003 72.4752 63.1121 72.5355 63.2222 72.5987C63.8886 72.9673 64.5451 73.1165 65.2934 72.9391C65.5652 72.8802 65.6738 72.8571 65.9191 72.9947C66.0714 73.1288 66.2066 73.2639 66.336 73.4199C66.1761 73.8415 65.9551 74.2197 65.7314 74.6101C65.6904 74.6828 65.6494 74.7554 65.6072 74.8303C65.5673 74.9 65.5275 74.9697 65.4865 75.0415C65.4504 75.1049 65.4142 75.1683 65.377 75.2337C65.2761 75.3903 65.1842 75.5099 65.0411 75.6289C64.8506 75.6575 64.8506 75.6575 64.6602 75.6289C64.4289 75.4508 64.3642 75.2511 64.2761 74.9782C64.2493 74.8964 64.2226 74.8147 64.195 74.7305C64.1679 74.6452 64.1407 74.5599 64.1127 74.472C64.0707 74.3428 64.0707 74.3428 64.0278 74.2109C63.9587 73.9982 63.8902 73.7854 63.8223 73.5723C63.7771 73.5815 63.7318 73.5907 63.6852 73.6002C63.4771 73.6423 63.2689 73.6835 63.0606 73.7246C62.9894 73.7391 62.9182 73.7537 62.8449 73.7686C62.4271 73.8505 62.0393 73.9079 61.6133 73.877C61.461 73.7246 61.461 73.7246 61.4253 73.5336C61.4783 73.1388 61.6741 72.8513 61.8799 72.5154C61.9199 72.4484 61.9599 72.3814 62.001 72.3125C62.0994 72.1479 62.1987 71.9839 62.2989 71.8203Z" fill="#F6FAFD"/>
<path d="M73.2676 71.8203C73.5397 72.0649 73.7148 72.3417 73.8913 72.6582C73.9183 72.7051 73.9454 72.7521 73.9733 72.8004C74.2295 73.2535 74.2295 73.2535 74.2579 73.4961C74.1865 73.7056 74.1865 73.7056 74.0294 73.877C73.5559 73.9122 73.1285 73.8328 72.6678 73.7294C72.5703 73.7085 72.5703 73.7085 72.4708 73.6873C71.9962 73.584 71.9962 73.584 71.8204 73.4961C71.8083 73.5433 71.7962 73.5906 71.7838 73.6392C71.6679 74.0792 71.5401 74.5149 71.4014 74.9481C71.3861 74.998 71.3708 75.0479 71.355 75.0993C71.2655 75.3731 71.2302 75.4637 70.9825 75.6289C70.7584 75.628 70.7584 75.628 70.5254 75.5527C70.3663 75.3608 70.3663 75.3608 70.2255 75.11C70.2004 75.066 70.1753 75.0219 70.1494 74.9766C70.0971 74.8848 70.0453 74.7928 69.9941 74.7004C69.9182 74.5663 69.8372 74.4352 69.756 74.3042C69.7067 74.2245 69.6574 74.1448 69.6066 74.0626C69.5393 73.9541 69.5393 73.9541 69.4706 73.8433C69.3829 73.6484 69.3829 73.6484 69.3969 73.4863C69.519 73.2063 69.64 73.0159 69.9161 72.8867C70.1549 72.8962 70.3806 72.929 70.6155 72.9711C71.3658 73.1025 71.9587 72.9288 72.5821 72.5059C72.8526 72.3093 73.0809 72.1003 73.2676 71.8203Z" fill="#F6FAFD"/>
<path d="M69.7922 40.0518C70.0687 40.1637 70.1174 40.3253 70.2362 40.5891C70.286 40.7147 70.3303 40.8424 70.373 40.9706C70.6217 41.0949 70.8957 41.0771 71.1704 41.0941C71.3633 41.1229 71.3633 41.1229 71.5156 41.2753C71.5465 41.4547 71.5465 41.4547 71.5156 41.6561C71.3656 41.8266 71.3656 41.8266 71.1728 41.9846C71.1092 42.0377 71.0456 42.0909 70.98 42.1456C70.9305 42.1852 70.881 42.2247 70.8301 42.2655C70.8411 42.3106 70.8521 42.3556 70.8634 42.4021C71.0162 43.0528 71.0162 43.0528 70.9824 43.3319C70.8301 43.4843 70.8301 43.4843 70.6301 43.5176C70.2786 43.472 70.0485 43.3058 69.7636 43.1034C69.6974 43.1446 69.6974 43.1446 69.6298 43.1867C69.2829 43.3928 69.0379 43.5377 68.6211 43.4843C68.465 43.1732 68.471 43.022 68.5735 42.694C68.6295 42.4766 68.6295 42.4766 68.6211 42.2655C68.484 42.0867 68.3455 41.9801 68.1578 41.8567C68.0117 41.7323 68.0117 41.7323 67.9394 41.5413C67.9355 41.3514 67.9355 41.3514 68.0132 41.2167C68.2308 41.0814 68.4193 41.0831 68.6734 41.0706C68.8082 41.063 68.8082 41.063 68.9457 41.0554C69.0489 41.0511 69.0489 41.0511 69.1543 41.0468C69.1646 40.9898 69.1749 40.9329 69.1855 40.8742C69.2442 40.6022 69.3383 40.3836 69.459 40.1327C69.6113 40.0565 69.6113 40.0565 69.7922 40.0518Z" fill="#F6FAFD"/>
</svg>
