<svg width="41" height="41" viewBox="0 0 41 41" fill="none" xmlns="http://www.w3.org/2000/svg">
<g clip-path="url(#clip0_1_177)">
<path d="M26.5709 0.460369C26.6258 0.460315 26.6807 0.460261 26.7373 0.460205C27.6654 0.46165 28.5602 0.522535 29.4688 0.720623C29.562 0.740597 29.562 0.740597 29.6572 0.760975C33.1409 1.53258 36.3068 3.67626 38.2651 6.66955C39.7444 8.99346 40.5371 11.5615 40.5396 14.3189C40.5396 14.3738 40.5397 14.4287 40.5397 14.4853C40.5383 15.4134 40.4774 16.3082 40.2793 17.2167C40.266 17.2789 40.2527 17.3411 40.2389 17.4052C39.6906 19.8811 38.492 22.1722 36.7137 23.9823C36.5978 24.1012 36.485 24.2225 36.3724 24.3446C35.1367 25.6612 33.5269 26.613 31.8711 27.3066C31.8182 27.3066 31.7654 27.3066 31.7109 27.3066C31.7109 27.3594 31.7109 27.4123 31.7109 27.4667C31.8441 27.5208 31.9777 27.574 32.1113 27.6269C32.2022 27.6698 32.293 27.7128 32.3866 27.757C32.9676 27.9765 33.6768 27.9264 34.2734 27.787C34.6245 28.4365 34.879 29.077 35.0742 29.789C35.022 29.8211 34.9698 29.8532 34.9159 29.8863C34.254 30.3168 33.8451 30.7808 33.6328 31.5507C33.5471 32.3915 33.6443 33.1042 34.1733 33.7779C34.4333 34.0592 34.7406 34.2498 35.0742 34.4335C34.8559 35.1303 34.6284 35.7936 34.2734 36.4355C34.2184 36.4228 34.1634 36.4101 34.1067 36.397C33.2619 36.2466 32.5278 36.3281 31.7945 36.7702C31.2859 37.1447 30.9418 37.8206 30.8301 38.4374C30.8228 38.5507 30.8197 38.6643 30.8201 38.7778C30.8198 38.8626 30.8198 38.8626 30.8194 38.9492C30.834 39.2349 30.8725 39.5151 30.9102 39.7988C30.7201 39.8892 30.5299 39.9792 30.3396 40.069C30.2863 40.0944 30.2331 40.1198 30.1782 40.146C29.7567 40.3443 29.3821 40.5195 28.9082 40.5195C28.7825 40.3612 28.7825 40.3612 28.658 40.1491C28.2995 39.6072 27.8354 39.3046 27.2115 39.1281C26.3794 38.9917 25.6773 39.1678 24.9884 39.6524C24.7113 39.8994 24.5257 40.1984 24.3438 40.5195C23.8891 40.4766 23.5306 40.3497 23.1176 40.1591C23.0603 40.1334 23.0031 40.1077 22.9441 40.0812C22.7418 39.9901 22.5403 39.898 22.3418 39.7988C22.3546 39.674 22.3546 39.674 22.3678 39.5466C22.4514 38.6295 22.3969 37.9343 21.8457 37.1596C21.4236 36.6818 20.8595 36.3793 20.2219 36.3369C20.1271 36.3381 20.0322 36.3392 19.9344 36.3404C19.8394 36.3409 19.7443 36.3414 19.6464 36.3419C19.414 36.3536 19.2043 36.3821 18.9785 36.4355C18.3257 35.1886 18.3257 35.1886 18.1777 34.5937C18.2742 34.3043 18.343 34.2836 18.5981 34.1332C19.1226 33.7944 19.4014 33.3915 19.5785 32.7932C19.7487 31.95 19.5765 31.2483 19.1237 30.5297C18.8744 30.1998 18.5288 29.9978 18.1777 29.789C18.3343 29.0584 18.6301 28.4408 18.9785 27.787C19.0335 27.7997 19.0886 27.8124 19.1452 27.8255C19.8973 27.9594 20.6279 27.9277 21.3008 27.5468C21.3536 27.4939 21.4065 27.4411 21.4609 27.3866C21.3794 27.3506 21.2978 27.3146 21.2138 27.2775C20.5614 26.9832 19.9349 26.6641 19.3239 26.2906C19.2645 26.2545 19.2052 26.2184 19.144 26.1811C18.8755 26.014 18.6308 25.8461 18.3964 25.6334C18.2035 25.4464 18.2035 25.4464 18.0256 25.4741C17.8042 25.5673 17.6788 25.6964 17.5108 25.868C17.4148 25.9651 17.4148 25.9651 17.3169 26.0643C17.2508 26.1323 17.1848 26.2004 17.1167 26.2706C17.0494 26.3389 16.9821 26.4073 16.9128 26.4778C16.7466 26.6467 16.5811 26.8162 16.416 26.9863C16.4334 27.045 16.4507 27.1038 16.4686 27.1643C16.502 27.2813 16.502 27.2813 16.5361 27.4007C16.5696 27.5161 16.5696 27.5161 16.6037 27.6339C16.7124 28.1162 16.6652 28.4975 16.4371 28.9339C16.0861 29.4838 15.5919 29.9265 15.1321 30.3845C15.0249 30.4922 14.9176 30.6 14.8104 30.7079C14.5203 30.9994 14.2294 31.2902 13.9383 31.5809C13.6951 31.8238 13.4523 32.0672 13.2094 32.3105C12.6366 32.8845 12.0631 33.4579 11.4892 34.0308C10.8975 34.6216 10.3068 35.2134 9.71668 35.8057C9.20937 36.3148 8.70145 36.8232 8.19302 37.3312C7.8896 37.6343 7.58642 37.9377 7.28384 38.2417C6.99942 38.5273 6.71424 38.8122 6.42845 39.0965C6.32381 39.2008 6.21945 39.3054 6.11537 39.4103C5.97307 39.5537 5.82982 39.696 5.68628 39.8382C5.6455 39.8797 5.60472 39.9213 5.5627 39.9641C5.17147 40.3474 4.75978 40.5544 4.2041 40.5495C3.06376 40.5076 2.33676 39.5102 1.57153 38.7577C1.50144 38.6906 1.43135 38.6235 1.35914 38.5544C0.882549 38.0844 0.556061 37.6637 0.437927 36.9957C0.438753 36.9281 0.439579 36.8605 0.44043 36.7908C0.439604 36.723 0.438778 36.6552 0.437927 36.5853C0.541569 36.0252 0.857735 35.6103 1.2556 35.2198C1.32319 35.1516 1.32319 35.1516 1.39215 35.0819C1.542 34.931 1.69296 34.7812 1.84395 34.6314C1.95216 34.5229 2.06029 34.4143 2.16837 34.3057C2.46115 34.0118 2.75492 33.7189 3.04891 33.4262C3.35677 33.1195 3.66382 32.8119 3.97099 32.5045C4.48675 31.9885 5.00316 31.4732 5.51996 30.9582C6.11723 30.3631 6.7135 29.767 7.30924 29.1703C7.88281 28.5958 8.45707 28.0221 9.03164 27.4486C9.27598 27.2048 9.52008 26.9607 9.76399 26.7164C10.0512 26.4288 10.339 26.1418 10.6273 25.8553C10.7329 25.7501 10.8383 25.6447 10.9435 25.5391C11.0873 25.3948 11.2317 25.2514 11.3764 25.1081C11.4178 25.0662 11.4592 25.0244 11.5018 24.9812C11.9188 24.5714 12.326 24.3806 12.9024 24.3399C13.1545 24.344 13.3583 24.3927 13.5998 24.4632C13.6777 24.4856 13.7557 24.5079 13.8359 24.531C13.8946 24.5485 13.9532 24.5659 14.0137 24.5839C14.2705 24.3386 14.5252 24.0911 14.7794 23.8432C14.8893 23.7384 14.8893 23.7384 15.0014 23.6314C15.0703 23.5638 15.1392 23.4962 15.2102 23.4265C15.2743 23.3645 15.3385 23.3024 15.4046 23.2385C15.5549 23.0758 15.5549 23.0758 15.5229 22.8903C15.433 22.6938 15.3137 22.5415 15.1798 22.3717C14.4081 21.3295 13.8845 20.1818 13.4373 18.9697C13.3695 18.7968 13.3695 18.7968 13.2129 18.578C13.1621 18.5954 13.1113 18.6127 13.059 18.6306C11.7109 19.0328 10.238 18.9189 8.98376 18.2778C7.57263 17.4432 6.7524 16.3051 6.32617 14.7343C6.09142 13.3819 6.28969 11.9554 7.06689 10.8055C7.16553 10.6726 7.26563 10.5407 7.36719 10.4101C7.41312 10.349 7.45906 10.2879 7.50639 10.2249C8.27964 9.27116 9.45373 8.6925 10.6504 8.4882C10.8978 8.46586 11.1428 8.46148 11.3911 8.46318C11.457 8.4634 11.523 8.46362 11.5909 8.46384C12.1543 8.4734 12.6727 8.56755 13.2129 8.72844C13.3159 8.75794 13.4189 8.78735 13.5219 8.81665C13.6049 8.84039 13.6879 8.86413 13.7734 8.88859C13.7943 8.84511 13.8152 8.80162 13.8368 8.75682C14.2469 7.90813 14.6534 7.08628 15.2148 6.32609C15.2749 6.24238 15.335 6.15866 15.3969 6.07241C17.6738 2.98473 21.069 1.10705 24.8287 0.535442C25.4069 0.460041 25.9886 0.460886 26.5709 0.460369ZM24.6641 30.5097C24.2158 31.1542 23.9986 31.8424 24.1379 32.6249C24.3319 33.3985 24.7781 33.9118 25.4401 34.3381C26.0487 34.6522 26.7047 34.6972 27.3695 34.5414C28.0603 34.2927 28.5151 33.8915 28.8632 33.2474C29.1707 32.5752 29.2469 31.9319 28.9883 31.2304C28.6691 30.5295 28.191 30.0348 27.4868 29.7139C26.4401 29.3803 25.3798 29.6983 24.6641 30.5097Z" fill="#EB3135"/>
<path d="M33.5527 6.08596C33.5954 6.12205 33.6381 6.15814 33.682 6.19532C34.7913 7.14083 35.6143 8.23431 36.2754 9.52932C36.3197 9.61375 36.364 9.69819 36.4096 9.78519C37.6265 12.2443 37.7611 15.2114 36.8939 17.803C36.4348 19.0839 35.7969 20.2647 34.9141 21.3008C34.8548 21.3712 34.7956 21.4416 34.7345 21.5141C33.7888 22.6012 32.6971 23.4156 31.4257 24.0785C31.3471 24.1207 31.3471 24.1207 31.2669 24.1638C30.8034 24.3952 30.543 24.3274 30.0687 24.1711C29.9731 24.1356 29.8775 24.1001 29.7791 24.0635C29.3498 23.9029 29.3498 23.9029 28.9082 23.7832C28.89 23.8394 28.8719 23.8955 28.8532 23.9534C28.6058 24.4951 28.2234 24.7933 27.707 25.0645C27.0466 25.2846 26.0873 25.2652 25.4276 25.057C24.9259 24.7663 24.5811 24.3394 24.2637 23.8633C23.7861 23.8959 23.4174 24.0599 22.9874 24.2668C22.5813 24.3943 22.2876 24.3093 21.9036 24.1439C21.8071 24.0932 21.7113 24.0413 21.6161 23.9884C21.5644 23.9601 21.5127 23.9318 21.4594 23.9027C18.6593 22.3322 16.9862 19.852 16.0848 16.8318C15.9025 16.1581 16.0938 15.6401 16.3206 15.0059C16.6507 14.0665 16.6256 12.9333 16.2302 12.0211C16.0978 11.4139 16.3826 10.7873 16.6212 10.235C16.6492 10.1697 16.6772 10.1043 16.706 10.037C17.1237 9.08756 17.6564 8.23145 18.3379 7.44728C18.3947 7.38081 18.4514 7.31433 18.5099 7.24584C19.8104 5.75825 21.4372 4.70649 23.3027 4.084C23.3932 4.05262 23.4836 4.02124 23.5768 3.98891C26.9367 2.91624 30.9021 3.79841 33.5527 6.08596Z" fill="#E7F0F7"/>
<path d="M24.3438 23.8634C24.4773 24.012 24.4773 24.012 24.599 24.1987C24.9173 24.619 25.1905 24.9084 25.7051 25.0646C26.0023 25.1017 26.2966 25.1118 26.5959 25.1146C26.6714 25.1155 26.7469 25.1164 26.8246 25.1173C27.4926 25.1036 28.0244 24.8943 28.5078 24.4239C28.6523 24.2164 28.7829 24.0029 28.9082 23.7833C29.54 23.8086 30.3746 24.0486 30.8301 24.504C30.8334 24.7311 30.8291 24.9531 30.8201 25.1797C30.8056 25.893 30.9206 26.4286 31.2805 27.0515C31.8624 27.5875 32.5247 27.8918 33.3175 27.8823C33.4126 27.8818 33.5076 27.8813 33.6056 27.8808C33.8379 27.8691 34.0476 27.8406 34.2734 27.7872C34.6245 28.4367 34.879 29.0772 35.0742 29.7892C35.022 29.8213 34.9698 29.8534 34.9159 29.8865C34.254 30.317 33.8451 30.7809 33.6328 31.5509C33.5471 32.3917 33.6443 33.1044 34.1733 33.7781C34.4333 34.0594 34.7406 34.25 35.0742 34.4337C34.8559 35.1304 34.6284 35.7937 34.2734 36.4357C34.2184 36.423 34.1634 36.4103 34.1067 36.3972C33.2619 36.2468 32.5278 36.3283 31.7945 36.7704C31.2859 37.1449 30.9418 37.8208 30.8301 38.4376C30.8228 38.5509 30.8197 38.6645 30.8201 38.7779C30.8199 38.8345 30.8197 38.8911 30.8194 38.9494C30.834 39.2351 30.8725 39.5153 30.9102 39.7989C30.7201 39.8894 30.5299 39.9794 30.3396 40.0692C30.2863 40.0946 30.2331 40.12 30.1782 40.1462C29.7567 40.3445 29.3821 40.5196 28.9082 40.5196C28.7825 40.3614 28.7825 40.3614 28.658 40.1493C28.2995 39.6074 27.8354 39.3048 27.2115 39.1283C26.3794 38.9919 25.6773 39.168 24.9884 39.6525C24.7113 39.8996 24.5257 40.1986 24.3438 40.5196C23.8891 40.4767 23.5306 40.3499 23.1176 40.1593C23.0603 40.1336 23.0031 40.1079 22.9441 40.0814C22.7418 39.9903 22.5403 39.8982 22.3418 39.7989C22.3504 39.7157 22.3589 39.6325 22.3678 39.5468C22.4514 38.6297 22.3969 37.9345 21.8457 37.1598C21.4236 36.6819 20.8595 36.3794 20.2219 36.3371C20.1271 36.3383 20.0322 36.3394 19.9344 36.3406C19.7918 36.3413 19.7918 36.3413 19.6464 36.3421C19.414 36.3538 19.2043 36.3823 18.9785 36.4357C18.3257 35.1888 18.3257 35.1888 18.1777 34.5939C18.2742 34.3045 18.343 34.2838 18.5981 34.1334C19.1226 33.7946 19.4014 33.3917 19.5785 32.7934C19.7487 31.9502 19.5765 31.2485 19.1237 30.5299C18.8744 30.2 18.5288 29.998 18.1777 29.7892C18.3343 29.0586 18.6301 28.441 18.9785 27.7872C19.061 27.8063 19.061 27.8063 19.1452 27.8257C19.9078 27.9615 20.6173 27.9194 21.3008 27.547C21.3534 27.5189 21.4061 27.4908 21.4603 27.4619C21.8706 27.2084 22.0646 26.8571 22.2617 26.4259C22.2914 26.3649 22.3212 26.3039 22.3518 26.241C22.443 25.9604 22.4401 25.7145 22.4369 25.4199C22.4361 25.2637 22.4361 25.2637 22.4353 25.1043C22.4249 24.8864 22.4073 24.71 22.3418 24.504C22.5184 24.4135 22.6953 24.3235 22.8723 24.2338C22.9218 24.2084 22.9712 24.183 23.0221 24.1568C23.9216 23.7023 23.9216 23.7023 24.3438 23.8634ZM24.6641 30.5099C24.2158 31.1544 23.9986 31.8426 24.1379 32.6251C24.3319 33.3987 24.7781 33.912 25.4401 34.3383C26.0487 34.6524 26.7047 34.6974 27.3695 34.5416C28.0603 34.2929 28.5151 33.8917 28.8632 33.2476C29.1707 32.5754 29.2469 31.9321 28.9883 31.2306C28.6691 30.5297 28.191 30.035 27.4868 29.7141C26.4401 29.3805 25.3798 29.6985 24.6641 30.5099Z" fill="#0E9B4A"/>
<path d="M26.5709 0.460369C26.6258 0.460315 26.6807 0.460261 26.7373 0.460205C27.6654 0.46165 28.5602 0.522535 29.4688 0.720623C29.5309 0.733939 29.5931 0.747255 29.6572 0.760975C33.1409 1.53258 36.3068 3.67626 38.2651 6.66955C39.7444 8.99346 40.5371 11.5615 40.5396 14.3189C40.5396 14.3738 40.5397 14.4287 40.5397 14.4853C40.5383 15.4134 40.4774 16.3082 40.2793 17.2167C40.266 17.2789 40.2527 17.3411 40.2389 17.4052C39.6906 19.8811 38.492 22.1722 36.7137 23.9823C36.5978 24.1012 36.485 24.2225 36.3724 24.3446C35.436 25.3423 34.2831 26.1184 33.0723 26.746C32.9862 26.7918 32.9862 26.7918 32.8983 26.8385C32.7155 26.935 32.5313 27.0286 32.3466 27.1214C32.2893 27.1515 32.2321 27.1816 32.1731 27.2127C32.0084 27.2925 32.0084 27.2925 31.7109 27.3866C31.4125 27.2749 31.2576 27.1157 31.0953 26.8461C31.0636 26.7953 31.032 26.7445 30.9993 26.6922C30.7605 26.1928 30.7304 25.7404 30.745 25.1995C30.777 24.7586 30.777 24.7586 30.6699 24.3437C30.7494 24.3058 30.8289 24.2679 30.9108 24.2289C32.1007 23.6534 33.1305 22.9865 34.1133 22.1015C34.1665 22.054 34.2198 22.0065 34.2747 21.9576C36.1236 20.2124 37.2515 17.4488 37.3389 14.9342C37.3948 12.1869 36.6599 9.55945 34.834 7.44719C34.7833 7.38678 34.7833 7.38678 34.7315 7.32515C33.615 5.99912 32.1767 5.07861 30.5898 4.40422C30.5029 4.36706 30.416 4.32989 30.3265 4.29161C28.9476 3.7519 27.4942 3.60749 26.0254 3.68351C25.9248 3.68816 25.9248 3.68816 25.8221 3.6929C24.7705 3.74832 23.8141 3.97583 22.8223 4.32414C22.7344 4.35459 22.6466 4.38504 22.5561 4.41642C20.0761 5.36713 17.9723 7.41089 16.8806 9.82122C16.5184 10.6591 16.5184 10.6591 16.2559 11.5312C16.203 11.5312 16.1502 11.5312 16.0957 11.5312C16.0069 11.3893 15.9246 11.2432 15.8455 11.0957C15.3891 10.296 14.8583 9.7909 14.0938 9.28898C13.9864 9.20972 13.8794 9.12991 13.7734 9.04875C14.0953 7.95306 14.7726 6.90964 15.4551 6.00578C15.5316 5.9025 15.5316 5.9025 15.6096 5.79714C17.9098 2.8391 21.2977 0.995881 24.9966 0.513546C25.5197 0.459811 26.0455 0.460835 26.5709 0.460369Z" fill="#EB3135"/>
<path d="M13.9336 24.6641C13.9336 24.717 13.9336 24.7698 13.9336 24.8243C13.9762 24.8411 14.0188 24.858 14.0628 24.8754C14.3288 25.0271 14.533 25.2343 14.7497 25.4477C14.7967 25.4937 14.8436 25.5398 14.892 25.5872C14.9911 25.6848 15.09 25.7826 15.1886 25.8807C15.3386 26.0291 15.4902 26.1758 15.642 26.3224C15.7384 26.4178 15.8347 26.5133 15.9309 26.6088C15.9759 26.6519 16.021 26.695 16.0674 26.7393C16.4473 27.1236 16.6279 27.5513 16.6763 28.0903C16.6697 28.1504 16.6631 28.2106 16.6562 28.2726C16.6513 28.333 16.6463 28.3934 16.6412 28.4556C16.3972 29.2522 15.7046 29.8144 15.1321 30.3846C15.0249 30.4924 14.9176 30.6002 14.8104 30.708C14.5203 30.9996 14.2294 31.2904 13.9383 31.581C13.6951 31.824 13.4523 32.0673 13.2094 32.3106C12.6366 32.8846 12.0631 33.458 11.4892 34.031C10.8975 34.6217 10.3068 35.2135 9.71668 35.8058C9.20937 36.3149 8.70145 36.8234 8.19302 37.3313C7.8896 37.6345 7.58643 37.9378 7.28384 38.2418C6.99942 38.5274 6.71424 38.8123 6.42845 39.0966C6.32381 39.2009 6.21945 39.3056 6.11537 39.4105C5.97307 39.5538 5.82982 39.6962 5.68628 39.8383C5.6455 39.8798 5.60472 39.9214 5.5627 39.9642C5.17147 40.3476 4.75978 40.5545 4.2041 40.5496C3.06376 40.5077 2.33676 39.5104 1.57153 38.7579C1.50144 38.6908 1.43135 38.6237 1.35914 38.5545C0.882549 38.0845 0.556061 37.6638 0.437927 36.9958C0.438753 36.9282 0.439579 36.8606 0.44043 36.7909C0.439604 36.7231 0.438778 36.6553 0.437927 36.5854C0.541569 36.0253 0.857735 35.6105 1.2556 35.2199C1.30066 35.1744 1.34572 35.1289 1.39215 35.082C1.542 34.9311 1.69296 34.7813 1.84395 34.6315C1.95216 34.523 2.06029 34.4145 2.16837 34.3058C2.46115 34.0119 2.75492 33.719 3.04891 33.4264C3.35677 33.1196 3.66382 32.8121 3.97099 32.5046C4.48675 31.9886 5.00316 31.4733 5.51996 30.9584C6.11723 30.3632 6.7135 29.7671 7.30924 29.1704C7.88281 28.596 8.45707 28.0222 9.03164 27.4488C9.27598 27.2049 9.52008 26.9608 9.76399 26.7165C10.0512 26.4289 10.339 26.1419 10.6273 25.8554C10.7329 25.7502 10.8383 25.6448 10.9435 25.5392C11.0873 25.395 11.2317 25.2515 11.3764 25.1082C11.4178 25.0664 11.4592 25.0245 11.5018 24.9814C12.2093 24.2861 13.0769 24.1589 13.9336 24.6641Z" fill="#474747"/>
<path d="M27.2396 5.74029C27.9124 5.75037 28.5114 5.8775 29.1484 6.08598C29.2285 6.11172 29.2285 6.11172 29.3101 6.13799C31.291 6.7896 32.9368 8.0607 34.0332 9.84965C34.0761 9.91964 34.0761 9.91964 34.1199 9.99104C34.582 10.7615 34.8532 11.5439 35.0742 12.4122C35.1871 10.2855 34.6301 8.277 33.518 6.46635C33.4109 6.27837 33.3485 6.13685 33.3125 5.92583C35.2716 7.28705 36.603 9.55851 37.1562 11.8516C37.1701 11.9079 37.184 11.9642 37.1984 12.0222C37.865 14.8582 37.2147 17.807 35.7148 20.2598C35.4716 20.627 35.1997 20.9656 34.9141 21.3008C34.8548 21.3712 34.7956 21.4416 34.7345 21.5142C33.7888 22.6012 32.6971 23.4156 31.4257 24.0785C31.3733 24.1067 31.3208 24.1348 31.2669 24.1638C30.8034 24.3953 30.543 24.3275 30.0687 24.1711C29.9731 24.1356 29.8775 24.1001 29.7791 24.0635C29.3498 23.903 29.3498 23.903 28.9082 23.7832C28.89 23.8394 28.8719 23.8956 28.8531 23.9534C28.6058 24.4952 28.2234 24.7934 27.707 25.0645C27.0466 25.2846 26.0873 25.2652 25.4276 25.057C24.9259 24.7663 24.5811 24.3395 24.2637 23.8633C23.7861 23.8959 23.4174 24.0599 22.9874 24.2668C22.5813 24.3943 22.2876 24.3094 21.9036 24.1439C21.8071 24.0932 21.7113 24.0414 21.6161 23.9884C21.5644 23.9601 21.5127 23.9318 21.4594 23.9027C20.1493 23.1679 19.0818 22.1863 18.0977 21.0606C18.4233 21.0606 18.6271 21.2185 18.8984 21.3809C20.6571 22.3921 22.3932 22.8568 24.4188 22.8623C24.5065 22.8629 24.5065 22.8629 24.5959 22.8635C25.7154 22.8663 26.7945 22.72 27.8522 22.3368C27.9183 22.3132 27.9845 22.2895 28.0527 22.2652C29.505 21.7254 30.7477 20.9222 31.8711 19.8594C31.9371 19.7986 32.003 19.7378 32.071 19.6752C33.436 18.3741 34.3282 16.6153 34.834 14.8145C34.7831 14.7926 34.7322 14.7707 34.6798 14.7482C34.5137 14.6543 34.5137 14.6543 34.4186 14.4341C34.3496 14.1486 34.3384 13.866 34.3235 13.5733C34.1936 11.5576 33.1244 9.72915 31.6309 8.40825C30.2068 7.24479 28.4682 6.66969 26.646 6.6018C26.4258 6.56645 26.4258 6.56645 26.2744 6.45916C26.1855 6.32622 26.1855 6.32622 26.2056 6.07597C26.3318 5.59215 26.8155 5.74101 27.2396 5.74029Z" fill="#D0D8DE"/>
<path d="M26.5709 0.460369C26.6258 0.460315 26.6807 0.460261 26.7373 0.460205C27.6654 0.46165 28.5602 0.522535 29.4688 0.720623C29.5309 0.733939 29.5931 0.747255 29.6572 0.760975C30.616 0.973349 31.5173 1.29919 32.4171 1.68985C32.6079 1.7713 32.6079 1.7713 32.878 1.85048C33.4064 2.03719 33.6248 2.31101 33.8748 2.79452C34.0501 3.16493 34.2039 3.54238 34.3535 3.92375C34.3807 3.99013 34.4078 4.05652 34.4358 4.12492C35.5673 6.91456 35.5673 6.91456 35.2344 7.92765C35.1457 7.8202 35.1457 7.8202 35.0551 7.71057C33.1702 5.45276 30.6453 4.00416 27.707 3.68351C27.1452 3.64297 26.5874 3.65442 26.0254 3.68351C25.9248 3.68816 25.9248 3.68816 25.8221 3.6929C24.7705 3.74832 23.8141 3.97583 22.8223 4.32414C22.7344 4.35459 22.6466 4.38504 22.5561 4.41642C20.0761 5.36713 17.9723 7.41089 16.8806 9.82122C16.5184 10.6591 16.5184 10.6591 16.2559 11.5312C16.203 11.5312 16.1502 11.5312 16.0957 11.5312C16.0069 11.3893 15.9246 11.2432 15.8455 11.0957C15.3891 10.296 14.8583 9.7909 14.0938 9.28898C13.9864 9.20972 13.8794 9.12991 13.7734 9.04875C14.0953 7.95306 14.7726 6.90964 15.4551 6.00578C15.5316 5.9025 15.5316 5.9025 15.6096 5.79714C17.9098 2.8391 21.2977 0.995881 24.9966 0.513546C25.5197 0.459811 26.0455 0.460835 26.5709 0.460369Z" fill="#EB3135"/>
<path d="M32.1113 27.707C32.1939 27.7335 32.2765 27.7599 32.3616 27.7871C32.9719 27.9411 33.662 27.931 34.2734 27.7871C34.6245 28.4366 34.879 29.0771 35.0742 29.7891C35.022 29.8212 34.9698 29.8533 34.9159 29.8863C34.254 30.3169 33.8451 30.7808 33.6328 31.5508C33.5471 32.3916 33.6443 33.1043 34.1733 33.778C34.4333 34.0593 34.7406 34.2498 35.0742 34.4336C34.8559 35.1303 34.6284 35.7936 34.2734 36.4355C34.1909 36.4165 34.1909 36.4165 34.1067 36.3971C33.2619 36.2467 32.5278 36.3282 31.7945 36.7702C31.2859 37.1448 30.9418 37.8206 30.8301 38.4375C30.8228 38.5508 30.8197 38.6643 30.8201 38.7778C30.8199 38.8344 30.8197 38.891 30.8194 38.9492C30.834 39.235 30.8725 39.5152 30.9102 39.7988C30.7201 39.8893 30.5299 39.9793 30.3396 40.0691C30.2863 40.0945 30.2331 40.1199 30.1782 40.146C29.7567 40.3444 29.3821 40.5195 28.9082 40.5195C28.7825 40.3613 28.7825 40.3613 28.658 40.1492C28.2995 39.6073 27.8354 39.3047 27.2115 39.1282C26.3794 38.9918 25.6773 39.1679 24.9884 39.6524C24.7113 39.8995 24.5257 40.1985 24.3438 40.5195C23.8891 40.4766 23.5306 40.3498 23.1176 40.1592C23.0317 40.1206 23.0317 40.1206 22.9441 40.0813C22.7418 39.9901 22.5403 39.8981 22.3418 39.7988C22.3504 39.7156 22.3589 39.6324 22.3678 39.5467C22.4474 38.6726 22.3998 38.0592 21.9317 37.2933C21.8885 37.2223 21.8453 37.1513 21.8008 37.0782C21.7679 37.0247 21.7351 36.9711 21.7012 36.916C21.7502 36.9157 21.7992 36.9154 21.8496 36.915C24.3505 36.8859 26.7538 36.2826 28.668 34.5938C28.7393 34.5339 28.8106 34.474 28.8841 34.4123C30.8784 32.6878 31.8031 30.266 32.1113 27.707Z" fill="#0B8A40"/>
<path d="M15.9355 16.0156C15.962 16.0156 15.9884 16.0156 16.0156 16.0156C16.0274 16.0798 16.0392 16.144 16.0513 16.2102C16.6181 19.0832 18.1317 21.6109 20.577 23.2762C21.2139 23.6923 21.8789 24.0538 22.582 24.3438C22.5292 24.423 22.4763 24.5023 22.4219 24.584C22.4483 24.6633 22.4747 24.7425 22.502 24.8242C22.553 25.5226 22.5622 26.1372 22.1816 26.7461C22.148 26.8006 22.1143 26.8551 22.0797 26.9113C21.8267 27.2915 21.8267 27.2915 21.541 27.3867C21.318 27.3083 21.1099 27.2241 20.8954 27.1265C20.8321 27.098 20.7689 27.0695 20.7037 27.0402C19.9014 26.6681 19.0554 26.2309 18.3967 25.6334C18.2037 25.447 18.2037 25.447 18.0266 25.4731C17.7982 25.5701 17.6669 25.7085 17.4933 25.8856C17.4257 25.954 17.3581 26.0223 17.2884 26.0928C17.2185 26.1647 17.1487 26.2366 17.0767 26.3107C17.0055 26.3829 16.9344 26.4551 16.8611 26.5295C16.6855 26.7079 16.5105 26.8869 16.3359 27.0664C15.8285 26.6488 15.3705 26.1877 14.9095 25.7201C14.7591 25.5675 14.6084 25.4152 14.4575 25.2631C14.3915 25.1961 14.3255 25.1291 14.2574 25.0601C14.1058 24.9006 14.1058 24.9006 13.9336 24.8242C14.0521 24.5457 14.2083 24.3754 14.4275 24.1686C14.4924 24.106 14.5573 24.0435 14.6241 23.979C14.7615 23.848 14.8994 23.7175 15.0376 23.5874C15.1345 23.4936 15.1345 23.4936 15.2333 23.3978C15.2931 23.3412 15.3529 23.2845 15.4145 23.2261C15.5548 23.0734 15.5548 23.0734 15.5215 22.8922C15.4336 22.6936 15.3144 22.5425 15.1798 22.3718C14.3428 21.2413 13.6143 19.8749 13.293 18.498C13.3503 18.4638 13.4075 18.4295 13.4666 18.3942C14.9956 17.4845 14.9956 17.4845 15.9355 16.0156Z" fill="#EB3135"/>
<path d="M15.9355 16.0156C15.962 16.0156 15.9884 16.0156 16.0156 16.0156C16.0274 16.0798 16.0392 16.144 16.0513 16.2102C16.5718 18.8485 17.9174 21.4279 20.1797 22.9824C18.8578 23.4231 16.6717 22.3605 15.4851 21.7863C15.421 21.7541 15.3569 21.7219 15.2909 21.6888C15.2317 21.6591 15.1726 21.6294 15.1116 21.5989C15.0598 21.5723 15.0081 21.5456 14.9547 21.5182C14.8026 21.4458 14.8026 21.4458 14.5742 21.4609C13.555 19.4691 13.555 19.4691 13.293 18.498C13.3503 18.4638 13.4075 18.4295 13.4666 18.3942C14.9956 17.4845 14.9956 17.4845 15.9355 16.0156Z" fill="#EB3135"/>
<path d="M27.2397 5.74029C27.9125 5.75037 28.5114 5.8775 29.1484 6.08598C29.2018 6.10314 29.2552 6.1203 29.3101 6.13799C31.291 6.7896 32.9368 8.0607 34.0332 9.84965C34.0618 9.89631 34.0904 9.94297 34.1199 9.99104C34.8643 11.2323 35.2354 12.6178 35.2594 14.0638C35.2615 14.1479 35.2615 14.1479 35.2637 14.2336C35.2635 14.3922 35.2635 14.3922 35.2344 14.6543C34.9942 14.8145 34.9942 14.8145 34.789 14.7945C34.5938 14.7344 34.5938 14.7344 34.4336 14.5743C34.4058 14.4281 34.4058 14.4281 34.3942 14.2505C34.3867 14.1522 34.3867 14.1522 34.379 14.0518C34.3739 13.9814 34.3688 13.9111 34.3635 13.8385C34.1729 11.6953 33.2448 9.83556 31.6309 8.40825C30.2068 7.24479 28.4682 6.66969 26.646 6.6018C26.4258 6.56645 26.4258 6.56645 26.2744 6.45916C26.1856 6.32622 26.1856 6.32622 26.2056 6.07597C26.3318 5.59215 26.8155 5.74101 27.2397 5.74029Z" fill="#ADBBDF"/>
<path d="M15.6152 22.9824C15.9122 23.0814 15.9689 23.1899 16.1558 23.4379C16.4778 23.8429 16.8274 24.1973 17.2068 24.549C17.2592 24.5976 17.3116 24.6462 17.3656 24.6963C17.5777 24.8907 17.7775 25.0645 18.0176 25.2246C17.8964 25.5103 17.7289 25.692 17.509 25.909C17.4408 25.9766 17.3727 26.0443 17.3025 26.1139C17.2313 26.1838 17.1601 26.2537 17.0867 26.3257C17.0148 26.3968 16.943 26.4679 16.869 26.5412C16.6916 26.7166 16.514 26.8917 16.3359 27.0664C15.8285 26.6488 15.3705 26.1877 14.9095 25.7201C14.7591 25.5675 14.6084 25.4152 14.4575 25.2631C14.3915 25.1961 14.3255 25.1291 14.2574 25.0601C14.1058 24.9006 14.1058 24.9006 13.9336 24.8242C14.0548 24.5385 14.2223 24.3568 14.4422 24.1398C14.5103 24.0722 14.5785 24.0046 14.6487 23.9349C14.7199 23.865 14.7911 23.7951 14.8645 23.7231C14.9363 23.652 15.0082 23.5809 15.0822 23.5076C15.2595 23.3322 15.4372 23.1571 15.6152 22.9824Z" fill="#ACB9DE"/>
<path d="M13.0302 12.0613C13.2129 12.0917 13.2129 12.0917 13.363 12.1818C13.4531 12.332 13.4531 12.332 13.4497 12.5471C13.3442 12.9121 13.143 13.1015 12.8769 13.3645C12.8268 13.4152 12.7767 13.4659 12.7251 13.5181C12.6191 13.6247 12.5126 13.7308 12.4056 13.8365C12.2426 13.9979 12.0821 14.1616 11.9216 14.3256C11.8181 14.4292 11.7145 14.5325 11.6107 14.6358C11.5631 14.6847 11.5154 14.7335 11.4663 14.7839C11.1581 15.0837 10.94 15.2195 10.4902 15.2148C10.3397 15.1433 10.3397 15.1433 10.2281 15.0293C10.1869 14.9878 10.1457 14.9464 10.1033 14.9037C10.0625 14.8594 10.0217 14.815 9.97974 14.7694C9.91579 14.7061 9.91579 14.7061 9.85055 14.6416C9.58758 14.3682 9.46055 14.1673 9.44922 13.7734C9.56635 13.5782 9.65206 13.5435 9.86963 13.4831C10.223 13.5634 10.4161 13.829 10.6504 14.0937C10.9667 13.9663 11.1573 13.7593 11.3908 13.515C11.4718 13.4316 11.5529 13.3481 11.634 13.2648C11.7608 13.1335 11.8872 13.002 12.013 12.8698C12.135 12.742 12.2583 12.6154 12.3818 12.489C12.4548 12.4129 12.5278 12.3367 12.6031 12.2583C12.8125 12.0917 12.8125 12.0917 13.0302 12.0613Z" fill="#E8EDF4"/>
<path d="M4.11902 13.1879C4.2194 13.1856 4.31979 13.1833 4.42322 13.1809C4.5673 13.1799 4.5673 13.1799 4.71428 13.1788C4.84674 13.1771 4.84674 13.1771 4.98187 13.1753C5.20508 13.2129 5.20508 13.2129 5.35681 13.3621C5.44531 13.5332 5.44531 13.5332 5.4303 13.7435C5.36523 13.9336 5.36523 13.9336 5.20508 14.0938C4.83275 14.1308 4.45793 14.1197 4.08398 14.1188C3.97911 14.1201 3.87423 14.1214 3.76617 14.1227C3.66625 14.1228 3.56633 14.1228 3.46338 14.1229C3.3713 14.1231 3.27922 14.1234 3.18435 14.1236C3.11127 14.1138 3.03819 14.1039 2.96289 14.0938C2.80273 13.8536 2.80273 13.8536 2.82275 13.5633C2.84257 13.4741 2.86239 13.3849 2.88281 13.293C3.24051 13.1142 3.72622 13.1909 4.11902 13.1879Z" fill="#474747"/>
<path d="M4.56446 10.8105C4.77873 10.9766 4.77873 10.9766 4.98988 11.1858C5.06059 11.2539 5.1313 11.3219 5.20415 11.392C5.39468 11.6513 5.41022 11.7769 5.36524 12.0917C5.23011 12.2469 5.23011 12.2469 5.04493 12.332C4.66403 12.3088 4.48424 12.1393 4.21913 11.8765C4.14842 11.8085 4.07771 11.7405 4.00485 11.6704C3.81433 11.411 3.79879 11.2854 3.84376 10.9706C4.07843 10.7012 4.23647 10.7056 4.56446 10.8105Z" fill="#464646"/>
<path d="M5.04993 15.0447C5.28516 15.1348 5.28516 15.1348 5.36524 15.2149C5.40602 15.5282 5.3938 15.6565 5.20415 15.9146C5.13344 15.9827 5.06273 16.0507 4.98987 16.1208C4.9202 16.1898 4.85052 16.2589 4.77873 16.3301C4.55943 16.5001 4.43824 16.5596 4.16407 16.5762C3.97889 16.4911 3.97889 16.4911 3.84376 16.336C3.81091 16.1127 3.81091 16.1127 3.84376 15.8555C4.0133 15.6363 4.0133 15.6363 4.23414 15.4301C4.3066 15.3611 4.37907 15.292 4.45373 15.2208C4.75337 14.96 4.75337 14.96 5.04993 15.0447Z" fill="#474747"/>
</g>
<defs>
<clipPath id="clip0_1_177">
<rect width="41" height="41" fill="white"/>
</clipPath>
</defs>
</svg>
