<svg width="45" height="45" viewBox="0 0 45 45" fill="none" xmlns="http://www.w3.org/2000/svg">
<path d="M0.249316 0.260547C-0.0831055 0.592969 -0.0831055 0.844531 0.249316 1.17695L0.509863 1.4375H7.17627H13.8427L14.1032 1.69805C14.3188 1.92266 14.3638 2.03945 14.3638 2.40781C14.3638 2.84805 14.3548 2.85703 14.0493 2.91094C13.663 2.98281 13.2048 3.36016 13.0521 3.74648C12.9712 3.92617 12.9263 4.37539 12.9263 4.89648V5.75H15.0825H17.2388V4.89648C17.2388 4.36641 17.1938 3.92617 17.113 3.7375C16.9692 3.37813 16.4841 2.9918 16.0978 2.91094C15.8282 2.85703 15.8192 2.85703 15.7833 2.14727C15.7294 1.2668 15.4329 0.727734 14.7771 0.314453L14.3368 0.044922L7.42783 0.0179689L0.518848 1.19209e-07L0.249316 0.260547Z" fill="#EB3135"/>
<path d="M11.947 7.31341C11.4708 7.57396 11.4978 6.78334 11.4888 22.2994C11.4888 32.7572 11.5157 36.8001 11.5876 36.9619C11.6415 37.0787 11.8122 37.2494 11.9739 37.3302C12.2255 37.465 13.1239 37.474 22.3419 37.447L32.4403 37.4201L32.7458 37.0876L33.0513 36.7462V22.3353C33.0513 11.3474 33.0243 7.86146 32.9435 7.68177C32.7099 7.16068 33.213 7.18763 22.2521 7.18763C14.0493 7.19662 12.1267 7.21459 11.947 7.31341ZM23.3481 9.68529C25.5763 12.9915 27.1396 16.181 27.2743 17.6814C27.3911 18.9841 26.8071 20.5294 25.8278 21.5177C23.4021 23.9345 19.2603 23.2607 17.7868 20.197C16.9333 18.4271 17.086 17.1154 18.4247 14.4201C19.0806 13.1173 19.1524 13.0275 19.5657 13.0275C20.0958 13.0275 20.2575 13.2072 20.3743 13.899C20.5181 14.7165 20.7337 15.4533 20.8325 15.4533C20.9134 15.4533 21.111 14.8333 21.2728 14.0517C21.4345 13.2341 21.5782 11.1228 21.5243 10.1525C21.4704 9.11927 21.5153 8.96654 21.9286 8.71498C22.4048 8.42748 22.5935 8.56224 23.3481 9.68529ZM16.9782 8.88568C17.3017 9.20912 17.3106 9.54154 17.0142 9.83802C16.8075 10.0536 16.7536 10.0626 15.5767 10.0626H14.3638V11.2396V12.4165L14.1032 12.6771C13.7708 13.0095 13.5192 13.0095 13.1868 12.6681L12.9173 12.3986L12.9442 10.9251C12.9712 9.59545 12.9892 9.42474 13.1599 9.19115C13.5192 8.70599 13.8157 8.62513 15.3341 8.62513H16.7177L16.9782 8.88568ZM14.1032 14.6357C14.3548 14.8962 14.3638 14.9232 14.3638 15.8126C14.3638 16.7021 14.3548 16.729 14.1032 16.9896C13.9595 17.1333 13.7528 17.2501 13.645 17.2501C13.5372 17.2501 13.3306 17.1333 13.1868 16.9896C12.9353 16.729 12.9263 16.7021 12.9263 15.8126C12.9263 14.9232 12.9353 14.8962 13.1868 14.6357C13.3306 14.4919 13.5372 14.3751 13.645 14.3751C13.7528 14.3751 13.9595 14.4919 14.1032 14.6357ZM18.4157 24.6982L18.6763 24.9587V28.0314V31.104L18.4157 31.3646C18.272 31.5083 18.0653 31.6251 17.9575 31.6251C17.8497 31.6251 17.6431 31.5083 17.4993 31.3646L17.2388 31.104V28.0314V24.9587L17.4993 24.6982C17.6431 24.5544 17.8497 24.4376 17.9575 24.4376C18.0653 24.4376 18.272 24.5544 18.4157 24.6982ZM22.7282 24.6982L22.9888 24.9587V28.0314V31.104L22.7282 31.3646C22.5845 31.5083 22.3778 31.6251 22.27 31.6251C22.1622 31.6251 21.9556 31.5083 21.8118 31.3646L21.5513 31.104V28.0314V24.9587L21.8118 24.6982C21.9556 24.5544 22.1622 24.4376 22.27 24.4376C22.3778 24.4376 22.5845 24.5544 22.7282 24.6982ZM27.0407 24.6982L27.3013 24.9587V28.0314V31.104L27.0407 31.3646C26.897 31.5083 26.6903 31.6251 26.5825 31.6251C26.4747 31.6251 26.2681 31.5083 26.1243 31.3646L25.8638 31.104V28.0314V24.9587L26.1243 24.6982C26.2681 24.5544 26.4747 24.4376 26.5825 24.4376C26.6903 24.4376 26.897 24.5544 27.0407 24.6982ZM31.3532 33.3232C31.5958 33.5747 31.6138 33.6376 31.6138 34.2935C31.6138 35.4974 31.1735 35.9376 29.9696 35.9376C29.3138 35.9376 29.2509 35.9197 28.9993 35.6771C28.8556 35.5333 28.7388 35.3267 28.7388 35.2189C28.7388 35.1111 28.8556 34.9044 28.9993 34.7607C29.2239 34.5451 29.3317 34.5001 29.7181 34.5001H30.1763V34.0419C30.1763 33.6556 30.2212 33.5478 30.4368 33.3232C30.5806 33.1794 30.7872 33.0626 30.895 33.0626C31.0028 33.0626 31.2095 33.1794 31.3532 33.3232ZM18.4517 34.7247C18.5954 34.8595 18.6763 35.0482 18.6763 35.2189C18.6763 35.5693 18.3259 35.9376 18.0024 35.9376C17.688 35.9376 17.2388 35.4884 17.2388 35.174C17.2388 34.8505 17.6071 34.5001 17.9575 34.5001C18.1282 34.5001 18.3169 34.581 18.4517 34.7247ZM22.7282 34.7607C22.881 34.9224 22.9888 35.1201 22.9888 35.2638C22.9888 35.5872 22.6204 35.9376 22.27 35.9376C22.0993 35.9376 21.9106 35.8568 21.7759 35.713C21.6321 35.5783 21.5513 35.3896 21.5513 35.2189C21.5513 34.8685 21.9017 34.5001 22.2251 34.5001C22.3688 34.5001 22.5665 34.6079 22.7282 34.7607ZM27.0407 34.7607C27.1935 34.9224 27.3013 35.1201 27.3013 35.2638C27.3013 35.5603 26.9239 35.9376 26.6274 35.9376C26.3399 35.9376 25.8638 35.4884 25.8638 35.2189C25.8638 34.9673 26.331 34.5001 26.5825 34.5001C26.6903 34.5001 26.897 34.6169 27.0407 34.7607Z" fill="#EB3135"/>
<path d="M22.9079 12.8208C22.7552 14.3032 22.5036 15.3903 22.1352 16.145C21.7399 16.9356 21.4165 17.2052 20.8145 17.2052C20.2934 17.2052 19.988 16.9985 19.6016 16.3606L19.3141 15.8845L19.1884 16.145C19.1165 16.2798 18.9637 16.6931 18.8559 17.0614C18.4966 18.2384 18.7841 19.4333 19.6645 20.4306L20.0598 20.8618L20.1766 20.4575C20.3653 19.8106 21.3805 18.9122 22.1352 18.7235C22.7641 18.5618 24.4173 20.0083 24.4262 20.7271C24.4352 20.9427 25.1809 20.1341 25.4325 19.6399C25.6841 19.1548 25.8637 18.463 25.8637 17.9778C25.8637 17.1782 25.0641 15.2825 23.7704 13.0274C22.9528 11.5989 23.0337 11.6169 22.9079 12.8208Z" fill="#EB3135"/>
<path d="M21.8657 20.4934C21.695 20.6461 21.5513 20.8348 21.5513 20.9066C21.5513 21.1223 22.0544 21.5625 22.3149 21.5625C22.5845 21.5625 22.9888 21.1941 22.9888 20.9426C22.9888 20.7809 22.4407 20.2148 22.27 20.2148C22.2251 20.2148 22.0454 20.3406 21.8657 20.4934Z" fill="#EB3135"/>
<path d="M12.9443 39.7918C12.9712 40.7352 12.9802 40.7891 13.2497 41.1215C13.4294 41.3461 13.663 41.5079 13.9325 41.5977L14.3458 41.7325L14.3818 42.4243C14.4357 43.2958 14.7322 43.8348 15.388 44.2481L15.8282 44.5176L21.2997 44.5446L26.7712 44.5715L27.0318 44.302C27.3732 43.9696 27.3732 43.718 27.0407 43.3856L26.7802 43.125H21.5064H16.2415L16.0259 42.9004C15.8462 42.7208 15.8013 42.595 15.8013 42.1997C15.8013 41.7055 15.8013 41.7055 16.1157 41.6516C16.5021 41.5797 16.9603 41.2024 17.113 40.8161C17.1939 40.6364 17.2388 40.1872 17.2388 39.6661V38.8125H15.0736H12.9083L12.9443 39.7918Z" fill="#EB3135"/>
<path d="M27.3193 39.7918C27.3462 40.7352 27.3552 40.7891 27.6247 41.1215C27.8044 41.3461 28.038 41.5078 28.3075 41.5977L28.7208 41.7324L28.7568 42.4242C28.8107 43.2957 29.1072 43.8348 29.763 44.248L30.2032 44.5176L37.1122 44.5445L44.0212 44.5625L44.2907 44.302C44.6232 43.9695 44.6232 43.718 44.2907 43.3855L44.0302 43.125H37.3189H30.6165L30.4009 42.9004C30.2212 42.7207 30.1763 42.5949 30.1763 42.1996C30.1763 41.7055 30.1763 41.7055 30.4907 41.6516C30.8771 41.5797 31.3353 41.2023 31.488 40.816C31.5689 40.6363 31.6138 40.1871 31.6138 39.666V38.8125H29.4486H27.2833L27.3193 39.7918Z" fill="#EB3135"/>
</svg>
