<svg width="137" height="51" viewBox="0 0 137 51" fill="none" xmlns="http://www.w3.org/2000/svg">
<path fill-rule="evenodd" clip-rule="evenodd" d="M45.5158 15.7272H55.1789V17.9278H51.6212V29.379H49.2932V17.9278H45.5158V15.7272Z" fill="white"/>
<path fill-rule="evenodd" clip-rule="evenodd" d="M56.3278 19.804H62.14V21.2831H57.5898V23.6866H62.14V25.1964H57.5898V27.6H62.14V29.1407H56.3278V19.804Z" fill="white"/>
<path fill-rule="evenodd" clip-rule="evenodd" d="M65.2974 19.7115H68.8512C69.9837 19.7115 70.9103 20.5712 70.9103 21.6219V23.1319H68.9412V21.9971C68.9412 21.4857 68.4903 21.0673 67.9391 21.0673H66.2095C65.6583 21.0673 65.2074 21.4857 65.2074 21.9971V26.6701C65.2074 27.1815 65.6583 27.5999 66.2095 27.5999H67.9391C68.4903 27.5999 68.9412 27.1815 68.9412 26.6701V25.936H70.9103V27.0453C70.9103 28.096 69.9837 28.9557 68.8512 28.9557H65.2974C64.1649 28.9557 63.2383 28.096 63.2383 27.0453V21.6219C63.2383 20.5712 64.1649 19.7115 65.2974 19.7115Z" fill="white"/>
<path fill-rule="evenodd" clip-rule="evenodd" d="M76.5557 15.5561H82.1209C85.0244 15.5561 87.3998 17.76 87.3998 20.4537V24.3261C87.3998 27.0198 85.0244 29.2238 82.1209 29.2238H76.5557V15.5561ZM79.0929 17.758H82.054C83.5988 17.758 84.8626 18.9306 84.8626 20.3638V24.416C84.8626 25.8492 83.5988 27.0218 82.054 27.0218H79.0929V17.758Z" fill="white"/>
<path fill-rule="evenodd" clip-rule="evenodd" d="M91.9878 19.7987H94.1581L97.1601 29.1754H95.446L94.8968 27.3318H91.1132L90.6051 29.1754H89.0216L91.9878 19.7987ZM91.3162 26.1255L93.0674 21.353L94.657 26.1255H91.3162Z" fill="white"/>
<path fill-rule="evenodd" clip-rule="evenodd" d="M97.893 19.8858H100.942L104.57 27.3531L104.637 19.8858H106.307V29.1775H103.343L99.6395 21.5544L99.5704 29.1775H97.893V19.8858Z" fill="white"/>
<path fill-rule="evenodd" clip-rule="evenodd" d="M107.853 19.7271H109.409V29.0309H107.853V19.7271Z" fill="white"/>
<path fill-rule="evenodd" clip-rule="evenodd" d="M118.19 19.7271H119.747V27.7847H124.491V29.0309H119.747H118.19V27.7847V19.7271Z" fill="white"/>
<path fill-rule="evenodd" clip-rule="evenodd" d="M111.1 19.804H116.912V21.2831H112.362V23.6866H116.912V25.1964H112.362V27.6H116.912V29.1407H111.1V19.804Z" fill="white"/>
<path fill-rule="evenodd" clip-rule="evenodd" d="M131.834 19.5845H133.072C134.658 19.5845 135.956 20.7886 135.956 22.2605V22.4451H134.179V22.2605C134.179 21.5353 133.539 20.9421 132.758 20.9421H132.148C131.366 20.9421 130.727 21.5353 130.727 22.2605C130.727 22.9857 131.366 23.5789 132.148 23.5789C133.46 23.5789 134.401 23.5121 135.329 24.2111C136.047 24.6992 136.515 25.4862 136.515 26.3699C136.515 27.8418 135.217 29.0459 133.63 29.0459H132.392C130.806 29.0459 129.508 27.8418 129.508 26.3699V26.1853H131.285V26.3699C131.285 27.0951 131.924 27.6883 132.706 27.6883H133.316C134.098 27.6883 134.737 27.0951 134.737 26.3699C134.737 25.6447 134.098 25.0515 133.316 25.0515C132.003 25.0515 131.063 25.1184 130.134 24.4193C129.417 23.9313 128.949 23.1442 128.949 22.2605C128.949 20.7886 130.247 19.5845 131.834 19.5845Z" fill="white"/>
<path fill-rule="evenodd" clip-rule="evenodd" d="M125.498 15.8448H127.524V19.3104C127.524 19.8275 127.068 20.2505 126.511 20.2505H125.498V19.713H125.67C126.212 19.713 126.656 19.3013 126.656 18.798V17.7608H125.498V15.8448Z" fill="white"/>
<path fill-rule="evenodd" clip-rule="evenodd" d="M39.0475 3.8992e-05H40.4716V33.3745H39.0475V3.8992e-05Z" fill="white"/>
<path fill-rule="evenodd" clip-rule="evenodd" d="M17.9803 16.0815H26.771C31.357 16.0815 35.1091 19.5627 35.1091 23.8176V29.9342C35.1091 34.1891 31.357 37.6703 26.771 37.6703H17.9803V16.0815ZM21.9879 19.5597H26.6653C29.1053 19.5597 31.1015 21.4118 31.1015 23.6756V30.0762C31.1015 32.3401 29.1053 34.1922 26.6653 34.1922H21.9879V19.5597Z" fill="#0994DC"/>
<path fill-rule="evenodd" clip-rule="evenodd" d="M1.83406 5.48355H19.3151V9.46437H12.879V30.1803H8.66757V9.46437H1.83406V5.48355Z" fill="#ED1C24"/>
<path d="M2.54412 48.8993C1.70645 48.8993 1.07308 48.7338 0.643909 48.4028C0.214746 48.0717 0 47.597 0 46.9786V46.5421H1.63323V47.066C1.63323 47.5606 1.93162 47.808 2.52837 47.808C2.82145 47.808 3.0439 47.748 3.19575 47.628C3.34759 47.5079 3.42342 47.3133 3.42342 47.0442C3.42342 46.724 3.31871 46.4421 3.1094 46.1983C2.89998 45.9546 2.51263 45.6618 1.94737 45.3199C1.23545 44.8833 0.738181 44.4887 0.455557 44.1358C0.172822 43.783 0.0314908 43.3846 0.0314908 42.9409C0.0314908 42.337 0.251349 41.8696 0.69105 41.5386C1.13064 41.2076 1.76934 41.0421 2.6069 41.0421C3.43387 41.0421 4.05941 41.2076 4.48345 41.5386C4.9074 41.8696 5.11944 42.3443 5.11944 42.9627V43.2792H3.48621V42.8863C3.48621 42.6244 3.41298 42.4334 3.26637 42.3134C3.11983 42.1934 2.90519 42.1333 2.62264 42.1333C2.04685 42.1333 1.7588 42.377 1.7588 42.8645C1.7588 43.141 1.86612 43.3992 2.08075 43.6393C2.29547 43.8794 2.68534 44.1704 3.25062 44.5123C3.97306 44.9488 4.47032 45.3453 4.74252 45.7018C5.01472 46.0583 5.15083 46.4767 5.15083 46.9568C5.15083 47.5825 4.92836 48.0627 4.48345 48.3973C4.03845 48.732 3.39203 48.8993 2.54412 48.8993ZM8.63683 48.8993C7.78893 48.8993 7.13991 48.732 6.68967 48.3973C6.23955 48.0627 6.01448 47.5897 6.01448 46.9786V42.9627C6.01448 42.3516 6.23955 41.8787 6.68967 41.544C7.13991 41.2094 7.78893 41.0421 8.63683 41.0421C9.48492 41.0421 10.1339 41.2094 10.5842 41.544C11.0343 41.8787 11.2593 42.3516 11.2593 42.9627V46.9786C11.2593 47.5897 11.0343 48.0627 10.5842 48.3973C10.1339 48.732 9.48492 48.8993 8.63683 48.8993ZM8.63683 47.808C9.23361 47.808 9.53206 47.557 9.53206 47.0551V42.8863C9.53206 42.3843 9.23361 42.1333 8.63683 42.1333C8.04016 42.1333 7.74179 42.3843 7.74179 42.8863V47.0551C7.74179 47.557 8.04016 47.808 8.63683 47.808ZM12.4214 41.1511H14.1488V47.6989H16.991V48.7902H12.4214V41.1511ZM20.3358 48.8993C19.4983 48.8993 18.8598 48.7338 18.4201 48.4028C17.9804 48.0717 17.7605 47.597 17.7605 46.9786V41.1511H19.4879V47.066C19.4879 47.3279 19.5637 47.5169 19.7156 47.6334C19.8674 47.7498 20.0847 47.808 20.3672 47.808C20.6499 47.808 20.8672 47.7498 21.0189 47.6334C21.1708 47.5169 21.2466 47.3279 21.2466 47.066V41.1511H22.9111V46.9786C22.9111 47.597 22.6914 48.0717 22.2517 48.4028C21.8119 48.7338 21.1734 48.8993 20.3358 48.8993ZM27.4809 43.7266V42.8427C27.4809 42.3698 27.1929 42.1333 26.6171 42.1333C26.0413 42.1333 25.7535 42.3698 25.7535 42.8427V47.1096C25.7535 47.5752 26.0413 47.808 26.6171 47.808C27.1929 47.808 27.4809 47.5752 27.4809 47.1096V45.9419H29.114V47.0223C29.114 47.5679 28.9308 48.0027 28.5644 48.3264C28.1979 48.6502 27.6693 48.8375 26.9783 48.8884V49.2158C27.3343 49.2158 27.6039 49.2558 27.7871 49.3359C27.9703 49.4158 28.0619 49.5468 28.0619 49.7288C28.0619 49.9979 27.931 50.1761 27.6693 50.2634C27.4076 50.3507 27.0045 50.3944 26.4602 50.3944C25.9785 50.3944 25.6069 50.3471 25.3452 50.2525C25.0834 50.1579 24.9525 49.9942 24.9525 49.7614V49.6523H26.1146V49.7396C26.1146 49.8123 26.1487 49.8669 26.2167 49.9033C26.2847 49.9397 26.3659 49.9579 26.4602 49.9579C26.6066 49.9579 26.7113 49.9378 26.7742 49.8979C26.837 49.8579 26.8684 49.7905 26.8684 49.696C26.8684 49.5941 26.8213 49.5213 26.7271 49.4777C26.6328 49.434 26.4862 49.4122 26.2874 49.4122H26.2089V48.8884C25.4969 48.8375 24.9552 48.6519 24.5835 48.3318C24.2119 48.0117 24.0261 47.5752 24.0261 47.0223V42.9191C24.0261 42.3225 24.2433 41.8605 24.6777 41.5331C25.1123 41.2057 25.743 41.0421 26.57 41.0421C27.3971 41.0421 28.0278 41.2057 28.4622 41.5331C28.8968 41.8605 29.114 42.3225 29.114 42.9191V43.7266H27.4809ZM32.6787 48.8993C31.8307 48.8993 31.1816 48.732 30.7314 48.3973C30.2813 48.0627 30.0562 47.5897 30.0562 46.9786V42.9627C30.0562 42.3516 30.2813 41.8787 30.7314 41.544C31.1816 41.2094 31.8307 41.0421 32.6787 41.0421C33.5267 41.0421 34.1756 41.2094 34.6259 41.544C35.0761 41.8787 35.301 42.3516 35.301 42.9627V46.9786C35.301 47.5897 35.0761 48.0627 34.6259 48.3973C34.1756 48.732 33.5267 48.8993 32.6787 48.8993ZM32.6787 47.808C33.2753 47.808 33.5738 47.557 33.5738 47.0551V42.8863C33.5738 42.3843 33.2753 42.1333 32.6787 42.1333C32.0819 42.1333 31.7836 42.3843 31.7836 42.8863V47.0551C31.7836 47.557 32.0819 47.808 32.6787 47.808ZM30.4958 40.3327C30.6948 40.0199 30.9094 39.7888 31.1397 39.6398C31.3701 39.4906 31.6318 39.416 31.9249 39.416C32.1133 39.416 32.2782 39.4342 32.4195 39.4706C32.5609 39.507 32.7101 39.5579 32.8671 39.6233C32.9613 39.6597 33.0529 39.6925 33.1419 39.7216C33.2309 39.7507 33.3173 39.7652 33.401 39.7652C33.5267 39.7652 33.6365 39.7325 33.7308 39.667C33.825 39.6015 33.9245 39.4924 34.0292 39.3396L34.8614 39.6888C34.6625 40.0017 34.4479 40.2326 34.2175 40.3818C33.9873 40.5309 33.7255 40.6055 33.4324 40.6055C33.2439 40.6055 33.0791 40.5874 32.9377 40.551C32.7963 40.5146 32.6472 40.4636 32.4903 40.3982C32.396 40.3618 32.3044 40.329 32.2155 40.3C32.1264 40.2709 32.04 40.2564 31.9563 40.2564C31.8307 40.2564 31.7207 40.2891 31.6265 40.3545C31.5323 40.42 31.4329 40.5291 31.3282 40.682L30.4958 40.3327ZM36.4632 41.1511H41.1741V42.2424H38.1906V44.2613H40.5617V45.3526H38.1906V47.6989H41.1741V48.7902H36.4632V41.1511ZM44.4404 48.8993C43.6028 48.8993 42.9694 48.7338 42.5402 48.4028C42.1111 48.0717 41.8964 47.597 41.8964 46.9786V46.5421H43.5295V47.066C43.5295 47.5606 43.8279 47.808 44.4247 47.808C44.7178 47.808 44.9402 47.748 45.0921 47.628C45.2439 47.5079 45.3197 47.3133 45.3197 47.0442C45.3197 46.724 45.215 46.4421 45.0057 46.1983C44.7963 45.9546 44.4089 45.6618 43.8437 45.3199C43.1318 44.8833 42.6345 44.4887 42.3519 44.1358C42.0691 43.783 41.9278 43.3846 41.9278 42.9409C41.9278 42.337 42.1477 41.8696 42.5874 41.5386C43.0271 41.2076 43.6656 41.0421 44.5032 41.0421C45.3302 41.0421 45.9557 41.2076 46.3798 41.5386C46.8037 41.8696 47.0158 42.3443 47.0158 42.9627V43.2792H45.3825V42.8863C45.3825 42.6244 45.3093 42.4334 45.1627 42.3134C45.0162 42.1934 44.8015 42.1333 44.519 42.1333C43.9432 42.1333 43.6552 42.377 43.6552 42.8645C43.6552 43.141 43.7624 43.3992 43.9771 43.6393C44.1918 43.8794 44.5817 44.1704 45.1469 44.5123C45.8694 44.9488 46.3666 45.3453 46.6388 45.7018C46.911 46.0583 47.0471 46.4767 47.0471 46.9568C47.0471 47.5825 46.8247 48.0627 46.3798 48.3973C45.9348 48.732 45.2883 48.8993 44.4404 48.8993ZM50.5489 41.1511H55.2599V42.2424H52.2763V44.2613H54.6474V45.3526H52.2763V47.6989H55.2599V48.7902H50.5489V41.1511ZM56.2492 41.1511H58.7145L59.8138 46.6185H59.8452L60.9444 41.1511H63.4099V48.7902H61.7768V43.0063H61.7454L60.4891 48.7902H59.0444L57.7881 43.0063H57.7567V48.7902H56.2492V41.1511ZM68.5448 41.1511H70.8846L72.6748 48.7902H70.9474L70.6332 47.2733V47.2951H68.6704L68.3564 48.7902H66.7546L68.5448 41.1511ZM70.4291 46.2584L69.6597 42.4826H69.6283L68.8745 46.2584H70.4291ZM78.5634 49.4995C77.7783 49.4995 77.2967 49.2558 77.1187 48.7683C76.7943 48.8557 76.412 48.8993 75.9723 48.8993C75.1244 48.8993 74.4754 48.732 74.0252 48.3973C73.575 48.0627 73.35 47.5897 73.35 46.9786V42.9627C73.35 42.3516 73.575 41.8787 74.0252 41.544C74.4754 41.2094 75.1244 41.0421 75.9723 41.0421C76.8204 41.0421 77.4693 41.2094 77.9197 41.544C78.3698 41.8787 78.5948 42.3516 78.5948 42.9627V46.9786C78.5948 47.4879 78.4326 47.9062 78.108 48.2336C78.1708 48.3064 78.2494 48.3537 78.3436 48.3755C78.4379 48.3973 78.5739 48.4082 78.7518 48.4082H79.0189V49.4995H78.5634ZM75.9723 47.808C76.5691 47.808 76.8676 47.557 76.8676 47.0551V42.8863C76.8676 42.3843 76.5691 42.1333 75.9723 42.1333C75.3757 42.1333 75.0773 42.3843 75.0773 42.8863V47.0551C75.0773 47.557 75.3757 47.808 75.9723 47.808ZM82.2693 48.8993C81.4319 48.8993 80.7933 48.7338 80.3536 48.4028C79.914 48.0717 79.694 47.597 79.694 46.9786V41.1511H81.4214V47.066C81.4214 47.3279 81.4973 47.5169 81.6491 47.6334C81.8009 47.7498 82.0182 47.808 82.3008 47.808C82.5835 47.808 82.8007 47.7498 82.9525 47.6334C83.1043 47.5169 83.1801 47.3279 83.1801 47.066V41.1511H84.8446V46.9786C84.8446 47.597 84.6249 48.0717 84.1853 48.4028C83.7455 48.7338 83.1069 48.8993 82.2693 48.8993ZM86.0696 41.1511H90.7806V42.2424H87.797V44.2613H90.1681V45.3526H87.797V47.6989H90.7806V48.7902H86.0696V41.1511ZM94.2038 48.8993C93.3768 48.8993 92.7461 48.7356 92.3115 48.4082C91.8771 48.0808 91.6599 47.6188 91.6599 47.0223V42.9191C91.6599 42.3225 91.8771 41.8605 92.3115 41.5331C92.7461 41.2057 93.3768 41.0421 94.2038 41.0421C95.031 41.0421 95.6616 41.2057 96.096 41.5331C96.5306 41.8605 96.7478 42.3225 96.7478 42.9191V43.7266H95.1147V42.8427C95.1147 42.3698 94.8268 42.1333 94.2509 42.1333C93.6751 42.1333 93.3873 42.3698 93.3873 42.8427V47.1096C93.3873 47.5752 93.6751 47.808 94.2509 47.808C94.8268 47.808 95.1147 47.5752 95.1147 47.1096V45.9419H96.7478V47.0223C96.7478 47.6188 96.5306 48.0808 96.096 48.4082C95.6616 48.7356 95.031 48.8993 94.2038 48.8993ZM97.7842 41.1511H102.495V42.2424H99.5116V44.2613H101.883V45.3526H99.5116V47.6989H102.495V48.7902H97.7842V41.1511ZM103.485 41.1511H106.123C106.981 41.1511 107.625 41.3112 108.054 41.6313C108.483 41.9514 108.698 42.4207 108.698 43.0391V46.9023C108.698 47.5206 108.483 47.9899 108.054 48.31C107.625 48.6301 106.981 48.7902 106.123 48.7902H103.485V41.1511ZM106.091 47.6989C106.374 47.6989 106.591 47.6407 106.743 47.5242C106.895 47.4079 106.971 47.2187 106.971 46.9568V42.9845C106.971 42.7226 106.895 42.5335 106.743 42.4171C106.591 42.3006 106.374 42.2424 106.091 42.2424H105.212V47.6989H106.091ZM112.357 48.8993C111.509 48.8993 110.86 48.732 110.41 48.3973C109.959 48.0627 109.734 47.5897 109.734 46.9786V42.9627C109.734 42.3516 109.959 41.8787 110.41 41.544C110.86 41.2094 111.509 41.0421 112.357 41.0421C113.205 41.0421 113.854 41.2094 114.304 41.544C114.754 41.8787 114.979 42.3516 114.979 42.9627V46.9786C114.979 47.5897 114.754 48.0627 114.304 48.3973C113.854 48.732 113.205 48.8993 112.357 48.8993ZM112.357 47.808C112.954 47.808 113.252 47.557 113.252 47.0551V42.8863C113.252 42.3843 112.954 42.1333 112.357 42.1333C111.76 42.1333 111.462 42.3843 111.462 42.8863V47.0551C111.462 47.557 111.76 47.808 112.357 47.808ZM116.141 41.1511H118.701C119.591 41.1511 120.24 41.2948 120.648 41.5823C121.056 41.8696 121.261 42.3115 121.261 42.9082V43.3774C121.261 44.1704 120.884 44.6724 120.13 44.8833V44.9052C120.549 44.9925 120.845 45.1708 121.017 45.4399C121.19 45.7091 121.276 46.0692 121.276 46.5203V47.8626C121.276 48.0809 121.287 48.2573 121.308 48.3919C121.329 48.5264 121.381 48.6592 121.465 48.7902H119.706C119.643 48.6665 119.601 48.5501 119.58 48.441C119.559 48.3318 119.549 48.1354 119.549 47.8516V46.4548C119.549 46.1056 119.468 45.8619 119.305 45.7237C119.143 45.5855 118.863 45.5163 118.465 45.5163H117.869V48.7902H116.141V41.1511ZM118.497 44.4251C118.842 44.4251 119.101 44.3632 119.274 44.2395C119.447 44.1158 119.533 43.9085 119.533 43.6175V43.0282C119.533 42.7517 119.463 42.5517 119.321 42.428C119.18 42.3043 118.957 42.2424 118.654 42.2424H117.869V44.4251H118.497ZM122.47 41.1511H127.181V42.2424H124.197V44.2613H126.568V45.3526H124.197V47.6989H127.181V48.7902H122.47V41.1511ZM130.447 48.8993C129.609 48.8993 128.976 48.7338 128.547 48.4028C128.118 48.0717 127.903 47.597 127.903 46.9786V46.5421H129.536V47.066C129.536 47.5606 129.835 47.808 130.431 47.808C130.724 47.808 130.947 47.748 131.099 47.628C131.25 47.5079 131.326 47.3133 131.326 47.0442C131.326 46.724 131.222 46.4421 131.012 46.1983C130.803 45.9546 130.416 45.6618 129.85 45.3199C129.138 44.8833 128.641 44.4887 128.358 44.1358C128.076 43.783 127.934 43.3846 127.934 42.9409C127.934 42.337 128.154 41.8696 128.594 41.5386C129.034 41.2076 129.672 41.0421 130.51 41.0421C131.337 41.0421 131.962 41.2076 132.386 41.5386C132.81 41.8696 133.022 42.3443 133.022 42.9627V43.2792H131.389V42.8863C131.389 42.6244 131.316 42.4334 131.169 42.3134C131.023 42.1934 130.808 42.1333 130.526 42.1333C129.95 42.1333 129.662 42.377 129.662 42.8645C129.662 43.141 129.769 43.3992 129.984 43.6393C130.198 43.8794 130.588 44.1704 131.153 44.5123C131.876 44.9488 132.373 45.3453 132.645 45.7018C132.918 46.0583 133.054 46.4767 133.054 46.9568C133.054 47.5825 132.831 48.0627 132.386 48.3973C131.941 48.732 131.295 48.8993 130.447 48.8993Z" fill="white"/>
</svg>
