<svg width="36" height="36" viewBox="0 0 36 36" fill="none" xmlns="http://www.w3.org/2000/svg">
<path d="M14.0766 0.885938C13.9922 0.942188 13.8867 1.05469 13.8516 1.125C13.7953 1.22344 13.3594 3.20625 13.3594 3.33984C13.3594 3.40313 9.88594 4.78828 9.80859 4.75313C9.75234 4.73203 9.37266 4.49297 8.95781 4.21172C7.97344 3.55078 7.80469 3.48047 7.50937 3.61406C7.38281 3.66328 6.6375 4.35938 5.85 5.14688C4.09219 6.92578 4.14141 6.74297 5.02734 8.05781C5.35781 8.54297 5.625 8.97188 5.625 9.01406C5.625 9.08438 4.21875 12.5156 4.18359 12.5156C4.05 12.5156 2.06719 12.9516 1.96875 13.0078C1.62422 13.1906 1.61719 13.2539 1.61719 15.4828V17.5781L1.81406 17.7891C1.98984 17.9859 2.09531 18.0211 3.08672 18.2109C3.68437 18.3234 4.17656 18.4289 4.19766 18.443C4.24687 18.4992 5.625 21.8602 5.625 21.9375C5.625 21.9727 5.35781 22.4156 5.02734 22.9078C4.16953 24.1945 4.14141 24.0609 5.56875 25.5023C6.19453 26.1352 6.72891 26.6484 6.75703 26.6484C6.79922 26.6484 7.69219 25.1297 9.87187 21.3398L10.4766 20.2781L10.0336 19.6102C9.56953 18.907 9.23203 18.1406 8.97891 17.2336C8.76797 16.4602 8.76797 14.4844 8.98594 13.6969C9.77344 10.8211 11.7984 8.83828 14.6953 8.10703C15.0117 8.02969 15.5109 7.9875 16.3406 7.98047L17.5219 7.96641L18.1266 7.36172L18.7383 6.75L18.4008 6.4125C18.218 6.22969 18.0703 6.04688 18.0703 6.01172C18.0703 5.97656 18.5625 5.44922 19.1672 4.84453L20.257 3.75469L19.7648 3.55781C19.3008 3.375 19.2656 3.34688 19.2234 3.10781C18.9422 1.53281 18.8437 1.16016 18.6328 0.963282L18.4219 0.773438H16.3266C14.5477 0.773438 14.2102 0.787501 14.0766 0.885938Z" fill="#EB3135"/>
<path d="M24.7 3.58601C24.6156 3.62117 24.1586 3.90945 23.6875 4.22586C22.8508 4.78836 22.8227 4.79539 22.5766 4.71805L22.3234 4.6407L21.6695 5.29461L21.0227 5.94148L21.3742 6.29305L21.7258 6.64461L20.6992 7.67117L19.6797 8.69773L20.3055 9.09148C21.9438 10.1321 23.125 11.7282 23.6031 13.5563C23.8633 14.5548 23.9055 15.9399 23.7016 16.9313C23.6172 17.3321 23.4695 17.8595 23.3781 18.1126L23.2094 18.5626L23.5258 18.3446C24.025 18.0071 24.5172 17.8595 25.1922 17.8595C26.3523 17.8595 27.1328 18.3095 27.85 19.3993C27.9555 19.568 27.9625 19.561 28.1945 18.9985C28.4195 18.4571 28.4477 18.422 28.6797 18.3798C30.2477 18.1055 30.6203 18.0001 30.8172 17.7891L31.007 17.5782V15.4759V13.3735L30.8313 13.1626C30.6836 12.9868 30.5641 12.9376 29.868 12.804C29.432 12.7126 28.9258 12.6141 28.75 12.579L28.4195 12.5087L27.7023 10.7509L26.9781 9.00008L27.6039 8.06492C28.4969 6.72898 28.5602 6.93992 26.7883 5.16101C25.6 3.9657 25.0375 3.48055 24.8758 3.52273C24.8617 3.52273 24.7844 3.55086 24.7 3.58601Z" fill="#EB3135"/>
<path d="M15.6308 11.9882C13.7253 12.5015 12.6706 14.4773 13.3175 16.3124C13.423 16.6007 13.5073 16.8749 13.5144 16.9101C13.5214 16.9523 12.0237 19.589 10.1886 22.7671L6.85577 28.5468H6.60264C5.94873 28.5468 5.05577 28.9616 4.49327 29.5241C3.41748 30.5999 3.20655 32.2663 3.96592 33.5741C4.07139 33.7499 4.17686 33.8905 4.20498 33.8905C4.23311 33.8905 4.54952 33.3913 4.90108 32.7866L5.54092 31.6757L6.26514 31.6546L6.99639 31.6405L7.33389 32.2312C7.5167 32.5546 7.66436 32.8429 7.66436 32.871C7.66436 32.9062 7.37608 33.4195 7.03155 34.0241C6.67998 34.6359 6.39873 35.1562 6.39873 35.1843C6.39873 35.2827 7.53077 35.1773 7.91045 35.0437C8.9792 34.678 9.79483 33.778 10.0901 32.6601C10.273 31.957 10.2167 31.3101 9.90733 30.5366L9.75967 30.164L13.0855 24.3913C14.9206 21.2132 16.4534 18.6116 16.4886 18.5976C16.5308 18.5905 16.7628 18.5484 17.0159 18.5062C17.6558 18.4148 18.2112 18.1265 18.7456 17.6343C19.9269 16.5304 20.1378 14.7163 19.2448 13.3944L19.0831 13.1554L18.4151 14.3085L17.7542 15.4687H17.037H16.3198L16.0456 14.9905C15.8909 14.7304 15.7362 14.4562 15.694 14.3718C15.6237 14.2452 15.7081 14.0694 16.2425 13.1273C16.594 12.5296 16.8753 12.0023 16.8753 11.9601C16.8753 11.8476 16.0808 11.8687 15.6308 11.9882Z" fill="#EB3135"/>
<path d="M24.3642 19.0126C24.1744 19.104 23.9142 19.2868 23.7876 19.4134C23.5205 19.7016 16.2712 32.2454 16.1166 32.6813C15.8916 33.3493 16.1728 34.2704 16.7494 34.7696C17.3189 35.2548 16.9181 35.2337 25.3486 35.2126L32.9423 35.1915L33.322 34.9805C34.1447 34.5305 34.5455 33.6024 34.3064 32.7305C34.2009 32.3649 26.9095 19.7227 26.6212 19.4134C26.2767 19.0407 25.7916 18.8438 25.208 18.8438C24.8353 18.8438 24.6314 18.886 24.3642 19.0126ZM25.9533 22.7813C26.0236 22.8235 26.1361 22.9501 26.1923 23.0626C26.2908 23.2524 26.2837 23.5337 26.122 26.1001C26.0236 27.661 25.9462 29.0251 25.9462 29.1305C25.9462 29.2571 25.8689 29.4048 25.7423 29.5384C25.447 29.8337 24.9689 29.8337 24.6736 29.5384C24.5611 29.4259 24.4697 29.2712 24.4697 29.2009C24.4697 29.1235 24.3923 27.8016 24.2939 26.2548C24.1955 24.7149 24.1181 23.379 24.1181 23.2876C24.1181 23.1962 24.2095 23.0274 24.322 22.9149C24.5189 22.718 24.5541 22.711 25.1728 22.711C25.5244 22.711 25.8759 22.7462 25.9533 22.7813ZM25.6861 31.6548C26.0376 31.8376 26.1923 32.4985 25.9814 32.9063C25.7001 33.4548 24.7228 33.4688 24.4416 32.9204C24.1603 32.372 24.3853 31.7321 24.9126 31.5774C25.1447 31.5071 25.4681 31.5423 25.6861 31.6548Z" fill="#EB3135"/>
<path d="M21.5789 20.8547C20.8406 21.6422 19.4414 22.4367 18.2391 22.7602C17.6133 22.9289 17.4235 22.95 16.2985 22.95L15.0539 22.957L13.8375 25.0594C13.1695 26.2195 12.6141 27.1898 12.6 27.218C12.593 27.2391 12.7547 27.3305 12.9727 27.4219C13.1836 27.5062 13.3594 27.5836 13.3594 27.5977C13.3594 27.7312 13.7953 29.7141 13.8516 29.8125C14.0203 30.1289 14.175 30.1641 15.3 30.1641H16.3617L19.0899 25.432C20.5875 22.8375 21.832 20.6859 21.8461 20.6508C21.9094 20.5383 21.811 20.6156 21.5789 20.8547Z" fill="#EB3135"/>
</svg>
