<svg width="36" height="36" viewBox="0 0 36 36" fill="none" xmlns="http://www.w3.org/2000/svg">
<path d="M0 0.866784V1.74111H0.927084C2.28379 1.74111 2.18581 1.59036 2.18581 3.70833V5.43437H3.09028H3.99475V3.30132C3.98721 2.13305 3.95707 1.02507 3.92692 0.844172C3.88169 0.633129 3.77617 0.429623 3.62543 0.278877L3.39177 0.0452221L1.69589 0.0226103L0 -1.49664e-06V0.866784Z" fill="#EB3135"/>
<path d="M1.15322 6.57247C0.580384 6.73829 0.407027 7.47694 0.836652 7.89149L1.06277 8.11007L2.81142 8.13269C3.93447 8.14776 4.65805 8.13269 4.83894 8.07992C5.62282 7.83873 5.62282 6.78351 4.83894 6.56493C4.49976 6.47449 1.48486 6.47449 1.15322 6.57247Z" fill="#EB3135"/>
<path d="M9.59501 7.48439C9.50457 7.52961 9.41412 7.61252 9.39151 7.67282C9.36889 7.72558 9.34628 10.0018 9.34628 12.7303L9.33875 17.6823L9.52718 18.1346C9.87389 19.0013 9.96434 19.4988 9.92665 20.358C9.90404 20.7952 9.85882 21.2399 9.8362 21.353L9.78344 21.564H16.9137H24.044L24.0289 14.494L24.0063 7.43163L16.8836 7.41656C11.9843 7.40902 9.70807 7.43163 9.59501 7.48439ZM17.268 12.459C17.5694 12.9263 17.9991 13.68 18.2252 14.1247C18.5719 14.8182 18.6473 15.0217 18.6774 15.4664C18.7226 16.1146 18.5794 16.5291 18.1498 16.9663C17.3056 17.8406 15.9489 17.818 15.1575 16.9135C14.8259 16.5442 14.6224 16.0317 14.6224 15.5945C14.6224 15.0292 15.1726 13.8685 16.1977 12.2781C16.4313 11.9088 16.6424 11.6148 16.6725 11.6148C16.6951 11.6148 16.9665 11.9992 17.268 12.459Z" fill="#EB3135"/>
<path d="M25.0991 14.479V21.564H25.9358C26.4106 21.564 26.8402 21.5263 26.9307 21.4811C27.1869 21.3454 28.9507 19.6722 29.1089 19.4159C29.2371 19.2048 29.2446 18.9109 29.2446 14.4413V9.69281L28.1668 8.63006C26.9382 7.41656 26.9005 7.39394 25.8001 7.39394H25.0991V14.479ZM27.7975 11.0269C27.8502 11.0797 27.8879 11.3661 27.8879 11.7731C27.8879 12.3007 27.8653 12.4364 27.7673 12.4741C27.5487 12.557 26.5614 12.5193 26.4709 12.4288C26.4181 12.3761 26.3805 12.0972 26.3805 11.7128C26.3805 11.2003 26.4031 11.0797 26.5161 11.0194C26.697 10.9063 27.6844 10.9138 27.7975 11.0269ZM27.8502 17.2678V17.9838H27.1342H26.4181L26.3955 17.3507C26.3805 17.004 26.3955 16.6723 26.4106 16.612C26.4408 16.5291 26.6141 16.514 27.1493 16.5291L27.8502 16.5517V17.2678Z" fill="#EB3135"/>
<path d="M2.12552 11.7054C2.14813 14.2078 2.14813 14.2153 2.32902 14.5319C2.63805 15.067 3.21842 15.3836 3.89677 15.3836C4.16058 15.3836 4.22088 15.361 4.22088 15.2404C4.22088 15.165 4.31132 15.0067 4.43192 14.8937C4.62789 14.6977 4.65804 14.6902 5.20072 14.7354C5.50975 14.758 5.87908 14.8032 6.01475 14.8258L6.25594 14.8711V14.2605V13.65H5.23841C4.25103 13.65 4.2058 13.6425 4.03245 13.4616L3.84401 13.2807V11.2381V9.20303H2.96969H2.10291L2.12552 11.7054Z" fill="#EB3135"/>
<path d="M7.36392 10.8385C7.33377 10.8611 7.31116 11.8485 7.31116 13.0243V15.1573H7.48451C7.57496 15.1573 7.79354 15.2402 7.97444 15.3458L8.291 15.5267V13.1524V10.7857H7.85384C7.61265 10.7857 7.38653 10.8083 7.36392 10.8385Z" fill="#EB3135"/>
<path d="M30.315 14.4943L30.3376 15.3461L31.3928 15.3687C32.3576 15.3837 32.4556 15.3988 32.5837 15.542C32.7043 15.6928 32.7118 16.1752 32.7118 23.3431V30.9859H33.5786H34.4454V22.9361V14.8863L34.257 14.5019C34.1364 14.2607 33.9479 14.0346 33.752 13.9064L33.4429 13.6879L31.8676 13.6652L30.2924 13.6426L30.315 14.4943Z" fill="#EB3135"/>
<path d="M5.52476 15.9638C5.54737 16.0391 5.77348 16.5969 6.02221 17.2074C6.5649 18.5038 6.61766 18.9711 6.30109 19.642C5.98453 20.3278 5.65289 20.5389 3.51984 21.4132C2.45709 21.8504 1.58276 22.2423 1.58276 22.2951C1.58276 22.3478 1.79381 22.6116 2.04254 22.883C2.76611 23.6518 3.70827 24.0513 4.82379 24.0513C5.14035 24.0513 5.28356 24.0889 5.37401 24.1869C5.44185 24.2623 6.14281 26.5235 6.93422 29.2218C7.72564 31.9126 8.44168 34.2567 8.52459 34.4301C8.69795 34.7919 9.0522 35.131 9.51951 35.3722C9.95667 35.6059 10.8159 35.6134 11.3134 35.3873C12.1048 35.018 12.5495 34.3095 12.5495 33.3975C12.542 32.7267 12.8208 33.2995 9.75316 27.5712C8.50198 25.2421 7.53721 23.3578 7.53721 23.2523C7.53721 23.1242 7.67288 22.9056 7.92161 22.6342C8.12511 22.3931 8.4266 21.9559 8.57735 21.6469C8.82608 21.1419 8.85623 21.0213 8.87884 20.358C8.90145 19.8379 8.87884 19.5063 8.78839 19.2199C8.6075 18.5943 7.70303 16.4989 7.55228 16.3482C7.46937 16.2653 7.07743 16.1447 6.48953 16.0241C5.38155 15.7979 5.47199 15.8055 5.52476 15.9638ZM11.0043 32.3046C11.8184 32.7267 11.9164 33.8648 11.1928 34.4225C10.3712 35.0481 9.18033 34.4602 9.18033 33.4352C9.18033 32.4553 10.1451 31.8599 11.0043 32.3046Z" fill="#EB3135"/>
<path d="M0.911977 18.3229C0.618024 18.7827 0.376831 19.2349 0.376831 19.3329C0.376831 19.4686 0.994887 21.0966 1.10041 21.2474C1.10795 21.2625 1.54511 21.0966 2.05764 20.8781L3.00734 20.4861L2.75861 20.1922C2.60033 20.0113 2.32145 19.4535 2.03503 18.7525C1.77876 18.1194 1.54511 17.5767 1.51496 17.5466C1.47727 17.5089 1.21347 17.8631 0.911977 18.3229Z" fill="#EB3135"/>
<path d="M10.8536 23.8631V25.1067H11.9465H13.0394V23.8631V22.6194H11.9465H10.8536V23.8631Z" fill="#EB3135"/>
<path d="M23.4937 22.6722C23.4635 22.6948 23.4409 23.2601 23.4409 23.9158V25.1067H24.5338H25.6267V23.8631V22.6194H24.5866C24.0138 22.6194 23.5163 22.642 23.4937 22.6722Z" fill="#EB3135"/>
<path d="M10.2507 26.1995C10.2507 26.2146 10.3412 26.4181 10.4542 26.6518L10.6577 27.0663H19.8306C29.9381 27.0663 29.2446 27.0965 29.2446 26.6141C29.2446 26.1317 29.8552 26.1618 19.5819 26.1618C14.449 26.1618 10.2507 26.1769 10.2507 26.1995Z" fill="#EB3135"/>
<path d="M31.6114 32.1465C31.1591 32.3425 31.0084 32.7947 31.242 33.247C31.3023 33.3676 31.4229 33.5032 31.4983 33.5484C31.5887 33.5937 32.4028 33.6238 33.5937 33.6238H35.5458L35.7418 33.4128C36.0131 33.1339 36.0659 32.8776 35.9227 32.5385C35.7342 32.0787 35.5383 32.041 33.5635 32.041C32.2897 32.0485 31.7847 32.0711 31.6114 32.1465Z" fill="#EB3135"/>
</svg>
