<svg width="74" height="69" viewBox="0 0 74 69" fill="none" xmlns="http://www.w3.org/2000/svg">
<path d="M8.35744 3.85611L8.30904 7.71216L7.82502 8.40592C6.96992 9.59984 6.66337 9.68051 3.11387 9.68051H0V37.657V65.6173L0.338815 66.0529L0.661497 66.4724H26.0565C50.79 66.4724 51.4354 66.4724 51.8065 66.1659L52.1937 65.8593L52.2421 61.487L52.2905 57.1308L51.9194 57.0501C51.0643 56.8565 50.9352 56.8888 50.6126 57.3083L50.2737 57.76L50.6126 58.115C51.3709 58.9701 51.2579 59.3412 49.6768 61.2772C47.4987 63.9394 47.3373 63.9716 45.2238 62.2453C38.1893 56.5016 34.8012 53.6297 34.6882 53.307C34.4624 52.7262 34.7044 52.2744 36.2371 50.3868C37.9312 48.3539 38.512 48.0634 39.3832 48.8217C39.6091 49.0315 39.9641 48.6604 42.5294 45.5465C44.1105 43.6266 45.5142 41.9164 45.6271 41.755C45.8207 41.4969 45.7885 41.3839 45.3529 40.8838C44.53 39.948 44.5784 39.8028 46.6113 37.3504C48.4667 35.0917 48.6603 35.0594 50.5319 36.576C51.2741 37.1568 51.9678 37.7215 52.0808 37.8022C52.226 37.9151 52.2744 37.0923 52.2744 33.7364V29.5254L51.4515 28.6219C49.7413 26.7342 48.2086 23.9914 47.3696 21.3293C46.5952 18.8447 46.4661 17.5055 46.4661 11.5198C46.4661 6.48597 46.4822 6.00194 46.7565 5.77607C46.9017 5.647 47.6116 5.37272 48.3215 5.17911C49.0314 4.9855 50.2092 4.63055 50.9514 4.42081L52.2744 4.01746V2.43632C52.2744 1.08106 52.226 0.790643 51.9355 0.419559L51.6129 7.34478e-05H30.0094H8.42198L8.35744 3.85611ZM17.9411 16.4084C18.1024 16.5536 18.2315 16.8118 18.2315 16.9731C18.2315 17.2797 18.2476 17.2797 18.651 16.957C19.1673 16.5536 19.4738 16.5375 19.8772 16.8924C20.3773 17.3442 20.216 17.7798 19.1995 18.7963L18.2315 19.7482V23.7171C18.2315 26.589 18.1831 27.7345 18.0379 27.8797C17.8927 28.0249 16.3761 28.0733 12.2296 28.0733C6.85698 28.0733 6.61497 28.0572 6.45363 27.7668C6.35682 27.5571 6.29228 25.4758 6.29228 22.0876C6.29228 17.3281 6.32455 16.6988 6.56656 16.4245C6.80857 16.1503 7.19579 16.1341 12.2296 16.1341C17.0376 16.1341 17.6668 16.1664 17.9411 16.4084ZM44.1912 18.7801C44.5139 19.1673 44.3364 19.8934 43.8847 20.1192C43.5781 20.2806 41.1741 20.329 33.3975 20.329C22.4747 20.329 22.5554 20.329 22.4586 19.4739C22.3457 18.5058 21.8294 18.5542 33.3975 18.5542C42.4326 18.5542 44.0299 18.5865 44.1912 18.7801ZM46.0143 24.3141C46.4016 24.6529 46.3854 25.0885 45.9821 25.4919C45.6594 25.8146 45.4497 25.8146 34.3333 25.8146C24.0236 25.8146 22.991 25.7984 22.7168 25.5403C22.3618 25.2176 22.3457 24.6368 22.6845 24.298C22.9104 24.0721 24.185 24.0398 34.3172 24.0398C44.6914 24.0398 45.7401 24.056 46.0143 24.3141ZM18.0379 32.3005C18.1508 32.4134 18.2315 32.6231 18.2315 32.8006C18.2315 33.0749 18.2638 33.0749 18.5864 32.849C19.2802 32.3489 20.1676 32.6877 20.1676 33.4299C20.1676 33.6073 19.732 34.2043 19.1995 34.7528L18.2315 35.7693V39.6092C18.2315 42.9651 18.1992 43.4975 17.9572 43.7557C17.7152 44.0299 17.328 44.0461 12.2942 44.0461C7.48621 44.0461 6.85698 44.0138 6.5827 43.7718C6.30842 43.5298 6.29228 43.1426 6.29228 38.1249C6.29228 34.7206 6.35682 32.6231 6.45363 32.4134C6.61497 32.123 6.85698 32.1069 12.2296 32.1069C16.3761 32.1069 17.8927 32.1553 18.0379 32.3005ZM44.0783 34.6399C44.4332 34.9626 44.4493 35.5434 44.1105 35.8822C43.8847 36.1081 42.7069 36.1404 33.462 36.1404C26.5889 36.1404 22.9426 36.0758 22.7329 35.979C22.3457 35.7693 22.3295 35.0594 22.7006 34.656C22.9426 34.3818 23.4912 34.3656 33.3652 34.3656C42.8359 34.3656 43.804 34.3979 44.0783 34.6399ZM41.4645 40.061C41.9163 40.2868 42.0615 40.8031 41.7872 41.2871C41.6097 41.626 41.5291 41.626 32.2036 41.626C21.9262 41.626 22.3457 41.6582 22.4586 40.7063C22.5554 39.8512 22.5716 39.8512 32.1875 39.8512C39.0122 39.8512 41.158 39.8996 41.4645 40.061ZM17.8765 48.1764C18.0702 48.3055 18.2315 48.5636 18.2315 48.7411C18.2315 49.0476 18.2476 49.0476 18.7316 48.6927C19.1834 48.3539 19.2479 48.3539 19.6513 48.5797C20.4096 48.9992 20.2967 49.4832 19.1995 50.5804L18.2315 51.5323V55.5174C18.2315 59.0185 18.1992 59.5186 17.9572 59.7122C17.7475 59.8897 16.6342 59.9381 12.2296 59.9381C6.98605 59.9381 6.74404 59.922 6.51816 59.6316C6.34069 59.3734 6.29228 58.3086 6.29228 53.8717C6.29228 48.4184 6.29228 48.4184 6.64723 48.1764C6.95378 47.9505 7.77662 47.9182 12.2619 47.9182C16.7472 47.9182 17.57 47.9505 17.8765 48.1764ZM32.7844 50.6126C33.1716 50.9514 33.1555 51.3871 32.7521 51.7904C32.4456 52.097 32.2197 52.1131 27.7829 52.1131C22.6684 52.1131 22.4263 52.0647 22.4263 51.1612C22.4263 50.3383 22.4586 50.3383 27.6538 50.3383C31.9293 50.3383 32.5263 50.3706 32.7844 50.6126ZM34.1881 56.3241C34.3978 56.7113 34.3978 56.792 34.1558 57.1792L33.8815 57.5987H28.396C22.4747 57.5987 22.4263 57.5987 22.4263 56.7113C22.4263 55.8239 22.4586 55.8239 28.4444 55.8562L33.9461 55.9046L34.1881 56.3241Z" fill="white"/>
<path d="M8.06714 22.1037V26.2986H12.262H16.4569V23.943V21.5874L14.8112 23.1363C13.7947 24.0721 13.0203 24.6852 12.8106 24.6852C12.3588 24.6852 9.00291 22.0392 8.79317 21.5229C8.6157 21.055 8.80931 20.6678 9.30946 20.4742C9.71281 20.329 9.98709 20.4742 11.536 21.6842L12.7622 22.6362L14.5853 20.8775C16.2471 19.2803 16.4084 19.0705 16.4407 18.5058L16.4569 17.9089H12.262H8.06714V22.1037Z" fill="white"/>
<path d="M8.06714 38.0764V42.2712H12.262H16.4569V39.8189V37.3665L14.7789 39.0122C13.8593 39.9157 13.0042 40.6578 12.859 40.6578C12.7299 40.6578 12.1975 40.3352 11.665 39.9479C9.55147 38.3345 8.79317 37.6569 8.74477 37.2858C8.68023 36.8502 9.13199 36.3016 9.56761 36.3016C9.74508 36.3016 10.5357 36.8179 11.3424 37.4472L12.7944 38.5927L14.6176 36.7695C16.2148 35.1723 16.4569 34.8657 16.4569 34.414V33.8815H12.262H8.06714V38.0764Z" fill="white"/>
<path d="M8.06714 53.9686V58.2441H12.262H16.4569V55.7918V53.3555L14.8596 54.9044C13.7141 56.0176 13.1332 56.4694 12.859 56.4694C12.2943 56.4694 8.7125 53.6459 8.7125 53.2103C8.7125 52.6295 9.01905 52.2745 9.5192 52.2745C9.84189 52.2745 10.342 52.5488 11.1649 53.2103C11.8102 53.7266 12.4395 54.1945 12.5524 54.2752C12.6815 54.3558 13.3914 53.7911 14.6014 52.6456C16.3116 51.0322 16.4569 50.8547 16.4569 50.29V49.6931H12.262H8.06714V53.9686Z" fill="white"/>
<path d="M3.80765 4.54986L1.12939 7.82507L3.5011 7.87347L5.88894 7.92188L6.26003 7.50239C6.59884 7.09904 6.61498 6.95383 6.61498 4.17877C6.61498 2.59763 6.58271 1.29078 6.56657 1.29078C6.5343 1.29078 5.29198 2.75898 3.80765 4.54986Z" fill="white"/>
<path d="M54.4846 5.21117L48.2246 7.01818L48.2891 12.6651C48.3375 17.8603 48.3698 18.4088 48.7086 19.6027C50.3866 25.766 54.1458 30.106 59.7605 32.3809L61.0351 32.8972L62.0354 32.5261C68.247 30.1706 72.7968 24.4591 73.7164 17.8441C73.8132 17.1504 73.8939 14.4398 73.8939 11.81V7.01818L67.5532 5.19503C64.0844 4.21085 61.1157 3.38802 60.9867 3.40415C60.8576 3.40415 57.9212 4.22699 54.4846 5.21117ZM66.4884 14.0365C66.682 14.1494 66.7949 14.3753 66.7949 14.6819C66.7949 15.0529 66.198 15.8435 63.7294 18.6831C62.0354 20.6353 60.5349 22.2649 60.3574 22.3133C59.9702 22.4101 59.7443 22.2649 57.3888 20.4256C55.4688 18.9251 55.2591 18.6831 55.3397 18.07C55.372 17.7635 55.8076 17.4247 56.1626 17.4247C56.3078 17.4247 57.2274 18.0377 58.1793 18.796C59.1474 19.5543 59.9863 20.1674 60.0347 20.1674C60.0831 20.1674 61.3416 18.7476 62.8421 17.0213C65.5687 13.859 65.7946 13.6654 66.4884 14.0365Z" fill="white"/>
<path d="M47.9505 38.4796C47.4826 39.0443 47.0631 39.609 47.0147 39.7381C46.9663 39.8994 48.5959 41.3354 52.1131 44.2234C54.9527 46.5628 57.3405 48.4989 57.4051 48.515C57.518 48.5473 59.2605 46.4176 59.325 46.1917C59.3411 46.0788 53.3231 41.0772 49.6284 38.1247L48.7895 37.4632L47.9505 38.4796Z" fill="white"/>
<path d="M44.2072 46.2726C42.5615 48.2732 41.2224 50.0157 41.2224 50.1286C41.2224 50.2254 42.9488 51.742 45.0462 53.4684L48.87 56.6145L49.5799 55.7755C51.9516 52.9682 55.017 49.1767 55.017 49.0476C55.017 48.9024 47.434 42.594 47.2727 42.594C47.2243 42.6101 45.8529 44.2558 44.2072 46.2726Z" fill="white"/>
<path d="M37.5117 51.6291C37.0115 52.2422 36.6404 52.8069 36.6888 52.8875C36.7856 53.0489 46.9178 61.374 47.0792 61.4386C47.1437 61.4547 47.6277 60.9546 48.144 60.3253L49.0959 59.1798L48.7087 58.8087C48.0795 58.1956 38.6733 50.4997 38.5442 50.4997C38.4797 50.4997 38.0279 50.9998 37.5117 51.6291Z" fill="white"/>
<path d="M53.3393 54.0007C52.8391 54.5977 52.4358 55.1301 52.4358 55.1785C52.4358 55.243 52.6778 55.3882 52.9682 55.5334C53.2425 55.6786 55.9853 57.8567 59.0508 60.3737C64.9397 65.2139 64.6815 64.9396 65.6657 67.1338C66.3918 68.7472 68.7796 68.8279 69.8283 67.279C70.151 66.8111 70.1994 66.5691 70.151 65.7786C70.0865 64.9719 70.0058 64.7621 69.5218 64.2781C69.07 63.8263 68.7635 63.6973 67.9245 63.5521C67.3437 63.4553 66.6499 63.2455 66.3595 63.0842C65.5851 62.6324 55.8401 54.6138 54.985 53.7103L54.2267 52.9197L53.3393 54.0007Z" fill="white"/>
</svg>
