<svg width="30" height="30" viewBox="0 0 30 30" fill="none" xmlns="http://www.w3.org/2000/svg">
<g clip-path="url(#clip0_1_792)">
<path d="M15.8717 0.914765C15.9424 0.914211 16.0132 0.913657 16.0862 0.913086C16.1627 0.913442 16.2392 0.913798 16.3181 0.914164C16.3974 0.914046 16.4767 0.913875 16.5561 0.913655C16.7223 0.913395 16.8885 0.913772 17.0548 0.914593C17.2676 0.915594 17.4805 0.915019 17.6933 0.913965C17.8572 0.913329 18.021 0.913533 18.1848 0.913988C18.3014 0.914162 18.418 0.913629 18.5345 0.913086C18.6055 0.91364 18.6765 0.914194 18.7496 0.914765C18.8121 0.914905 18.8745 0.915045 18.9388 0.915189C19.1252 0.940757 19.203 0.981926 19.3359 1.11329C19.4044 1.27241 19.4607 1.42339 19.5126 1.58776C19.5355 1.6572 19.5355 1.6572 19.5589 1.72805C19.6074 1.87568 19.6547 2.02365 19.7021 2.17164C19.7349 2.27149 19.7677 2.37133 19.8005 2.47113C19.8316 2.56606 19.8626 2.66101 19.8935 2.75598C19.9081 2.80096 19.9228 2.84594 19.9378 2.89229C20.039 3.20873 20.039 3.20873 20.039 3.33985C20.072 3.34642 20.1049 3.353 20.1388 3.35977C20.6016 3.46836 21.0174 3.65759 21.4456 3.85917C21.4943 3.88191 21.543 3.90465 21.5931 3.92808C21.6366 3.94875 21.6801 3.96941 21.7248 3.99071C21.9163 4.06735 22.0695 4.12776 22.2708 4.06095C22.3107 4.0387 22.3506 4.01646 22.3917 3.99354C22.4594 3.9567 22.4594 3.9567 22.5284 3.91911C22.5995 3.87891 22.5995 3.87891 22.6721 3.8379C22.7718 3.78377 22.8715 3.72968 22.9712 3.67562C23.1099 3.59937 23.2485 3.52292 23.387 3.44643C23.4961 3.38672 23.6058 3.32837 23.7158 3.27027C23.7771 3.23681 23.8385 3.20335 23.9016 3.16888C24.122 3.0914 24.2761 3.08017 24.4922 3.16407C24.6942 3.31357 24.8667 3.48937 25.0429 3.66807C25.0942 3.71904 25.1455 3.77 25.1983 3.82251C25.3064 3.93035 25.414 4.03863 25.5212 4.14732C25.6854 4.31339 25.8514 4.4775 26.0177 4.6415C26.1225 4.7466 26.2273 4.85181 26.3319 4.95713C26.3816 5.0061 26.4313 5.05506 26.4825 5.10551C26.8592 5.49137 26.8592 5.49137 26.9016 5.73339C26.8953 5.89671 26.8881 5.99689 26.8162 6.14091C26.7976 6.17944 26.7789 6.21798 26.7597 6.25768C26.7389 6.29785 26.7181 6.33802 26.6968 6.3794C26.6759 6.42203 26.6551 6.46465 26.6336 6.50857C26.5198 6.73879 26.3988 6.96422 26.2729 7.18804C26.236 7.25451 26.236 7.25451 26.1983 7.32231C26.1507 7.4074 26.1019 7.49188 26.0519 7.57563C25.9462 7.76331 25.8917 7.87297 25.9305 8.08846C25.9586 8.14564 25.9866 8.20282 26.0156 8.26173C26.0463 8.32835 26.0769 8.39497 26.1085 8.4636C26.1434 8.53551 26.1783 8.60737 26.2134 8.67921C26.6601 9.61475 26.6601 9.61475 26.6601 9.96095C26.7292 9.97432 26.7982 9.98769 26.8693 10.0015C27.2359 10.0831 27.5891 10.2051 27.9436 10.3277C28.0599 10.3677 28.1764 10.4069 28.293 10.4461C28.3675 10.4716 28.4419 10.4972 28.5164 10.5229C28.5833 10.5457 28.6502 10.5686 28.7191 10.5922C28.8846 10.6632 28.9563 10.6985 29.0625 10.8399C29.0848 10.9951 29.0848 10.9951 29.0852 11.1842C29.0858 11.255 29.0863 11.3258 29.0869 11.3987C29.0864 11.5135 29.0864 11.5135 29.0858 11.6306C29.0859 11.71 29.0861 11.7893 29.0863 11.8686C29.0866 12.0348 29.0862 12.2011 29.0854 12.3673C29.0844 12.5802 29.085 12.793 29.086 13.0059C29.0867 13.1697 29.0864 13.3335 29.086 13.4973C29.0858 13.6139 29.0864 13.7305 29.0869 13.8471C29.0863 13.9181 29.0858 13.989 29.0852 14.0622C29.0851 14.1246 29.0849 14.187 29.0848 14.2514C29.0592 14.4377 29.0181 14.5155 28.8867 14.6484C28.7276 14.7169 28.5766 14.7732 28.4122 14.8251C28.3659 14.8404 28.3196 14.8557 28.2719 14.8714C28.1243 14.9199 27.9763 14.9673 27.8283 15.0147C27.7285 15.0474 27.6287 15.0802 27.5289 15.1131C27.4339 15.1441 27.339 15.1751 27.244 15.206C27.199 15.2206 27.154 15.2353 27.1077 15.2504C26.7913 15.3516 26.7913 15.3516 26.6601 15.3516C26.6522 15.3872 26.6443 15.4229 26.6361 15.4596C26.5277 15.9011 26.3608 16.3038 26.1749 16.7169C26.1584 16.7537 26.1418 16.7905 26.1248 16.8285C26.0774 16.927 26.022 17.0216 25.9662 17.1156C25.8765 17.3401 25.9273 17.4146 26.0156 17.6367C26.0821 17.7732 26.1501 17.9072 26.2214 18.0412C26.2614 18.1182 26.3013 18.1953 26.3412 18.2724C26.4036 18.3925 26.4663 18.5124 26.5299 18.6319C26.5916 18.7482 26.6519 18.8652 26.7121 18.9823C26.7312 19.0176 26.7504 19.0528 26.7701 19.0891C26.8566 19.2599 26.8949 19.3999 26.9081 19.591C26.7973 19.919 26.5753 20.1155 26.3319 20.3554C26.2809 20.4067 26.23 20.458 26.1775 20.5108C26.0696 20.6189 25.9614 20.7266 25.8527 20.8338C25.6866 20.998 25.5225 21.1639 25.3585 21.3302C25.2534 21.4351 25.1482 21.5398 25.0429 21.6444C24.9939 21.6941 24.9449 21.7438 24.8945 21.795C24.5086 22.1717 24.5086 22.1717 24.2666 22.2141C24.1033 22.2079 24.0031 22.2006 23.8591 22.1288C23.8205 22.1101 23.782 22.0914 23.7423 22.0722C23.7021 22.0514 23.662 22.0307 23.6206 22.0093C23.578 21.9884 23.5353 21.9676 23.4914 21.9461C23.2612 21.8323 23.0358 21.7113 22.8119 21.5854C22.7676 21.5608 22.7233 21.5362 22.6777 21.5109C22.5926 21.4632 22.5081 21.4144 22.4244 21.3644C22.2367 21.2588 22.127 21.2043 21.9115 21.243C21.8543 21.2711 21.7972 21.2992 21.7383 21.3281C21.6716 21.3588 21.605 21.3895 21.5364 21.4211C21.4645 21.4559 21.3926 21.4909 21.3208 21.5259C20.3852 21.9727 20.3852 21.9727 20.039 21.9727C20.0257 22.0417 20.0123 22.1107 19.9985 22.1819C19.9169 22.5485 19.7949 22.9016 19.6723 23.2561C19.6323 23.3724 19.5931 23.4889 19.5539 23.6055C19.5284 23.68 19.5028 23.7545 19.4771 23.8289C19.4542 23.8958 19.4314 23.9627 19.4078 24.0317C19.3368 24.1971 19.3014 24.2688 19.1601 24.375C19.0049 24.3973 19.0049 24.3973 18.8158 24.3978C18.745 24.3983 18.6742 24.3989 18.6013 24.3994C18.5247 24.3991 18.4482 24.3987 18.3693 24.3984C18.29 24.3985 18.2107 24.3986 18.1314 24.3989C17.9651 24.3991 17.7989 24.3987 17.6327 24.3979C17.4198 24.3969 17.207 24.3975 16.9941 24.3986C16.8303 24.3992 16.6665 24.399 16.5027 24.3985C16.3861 24.3984 16.2695 24.3989 16.1529 24.3994C16.0819 24.3989 16.011 24.3983 15.9378 24.3978C15.8754 24.3976 15.8129 24.3975 15.7486 24.3973C15.5622 24.3718 15.4845 24.3306 15.3515 24.1992C15.283 24.0401 15.2268 23.8891 15.1748 23.7248C15.1596 23.6785 15.1443 23.6322 15.1286 23.5845C15.0801 23.4368 15.0327 23.2889 14.9853 23.1409C14.9526 23.041 14.9198 22.9412 14.8869 22.8414C14.8559 22.7465 14.8249 22.6515 14.794 22.5565C14.7793 22.5116 14.7647 22.4666 14.7496 22.4202C14.6484 22.1038 14.6484 22.1038 14.6484 21.9727C14.61 21.9634 14.5717 21.9541 14.5321 21.9445C14.1034 21.8349 13.7052 21.6825 13.3008 21.5039C13.6874 21.0457 14.0985 20.6131 14.5164 20.1834C14.6094 20.0871 14.7017 19.99 14.7932 19.8922C14.9264 19.7501 15.0619 19.6106 15.1982 19.4714C15.2383 19.4276 15.2784 19.3837 15.3198 19.3385C15.5024 19.1564 15.6193 19.0495 15.8824 19.029C16.0604 19.0432 16.2309 19.0686 16.4062 19.1016C16.4879 19.1103 16.5697 19.118 16.6516 19.1242C16.7622 19.133 16.7622 19.133 16.875 19.1419C18.6929 19.2552 20.3661 18.6455 21.7285 17.4544C22.8805 16.4167 23.6916 14.8871 23.8039 13.3284C23.8371 12.5326 23.848 11.7247 23.6133 10.957C23.6013 10.9176 23.5893 10.8781 23.577 10.8374C23.0539 9.14619 21.9562 7.76018 20.3906 6.91407C18.8016 6.10971 17.0211 5.94059 15.3172 6.47256C13.6295 7.03899 12.2928 8.23771 11.4912 9.82316C10.8427 11.1696 10.7224 12.6604 11.0102 14.121C11.0156 14.2969 11.0156 14.2969 10.9269 14.4444C10.8079 14.5671 10.684 14.6633 10.5468 14.7656C10.0971 15.1325 9.69545 15.5518 9.28708 15.9631C9.21584 16.0347 9.14458 16.1062 9.07331 16.1777C8.90027 16.3514 8.72741 16.5253 8.55466 16.6992C8.41636 16.5609 8.42443 16.5285 8.41252 16.341C8.36049 15.9775 8.28486 15.6827 8.02732 15.4102C7.48858 15.0776 6.81351 14.9199 6.20594 14.7612C5.94712 14.6905 5.7915 14.6257 5.62497 14.4141C5.59521 14.254 5.59521 14.254 5.59465 14.0685C5.59391 13.9988 5.59317 13.9292 5.59241 13.8575C5.59312 13.7451 5.59312 13.7451 5.59384 13.6304C5.59362 13.5532 5.5934 13.4761 5.59317 13.3966C5.59282 13.2335 5.59332 13.0704 5.59442 12.9072C5.59575 12.6984 5.59498 12.4896 5.59358 12.2807C5.59253 12.0812 5.59326 11.8817 5.59384 11.6821C5.59337 11.6072 5.5929 11.5322 5.59241 11.455C5.59315 11.3854 5.59388 11.3158 5.59465 11.2441C5.59483 11.1828 5.59502 11.1216 5.59521 11.0585C5.63284 10.8561 5.69865 10.7893 5.85935 10.6641C6.02125 10.6058 6.17645 10.5576 6.34206 10.5137C7.42157 10.2706 7.42157 10.2706 8.24933 9.62953C8.3443 9.39901 8.38576 9.16455 8.41524 8.91782C8.4594 8.66208 8.60357 8.45723 8.73227 8.23495C8.80674 8.03947 8.77842 7.93769 8.73044 7.73438C8.66814 7.5961 8.60409 7.46513 8.53246 7.33201C8.49257 7.2552 8.45271 7.17837 8.41287 7.10153C8.35022 6.98203 8.28728 6.86271 8.22383 6.74364C8.16228 6.62769 8.10195 6.51116 8.04174 6.39451C8.02269 6.35958 8.00365 6.32465 7.98404 6.28867C7.85389 6.03429 7.76769 5.78724 7.85154 5.50782C7.99392 5.29827 8.16874 5.12771 8.34981 4.95141C8.40086 4.90019 8.45191 4.84897 8.50451 4.7962C8.61256 4.68834 8.7212 4.58106 8.83036 4.47432C8.99719 4.31088 9.16173 4.14537 9.32611 3.97946C9.43145 3.87485 9.53693 3.77036 9.64254 3.66601C9.69169 3.61652 9.74084 3.56702 9.79147 3.51603C10.1788 3.141 10.1788 3.141 10.4219 3.09851C10.66 3.10755 10.8304 3.18944 11.0339 3.30323C11.1158 3.34635 11.1976 3.38946 11.2795 3.43255C11.3434 3.46695 11.3434 3.46695 11.4086 3.50205C11.6424 3.6277 11.8781 3.7497 12.1142 3.87086C12.1589 3.89464 12.2036 3.91843 12.2496 3.94293C12.2916 3.96454 12.3337 3.98615 12.377 4.00842C12.414 4.02783 12.451 4.04725 12.4891 4.06725C12.7083 4.13657 12.9048 4.01641 13.1055 3.92808C13.1579 3.90527 13.2103 3.88246 13.2642 3.85896C13.3729 3.81124 13.4815 3.76348 13.5902 3.71568C13.6429 3.69272 13.6957 3.66975 13.75 3.6461C13.7973 3.6253 13.8446 3.6045 13.8934 3.58307C14.0625 3.51563 14.0625 3.51563 14.1919 3.48589C14.4638 3.4212 14.4638 3.4212 14.6641 3.23943C14.7211 3.10849 14.7628 2.9792 14.8018 2.84181C14.8175 2.79305 14.8332 2.7443 14.8495 2.69406C14.8992 2.53879 14.946 2.38281 14.9926 2.22657C15.0411 2.07056 15.0901 1.91475 15.1396 1.75908C15.1702 1.66235 15.2 1.56538 15.229 1.46817C15.2425 1.42418 15.2561 1.38018 15.27 1.33485C15.2816 1.29621 15.2931 1.25758 15.305 1.21778C15.4297 0.937675 15.5772 0.915425 15.8717 0.914765Z" fill="#EB3135"/>
<path d="M19.2774 8.37869C19.3945 8.49588 19.3945 8.49588 19.4275 8.70828C19.4206 8.91907 19.3729 9.01652 19.2311 9.17085C19.1939 9.21143 19.1566 9.25201 19.1182 9.29382C18.8746 9.54789 18.6278 9.79861 18.3784 10.047C18.2851 10.14 18.1921 10.2333 18.0992 10.3266C17.8087 10.6172 17.5179 10.9025 17.1985 11.1618C17.0938 11.2652 17.0406 11.3448 16.9922 11.4842C17.0025 11.6215 17.0025 11.6215 17.0448 11.7634C17.0584 11.8155 17.072 11.8676 17.086 11.9213C17.1085 12.0022 17.1085 12.0022 17.1314 12.0847C17.1531 12.167 17.1531 12.167 17.1753 12.2509C17.2112 12.3862 17.2478 12.5212 17.2852 12.656C17.4547 12.7053 17.6244 12.7541 17.7942 12.8025C17.842 12.8165 17.8899 12.8305 17.9392 12.8449C17.9858 12.8581 18.0325 12.8713 18.0805 12.8849C18.1232 12.8972 18.1658 12.9095 18.2098 12.9221C18.3604 12.9533 18.4791 12.9638 18.6328 12.949C18.7599 12.8638 18.7599 12.8638 18.874 12.7402C18.9193 12.6946 18.9647 12.649 19.0114 12.6021C19.0595 12.5523 19.1076 12.5025 19.1572 12.4512C19.2072 12.4006 19.2572 12.35 19.3088 12.2979C19.4687 12.136 19.6276 11.9731 19.7864 11.8101C19.946 11.6475 20.1059 11.4852 20.2659 11.3229C20.3654 11.2218 20.4647 11.1205 20.5638 11.0189C20.631 10.9503 20.631 10.9503 20.6996 10.8803C20.739 10.8398 20.7785 10.7993 20.8191 10.7576C20.9953 10.5905 21.1443 10.5934 21.3826 10.5803C21.5626 10.6173 21.6255 10.6966 21.7383 10.8396C21.8104 11.0188 21.8104 11.0188 21.8665 11.2168C21.8949 11.3146 21.8949 11.3146 21.9239 11.4144C22.2588 12.6987 22.0288 13.992 21.3888 15.1326C21.2529 15.3602 21.091 15.5617 20.918 15.7615C20.883 15.808 20.848 15.8544 20.812 15.9023C20.152 16.6846 19.1073 17.1912 18.1055 17.3435C17.8798 17.3427 17.6613 17.3232 17.4367 17.3014C16.745 17.2417 16.2243 17.2613 15.6533 17.7005C15.3686 17.944 15.1048 18.2069 14.8454 18.4768C14.6873 18.6397 14.5247 18.7978 14.3628 18.9567C14.092 19.2242 13.8252 19.4953 13.5606 19.769C13.2572 20.0826 12.9476 20.3889 12.6339 20.6923C12.3618 20.9557 12.0937 21.2228 11.8284 21.493C11.6711 21.6531 11.513 21.8118 11.3512 21.9673C10.7822 22.517 10.268 23.0341 10.2415 23.8647C10.2407 24.1425 10.2653 24.4159 10.2922 24.6925C10.3484 25.3311 10.1545 25.9436 9.85475 26.5061C9.83467 26.5451 9.8146 26.584 9.79392 26.6241C9.62791 26.9372 9.43125 27.2123 9.19923 27.4803C9.14677 27.5499 9.14677 27.5499 9.09326 27.621C8.61303 28.1903 7.9535 28.5675 7.26563 28.8279C7.19985 28.8533 7.13406 28.8787 7.06628 28.9048C6.11705 29.2123 4.91631 29.1957 3.98438 28.8279C3.64973 28.6274 3.64973 28.6274 3.57423 28.4763C3.54493 28.3225 3.54493 28.3225 3.57423 28.1248C3.65291 28.018 3.65291 28.018 3.75642 27.9048C3.79381 27.8636 3.83119 27.8224 3.86971 27.7799C3.90756 27.739 3.9454 27.6982 3.98438 27.656C4.03299 27.6026 4.03299 27.6026 4.08257 27.5482C4.18095 27.4406 4.28039 27.3341 4.37989 27.2276C4.43448 27.1678 4.43448 27.1678 4.49017 27.1069C4.70796 26.8718 4.93233 26.6555 5.17617 26.4473C5.70533 26.03 5.70533 26.03 6.00338 25.4569C5.99097 25.1705 5.90782 24.9152 5.78803 24.6563C5.73953 24.5444 5.71026 24.435 5.6836 24.3162C5.49352 24.2636 5.30299 24.2128 5.11231 24.1624C5.03142 24.14 5.03142 24.14 4.94889 24.1171C4.89678 24.1035 4.84466 24.0899 4.79096 24.0759C4.7431 24.063 4.69523 24.0501 4.64591 24.0368C4.47873 24.0199 4.42093 24.0553 4.27735 24.1404C4.19833 24.2098 4.12214 24.2824 4.04821 24.3572C4.00403 24.4016 3.95985 24.4459 3.91433 24.4917C3.8672 24.5396 3.82008 24.5875 3.77152 24.6369C3.69831 24.7105 3.69831 24.7105 3.62361 24.7857C3.46771 24.9426 3.3122 25.1 3.15675 25.2574C3.00082 25.4149 2.84481 25.5724 2.68863 25.7296C2.59143 25.8276 2.4944 25.9256 2.39753 26.0239C2.35372 26.0681 2.30991 26.1123 2.26477 26.1578C2.22618 26.1969 2.18759 26.2359 2.14783 26.2762C1.97222 26.4405 1.82196 26.4375 1.58616 26.4505C1.40621 26.4135 1.34324 26.3342 1.23048 26.1912C1.15838 26.012 1.15838 26.012 1.1023 25.814C1.08335 25.7488 1.06439 25.6836 1.04485 25.6165C0.709948 24.3319 0.94002 23.0387 1.58027 21.8979C1.716 21.6702 1.87695 21.4686 2.05079 21.2693C2.09603 21.2126 2.14128 21.1559 2.18789 21.0974C2.81367 20.3478 3.90038 19.8044 4.86329 19.6873C6.0612 19.6148 6.0612 19.6148 6.44753 19.7492C6.82703 19.7437 7.01319 19.4893 7.27489 19.2337C7.33375 19.1777 7.39269 19.1219 7.45172 19.0662C7.6452 18.8825 7.83619 18.6964 8.02712 18.5101C8.09333 18.4458 8.15955 18.3815 8.22579 18.3173C8.53754 18.0145 8.84814 17.7105 9.1574 17.4052C9.51232 17.0548 9.87074 16.7086 10.2328 16.3657C10.5136 16.0991 10.7905 15.829 11.065 15.556C11.2285 15.3936 11.3931 15.233 11.562 15.0762C12.39 14.321 12.39 14.321 12.7274 13.2899C12.7383 12.9695 12.7114 12.6568 12.6788 12.3378C12.619 11.6993 12.8142 11.0872 13.114 10.5247C13.1341 10.4857 13.1543 10.4468 13.175 10.4066C13.3411 10.0935 13.5365 9.81767 13.7695 9.55057C13.8148 9.49385 13.86 9.43712 13.9066 9.37868C14.3762 8.81615 15.0299 8.46199 15.7031 8.20291C15.8009 8.16473 15.8009 8.16473 15.9007 8.12578C16.9085 7.79747 18.3656 7.77242 19.2774 8.37869Z" fill="#EB3135"/>
</g>
<defs>
<clipPath id="clip0_1_792">
<rect width="30" height="30" fill="white"/>
</clipPath>
</defs>
</svg>
