<svg width="43" height="43" viewBox="0 0 43 43" fill="none" xmlns="http://www.w3.org/2000/svg">
<g clip-path="url(#clip0_57_2375)">
<path d="M16.9816 0.100781C16.9145 0.167968 16.8809 0.545898 16.8809 1.23457V2.26758H8.82676C3.15781 2.26758 0.705469 2.29277 0.512305 2.35996C0.0419922 2.51953 0 2.72949 0 4.66113V6.39961L0.243555 6.64316L0.487109 6.88672H8.68398H16.8809V7.92812C16.8809 8.76797 16.9061 9.00312 17.0152 9.10391C17.0824 9.17949 17.1916 9.23828 17.2504 9.23828C17.3092 9.23828 17.6031 8.98633 17.8971 8.66719C18.9889 7.525 21.374 4.8543 21.4496 4.69473C21.5084 4.56875 21.4748 4.47637 21.3152 4.3C21.2061 4.17402 20.3578 3.2418 19.4424 2.22559C18.527 1.20937 17.6871 0.293945 17.5779 0.184765C17.3512 -0.0167973 17.1328 -0.050391 16.9816 0.100781Z" fill="#EB3135"/>
<path d="M22.5574 3.37607C22.8346 3.71201 23.0109 4.11514 23.0109 4.40908V4.62744L25.1189 4.60225L27.227 4.57705L27.4285 4.34189C27.6973 4.03115 27.6973 3.61963 27.4201 3.32568L27.2186 3.10732H24.7746H22.3223L22.5574 3.37607Z" fill="#EB3135"/>
<path d="M21.6428 6.83633C21.29 7.23105 20.9961 7.56699 20.9961 7.58379C20.9961 7.60898 21.6932 7.64258 22.5498 7.65937C24.0951 7.68457 24.1035 7.68457 24.3219 7.90293C24.6242 8.20527 24.6242 8.67559 24.3219 8.97793C24.1119 9.17949 24.0447 9.19629 23.1797 9.22148L22.2559 9.25508V10.7584V12.2617H24.1875H26.1191V9.19629V6.13086H24.2043H22.2895L21.6428 6.83633Z" fill="#EB3135"/>
<path d="M18.8965 9.84297C18.2498 10.54 18.023 10.666 17.368 10.7248L16.8809 10.7752V11.5143V12.2617H18.8125H20.7441V10.75V9.23828L20.0975 9.24668L19.4424 9.25508L18.8965 9.84297Z" fill="#EB3135"/>
<path d="M14.1682 13.9834C13.2191 14.2438 12.2533 14.8904 11.7242 15.6127C11.5563 15.8395 11.4219 16.041 11.4219 16.0746C11.4219 16.0998 15.957 16.125 21.5 16.125C27.043 16.125 31.5781 16.0998 31.5781 16.0662C31.5781 16.041 31.4354 15.8227 31.2506 15.5875C30.6795 14.8232 29.7809 14.2438 28.7646 13.975C28.1516 13.807 14.7645 13.8238 14.1682 13.9834Z" fill="#EB3135"/>
<path d="M10.8009 17.8215C10.7254 18.107 10.7421 32.7791 10.8177 32.8967C10.8681 32.9807 12.0691 33.0059 15.9912 33.0227L21.0974 33.0479L21.299 33.283C21.5929 33.6273 21.5425 34.1229 21.173 34.4084C21.0722 34.484 19.8796 34.5092 16.2347 34.5176C13.3961 34.5176 11.4224 34.5512 11.4224 34.5932C11.4224 34.7443 12.1027 35.5254 12.5142 35.8529C12.741 36.0377 13.1441 36.2812 13.4045 36.4072C14.2695 36.8187 14.7482 36.8691 17.8556 36.8691H20.7111L22.4496 34.9459C24.4904 32.6867 24.7339 32.46 25.2127 32.3256C25.6326 32.2164 26.2541 32.2668 26.5984 32.4516C27.2031 32.7623 27.623 33.4426 27.6314 34.1145V34.5176H29.647H31.6711L31.839 34.1229C32.2505 33.1654 32.2505 33.1906 32.2505 25.3633C32.2505 21.3236 32.2253 17.9307 32.2002 17.8215L32.1498 17.6367H21.5005H10.8513L10.8009 17.8215ZM22.164 19.35C22.29 19.4172 22.6931 19.7951 23.0627 20.1814C24.9523 22.1803 26.1113 24.6578 26.1113 26.707C26.1197 29.0586 24.398 31.0994 22.122 31.427C19.8125 31.7629 17.5113 30.0664 17.0074 27.6729C16.8478 26.9254 16.8478 26.4887 17.0074 25.6068C17.2425 24.2631 17.7632 23.0537 18.6787 21.7184C19.233 20.9037 20.3836 19.6355 20.7867 19.3836C21.0974 19.1988 21.8281 19.182 22.164 19.35Z" fill="#EB3135"/>
<path d="M20.8032 21.4916C19.3755 23.1881 18.7036 24.5486 18.4684 26.1527C18.2249 27.9248 19.3587 29.5709 21.0552 29.89C22.4157 30.1504 23.835 29.2938 24.3641 27.8996C24.8932 26.4887 24.2802 24.2127 22.8524 22.3147C22.4325 21.752 21.5339 20.7441 21.4583 20.7441C21.4415 20.7441 21.1475 21.0801 20.8032 21.4916Z" fill="#EB3135"/>
<path d="M25.5732 33.8289C25.4977 33.8793 23.9775 35.5421 21.8191 37.9357C21.6428 38.1373 21.5 38.3388 21.5 38.3976C21.5 38.5656 25.4305 42.8656 25.6572 42.9496C26.052 43.1007 26.1191 42.9244 26.1191 41.7738V40.7324H34.1732C39.8422 40.7324 42.2945 40.7072 42.4877 40.64C42.9496 40.4804 43 40.2705 43 38.3472V36.6339L42.7816 36.3736L42.5633 36.1132H34.3412H26.1191V35.0718C26.1191 34.232 26.0939 33.9968 25.9848 33.8961C25.842 33.7533 25.7076 33.7281 25.5732 33.8289Z" fill="#EB3135"/>
<path d="M13.8574 39.1703C13.8574 39.7162 13.8994 40.2285 13.9498 40.3293C14.1514 40.7072 14.3949 40.7324 17.9727 40.7324C19.8203 40.7324 21.332 40.7072 21.332 40.6736C21.332 40.6484 21.0969 40.3629 20.8113 40.0438C20.2402 39.3887 19.9883 38.9604 19.9883 38.6244V38.3893L17.116 38.3557C15.5287 38.3389 14.1514 38.2969 14.0506 38.2633C13.8574 38.1961 13.8574 38.1961 13.8574 39.1703Z" fill="#EB3135"/>
</g>
<defs>
<clipPath id="clip0_57_2375">
<rect width="43" height="43" fill="white"/>
</clipPath>
</defs>
</svg>
