<svg width="30" height="30" viewBox="0 0 30 30" fill="none" xmlns="http://www.w3.org/2000/svg">
<path d="M8.42559 2.45223C8.51292 2.45197 8.51292 2.45197 8.60201 2.45171C8.79731 2.4512 8.9926 2.45111 9.1879 2.45102C9.32785 2.45075 9.4678 2.45046 9.60774 2.45014C9.98813 2.44937 10.3685 2.44899 10.7489 2.44873C10.9866 2.44857 11.2243 2.44832 11.4619 2.44806C12.1204 2.44735 12.779 2.44674 13.4375 2.44654C13.5007 2.44652 13.5007 2.44652 13.5651 2.4465C13.6073 2.44649 13.6496 2.44648 13.6931 2.44647C13.7786 2.44644 13.8642 2.44641 13.9497 2.44639C14.0134 2.44637 14.0134 2.44637 14.0783 2.44635C14.7656 2.44612 15.4529 2.44509 16.1402 2.44373C16.8464 2.44234 17.5526 2.44161 18.2589 2.44154C18.6551 2.44149 19.0514 2.44115 19.4477 2.44009C19.8206 2.43912 20.1934 2.439 20.5663 2.43951C20.703 2.43955 20.8396 2.4393 20.9763 2.43872C21.1632 2.43797 21.3502 2.43832 21.5372 2.43893C21.5909 2.43846 21.6446 2.43799 21.6999 2.4375C22.3513 2.44245 22.8403 2.62995 23.304 3.08737C23.6669 3.48406 23.7968 3.91174 23.7957 4.44631C23.7957 4.51433 23.7957 4.58235 23.7957 4.65243C23.7954 4.72525 23.7951 4.79808 23.7948 4.87311C23.7946 4.98563 23.7946 4.98563 23.7945 5.10043C23.7943 5.29915 23.7937 5.49787 23.7931 5.69659C23.7925 5.89966 23.7922 6.10273 23.7919 6.30579C23.7912 6.7037 23.7903 7.10162 23.789 7.49953C23.8552 7.4983 23.9213 7.49707 23.9895 7.49581C24.2374 7.49153 24.4853 7.48886 24.7332 7.48665C24.84 7.48548 24.9468 7.48389 25.0537 7.48184C25.8186 7.4676 26.4393 7.47391 27.0261 8.02756C27.5071 8.57288 27.5572 9.16006 27.5567 9.8577C27.5569 9.93292 27.5572 10.0082 27.5574 10.0857C27.5579 10.2448 27.5578 10.4039 27.5575 10.563C27.5573 10.7244 27.5577 10.8856 27.5587 11.047C27.5706 12.8453 27.3702 14.3089 26.0671 15.6553C25.493 16.1935 24.8312 16.5318 24.082 16.7573C24.0378 16.7711 23.9936 16.7848 23.9481 16.799C23.7289 16.8573 23.5508 16.8743 23.3217 16.8633C22.8678 16.8326 22.8678 16.8326 22.4675 17.0084C22.2954 17.2159 22.174 17.4538 22.0456 17.6897C21.9227 17.8957 21.7685 18.0722 21.6101 18.2515C21.5798 18.286 21.5494 18.3204 21.5182 18.356C21.4359 18.4487 21.3529 18.5406 21.2695 18.6323C21.2166 18.6916 21.2166 18.6916 21.1626 18.752C20.1627 19.8124 18.738 20.5877 17.3437 20.9761C17.305 20.9761 17.2664 20.9761 17.2265 20.9761C17.2313 21.1702 17.2379 21.3643 17.2448 21.5584C17.2462 21.6126 17.2475 21.6669 17.2488 21.7228C17.2721 22.3264 17.4181 22.8391 17.8711 23.2612C18.2577 23.5026 18.631 23.6771 19.0894 23.6806C19.145 23.6812 19.2006 23.6818 19.2578 23.6825C19.3475 23.6831 19.3475 23.6831 19.4389 23.6838C19.5663 23.6854 19.6937 23.6871 19.8211 23.6888C20.0213 23.6912 20.2215 23.6934 20.4217 23.6949C20.6153 23.6965 20.809 23.6992 21.0026 23.7021C21.0617 23.7023 21.1207 23.7025 21.1815 23.7026C21.929 23.7154 22.5472 23.9637 23.1006 24.4697C23.58 24.9773 23.823 25.6615 23.8037 26.355C23.7602 26.7376 23.6168 26.9974 23.3203 27.2456C23.0268 27.4612 22.8253 27.5457 22.4652 27.5463C22.4112 27.5465 22.3571 27.5467 22.3014 27.547C22.2422 27.5469 22.183 27.5469 22.1221 27.5468C22.059 27.547 21.996 27.5472 21.931 27.5473C21.7191 27.5479 21.5071 27.5479 21.2952 27.548C21.1435 27.5483 20.9918 27.5486 20.8402 27.5489C20.4276 27.5497 20.015 27.5501 19.6024 27.5503C19.3448 27.5505 19.0871 27.5507 18.8294 27.551C18.1159 27.5517 17.4023 27.5523 16.6888 27.5525C16.6431 27.5525 16.5974 27.5525 16.5504 27.5525C16.4817 27.5526 16.4817 27.5526 16.4117 27.5526C16.3189 27.5526 16.2262 27.5526 16.1335 27.5527C16.0874 27.5527 16.0414 27.5527 15.994 27.5527C15.2487 27.5529 14.5034 27.554 13.758 27.5553C12.9926 27.5567 12.2272 27.5574 11.4618 27.5575C11.0321 27.5576 10.6024 27.5579 10.1727 27.559C9.76857 27.56 9.3644 27.5601 8.96023 27.5595C8.81189 27.5595 8.66355 27.5598 8.51522 27.5603C8.31268 27.5611 8.11018 27.5607 7.90764 27.5601C7.84898 27.5606 7.79032 27.5611 7.72988 27.5616C7.25836 27.5582 6.85044 27.475 6.50388 27.1284C6.20453 26.6956 6.15679 26.2973 6.23792 25.7865C6.37721 25.1498 6.68297 24.5982 7.207 24.1987C7.6568 23.9359 8.0769 23.7239 8.60687 23.7217C8.66225 23.7213 8.71763 23.7209 8.77469 23.7204C8.83396 23.7202 8.89322 23.7199 8.95429 23.7197C9.08124 23.7183 9.20819 23.7169 9.33515 23.7155C9.53416 23.7134 9.73316 23.7117 9.93218 23.7109C10.125 23.71 10.3178 23.7076 10.5107 23.705C10.5692 23.7052 10.6278 23.7053 10.6881 23.7054C11.2938 23.695 11.8661 23.519 12.3047 23.0855C12.6766 22.6195 12.7325 22.1441 12.7514 21.5657C12.7548 21.4804 12.7548 21.4804 12.7583 21.3935C12.7638 21.2543 12.7688 21.1152 12.7734 20.9761C12.7342 20.9668 12.695 20.9576 12.6545 20.948C10.8404 20.5086 9.03879 19.2909 7.96872 17.7534C7.92682 17.6782 7.88624 17.6021 7.84696 17.5255C7.72903 17.299 7.62253 17.1161 7.44138 16.9331C7.14724 16.8583 6.87658 16.868 6.57535 16.8764C5.5156 16.8614 4.51922 16.2082 3.77744 15.5031C2.77881 14.4497 2.44222 13.1957 2.44329 11.7744C2.44303 11.6988 2.44278 11.6232 2.44252 11.5454C2.44209 11.3869 2.4421 11.2284 2.44241 11.0699C2.44275 10.8684 2.44176 10.6669 2.4404 10.4654C2.43932 10.2706 2.43955 10.0758 2.43962 9.88104C2.43908 9.80956 2.43854 9.73807 2.43799 9.66442C2.44163 8.98743 2.55978 8.45815 3.04685 7.96828C3.48879 7.61488 3.84799 7.48127 4.40846 7.48808C4.48588 7.48833 4.48588 7.48833 4.56485 7.48858C4.72902 7.48924 4.89318 7.49071 5.05734 7.4922C5.16892 7.49279 5.2805 7.49332 5.39208 7.4938C5.66503 7.49509 5.93797 7.49711 6.21091 7.49953C6.21052 7.45825 6.21013 7.41698 6.20973 7.37445C6.20619 6.98316 6.20352 6.59188 6.2018 6.20058C6.20089 5.99947 6.19965 5.79837 6.19765 5.59726C6.19535 5.36541 6.19452 5.13357 6.19374 4.90172C6.19284 4.8304 6.19193 4.75909 6.19099 4.68562C6.19085 3.97151 6.33142 3.45885 6.83782 2.94546C7.3094 2.51415 7.80814 2.45166 8.42559 2.45223ZM14.4201 7.46496C14.3859 7.51625 14.3517 7.56754 14.3165 7.62038C14.2597 7.70489 14.2597 7.70489 14.2016 7.79112C14.163 7.84958 14.1243 7.90804 14.0844 7.96828C14.0068 8.08427 13.9291 8.20024 13.8514 8.31618C13.8174 8.36746 13.7834 8.41875 13.7483 8.47159C13.7166 8.51819 13.685 8.56479 13.6523 8.61281C13.6281 8.65465 13.6039 8.6965 13.579 8.73961C13.4285 8.89759 13.2492 8.93529 13.0446 8.99C13.0025 9.00212 12.9604 9.01424 12.917 9.02673C12.7827 9.06534 12.6481 9.10286 12.5134 9.14015C12.3362 9.18932 12.1594 9.23951 11.9826 9.2903C11.9421 9.30117 11.9016 9.31204 11.8598 9.32324C11.618 9.39272 11.4618 9.46504 11.3086 9.66749C11.2644 9.91276 11.2588 10.0472 11.3807 10.2653C11.4808 10.4033 11.5865 10.5336 11.6967 10.6636C11.8059 10.7971 11.9148 10.9306 12.023 11.0648C12.1249 11.1905 12.1249 11.1905 12.2339 11.2931C12.5085 11.5837 12.5124 11.8749 12.5066 12.2567C12.5027 12.391 12.4972 12.5252 12.4914 12.6594C12.4865 12.7942 12.4822 12.9289 12.4789 13.0636C12.4768 13.147 12.4737 13.2304 12.4695 13.3137C12.4606 13.613 12.5171 13.8029 12.6562 14.062C12.861 14.1986 12.9642 14.1874 13.2023 14.1548C13.5759 14.0735 13.9292 13.915 14.2829 13.7727C14.9884 13.5029 15.4066 13.6534 16.0949 13.9192C16.2231 13.9686 16.3515 14.0176 16.4801 14.0659C16.5363 14.0876 16.5925 14.1094 16.6504 14.1317C16.8337 14.1842 16.9782 14.1966 17.1679 14.1792C17.3328 14.051 17.4395 13.9584 17.4997 13.7554C17.5238 13.5583 17.5114 13.3768 17.4964 13.1788C17.4045 11.6211 17.4045 11.6211 17.9077 11.0408C18.0135 10.927 18.1216 10.8177 18.234 10.7104C18.469 10.4763 18.7098 10.2307 18.728 9.88722C18.686 9.63545 18.6532 9.5872 18.457 9.43312C18.3131 9.38334 18.1791 9.34482 18.0317 9.3109C17.947 9.28883 17.8623 9.26663 17.7777 9.24429C17.6457 9.21023 17.5137 9.17712 17.3809 9.14653C16.7935 9.0092 16.4466 8.8512 16.1163 8.33253C16.0553 8.23144 15.9963 8.12919 15.9375 8.02687C15.8835 7.94611 15.829 7.86577 15.7731 7.78631C15.6912 7.66434 15.6094 7.54227 15.5278 7.4201C15.3709 7.21343 15.2628 7.10233 15.0036 7.06373C14.7314 7.10262 14.5872 7.25261 14.4201 7.46496ZM3.86716 9.02296C3.71302 9.33103 3.733 9.65633 3.73441 9.99319C3.7343 10.053 3.73418 10.1129 3.73407 10.1745C3.73399 10.3012 3.7342 10.4278 3.73469 10.5544C3.73532 10.7453 3.7347 10.9362 3.73395 11.1272C3.73308 12.298 3.77817 13.3257 4.51169 14.2964C4.53964 14.3354 4.56758 14.3743 4.59638 14.4145C5.12914 15.0945 5.96223 15.4578 6.79685 15.5855C6.78688 15.5512 6.77691 15.5169 6.76663 15.4816C6.66881 15.135 6.58129 14.7864 6.50022 14.4356C6.49072 14.3962 6.48122 14.3568 6.47143 14.3162C6.2912 13.5198 6.25164 12.709 6.24524 11.8957C6.24414 11.8051 6.24299 11.7146 6.2418 11.6241C6.23884 11.3895 6.23649 11.155 6.23429 10.9204C6.23192 10.6796 6.22894 10.4388 6.22602 10.1979C6.2204 9.72815 6.21544 9.25837 6.21091 8.78859C5.92421 8.78278 5.63755 8.77853 5.35081 8.77571C5.25334 8.77454 5.15588 8.77294 5.05842 8.77091C4.91805 8.76805 4.77774 8.76673 4.63735 8.7657C4.594 8.76449 4.55065 8.76328 4.50599 8.76203C4.21647 8.76191 4.06887 8.81487 3.86716 9.02296ZM23.789 8.78859C23.7886 8.83776 23.7881 8.88693 23.7876 8.9376C23.783 9.40551 23.7779 9.87341 23.7722 10.3413C23.7693 10.5817 23.7666 10.8222 23.7643 11.0626C23.7621 11.2955 23.7594 11.5284 23.7563 11.7613C23.7553 11.8493 23.7544 11.9373 23.7537 12.0252C23.7468 12.8744 23.6799 13.7095 23.4668 14.5344C23.4543 14.5847 23.4418 14.635 23.429 14.6868C23.3933 14.8302 23.3569 14.9735 23.3203 15.1167C23.2976 15.207 23.2751 15.2972 23.2525 15.3875C23.2362 15.4528 23.2199 15.5181 23.2031 15.5855C24.2421 15.3732 25.0873 14.9507 25.6894 14.0412C26.1688 13.2319 26.2578 12.4537 26.2619 11.529C26.2624 11.4381 26.2624 11.4381 26.2629 11.3453C26.2634 11.2181 26.2638 11.0909 26.264 10.9637C26.2646 10.7697 26.2664 10.5757 26.2683 10.3817C26.2687 10.2576 26.269 10.1334 26.2692 10.0092C26.2699 9.95165 26.2706 9.89409 26.2714 9.83478C26.2702 9.46379 26.2504 9.14763 25.9801 8.86653C25.7801 8.7554 25.5909 8.76679 25.3683 8.77142C25.3005 8.7718 25.3005 8.7718 25.2314 8.77218C25.0875 8.77316 24.9437 8.77536 24.7998 8.7776C24.702 8.77848 24.6043 8.77929 24.5066 8.78001C24.2674 8.78194 24.0282 8.78497 23.789 8.78859Z" fill="#EB3135"/>
</svg>
