<svg width="35" height="41" viewBox="0 0 35 41" fill="none" xmlns="http://www.w3.org/2000/svg">
<path d="M16.5693 0.147748C16.3931 0.235833 15.9447 0.580169 15.5683 0.916497C13.3421 2.94247 10.8757 4.3038 7.99289 5.1206C6.35129 5.58505 3.87688 5.91337 2.0511 5.92138C0.913989 5.92939 0.513599 6.10556 0.169263 6.7622C0.00109861 7.07451 0.00109861 7.16259 0.00109861 12.688C-0.0069092 18.7579 0.0171142 19.2544 0.481567 22.1772C1.93098 31.2901 6.8718 37.2079 15.8806 40.6032C17.2179 41.1077 17.2019 41.1077 19.1157 40.347C21.7103 39.322 24.2007 37.9046 26.1146 36.3591C27.1556 35.5183 28.8132 33.8046 29.622 32.7315C31.7921 29.8487 33.1614 26.4214 33.8661 22.0972C34.3146 19.3265 34.3466 18.7419 34.3386 12.688C34.3386 7.09853 34.3386 7.08251 34.1624 6.74618C33.9542 6.34579 33.6659 6.10556 33.2736 6.00947C33.1134 5.96943 32.3927 5.91337 31.664 5.88935C26.4829 5.71318 22.2148 4.07158 18.7714 0.916497C17.7704 0.00360689 17.2579 -0.172565 16.5693 0.147748ZM24.0325 15.1784C24.553 15.731 24.9855 16.2194 25.0015 16.2515C25.0175 16.2915 22.9835 18.2374 20.4931 20.5917C15.8886 24.9239 15.5363 25.2202 14.9677 25.2202C14.3911 25.2122 14.1509 25.004 11.8447 22.4495C10.6195 21.0882 9.55442 19.903 9.47434 19.8149C9.3302 19.6548 9.35422 19.6308 10.3872 18.7179C10.9718 18.2054 11.4683 17.7729 11.5003 17.7569C11.5323 17.7489 12.3331 18.5977 13.2861 19.6548C14.239 20.7118 15.0638 21.5847 15.1118 21.5927C15.1679 21.6007 16.9536 19.9351 19.0917 17.8931C21.2298 15.8511 22.9995 14.1774 23.0316 14.1774C23.0556 14.1694 23.504 14.6259 24.0325 15.1784Z" fill="white"/>
</svg>
