<svg width="30" height="30" viewBox="0 0 30 30" fill="none" xmlns="http://www.w3.org/2000/svg">
<g clip-path="url(#clip0_1_807)">
<path d="M16.0204 0.234413C16.0899 0.259006 16.1594 0.283599 16.231 0.308938C16.4191 0.375645 16.6069 0.443144 16.7945 0.511017C16.9924 0.582376 17.1907 0.652661 17.389 0.723047C17.7107 0.837404 18.0323 0.952316 18.3537 1.06769C18.7537 1.21124 19.1541 1.35355 19.5547 1.49509C19.6122 1.51538 19.6696 1.53567 19.7287 1.55657C19.8422 1.59664 19.9556 1.63672 20.0691 1.67679C20.2936 1.75618 20.518 1.83586 20.7424 1.91553C21.3144 2.11857 21.8868 2.32049 22.4595 2.52163C22.5659 2.55901 22.5659 2.55901 22.6744 2.59714C23.0181 2.71785 23.3617 2.83847 23.7055 2.95894C24.0092 3.06546 24.3127 3.17259 24.6161 3.28024C24.728 3.31989 24.8401 3.35935 24.9522 3.39861C25.1069 3.45287 25.2613 3.50785 25.4157 3.56304C25.4607 3.57864 25.5057 3.59425 25.552 3.61032C25.8319 3.71153 26.1096 3.82102 26.25 4.10183C26.2558 4.23582 26.2577 4.36998 26.2578 4.5041C26.258 4.54599 26.2581 4.58787 26.2582 4.63103C26.2586 4.77218 26.2586 4.91333 26.2585 5.05448C26.2587 5.15546 26.2589 5.25644 26.2591 5.35741C26.2596 5.63282 26.2598 5.90821 26.2598 6.18361C26.2598 6.35639 26.26 6.52917 26.2601 6.70195C26.2607 7.30697 26.2609 7.91199 26.2609 8.517C26.2608 9.0768 26.2614 9.63659 26.2624 10.1964C26.2631 10.6793 26.2634 11.1622 26.2634 11.6451C26.2634 11.9324 26.2635 12.2197 26.2642 12.507C26.2675 14.1544 26.2419 15.7958 26.0266 17.4319C26.0193 17.489 26.0193 17.489 26.0118 17.5473C25.6856 20.063 24.8847 22.4954 23.2031 24.4339C23.1624 24.4811 23.1217 24.5283 23.0798 24.5769C22.5232 25.2085 21.9321 25.7892 21.2695 26.3089C21.2249 26.3457 21.1803 26.3826 21.1343 26.4206C19.8241 27.4988 18.3414 28.3607 16.8612 29.1811C16.7578 29.2385 16.6546 29.2963 16.5514 29.3541C16.3549 29.4636 16.1574 29.5711 15.9595 29.678C15.9009 29.7107 15.8423 29.7434 15.7819 29.7771C15.42 29.9688 15.1167 30.0924 14.707 30.0003C14.4289 29.8928 14.1696 29.7554 13.9087 29.6121C13.8336 29.5719 13.7585 29.5319 13.6834 29.4918C12.2321 28.7143 10.8243 27.8629 9.49218 26.8948C9.45857 26.8706 9.42496 26.8463 9.39033 26.8213C9.02046 26.5539 8.6723 26.2725 8.33679 25.963C8.22116 25.8567 8.10332 25.7547 7.98339 25.6533C4.99814 23.036 4.05391 19.3839 3.79708 15.5465C3.72816 14.4801 3.73069 13.4127 3.7304 12.3445C3.73031 12.1723 3.73006 12.0002 3.72975 11.828C3.72868 11.2259 3.72819 10.6238 3.72828 10.0217C3.72835 9.46223 3.7271 8.90281 3.72526 8.34338C3.72373 7.85991 3.7231 7.37645 3.72318 6.89298C3.72321 6.60549 3.72288 6.31801 3.72163 6.03052C3.7205 5.76166 3.72049 5.49281 3.72134 5.22394C3.72147 5.12542 3.72119 5.02689 3.72048 4.92838C3.71958 4.79397 3.72012 4.65964 3.72102 4.52524C3.72096 4.45009 3.7209 4.37494 3.72083 4.29752C3.75522 4.06679 3.82029 3.97175 3.98437 3.80886C4.16084 3.7215 4.16084 3.7215 4.37622 3.64704C4.43687 3.6256 4.43687 3.6256 4.49874 3.60373C4.5896 3.57172 4.6806 3.54014 4.77173 3.50891C4.93141 3.45402 5.09054 3.39771 5.24963 3.34111C5.56072 3.23061 5.87218 3.12117 6.18375 3.01204C6.53591 2.88868 6.88794 2.76499 7.23999 2.64133C7.31147 2.61624 7.38295 2.59114 7.45659 2.56528C8.13558 2.32679 8.81394 2.08657 9.49218 1.84597C10.6687 1.42868 11.8461 1.01401 13.0239 0.600395C13.0885 0.577713 13.153 0.555032 13.2195 0.531663C13.3393 0.48958 13.4591 0.447525 13.5789 0.405505C13.6604 0.376861 13.6604 0.376861 13.7435 0.347638C13.8228 0.320081 13.8228 0.320081 13.9037 0.291968C14.0119 0.252905 14.1193 0.211531 14.2259 0.168175C14.8936 -0.0984329 15.3565 -0.0083856 16.0204 0.234413ZM14.2216 2.87434C14.1417 2.90295 14.1417 2.90295 14.0603 2.93214C13.8838 2.99553 13.7077 3.05979 13.5315 3.12405C13.4066 3.16904 13.2818 3.21395 13.1569 3.2588C12.9599 3.32952 12.763 3.40029 12.5662 3.47129C11.8885 3.71571 11.2087 3.9541 10.5287 4.19227C10.1327 4.33115 9.73696 4.47084 9.34119 4.61046C8.99059 4.7341 8.63981 4.85718 8.28881 4.97966C8.09059 5.049 7.89259 5.11894 7.69465 5.18908C7.60535 5.22059 7.51596 5.25183 7.42648 5.28279C7.30546 5.3247 7.18481 5.36752 7.06421 5.41058C6.99781 5.43387 6.93142 5.45716 6.86302 5.48116C6.64384 5.58339 6.50337 5.69307 6.32812 5.85964C6.26916 6.03654 6.26216 6.15399 6.26209 6.3389C6.26192 6.40177 6.26176 6.46465 6.26159 6.52944C6.26171 6.59846 6.26182 6.66749 6.26195 6.7386C6.26184 6.81133 6.26174 6.88406 6.26164 6.95899C6.26142 7.15894 6.26147 7.35888 6.26166 7.55883C6.26181 7.76926 6.26167 7.97969 6.26158 8.19013C6.26147 8.54479 6.26161 8.89944 6.26189 9.2541C6.2622 9.66064 6.26211 10.0672 6.26178 10.4737C6.26151 10.8246 6.26148 11.1756 6.26163 11.5265C6.26172 11.7352 6.26174 11.9439 6.26154 12.1526C6.26092 12.9285 6.26296 13.7041 6.29199 14.4795C6.29376 14.5344 6.29554 14.5893 6.29737 14.6459C6.31218 14.9811 6.33553 15.2198 6.55637 15.4854C6.8374 15.6411 7.10597 15.6187 7.42216 15.6163C7.49136 15.6167 7.56056 15.6172 7.63186 15.6176C7.82121 15.6185 8.01053 15.6184 8.19988 15.6179C8.39835 15.6177 8.59681 15.6188 8.79528 15.6199C9.17128 15.6217 9.54728 15.6223 9.92329 15.6226C10.5963 15.6229 11.2694 15.6246 11.9424 15.6275C12.1398 15.6283 12.3372 15.6289 12.5346 15.6287C12.7548 15.6286 12.975 15.6292 13.1952 15.6298C13.2604 15.6296 13.3255 15.6294 13.3926 15.6291C14.0105 15.6323 14.0105 15.6323 14.2383 15.762C14.353 16.0265 14.3723 16.2723 14.3706 16.5565C14.3708 16.5999 14.371 16.6433 14.3713 16.688C14.3718 16.8328 14.3716 16.9776 14.3714 17.1224C14.3716 17.2264 14.3719 17.3305 14.3723 17.4345C14.373 17.6583 14.3733 17.8821 14.3733 18.1059C14.3734 18.4597 14.3745 18.8134 14.3757 19.1672C14.3786 20.0459 14.3804 20.9245 14.3817 21.8031C14.3826 22.4862 14.384 23.1694 14.3865 23.8525C14.3878 24.2043 14.3883 24.556 14.3881 24.9078C14.3882 25.1265 14.3891 25.3452 14.3901 25.5639C14.3904 25.6653 14.3904 25.7668 14.3901 25.8682C14.3898 26.0067 14.3905 26.1451 14.3915 26.2835C14.3911 26.3237 14.3908 26.3639 14.3904 26.4053C14.3936 26.6561 14.4364 26.8128 14.5898 27.012C14.8135 27.1611 14.9762 27.1777 15.2344 27.1292C15.4874 27.0257 15.7219 26.8939 15.9595 26.7593C16.0605 26.7034 16.0605 26.7034 16.1636 26.6463C19.2293 24.9426 22.084 22.8538 23.1019 19.3388C23.3715 18.3305 23.5346 17.2715 23.6133 16.2307C23.6175 16.1767 23.6218 16.1228 23.6261 16.0671C23.6392 15.8922 23.6504 15.7173 23.6609 15.5423C23.6647 15.4878 23.6686 15.4333 23.6725 15.3771C23.688 15.0674 23.6791 14.8547 23.4961 14.5901C23.3182 14.4279 23.2035 14.3923 22.9645 14.3918C22.9046 14.3912 22.8446 14.3906 22.7828 14.39C22.7174 14.3903 22.6519 14.3906 22.5845 14.3909C22.5153 14.3904 22.4461 14.39 22.3748 14.3896C22.1852 14.3886 21.9956 14.3884 21.8061 14.3885C21.6074 14.3884 21.4088 14.3872 21.2102 14.3861C20.748 14.3837 20.2858 14.3826 19.8236 14.3817C19.2357 14.3803 18.6479 14.3784 18.06 14.3754C17.8624 14.3744 17.6648 14.3737 17.4671 14.3736C17.2467 14.3734 17.0262 14.3726 16.8057 14.3716C16.7405 14.3718 16.6753 14.3719 16.6081 14.3721C15.9892 14.368 15.9892 14.368 15.7617 14.2385C15.6458 13.972 15.6278 13.7238 15.6294 13.4374C15.6292 13.3933 15.629 13.3491 15.6287 13.3037C15.6282 13.1565 15.6284 13.0093 15.6286 12.862C15.6284 12.7562 15.6281 12.6504 15.6277 12.5447C15.627 12.3171 15.6267 12.0896 15.6267 11.8621C15.6265 11.5024 15.6255 11.1427 15.6243 10.783C15.6214 9.88972 15.6196 8.99643 15.6183 8.10314C15.6174 7.40859 15.616 6.71405 15.6135 6.01951C15.6122 5.66188 15.6117 5.30426 15.6119 4.94663C15.6118 4.72428 15.6109 4.50193 15.6099 4.27958C15.6096 4.17643 15.6096 4.07328 15.6098 3.97013C15.6102 3.82937 15.6095 3.68865 15.6085 3.5479C15.6089 3.50704 15.6092 3.46619 15.6096 3.42409C15.6064 3.17164 15.562 3.01496 15.4102 2.81277C15.0515 2.54378 14.5954 2.73607 14.2216 2.87434Z" fill="#EB3135"/>
</g>
<defs>
<clipPath id="clip0_1_807">
<rect width="30" height="30" fill="white"/>
</clipPath>
</defs>
</svg>
