<svg width="31" height="26" viewBox="0 0 31 26" fill="none" xmlns="http://www.w3.org/2000/svg">
<path d="M14.0207 0.0125934C12.189 0.271675 10.9659 0.63921 9.5681 1.33813C5.84455 3.21195 3.19951 6.82103 2.54276 10.9242L2.47046 11.358L1.72334 10.8699C1.30158 10.5988 0.946095 10.406 0.921994 10.4361C0.831617 10.5325 0.01822 11.7737 0.000144528 11.84C-0.017931 11.8882 1.66309 13.033 3.00067 13.8825L3.31398 14.0813L4.83835 13.045C5.68187 12.4787 6.41092 11.9786 6.45912 11.9304C6.53142 11.8581 6.48322 11.7556 6.06748 11.1531C5.8084 10.7675 5.57342 10.4421 5.54329 10.4241C5.51919 10.406 5.25409 10.5627 4.95283 10.7675C4.65759 10.9724 4.39851 11.129 4.38646 11.117C4.33224 11.0688 4.57927 10.0565 4.8022 9.39377C5.35651 7.7248 6.46514 6.01365 7.7485 4.81465C9.33312 3.34451 11.1768 2.40458 13.364 1.95872C14.1472 1.80207 15.78 1.74181 16.6416 1.83822C20.2507 2.25395 23.444 4.35673 25.1913 7.45969L25.3841 7.80915L25.6372 7.68262C25.7758 7.61032 26.1373 7.41752 26.4446 7.25484L26.9929 6.9596L26.7519 6.52579C25.0407 3.49514 22.0643 1.21763 18.7022 0.374103C17.5153 0.072845 17.0996 0.0246437 15.6174 0.00656821C14.8401 -0.00548211 14.1231 0.000543047 14.0207 0.0125934Z" fill="#EB3135"/>
<path d="M14.4604 4.74852C12.0142 7.34537 10.5381 9.27944 9.62223 11.1171C8.98356 12.3884 8.76665 13.2621 8.82691 14.2924C8.97754 16.7506 10.5682 18.9619 12.8818 19.9259C13.4904 20.185 13.7374 20.2151 13.3759 19.9922C13.0204 19.7692 12.4059 19.0764 12.201 18.6486C11.8395 17.9195 11.731 17.0519 11.9058 16.3771C12.1829 15.3528 13.1771 13.9007 14.6713 12.3583L15.3642 11.6353L15.8884 12.1474C17.2983 13.5332 18.425 15.0877 18.7805 16.1421C18.9552 16.6663 18.9853 17.4014 18.8467 17.9135C18.6359 18.6968 18.1057 19.4861 17.5092 19.8958C17.3284 20.0223 17.2019 20.1368 17.232 20.1488C17.3224 20.179 18.0755 19.8777 18.5093 19.6367C19.7867 18.9438 20.9074 17.6966 21.4376 16.3952C21.8292 15.4432 21.9015 15.0515 21.9075 13.9851C21.9075 13.0873 21.8955 12.9849 21.7388 12.5089C21.1544 10.7496 19.7686 8.6227 17.5875 6.13431C16.8464 5.29681 15.4425 3.8327 15.3763 3.8327C15.3522 3.8327 14.9364 4.24843 14.4604 4.74852Z" fill="#EB3135"/>
<path d="M25.7698 11.123C24.9443 11.7135 24.2635 12.2377 24.2695 12.2859C24.2755 12.3763 25.2034 13.7138 25.2516 13.7138C25.2757 13.7078 25.589 13.4969 25.9505 13.2379L26.6133 12.7679L26.6314 13.1354C26.6735 13.9548 26.4265 15.4491 26.065 16.5396C24.7937 20.3716 21.4618 23.2637 17.437 24.0289C16.497 24.2097 14.4003 24.2217 13.5206 24.059C11.225 23.6252 9.29698 22.6492 7.68826 21.1067C7.34482 20.7814 6.91704 20.3295 6.74231 20.1126C6.01326 19.2208 5.34447 18.058 4.94681 17.0096C4.83836 16.7204 4.72388 16.4854 4.69375 16.4854C4.62145 16.4854 3.06696 16.9735 3.03081 17.0036C2.98261 17.0518 3.39834 18.0821 3.75985 18.8051C5.72406 22.7697 9.55606 25.4388 14.0147 25.9509C14.8944 26.0534 16.8646 25.9871 17.6961 25.8304C20.558 25.2882 22.8717 24.041 24.866 21.9623C26.2337 20.5403 27.1676 18.9738 27.7942 17.0879C28.1979 15.8588 28.451 14.4369 28.451 13.3644C28.451 13.1294 28.463 12.9306 28.4871 12.9306C28.5052 12.9306 28.8125 13.1174 29.174 13.3463L29.8307 13.762L30.2344 13.1234C30.4573 12.7679 30.6742 12.4184 30.7224 12.3522C30.8008 12.2256 30.7465 12.1835 29.1198 11.1592C28.1979 10.5747 27.4026 10.0867 27.3604 10.0746C27.3122 10.0566 26.6012 10.5326 25.7698 11.123Z" fill="#EB3135"/>
<path d="M15.0992 14.5875C14.6654 15.0875 14.081 15.919 13.8641 16.3468C13.617 16.8409 13.5809 17.1963 13.7435 17.6302C13.9183 18.0881 14.1713 18.3713 14.6051 18.5882C15.4667 19.022 16.5151 18.6846 16.9429 17.835C17.0273 17.6603 17.0996 17.3952 17.1116 17.1843C17.1357 16.865 17.1176 16.7866 16.8887 16.3408C16.6657 15.9009 16.0934 15.0815 15.5812 14.473L15.3884 14.244L15.0992 14.5875Z" fill="#EB3135"/>
</svg>
