<svg width="39" height="39" viewBox="0 0 39 39" fill="none" xmlns="http://www.w3.org/2000/svg">
<path d="M26.6227 2.46804C26.0133 2.65847 25.6173 2.93269 24.8708 3.65632C24.4518 4.06003 23.9872 4.46374 23.8425 4.53991C23.5911 4.67702 23.3169 4.68464 19.3483 4.72273C14.7628 4.76081 14.8009 4.76081 14.5571 5.18737C14.4657 5.35495 14.4657 5.42351 14.5419 5.62155C14.7475 6.10905 14.6866 6.10144 19.4778 6.07859L23.8044 6.05573L24.3223 5.81198C24.7184 5.62155 25.0384 5.3778 25.6325 4.7989C26.0819 4.36472 26.5618 3.96862 26.7522 3.88484C27.0645 3.74011 27.2626 3.73249 31.155 3.73249C33.3944 3.73249 35.3596 3.70202 35.5196 3.66394C36.1518 3.51159 36.388 2.96316 35.9842 2.5823L35.7862 2.39948L31.3606 2.38425C27.9329 2.37663 26.8589 2.39187 26.6227 2.46804Z" fill="#EB3135"/>
<path d="M17.8242 9.4834V11.8066H19.3857H20.9473V9.4834V7.16016H19.3857H17.8242V9.4834Z" fill="#EB3135"/>
<path d="M35.26 11.3497C34.8563 11.4182 34.4525 11.7 34.2393 12.0657L34.0488 12.3932V16.118V19.8428L34.6658 20.2999C35.3742 20.8178 36.1664 21.6405 36.7148 22.4174L37.0957 22.9583V17.7405V12.5227L36.9281 12.1875C36.6082 11.5629 35.9455 11.2354 35.26 11.3497Z" fill="#EB3135"/>
<path d="M2.46863 11.4563C2.16394 11.5934 1.69168 12.1494 1.63836 12.4465C1.61551 12.576 1.60027 15.5314 1.61551 19.0201L1.63836 25.35L1.87449 25.6471C2.20203 26.0508 2.62098 26.2793 3.07039 26.2793C3.72547 26.2793 4.24344 25.967 4.50242 25.4033C4.63953 25.1139 4.64715 24.7635 4.64715 18.8297C4.64715 12.0504 4.66238 12.2637 4.24344 11.8219C3.83973 11.3801 3.02469 11.2201 2.46863 11.4563Z" fill="#EB3135"/>
<path d="M13.2553 13.0712C12.9735 13.3149 12.5698 14.0919 12.3032 14.8917C11.5643 17.1768 11.5871 20.7569 12.3717 22.9964C12.6459 23.7886 13.0649 24.5046 13.3315 24.6417C13.6514 24.8093 19.6537 24.8169 19.6537 24.6493C19.6537 24.4284 20.5145 22.8364 20.9563 22.2423C22.3121 20.4065 24.3155 19.0888 26.5854 18.5251L26.852 18.4565L26.8367 17.7634C26.7987 16.0419 26.1436 13.9852 25.359 13.1626L25.0848 12.8731H19.2881H13.499L13.2553 13.0712Z" fill="#EB3135"/>
<path d="M5.71289 18.8145V24.1465H8.69121C11.502 24.1465 11.6695 24.1389 11.6162 24.0094C11.5857 23.9408 11.4639 23.6057 11.342 23.2705C10.4889 20.8406 10.4965 16.7197 11.3572 14.3736C11.4867 14.0309 11.6086 13.6881 11.6314 13.6119C11.6695 13.49 11.4943 13.4824 8.69121 13.4824H5.71289V18.8145Z" fill="#EB3135"/>
<path d="M26.9131 13.5738C27.5378 15.0059 27.812 16.0951 27.9262 17.6033L27.9796 18.2812H28.688C29.9296 18.2812 31.2245 18.525 32.3442 18.9668C32.6565 19.0963 32.9307 19.1953 32.946 19.1953C32.9688 19.1953 32.984 17.908 32.984 16.3389V13.4824H29.9296C27.5149 13.4824 26.8827 13.5053 26.9131 13.5738Z" fill="#EB3135"/>
<path d="M27.5371 19.4315C25.8613 19.6753 24.0789 20.536 22.8145 21.7243C21.451 22.9964 20.4608 24.9311 20.1942 26.843C19.699 30.3774 21.5119 33.9346 24.6807 35.6409C25.4119 36.0294 26.6764 36.4483 27.4838 36.5702C28.4588 36.7073 30.0356 36.6235 30.9496 36.3874C34.2174 35.5266 36.7158 32.8073 37.2947 29.471C37.4623 28.5112 37.4014 26.805 37.1805 25.9442C36.7615 24.3598 36.0684 23.1411 34.9258 21.9757C34.0574 21.0921 33.5166 20.7036 32.4197 20.178C30.9268 19.4696 29.1596 19.1954 27.5371 19.4315ZM29.5481 22.4784C30.7744 23.4001 31.0029 23.5981 31.0029 23.7733C31.0029 23.9409 28.5654 25.8223 28.3445 25.8223C28.1313 25.8223 28.0779 25.7005 28.0322 25.1368L27.9942 24.6417H26.5697H25.1377L24.932 24.855L24.7188 25.0606L24.6807 27.9628L24.6426 30.8649L24.4293 31.0477C24.0408 31.3829 23.3553 31.261 23.1192 30.8192C23.0049 30.6059 22.9973 30.2708 23.0201 27.6505L23.043 24.7178L23.2334 24.337C23.4695 23.8495 23.9342 23.3925 24.4141 23.1487C24.7721 22.9735 24.894 22.9659 26.3945 22.9278L27.9942 22.8897L28.0322 22.3946C28.0551 22.1204 28.1008 21.8538 28.1313 21.8005C28.2608 21.6024 28.5502 21.7395 29.5481 22.4784ZM34.1412 25.053L34.3926 25.2739V28.3132V31.3448L34.2022 31.7257C33.966 32.2132 33.4557 32.7235 32.9987 32.9292C32.6787 33.0815 32.4731 33.1044 31.041 33.1348L29.4414 33.1729L29.4033 33.6909C29.3576 34.2927 29.2053 34.4907 28.9158 34.3384C28.7102 34.2241 26.5621 32.594 26.4936 32.4874C26.3336 32.2665 26.486 32.1065 27.7047 31.1925C28.3979 30.6669 29.0072 30.2403 29.0529 30.2403C29.2738 30.2479 29.3576 30.4003 29.3957 30.903L29.4414 31.421H30.8658H32.2979L32.5035 31.2077L32.7168 31.002L32.7549 28.1151C32.793 25.053 32.793 25.0606 33.1738 24.9083C33.509 24.7635 33.8899 24.8245 34.1412 25.053Z" fill="#EB3135"/>
</svg>
