<svg width="39" height="39" viewBox="0 0 39 39" fill="none" xmlns="http://www.w3.org/2000/svg">
<path d="M3.42578 8.92732C3.05254 9.03396 2.68691 9.33103 2.51172 9.6738C2.36699 9.96325 2.35938 10.1308 2.35938 16.1103C2.35938 21.6176 2.37461 22.2726 2.48125 22.4935C2.78594 23.0877 3.23535 23.339 3.9209 23.2933C4.48457 23.2552 4.85781 23.0191 5.10156 22.5468C5.24629 22.2574 5.25391 22.0898 5.25391 16.1103C5.25391 10.6107 5.23867 9.94802 5.13203 9.72712C4.92637 9.32341 4.6293 9.06442 4.2332 8.95017C3.80664 8.82067 3.79141 8.82067 3.42578 8.92732Z" fill="#EB3135"/>
<path d="M34.542 9.04157C34.2068 9.21677 34.0469 9.37673 33.8869 9.68903C33.7498 9.96325 33.7422 10.2375 33.7422 16.1103C33.7422 22.0898 33.7498 22.2574 33.8945 22.5468C34.1383 23.0191 34.5115 23.2552 35.0752 23.2933C35.7607 23.339 36.2102 23.0877 36.5148 22.4935C36.6215 22.2726 36.6367 21.6176 36.6367 16.1103C36.6367 9.51384 36.652 9.78044 36.2635 9.33864C35.9131 8.93493 35.0295 8.78259 34.542 9.04157Z" fill="#EB3135"/>
<path d="M13.648 10.5419C13.1834 10.938 12.6197 12.3396 12.3683 13.7488C12.1703 14.8228 12.1779 17.466 12.3683 18.5476C12.635 20.0406 13.2596 21.5107 13.7242 21.7544C13.8689 21.8306 14.2193 21.8611 14.9125 21.8611H15.8951L15.9408 21.107C16.0703 19.1798 16.9006 17.3136 18.2183 15.9882C20.2902 13.9164 23.2457 13.1546 26.0564 13.9697L26.6734 14.1525L26.6201 13.8021C26.4525 12.6976 25.8432 11.2275 25.3176 10.6867L25.0053 10.3591H19.4371H13.8766L13.648 10.5419Z" fill="#EB3135"/>
<path d="M6.32031 16.1101V21.2517H9.18437C11.4467 21.2517 12.0408 21.2289 12.0027 21.1527C11.8428 20.7642 11.4924 19.5912 11.401 19.1189C10.8982 16.6585 11.1344 13.1623 11.9189 11.3875L12.1018 10.9685H9.20723H6.32031V16.1101Z" fill="#EB3135"/>
<path d="M26.9572 11.2506C27.2771 11.8904 27.6428 13.2387 27.7646 14.2594L27.818 14.6936L28.4502 15.1506C30.0879 16.3465 31.2 18.0984 31.5809 20.0941C31.6418 20.4064 31.6875 20.7873 31.6875 20.9549V21.252H32.1826H32.6777V16.1104V10.9687H29.7451H26.8125L26.9572 11.2506Z" fill="#EB3135"/>
<path d="M22.599 14.823C21.0147 15.1125 19.3846 16.0951 18.4401 17.3443C16.2768 20.1932 16.5967 24.0932 19.1789 26.5154C20.4967 27.7494 22.0049 28.3359 23.833 28.3359C25.227 28.3359 26.4305 27.9855 27.5502 27.2543C29.5154 25.9746 30.6199 23.918 30.6199 21.549C30.6199 19.7666 30.0334 18.2279 28.8756 16.9711C27.7559 15.76 26.5524 15.0973 24.9147 14.8154C24.1377 14.6783 23.3912 14.6783 22.599 14.823ZM24.8537 16.8035C26.3086 17.1311 27.4817 18.0451 28.1444 19.3553C28.51 20.0713 28.6547 20.7111 28.6547 21.5566C28.6471 22.9125 28.2129 23.9637 27.276 24.9082C26.2934 25.9061 25.1813 26.3707 23.8102 26.3707C22.66 26.3707 21.7002 26.0355 20.7709 25.3043C20.3215 24.9539 19.7502 24.2607 19.4988 23.7656C19.2475 23.2705 19.0342 22.4326 18.9885 21.7852C18.7904 18.6393 21.7688 16.1104 24.8537 16.8035Z" fill="#EB3135"/>
<path d="M23.3969 21.96L23.1009 18.4H24.9089L24.6049 21.96H23.3969ZM24.0049 24.072C23.7382 24.072 23.5195 23.9893 23.3489 23.824C23.1782 23.6587 23.0929 23.4613 23.0929 23.232C23.0929 22.9973 23.1782 22.8027 23.3489 22.648C23.5195 22.488 23.7382 22.408 24.0049 22.408C24.2715 22.408 24.4875 22.488 24.6529 22.648C24.8235 22.8027 24.9089 22.9973 24.9089 23.232C24.9089 23.4613 24.8235 23.6587 24.6529 23.824C24.4875 23.9893 24.2715 24.072 24.0049 24.072Z" fill="#EB3135"/>
<path d="M26.7734 28.8537C26.6058 28.9146 26.4611 28.9831 26.4458 28.9908C26.423 29.006 27.1695 30.8494 27.2228 30.9027C27.238 30.9179 27.4056 30.8646 27.6036 30.7808L27.954 30.6285L27.8398 30.339C27.7712 30.179 27.5884 29.7525 27.4437 29.3792C27.2913 29.0136 27.1466 28.7165 27.1238 28.7242C27.1009 28.7318 26.9409 28.7851 26.7734 28.8537Z" fill="#EB3135"/>
<path d="M28.0141 31.7483C27.6484 31.9083 27.3438 32.0682 27.3438 32.1139C27.3438 32.152 27.8389 33.4088 28.4482 34.8942C29.3699 37.1489 29.5984 37.6288 29.8193 37.8344C30.1621 38.162 30.5811 38.1848 30.8705 37.8878C31.1295 37.6364 31.1828 37.3622 31.0533 36.9432C30.84 36.2501 28.8367 31.4588 28.7529 31.4665C28.7148 31.4665 28.3797 31.596 28.0141 31.7483Z" fill="#EB3135"/>
<path d="M21.8259 2.42055C21.6061 2.4668 21.3839 2.59632 21.1874 2.7906C21.0752 2.90162 20.984 2.97563 20.9535 2.97563C20.9278 2.97563 20.874 2.94094 20.8319 2.89699C20.4413 2.48531 19.8239 2.48299 19.4403 2.89468C19.3889 2.94788 19.3257 3.03577 19.3 3.08896C19.2368 3.20923 19.1714 3.22773 19.038 3.15835C18.886 3.07971 18.6498 3.08202 18.4884 3.16529C18.2428 3.29249 18.1119 3.51453 18.1353 3.76894C18.1423 3.84758 18.1563 3.93547 18.1633 3.96091C18.175 4.00023 18.1516 4.04186 18.0581 4.14363C17.9903 4.21764 17.9084 4.33559 17.8733 4.40729C17.8219 4.51831 17.8125 4.56688 17.8125 4.75654C17.8125 4.95775 17.8195 4.99013 17.8873 5.12891C17.9832 5.31856 18.1493 5.47815 18.3504 5.56835C18.4323 5.60304 18.5025 5.64699 18.5095 5.66318C18.5141 5.67937 18.5141 5.78576 18.5071 5.9014C18.4814 6.37785 18.7246 6.8358 19.1339 7.07402C19.2673 7.15266 19.5643 7.25211 19.59 7.22667C19.597 7.22205 19.5877 7.13184 19.5736 7.02777C19.5479 6.85893 19.5502 6.83349 19.583 6.80111C19.6298 6.75485 19.735 6.75254 19.7795 6.79648C19.8028 6.8173 19.8824 7.22898 20.011 7.97373C20.1209 8.60282 20.2098 9.12553 20.2098 9.13941C20.2121 9.1926 20.2776 9.02839 20.7618 7.74938C21.0401 7.01389 21.2763 6.39173 21.288 6.37091C21.3371 6.2784 21.5055 6.30153 21.5312 6.40561C21.5406 6.43567 21.5055 6.55825 21.4494 6.7109C21.3371 7.00232 21.3371 7.00232 21.564 7.04858C21.9335 7.12491 22.3241 6.95607 22.5393 6.62995C22.5954 6.54206 22.6609 6.46574 22.6843 6.45649C22.71 6.44955 22.7755 6.46574 22.834 6.49118C22.9953 6.56057 23.1287 6.57213 23.2807 6.52819C23.4514 6.47962 23.5964 6.36629 23.6759 6.2252C23.7555 6.07949 23.7742 5.94997 23.7391 5.77882L23.7087 5.64005L23.828 5.51284C23.8911 5.44114 23.9683 5.33706 23.9964 5.27924C24.146 4.96007 24.0665 4.50443 23.8139 4.26158C23.7625 4.21301 23.6455 4.13438 23.5496 4.08812L23.3789 4.00486L23.3742 3.73888C23.3672 3.41739 23.3415 3.29018 23.2292 3.07971C23.0211 2.6819 22.6071 2.42748 22.1393 2.40898C22.0247 2.40435 21.8821 2.40898 21.8259 2.42055ZM22.3662 3.27862C22.427 3.31794 22.5042 3.3827 22.5369 3.4197C22.7685 3.69031 22.8012 4.17832 22.5907 4.17832C22.4972 4.17832 22.4551 4.11356 22.4551 3.96554C22.4551 3.73194 22.3592 3.57698 22.1463 3.47058C22.0154 3.40351 21.9896 3.31794 22.0762 3.22311C22.1276 3.1676 22.2165 3.18379 22.3662 3.27862ZM20.4951 3.32256C20.708 3.3827 20.6542 3.62786 20.4367 3.58854C20.3571 3.57235 20.2098 3.62323 20.2098 3.66486C20.2098 3.70418 20.1116 3.78513 20.0648 3.78513C19.9923 3.78513 19.9291 3.71806 19.9291 3.64174C19.9291 3.5446 20.0929 3.37807 20.2308 3.33644C20.3642 3.29481 20.3875 3.29481 20.4951 3.32256ZM21.4353 3.5099C21.5242 3.57929 21.5078 3.7065 21.4026 3.762C21.3535 3.78745 21.2412 3.75738 21.2108 3.70881C21.1781 3.65793 21.1921 3.55385 21.2389 3.50759C21.2997 3.44746 21.3582 3.44977 21.4353 3.5099ZM18.9351 4.20145C19.0685 4.34716 18.8626 4.54375 18.7176 4.40961C18.6568 4.3541 18.6521 4.27777 18.7036 4.20607C18.7504 4.139 18.8767 4.13669 18.9351 4.20145ZM20.6027 4.49518C20.6752 4.59232 20.6051 4.73341 20.4834 4.73341C20.3525 4.73341 20.2776 4.59464 20.3571 4.49749C20.4156 4.42348 20.5443 4.42348 20.6027 4.49518ZM22.0762 4.56226C22.1393 4.60389 22.1463 4.72184 22.0879 4.78429C22.0388 4.8398 21.9288 4.83749 21.8704 4.77966C21.7347 4.64552 21.9171 4.45124 22.0762 4.56226ZM23.2222 4.90918C23.3204 4.97626 23.2783 5.11734 23.1099 5.27693C22.9766 5.40414 22.9603 5.45271 23.0047 5.60304C23.0468 5.74875 23.0328 5.83202 22.9556 5.88059C22.9088 5.91065 22.8924 5.91297 22.8363 5.88521C22.7638 5.85052 22.7428 5.78113 22.7194 5.51747C22.7053 5.33938 22.7498 5.22605 22.8807 5.11272C22.9228 5.07571 22.9883 5.00632 23.0234 4.95775C23.0959 4.86524 23.1427 4.85368 23.2222 4.90918ZM19.569 5.5776C19.6157 5.62617 19.6251 5.6493 19.6111 5.71406C19.576 5.90834 19.728 6.16276 19.9338 6.24833C20.0391 6.28996 20.0695 6.37091 20.0133 6.45649C19.9642 6.5305 19.8987 6.5305 19.749 6.45418C19.5128 6.33853 19.3678 6.11881 19.3491 5.85052C19.3351 5.64699 19.3538 5.57066 19.4216 5.54291C19.4988 5.51284 19.5058 5.51515 19.569 5.5776ZM20.6635 5.70712C20.8179 5.82739 20.6518 6.05868 20.4928 5.94072C20.3946 5.86902 20.3969 5.73488 20.4951 5.68631C20.5723 5.65161 20.5934 5.65393 20.6635 5.70712Z" fill="#EB3135"/>
</svg>
