<svg width="32" height="32" viewBox="0 0 32 32" fill="none" xmlns="http://www.w3.org/2000/svg">
<path d="M10.5545 0.125009C10.4358 0.243759 10.4295 0.331259 10.4295 1.56251C10.4295 3.13751 10.4233 3.12501 11.0858 3.12501H11.492V3.75001V4.37501H9.8045H8.117V12.9375V21.5H8.39825H8.6795L8.667 23.1063L8.64825 24.7188L5.64825 24.75L2.64825 24.7813L2.3545 24.9563C2.192 25.05 1.98575 25.2188 1.9045 25.3313C1.5795 25.7563 1.5545 25.9 1.5545 27.2625C1.5545 27.9625 1.58575 28.6375 1.617 28.7625C1.717 29.1188 2.04825 29.5063 2.42325 29.7C2.72325 29.8563 2.817 29.875 3.4045 29.875H4.0545V30.6375C4.0545 31.3 4.07325 31.4375 4.1795 31.6125C4.4045 31.9813 4.517 32 6.72325 32C8.5295 32 8.7295 31.9875 8.92325 31.8875C9.28575 31.6938 9.367 31.4563 9.367 30.6125V29.875H15.8045H22.242V30.6125C22.242 31.4563 22.3232 31.6938 22.6857 31.8875C22.8795 31.9875 23.0795 32 24.8857 32C27.092 32 27.2045 31.9813 27.4295 31.6125C27.5357 31.4375 27.5545 31.3 27.5545 30.6375V29.875H28.2045C28.792 29.875 28.8857 29.8563 29.1857 29.7C29.5607 29.5063 29.892 29.1188 29.992 28.7625C30.0732 28.4625 30.0732 26.1625 29.992 25.8625C29.8982 25.5313 29.567 25.1188 29.242 24.9375L28.9607 24.7813L25.9607 24.75L22.9607 24.7188L22.942 23.1063L22.9295 21.5H23.2107H23.492V12.9375V4.37501H21.8045H20.117V3.75001V3.12501H20.5232C21.1857 3.12501 21.1795 3.13751 21.1795 1.56251C21.1795 0.331259 21.1732 0.243759 21.0545 0.125009C20.9295 9.05991e-06 20.8482 9.05991e-06 15.8045 9.05991e-06C10.7608 9.05991e-06 10.6795 9.05991e-06 10.5545 0.125009ZM18.742 3.75001V4.37501H15.8045H12.867V3.75001V3.12501H15.8045H18.742V3.75001ZM20.1545 9.21251L20.367 9.42501V12.9375V16.45L20.1857 16.6313L20.0045 16.8125H15.8045H11.6045L11.4233 16.6313L11.242 16.45V12.9375V9.42501L11.4545 9.21251L11.667 9.00001H15.8045H19.942L20.1545 9.21251ZM21.5545 23.125V24.75H15.8045H10.0545V23.125V21.5H15.8045H21.5545V23.125Z" fill="#EB3135"/>
<path d="M11.992 12.9063V16.0625H15.8045H19.617V12.9063V9.75H15.8045H11.992V12.9063ZM16.0608 10.4938C16.0795 10.5125 16.3545 10.8563 16.6608 11.2563C17.3483 12.1438 17.5858 12.55 17.7108 13.05C17.9358 13.9188 17.4858 14.8375 16.642 15.2563C16.392 15.3813 16.242 15.4063 15.8045 15.4063C15.367 15.4063 15.217 15.3813 14.967 15.2563C14.1233 14.8375 13.6733 13.9188 13.8983 13.05C13.9483 12.8375 14.0795 12.5125 14.1858 12.3313C14.442 11.8875 15.5358 10.4813 15.667 10.425C15.7733 10.3813 15.992 10.4188 16.0608 10.4938Z" fill="#EB3135"/>
<path d="M15.342 11.9751C14.6232 12.9188 14.4357 13.5251 14.6982 14.0438C15.0482 14.7126 16.0295 14.8938 16.617 14.3938C17.0482 14.0313 17.1357 13.4563 16.8482 12.8688C16.6732 12.5063 15.892 11.4376 15.8045 11.4376C15.7795 11.4376 15.5732 11.6813 15.342 11.9751Z" fill="#EB3135"/>
<path d="M5.367 2.43127C4.93575 2.56252 4.61075 2.83752 4.392 3.25002C4.2795 3.46252 4.27325 3.81877 4.27325 12.9063V22.3438L4.442 22.6375C4.917 23.4313 5.79825 23.6938 6.62325 23.275C6.78575 23.1938 7.0045 23.025 7.11075 22.8938C7.51075 22.4063 7.492 22.9438 7.492 12.9063C7.492 2.63752 7.52325 3.34377 7.0295 2.85002C6.6295 2.44377 5.91075 2.26877 5.367 2.43127Z" fill="#EB3135"/>
<path d="M25.1545 2.46877C24.792 2.60627 24.517 2.84377 24.3233 3.17502L24.1483 3.46877L24.1295 12.7438C24.1108 22.9563 24.092 22.4063 24.4983 22.8938C24.6045 23.025 24.8233 23.1938 24.9858 23.275C25.8108 23.6938 26.692 23.4313 27.167 22.6375L27.3358 22.3438V12.9063C27.3358 3.81877 27.3295 3.46252 27.217 3.25002C27.0545 2.93752 26.8108 2.69377 26.5233 2.55002C26.1983 2.38127 25.492 2.33752 25.1545 2.46877Z" fill="#EB3135"/>
<path d="M2.97951 4.74376C1.41701 5.41251 0.292008 6.86251 0.0545085 8.53125C0.00450849 8.88125 -0.0079915 10.2938 0.0045085 13.2188C0.0295085 17.8188 0.0232585 17.6875 0.429508 18.6C0.942008 19.7375 1.98576 20.7188 3.14201 21.1563C3.37326 21.2438 3.57326 21.3125 3.58576 21.3125C3.60451 21.3125 3.61701 17.5438 3.61701 12.9375C3.61701 5.00001 3.61076 4.56251 3.51076 4.56251C3.44826 4.56251 3.21076 4.64376 2.97951 4.74376Z" fill="#EB3135"/>
<path d="M27.992 12.9375C27.992 17.5438 28.0045 21.3125 28.0233 21.3125C28.0358 21.3125 28.2358 21.2438 28.467 21.1563C29.6295 20.7188 30.667 19.7438 31.1795 18.6C31.5858 17.6875 31.5795 17.8188 31.6045 13.2188C31.617 10.2938 31.6045 8.88125 31.5545 8.53125C31.367 7.24376 30.6295 6.01876 29.5733 5.26876C29.167 4.98126 28.3045 4.56251 28.1045 4.56251C27.9983 4.56251 27.992 5.00001 27.992 12.9375Z" fill="#EB3135"/>
</svg>
