<svg width="31" height="41" viewBox="0 0 31 41" fill="none" xmlns="http://www.w3.org/2000/svg">
<path d="M13.6689 28.666L23 28.7578V30.2578L22.5 31.1807L22 31.7578L21 33.2578L20.1367 35.2822L19.5 36.7578L18.9805 36.8672V39.9922H16.6377V36.8672H10.7012V39.9922H8.35742V36.8672L7.20996 36.8594H6.05371L3.0459 35.2822L0.0390625 33.7041L0.015625 31.1807L0 28.666H13.6689ZM27.3379 26.3232H0V0H27.3379V26.3232ZM9.5293 23.9795H17.8086V21.6367H9.5293V23.9795ZM13.6533 5.2334C13.5663 5.23444 12.6763 5.9682 12.2002 6.43652C10.6539 7.94394 9.93563 9.70163 10.2324 11.2559C10.5841 13.0834 12.357 14.3563 14.1846 14.0674C15.9107 13.8018 17.1913 12.2867 17.1836 10.5137C17.1758 9.62323 16.7313 8.41973 16.0596 7.47461C15.6611 6.91219 14.5985 5.86611 14.0439 5.4834C13.8409 5.3428 13.6689 5.2334 13.6533 5.2334ZM13.6689 8.2793C13.7866 8.28039 14.3488 9.06879 14.5674 9.55273C14.8719 10.2088 14.9111 10.756 14.6768 11.1621C14.4893 11.4979 14.0204 11.7948 13.6689 11.7949C13.3175 11.7949 12.8487 11.4979 12.6611 11.1621C12.5049 10.8966 12.4815 10.7635 12.5205 10.4199C12.5752 9.9044 12.8643 9.24794 13.2861 8.69336C13.4579 8.46693 13.6299 8.2793 13.6689 8.2793Z" fill="#EB3135"/>
<path d="M24.5341 28.2828C24.2339 28.3461 24.0204 28.447 23.8069 28.6253C23.6075 28.7895 23.5254 28.9256 23.5254 29.0827C23.5254 29.1883 23.5488 29.2517 23.6966 29.5425C23.8257 29.8006 24.0837 30.2369 24.1471 30.3073C24.1518 30.312 24.2362 30.2768 24.3394 30.2299C24.6045 30.1056 24.8391 30.0211 25.1324 29.946C25.3716 29.8827 25.4209 29.878 25.8361 29.878C26.1833 29.878 26.3241 29.8874 26.4695 29.9202C26.7487 29.9836 27.0748 30.0938 27.3235 30.2088C27.4454 30.2651 27.5487 30.312 27.5534 30.312C27.5792 30.312 27.8536 29.8499 28.0132 29.5379C28.1868 29.1977 28.1985 29.1672 28.1891 29.0522C28.1703 28.8388 28.0132 28.6933 27.795 28.6933C27.6636 28.6933 27.5768 28.7426 27.4642 28.888C27.2765 29.1297 27.0677 29.2282 26.8003 29.2C26.5681 29.1766 26.4132 29.0827 26.1059 28.7825C25.8174 28.4986 25.6438 28.3907 25.3435 28.3062C25.1488 28.2546 24.7265 28.2406 24.5341 28.2828Z" fill="#EB3135"/>
<path d="M25.3891 30.6874C23.6367 31.0557 21.6919 33.3055 21.143 35.5998C20.9412 36.442 20.953 37.2209 21.1782 37.8918C21.326 38.3352 21.5465 38.6847 21.8914 39.0296C22.269 39.4049 22.7453 39.6888 23.3364 39.8952C24.3616 40.2518 25.8771 40.355 27.219 40.1627C29.7807 39.7967 31.017 38.2484 30.6182 35.9071C30.3954 34.5887 29.5907 33.1014 28.5233 32.027C27.4582 30.9572 26.3533 30.4857 25.3891 30.6874ZM26.0202 32.7378C26.1539 32.7941 26.229 32.9184 26.2431 33.1084L26.2571 33.2727L26.3908 33.3266C26.914 33.5401 27.2776 34.0632 27.2776 34.6051C27.2776 34.7999 27.2307 34.9007 27.1064 34.9758C26.9984 35.0415 26.914 35.0556 26.8108 35.0274C26.6207 34.9758 26.5339 34.8562 26.5011 34.6005C26.48 34.4222 26.4425 34.3401 26.3345 34.2157C26.0906 33.9389 25.6261 33.9389 25.3821 34.2157C25.2718 34.3424 25.232 34.4339 25.2202 34.5934C25.2085 34.7201 25.2155 34.7436 25.2765 34.828C25.3657 34.95 25.612 35.1166 26.0343 35.3441C26.7193 35.7077 27.0313 35.9658 27.1885 36.2919C27.2542 36.4279 27.2659 36.4772 27.2729 36.6836C27.287 37.052 27.1932 37.3452 26.9609 37.6361C26.8342 37.7956 26.5715 37.988 26.3815 38.056L26.2454 38.1076V38.2484C26.2454 38.5979 25.9287 38.7903 25.6472 38.6167C25.5322 38.5463 25.4712 38.4173 25.4712 38.246V38.1076L25.3352 38.056C24.8238 37.8707 24.439 37.3217 24.439 36.7798C24.439 36.5992 24.4719 36.5171 24.5798 36.4279C24.7299 36.2989 24.9364 36.3153 25.0865 36.4678C25.1686 36.5476 25.1874 36.5851 25.1991 36.6813C25.2226 36.8807 25.2578 36.9956 25.3211 37.0918C25.5932 37.5024 26.2313 37.4555 26.4425 37.0097C26.4941 36.9042 26.5152 36.747 26.4941 36.6578C26.4565 36.5053 26.2196 36.3271 25.6355 36.0127C24.9763 35.6585 24.7018 35.4309 24.5423 35.1095C24.4578 34.9406 24.4508 34.9078 24.4437 34.6896C24.4367 34.5207 24.4461 34.4104 24.4742 34.3002C24.5845 33.8685 24.9129 33.4932 25.3258 33.3266L25.4595 33.2727L25.4736 33.1084C25.483 32.9771 25.4994 32.9278 25.551 32.8574C25.6613 32.7143 25.8489 32.6651 26.0202 32.7378Z" fill="#EB3135"/>
</svg>
